<svg width="96" height="96" viewBox="0 0 96 96" fill="none" xmlns="http://www.w3.org/2000/svg">
<path d="M31.3994 64.0979C31.0233 62.3389 31.1 59.6001 30.4987 55.7555C30.2736 53.6699 28.8435 49.046 28.4675 47.287C28.418 45.6789 28.7198 45.0258 29.65 43.8704C30.882 42.0619 33.596 41.3345 35.882 42.3908C37.5149 43.1454 38.5441 45.2062 39.3976 46.7896C39.749 47.7446 40.125 49.5036 40.4764 50.4585C40.8277 51.4135 40.6768 51.7401 41.0281 52.695C41.2285 53.9766 41.2533 54.7806 41.5303 53.3234C41.9583 51.5397 42.839 48.7762 43.3932 45.8618C43.9721 43.7514 43.7964 43.274 44.0735 41.8168C44.5014 40.033 44.6276 38.9024 45.0556 37.1186C45.1818 35.988 46.0625 33.2245 46.3395 31.7673C46.7675 29.9835 48.1257 27.0444 50.0356 26.3417C51.4681 25.8147 53.5784 26.3936 54.5829 27.6504C55.763 29.3847 55.6864 32.1234 55.5602 33.254C55.4588 35.1887 55.0556 37.7765 54.1749 40.54C53.3189 44.1076 52.0349 49.4589 51.5822 50.4386C52.1859 49.1323 52.9157 46.6954 53.8459 45.54C54.6252 44.7112 55.882 43.7067 57.3392 43.9838C58.4698 44.11 59.4495 44.5627 60.4292 45.0154C61.258 45.7947 61.9359 46.9006 62.2872 47.8556C62.6881 50.4187 60.7262 54.6641 60.8771 54.3375C61.8074 53.1822 63.0146 50.5696 64.2714 49.5651C64.8998 49.0629 66.5079 49.0134 67.312 48.9886C68.4426 49.1148 69.7489 49.7184 70.5777 50.4977C71.2308 50.7996 72.0844 52.3829 72.1092 53.187C72.3096 54.4685 71.127 57.8851 70.85 59.3423C70.699 59.6689 71.7802 58.187 72.8861 57.5091C75.0978 56.1533 79.9716 57.6129 78.1854 62.3358C77.1291 64.6218 77.28 64.2952 76.5254 65.9281C75.7709 67.5609 75.3181 68.5407 74.7145 69.8469C74.1109 71.1532 72.4261 73.9415 71.4959 75.0968C70.7166 75.9256 68.6805 77.7589 67.0971 78.6125C67.0971 78.6125 61.6939 80.8713 60.4619 82.6798C59.2298 84.4884 59.2298 84.4884 58.6262 85.7947C58.0226 87.1009 57.5946 88.8847 57.5946 88.8847C57.5946 88.8847 54.8311 88.004 53.6757 87.0738C52.5203 86.1436 51.9438 83.103 52.07 81.9724C51.8696 80.6908 50.8899 80.2381 49.784 80.916C48.5272 81.9205 45.838 83.4519 44.5317 82.8483C42.0948 82.1185 37.6737 79.6792 34.408 78.1701C34.408 78.1701 36.5702 75.2062 35.8676 73.2962C35.3406 71.8638 34.4623 69.4764 33.9353 68.0439L31.3994 64.0979Z" fill="white" stroke="black" stroke-width="2.69816" stroke-linecap="round" stroke-linejoin="round"/>
<path d="M59.0811 74.2797L64.0352 63.5591" stroke="black" stroke-width="2.69816" stroke-linecap="round"/>
<path d="M52.7734 71.366L57.4121 60.4998" stroke="black" stroke-width="2.69816" stroke-linecap="round"/>
<path d="M51.4199 57.7289L46.4659 68.4495" stroke="black" stroke-width="2.69816" stroke-linecap="round"/>
<path d="M75.7159 31.8082C76.2411 32.596 77.3054 32.8088 78.0932 32.2837C78.881 31.7585 79.0938 30.6942 78.5687 29.9064L75.7159 31.8082ZM14.59 20.3161C14.4489 21.2523 15.0935 22.1256 16.0297 22.2666L31.2861 24.5655C32.2223 24.7066 33.0956 24.062 33.2366 23.1258C33.3777 22.1896 32.7331 21.3163 31.7969 21.1752L18.2357 19.1318L20.2792 5.57059C20.4203 4.63438 19.7757 3.76108 18.8395 3.62001C17.9033 3.47893 17.03 4.12352 16.8889 5.05972L14.59 20.3161ZM78.5687 29.9064C75.1596 24.7927 68.713 15.1749 58.3682 10.3399C47.8098 5.40499 33.6435 5.62867 15.2671 19.1922L17.3032 21.9508C34.9268 8.94285 47.7605 9.16649 56.9164 13.4459C66.2859 17.8251 72.2679 26.6361 75.7159 31.8082L78.5687 29.9064Z" fill="white"/>
</svg>
