<svg width="65" height="65" viewBox="0 0 65 65" fill="none" xmlns="http://www.w3.org/2000/svg">
<path d="M26.9126 43.1084L24.7446 50.6978L22.5766 43.1084C22.0163 41.148 20.9657 39.3628 19.524 37.9211C18.0823 36.4794 16.297 35.4288 14.3366 34.8684L6.74463 32.6978L14.334 30.5298C16.2943 29.9694 18.0796 28.9188 19.5213 27.4771C20.963 26.0354 22.0136 24.2501 22.574 22.2898L24.7446 14.6978L26.9126 22.2871C27.473 24.2475 28.5236 26.0327 29.9653 27.4744C31.407 28.9162 33.1923 29.9667 35.1526 30.5271L42.7446 32.6978L35.1553 34.8658C33.1949 35.4261 31.4096 36.4767 29.9679 37.9184C28.5262 39.3601 27.4756 41.1454 26.9153 43.1058L26.9126 43.1084ZM49.4353 23.9378L48.7446 26.6978L48.054 23.9378C47.6586 22.3553 46.8407 20.9101 45.6876 19.7565C44.5345 18.6029 43.0896 17.7844 41.5073 17.3884L38.7446 16.6978L41.5073 16.0071C43.0896 15.6111 44.5345 14.7926 45.6876 13.639C46.8407 12.4854 47.6586 11.0402 48.054 9.45775L48.7446 6.69775L49.4353 9.45775C49.8309 11.0405 50.6492 12.486 51.8028 13.6396C52.9564 14.7932 54.4019 15.6115 55.9846 16.0071L58.7446 16.6978L55.9846 17.3884C54.4019 17.784 52.9564 18.6023 51.8028 19.7559C50.6492 20.9095 49.8309 22.355 49.4353 23.9378ZM45.7953 55.5431L44.7446 58.6978L43.694 55.5431C43.3994 54.6594 42.9032 53.8565 42.2445 53.1979C41.5859 52.5392 40.7829 52.043 39.8993 51.7484L36.7446 50.6978L39.8993 49.6471C40.7829 49.3525 41.5859 48.8563 42.2445 48.1976C42.9032 47.539 43.3994 46.7361 43.694 45.8524L44.7446 42.6978L45.7953 45.8524C46.0899 46.7361 46.5861 47.539 47.2447 48.1976C47.9034 48.8563 48.7063 49.3525 49.59 49.6471L52.7446 50.6978L49.59 51.7484C48.7063 52.043 47.9034 52.5392 47.2447 53.1979C46.5861 53.8565 46.0899 54.6594 45.7953 55.5431Z" stroke="#200AAE" stroke-width="4" stroke-linecap="round" stroke-linejoin="round"/>
</svg>
