<svg width="40" height="40" viewBox="0 0 40 40" fill="none" xmlns="http://www.w3.org/2000/svg">
<path d="M34.1889 9.62733C34.7302 8.73228 36.5416 5.52141 34.5847 5.05214C33.8293 4.87094 33.0141 5.01412 32.2729 5.19157C31.5037 5.37594 30.7838 5.62109 30.0613 5.91838C28.3222 6.63453 26.6742 7.52929 25.0667 8.50183C21.7481 10.5103 18.6372 12.8644 15.7 15.3937C15.179 15.8425 14.6568 16.2899 14.1335 16.7358C13.9653 16.8793 13.804 17.0043 13.6495 17.1109C13.6127 17.1365 13.5683 17.1557 13.5165 17.1685C13.3197 17.2169 13.182 17.0219 13.2543 16.8493C13.3191 16.6938 13.4683 16.552 13.5847 16.423C13.6479 16.3529 13.7151 16.2823 13.7864 16.2113C14.1858 15.8126 14.5954 15.4244 15.015 15.0469C16.9587 13.2973 19.0271 11.6449 21.2201 10.0897C23.5503 8.4373 25.9065 6.94709 28.4453 5.72508C29.461 5.23612 30.4919 4.82543 31.538 4.49299C31.7813 4.41559 32.05 4.343 32.344 4.27521C32.9478 4.13607 33.5977 4.05627 34.2174 4.09833C35.0646 4.15594 35.8761 4.57019 36.1679 5.40532C36.3739 5.9953 36.2849 6.73104 36.1086 7.3576C35.9089 8.06712 35.616 8.72451 35.2605 9.36864C34.8568 10.1002 34.4181 10.8101 33.9443 11.4984C33.8083 11.696 33.6588 11.8828 33.4958 12.0587C33.3532 12.2128 33.1008 12.2871 32.9283 12.1474C32.6298 11.906 32.9046 11.5203 33.0726 11.2832C33.4935 10.6897 33.8386 10.2072 34.1889 9.62733Z" fill="white"/>
<path d="M13.5604 7.50816C13.694 7.73582 13.9517 7.83272 14.136 7.7246C14.3202 7.61647 14.3614 7.34427 14.2278 7.11661C14.0942 6.88896 13.8366 6.79206 13.6523 6.90018C13.468 7.0083 13.4269 7.28051 13.5604 7.50816Z" fill="white"/>
<path d="M32.0286 9.93558C31.7437 10.8001 31.3271 11.6084 30.8486 12.3805C30.7999 12.4594 30.7127 12.5874 30.5871 12.7645C30.4762 12.9206 30.2904 13.0522 30.0953 13.007C29.8845 12.9583 29.7626 12.7227 29.8243 12.521C29.8483 12.4423 29.8926 12.3497 29.9573 12.2433C30.1121 11.9887 30.2682 11.7349 30.4255 11.482C30.677 11.0778 30.8806 10.7082 31.0756 10.302C31.273 9.89121 31.5893 9.13214 31.438 8.64645C31.2272 7.96947 29.5414 8.63665 29.075 8.81814C28.4971 9.04284 27.846 9.35953 27.1216 9.76821C26.3643 10.1951 25.561 10.6959 24.7115 11.2705C23.1206 12.3466 21.5608 13.4968 20.0321 14.7213C18.9993 15.5484 18.1394 16.2752 17.1148 17.0605C16.9946 17.1527 16.6939 17.3811 16.5406 17.3489C16.4283 17.3252 16.3778 17.2474 16.3891 17.1152C16.3922 17.0789 16.4303 17.0129 16.5035 16.917C16.5901 16.803 16.7283 16.6531 16.918 16.4674C17.5057 15.892 18.1139 15.3394 18.7427 14.8095C19.9494 13.7923 21.1777 12.8088 22.4481 11.8717C24.1449 10.6198 25.9232 9.45507 27.8066 8.50126C28.5804 8.10977 29.4019 7.75227 30.2633 7.61457C30.8121 7.52671 31.4971 7.55638 31.8995 7.99828C32.3705 8.51509 32.2288 9.32803 32.0286 9.93558Z" fill="white"/>
<path d="M18.2917 9.40693C18.3963 9.59784 18.6133 9.68014 18.7766 9.59075C18.9399 9.50135 18.9875 9.27413 18.883 9.08322C18.7785 8.89231 18.5614 8.81001 18.3981 8.89941C18.2348 8.9888 18.1872 9.21603 18.2917 9.40693Z" fill="white"/>
<path d="M9.60265 12.2932C9.68591 12.1978 9.75793 12.129 9.86682 12.0195C10.137 11.7473 10.644 11.4676 10.9577 11.8132C11.0311 11.8939 11.0703 11.9895 11.0753 12.1002C11.0937 12.5078 10.6795 12.8627 10.4093 13.1084C10.4018 13.1153 10.4012 13.1226 10.4075 13.1303C10.5596 13.3139 10.6915 13.5101 10.8031 13.7188C10.9837 14.057 10.6714 14.4071 10.3208 14.2261C10.0798 14.1017 9.86499 13.944 9.6764 13.7531C9.67271 13.7494 9.66775 13.7472 9.66251 13.747C9.65728 13.7468 9.65215 13.7486 9.64817 13.752C9.50068 13.881 9.35021 14.0081 9.19676 14.1331C9.06886 14.2377 8.87153 14.3719 8.70099 14.3077C8.41752 14.2008 8.44287 13.8839 8.5486 13.6627C8.6644 13.4201 8.81045 13.1972 8.98675 12.9941C9.02248 12.9529 9.00922 12.9212 8.97638 12.8811C8.8191 12.6887 8.43538 12.2021 8.58028 11.9501C8.81074 11.5499 9.4036 12.1301 9.5894 12.294C9.59035 12.2948 9.59145 12.2955 9.59264 12.2959C9.59382 12.2963 9.59506 12.2964 9.59629 12.2964C9.59753 12.2963 9.59872 12.296 9.59981 12.2954C9.6009 12.2949 9.60187 12.2941 9.60265 12.2932Z" fill="white"/>
<path d="M25.2546 22.3994C25.169 22.3714 25.0829 22.3455 25.0022 22.3072C24.5417 22.0883 24.0794 21.8733 23.6154 21.6622C23.5423 21.6288 23.4677 21.5991 23.3916 21.5732C23.0046 21.4418 22.5802 21.2771 22.1183 21.0789C21.7127 20.9046 21.3008 20.7896 20.7837 20.6565C20.4659 20.575 20.0845 20.3832 20.211 19.9735C20.2686 19.7868 20.404 19.688 20.5722 19.5526C20.6556 19.4854 20.8731 19.3383 21.2247 19.1113C21.4807 18.946 21.7331 18.7751 21.9818 18.5988C22.7784 18.0346 23.511 17.5337 24.1795 17.0962C24.2365 17.0588 24.2503 17.0337 24.2506 16.9617C24.2547 16.0528 24.2573 15.1437 24.263 14.2345C24.2653 13.8865 24.227 13.6189 24.1521 13.2957C24.1028 13.0828 24.172 12.8296 24.2146 12.6155C24.3301 12.0368 24.8124 11.5742 25.4323 11.8043C25.798 11.9399 26.1396 12.1323 26.4573 12.3816C27.2241 12.9831 27.9328 13.6494 28.7109 14.2374C28.8713 14.3587 29.0283 14.5056 29.2409 14.465C29.4086 14.4331 29.5737 14.3923 29.7364 14.3425C29.964 14.2731 30.2181 14.1069 30.418 14.0504C30.7664 13.9523 30.9879 13.8858 31.0826 13.8511C31.5907 13.6646 32.0526 13.5166 32.4682 13.4072C32.9153 13.2893 33.1829 13.2162 33.549 13.4501C33.704 13.5494 33.8318 13.6493 33.9325 13.75C34.1707 13.9888 34.1638 14.3379 34.1572 14.656C34.1459 15.1722 33.9109 15.6124 33.7176 16.0926C33.5946 16.3977 33.4174 16.7468 33.3183 16.992C33.1645 17.3734 33.0991 17.6197 33.0273 17.9512C32.996 18.0964 33.008 18.2137 33.0683 18.3574C33.1452 18.5409 33.2604 18.7521 33.3307 18.8898C33.4309 19.0863 33.5249 19.268 33.6611 19.4486C34.4069 20.439 34.9943 21.2261 35.5442 22.1954C35.6713 22.419 35.8415 22.7759 35.8067 22.9977C35.764 23.2702 35.5203 23.4509 35.2544 23.4846C34.899 23.5295 34.5458 23.5237 34.1886 23.5292C34.0092 23.5319 33.8173 23.5272 33.6127 23.5151C33.1495 23.488 32.6851 23.4745 32.2228 23.4255C31.7653 23.3774 31.3116 23.3316 30.8515 23.3117C30.4935 23.2962 30.3805 23.4604 30.1605 23.6992C30.0183 23.8538 29.8755 24.0077 29.7321 24.161C29.6485 24.2503 29.5151 24.4408 29.3317 24.7325C29.1361 25.0436 28.8339 25.4077 28.6 25.7333C28.3272 26.1129 28.0284 26.4802 27.7332 26.8501C27.6142 26.9991 27.4554 27.161 27.2711 27.2033C26.8102 27.3093 26.5716 26.8256 26.4671 26.4702C26.3461 26.0588 26.2366 25.6535 26.0888 25.2427C25.8235 24.5064 25.581 23.7637 25.3923 23.0035C25.3443 22.8107 25.3043 22.6161 25.2724 22.4198C25.2716 22.4151 25.2695 22.4107 25.2664 22.4071C25.2632 22.4035 25.2592 22.4009 25.2546 22.3994ZM25.1085 16.9937C25.1056 17.1685 25.0567 17.3561 24.9351 17.4699C24.8074 17.5899 24.6199 17.7316 24.3728 17.8951C24.2581 17.9709 24.0347 18.1382 23.7024 18.3969C23.1562 18.8219 22.5983 19.2308 22.0287 19.6235C21.8225 19.7658 21.6171 19.9378 21.4001 20.0611C21.3986 20.062 21.3973 20.0634 21.3964 20.0651C21.3956 20.0667 21.3953 20.0686 21.3955 20.0704C21.3957 20.0722 21.3965 20.074 21.3977 20.0754C21.3988 20.0768 21.4004 20.0778 21.4022 20.0784C21.8107 20.2043 22.2142 20.3261 22.6222 20.4889C22.9773 20.6306 23.3017 20.7401 23.6439 20.8611C24.038 21.0005 24.4318 21.184 24.8274 21.3439C25.224 21.5046 25.4853 21.6092 25.7469 21.8126C25.8471 21.8907 25.8981 21.9936 25.8998 22.1211C25.9008 22.1835 25.9092 22.2371 25.9249 22.2819C26.0102 22.5242 26.092 22.7677 26.1704 23.0124C26.4083 23.7556 26.6791 24.4848 26.9594 25.2133C27.0879 25.5472 27.1757 25.8473 27.2558 26.1769C27.2561 26.1781 27.2567 26.1792 27.2576 26.1801C27.2585 26.181 27.2596 26.1816 27.2609 26.1819C27.2621 26.1822 27.2634 26.1822 27.2646 26.1818C27.2659 26.1814 27.267 26.1807 27.2679 26.1798C27.5253 25.8969 27.7606 25.5968 27.974 25.2796C28.2332 24.8944 28.4709 24.5752 28.7642 24.133C28.9384 23.8706 29.111 23.641 29.3389 23.4033C29.4864 23.2497 29.634 23.0962 29.7819 22.943C29.9156 22.8045 30.0157 22.7169 30.0824 22.6803C30.2764 22.5731 30.4816 22.5075 30.698 22.4835C30.9115 22.4599 31.1923 22.5017 31.4375 22.506C31.5852 22.5085 31.7022 22.5323 31.7886 22.5774C31.8647 22.6174 31.9421 22.6398 32.0208 22.6448C32.2464 22.6592 32.546 22.6751 32.8176 22.6808C33.318 22.6912 33.8126 22.7157 34.3182 22.7128C34.5698 22.7113 34.8204 22.7131 35.0701 22.7183C35.0723 22.7184 35.0745 22.7179 35.0764 22.7168C35.0784 22.7158 35.0801 22.7143 35.0813 22.7124C35.0825 22.7105 35.0832 22.7084 35.0834 22.7061C35.0835 22.7039 35.0831 22.7016 35.0822 22.6996C35.003 22.5296 34.9165 22.3772 34.8033 22.2139C34.4363 21.6834 34.0494 21.168 33.6427 20.6675C33.2855 20.2276 32.9009 19.7284 32.6053 19.3343C32.4864 19.176 32.3729 18.9999 32.2648 18.806C32.2295 18.7426 32.2018 18.683 32.1819 18.6274C32.1251 18.4698 32.1398 18.3393 32.1312 18.1892C32.0998 17.6554 32.2605 17.1884 32.4728 16.6964C32.6117 16.3735 32.8231 16.0433 32.9487 15.761C33.0586 15.5142 33.1706 15.2684 33.2849 15.0235C33.403 14.77 33.4139 14.5448 33.4298 14.2711C33.4325 14.2246 33.4226 14.1899 33.4001 14.1668C33.3344 14.0997 33.165 13.9931 33.0521 14.0193C32.8831 14.0587 32.7157 14.1039 32.5497 14.155C32.2104 14.2593 31.8396 14.3549 31.4942 14.4889C31.3463 14.5461 31.229 14.5873 31.1422 14.6125C30.8726 14.6905 30.634 14.7401 30.365 14.8833C30.0863 15.0315 29.7763 15.1453 29.4351 15.2246C29.0439 15.3157 28.7005 15.2618 28.3773 15.0429C28.1673 14.9005 27.9979 14.7421 27.7666 14.5646C27.4318 14.3074 27.1279 13.9801 26.7629 13.6875C26.5688 13.5316 26.3743 13.353 26.2213 13.2219C26.0635 13.0865 25.3125 12.477 25.1157 12.5199C25.0405 12.5363 24.9627 12.6757 24.938 12.7409C24.9207 12.7862 24.9157 12.8423 24.923 12.9094C25.0088 13.6898 25.0402 14.4742 25.0791 15.258C25.1077 15.8363 25.1175 16.4148 25.1085 16.9937Z" fill="white"/>
<path d="M13.5431 12.3737C13.6124 12.5797 13.8175 12.6965 14.0012 12.6347C14.1848 12.5729 14.2775 12.3558 14.2082 12.1498C14.1389 11.9439 13.9338 11.827 13.7501 11.8888C13.5665 11.9506 13.4738 12.1677 13.5431 12.3737Z" fill="white"/>
<path d="M9.45345 24.2024C9.16711 24.1607 8.91447 24.1157 8.62035 23.9959C8.21935 23.8323 7.8221 23.6378 7.40986 23.5053C7.2327 23.4485 7.05294 23.395 6.8896 23.3157C6.65799 23.2036 6.44492 23.0777 6.25037 22.9381C5.86464 22.6612 5.7569 22.2804 6.19362 21.9687C6.82882 21.5153 7.50003 21.04 8.13609 20.6707C8.21099 20.6272 8.32709 20.5702 8.48437 20.4995C8.49359 20.4955 8.49801 20.4885 8.49763 20.4785C8.48918 20.2621 8.48207 20.0464 8.47631 19.8315C8.45989 19.2173 8.39017 18.5931 8.44692 18.0019C8.46863 17.7757 8.48687 17.6371 8.50166 17.5862C8.5947 17.2691 8.90611 17.1029 9.23423 17.1233C9.55629 17.1435 9.90889 17.4186 10.1555 17.6358C10.3891 17.8415 10.5965 17.9829 10.9056 18.1624C11.2678 18.3727 11.6035 18.6203 11.9127 18.9053C11.92 18.9122 11.9282 18.9135 11.9372 18.9091C12.1151 18.8238 12.2942 18.74 12.4748 18.6576C12.7182 18.5464 12.9331 18.4827 13.222 18.4306C13.494 18.3816 13.7921 18.319 14.1165 18.2428C14.1893 18.2257 14.2693 18.214 14.3565 18.2076C14.8269 18.1733 15.0694 18.5334 14.9703 18.9808C14.9221 19.1984 14.8583 19.4114 14.7788 19.6198C14.6497 19.9578 14.5169 20.2943 14.3804 20.6295C14.2758 20.8864 14.1923 21.1474 14.0998 21.4081C14.0983 21.4124 14.0979 21.4171 14.0987 21.4215C14.0995 21.426 14.1015 21.4302 14.1044 21.4338C14.4512 21.8477 14.7866 22.2818 15.1585 22.671C15.3872 22.9104 15.6274 23.142 15.8389 23.3967C16.0397 23.6387 16.1575 23.8959 15.9282 24.154C15.7692 24.3326 15.414 24.3759 15.1901 24.3704C14.5201 24.3543 13.8636 24.2975 13.2122 24.1313C13.091 24.1004 12.9727 24.0813 12.857 24.074C12.8392 24.0728 12.8214 24.0765 12.8055 24.0845C12.7896 24.0926 12.7762 24.1048 12.7666 24.1198C12.5897 24.3966 12.4275 24.6852 12.2391 24.9503C12.0839 25.1692 11.9274 25.3827 11.7903 25.6177C11.5748 25.9873 11.3265 26.3414 11.0886 26.6972C10.9463 26.91 10.7723 27.078 10.5309 27.1486C10.2007 27.2448 9.97631 27.0803 9.86137 26.7813C9.79598 26.6113 9.7496 26.3048 9.72021 26.1608C9.63149 25.7232 9.59432 25.3521 9.54852 24.9439C9.53008 24.7789 9.47909 24.4637 9.46844 24.2191C9.46817 24.215 9.46655 24.2112 9.46383 24.2081C9.4611 24.2051 9.45745 24.2031 9.45345 24.2024ZM13.9549 23.4869C14.2971 23.5403 14.6414 23.5722 14.9876 23.5828C15.0262 23.5839 15.0764 23.6009 15.1196 23.6041C15.137 23.6054 15.1393 23.6002 15.1265 23.5883C14.8324 23.314 14.5241 23.0447 14.2553 22.7572C14.0621 22.5505 13.8712 22.3419 13.6827 22.1312C13.5528 21.986 13.4544 21.8416 13.3874 21.6979C13.3453 21.6072 13.2678 21.5432 13.2304 21.4533C13.1791 21.3306 13.1731 21.2087 13.2125 21.0875C13.2778 20.887 13.3769 20.6574 13.5098 20.3987C13.707 20.0146 13.8846 19.6218 14.0425 19.2202C14.0577 19.1807 14.0845 19.1407 14.1047 19.1021C14.1057 19.1002 14.1062 19.0981 14.106 19.096C14.1058 19.0939 14.105 19.0919 14.1036 19.0902C14.1023 19.0885 14.1005 19.0872 14.0984 19.0865C14.0963 19.0858 14.0941 19.0857 14.092 19.0862C13.8039 19.1575 13.515 19.2183 13.2252 19.2686C12.9783 19.3115 12.7862 19.3758 12.5468 19.459C12.3382 19.5313 12.1173 19.5644 11.8998 19.6235C11.7252 19.671 11.5616 19.5938 11.4193 19.4985C11.1698 19.3314 10.9232 19.1194 10.7115 18.9581C10.5023 18.7987 10.1811 18.6276 9.96881 18.4421C9.73922 18.2416 9.51855 18.0146 9.25468 17.8593C9.25068 17.857 9.24598 17.8562 9.24144 17.857C9.23689 17.8579 9.2328 17.8603 9.22991 17.8639C9.22741 17.867 9.22558 17.8729 9.22443 17.8815C9.14953 18.3839 9.17258 18.9321 9.16595 19.4605C9.16039 19.911 9.10757 20.356 9.00752 20.7954C8.96546 20.9806 8.71743 21.1586 8.56993 21.2661C7.92148 21.7388 7.53287 22.0658 7.02039 22.478C6.99331 22.4999 6.96806 22.5183 6.94463 22.533C6.93195 22.5411 6.93166 22.5496 6.94376 22.5584C7.112 22.6811 7.26007 22.7503 7.47583 22.8217C7.99523 22.9943 8.57656 23.2331 9.00896 23.3889C9.19044 23.4546 9.3872 23.4941 9.57934 23.5433C9.75968 23.5894 9.86021 23.6603 9.92013 23.8392C9.96853 23.9841 10.0446 24.1221 10.0858 24.2595C10.2834 24.9183 10.3934 25.6088 10.532 26.2829C10.5322 26.2841 10.5328 26.2852 10.5336 26.286C10.5345 26.2868 10.5356 26.2874 10.5368 26.2876C10.538 26.2878 10.5392 26.2877 10.5404 26.2872C10.5415 26.2867 10.5425 26.2859 10.5432 26.2849C10.9353 25.7249 11.2398 25.1542 11.6281 24.5493C11.8073 24.2704 11.9614 23.9775 12.1256 23.6885C12.5194 22.9963 13.3701 23.3958 13.9549 23.4869Z" fill="white"/>
<path d="M7.17881 29.7121C7.32544 28.8456 7.64289 27.999 8.08941 27.243C8.19254 27.0679 8.47629 26.5762 8.73987 26.6467C9.0026 26.7173 8.88622 27.1062 8.83609 27.2773C8.73085 27.637 8.6184 27.9944 8.49876 28.3495C8.40341 28.6321 8.33283 28.9009 8.25793 29.1801C8.11793 29.7018 8.03583 30.2229 8.12225 30.7624C8.37518 32.3411 11.0102 31.1511 11.7667 30.7815C12.7079 30.3217 13.6115 29.797 14.4774 29.2074C16.3645 27.9228 18.1607 26.5217 19.8661 25.0041C20.1623 24.7406 20.6809 24.2701 21.422 23.5926C21.6574 23.3774 21.8959 23.1265 22.1367 22.896C22.3084 22.7315 22.5691 22.6742 22.7647 22.8289C22.9551 22.9796 22.9603 23.2573 22.8114 23.4416C22.758 23.5075 22.7004 23.5696 22.6385 23.628C22.0007 24.2312 21.3854 24.8549 20.7324 25.4417C19.6527 26.4117 18.5574 27.3522 17.4149 28.2481C16.3499 29.0833 15.3416 29.7712 14.1896 30.4824C13.137 31.1323 12.0236 31.7119 10.8474 32.1046C10.2632 32.2999 9.65336 32.4238 9.04696 32.4105C8.51144 32.399 7.93615 32.2184 7.57664 31.8007C7.08317 31.2274 7.05926 30.4191 7.17881 29.7121Z" fill="white"/>
<path d="M6.49236 27.394C6.11988 28.1194 5.88135 28.6267 5.62439 29.2253C5.36772 29.8233 5.16837 30.4366 5.00792 31.0669C4.87022 31.6076 4.78639 32.1474 4.75643 32.6865C4.73742 33.0289 4.77525 33.3745 4.86993 33.7233C5.05401 34.4014 5.54719 34.7986 6.22445 34.9291C6.86801 35.0527 7.49745 34.9686 8.13956 34.811C9.34918 34.514 10.5288 34.022 11.6336 33.451C12.9778 32.7559 14.2142 32.0009 15.4563 31.1493C15.6127 31.042 15.7698 30.9315 15.9276 30.818C16.8769 30.1349 17.7768 29.4428 18.6271 28.7416C20.2718 27.3851 21.8645 25.9551 23.3904 24.4666C23.5973 24.2646 23.9383 24.0569 24.1731 24.3669C24.3981 24.6639 24.0997 24.975 23.9035 25.1741C22.4674 26.6289 20.9277 28.0589 19.3845 29.3172C18.0294 30.4217 16.6472 31.4691 15.2123 32.4353C13.8039 33.3836 12.3241 34.2553 10.7538 34.9493C9.71878 35.4068 8.72147 35.7193 7.64955 35.8599C6.22762 36.0463 4.64985 35.7888 4.0109 34.3227C3.59492 33.3681 3.66579 32.227 3.91122 31.2104C4.03548 30.6965 4.16156 30.264 4.28946 29.9129C4.9166 28.1925 5.71024 26.5263 6.79512 25.0401C6.93743 24.8448 7.17077 24.5648 7.44127 24.5599C7.65329 24.5562 7.69247 24.8085 7.66222 24.9661C7.61181 25.2277 7.47612 25.4731 7.356 25.7085C7.06889 26.2706 6.78101 26.8324 6.49236 27.394Z" fill="white"/>
<path d="M32.735 28.2251C32.5566 28.4444 32.4024 28.599 32.2726 28.6889C31.8368 28.9902 31.364 28.6108 31.6299 28.122C31.7536 27.8944 31.9022 27.6833 32.0759 27.4888C32.0789 27.4854 32.0805 27.481 32.0804 27.4764C32.0804 27.4719 32.0787 27.4674 32.0756 27.464C31.9062 27.2811 31.591 26.9446 31.7728 26.6718C32.0015 26.3276 32.4431 26.6395 32.648 26.821C32.6567 26.8287 32.6681 26.8326 32.6797 26.832C32.6912 26.8314 32.7021 26.8263 32.7099 26.8179C32.9242 26.584 33.3563 26.3497 33.6447 26.5828C33.7905 26.7009 33.7835 26.9294 33.7153 27.084C33.6482 27.2367 33.5315 27.3669 33.4099 27.4799C33.4061 27.4834 33.403 27.4877 33.4009 27.4925C33.3987 27.4973 33.3976 27.5025 33.3975 27.5078C33.3974 27.513 33.3984 27.5182 33.4004 27.5231C33.4024 27.5279 33.4053 27.5323 33.4091 27.536C33.6214 27.7463 34.0676 28.3274 33.7861 28.6215C33.6035 28.8122 33.3627 28.7076 33.1818 28.5797C33.0308 28.4733 32.8901 28.3547 32.7597 28.224C32.7511 28.2153 32.7428 28.2157 32.735 28.2251Z" fill="white"/>
<path d="M28.9136 28.2124C29.0778 28.1401 29.2677 28.1876 29.3792 28.3274C29.5209 28.5054 29.6566 28.7805 29.5365 28.981C29.3236 29.3359 28.797 29.2475 28.6786 28.8589C28.6045 28.6149 28.6558 28.3253 28.9136 28.2124Z" fill="white"/>
<path d="M31.7008 31.7747C31.7383 32.0631 31.9681 32.271 32.2143 32.2391C32.4604 32.2071 32.6296 31.9474 32.5921 31.659C32.5546 31.3706 32.3247 31.1627 32.0786 31.1946C31.8325 31.2266 31.6633 31.4863 31.7008 31.7747Z" fill="white"/>
<path d="M20.2049 32.4114C20.2549 32.6789 20.4948 32.8583 20.7406 32.8123C20.9864 32.7663 21.1452 32.5123 21.0951 32.2448C21.0451 31.9774 20.8052 31.7979 20.5594 31.8439C20.3135 31.8899 20.1548 32.144 20.2049 32.4114Z" fill="white"/>
</svg>
