<svg width="40" height="40" viewBox="0 0 40 40" fill="none" xmlns="http://www.w3.org/2000/svg">
<path d="M23.8517 13.8765C23.8947 13.7875 23.9456 13.7032 24.0046 13.6239C24.0221 13.6002 24.0335 13.5223 24.0504 13.4838C24.0938 13.3868 24.1327 13.288 24.1671 13.1877C24.2712 12.8816 24.4872 12.6342 24.6389 12.3518C24.6736 12.2873 24.7007 12.2362 24.7585 12.1822C24.9038 12.046 24.9797 11.861 25.1346 11.7032C25.1955 11.6407 25.259 11.5702 25.3251 11.4916C25.3899 11.4146 25.46 11.3428 25.5355 11.2763C25.5958 11.2232 25.6585 11.1629 25.7237 11.0954C25.8634 10.9501 26.0367 10.8795 26.1637 10.7394C26.209 10.6893 26.2604 10.6494 26.318 10.6198C26.4439 10.555 26.5589 10.4849 26.6632 10.4094C26.847 10.2761 27.0337 10.1822 27.2467 10.0958C27.397 10.0348 27.4918 9.93824 27.6202 9.88047C27.7722 9.8122 27.9175 9.73488 28.0739 9.67652C28.1868 9.63422 28.2609 9.55281 28.368 9.51517C28.4415 9.48911 28.5141 9.4611 28.5859 9.43115C28.7327 9.36958 28.9486 9.29139 29.1213 9.19948C29.2431 9.13432 29.3731 9.09717 29.5114 9.08803C29.5124 9.08798 29.5134 9.08817 29.5144 9.08859C29.5153 9.08901 29.5161 9.08964 29.5167 9.09042C29.5173 9.0912 29.5177 9.09211 29.5178 9.09306C29.518 9.09402 29.5179 9.095 29.5175 9.0959C29.47 9.23245 29.3474 9.37104 29.2555 9.48308C29.1289 9.63772 29.0087 9.79761 28.9212 9.97792C28.8772 10.0684 28.8414 10.1248 28.8138 10.1471C28.7032 10.2364 28.6778 10.3473 28.6236 10.4471C28.5649 10.555 28.5229 10.6367 28.4654 10.7707C28.439 10.8321 28.3977 10.8996 28.3417 10.9731C28.2781 11.0563 28.2437 11.2112 28.2034 11.3028C28.1223 11.4872 28.0855 11.6614 28.0094 11.8199C27.9382 11.9687 27.9154 12.1326 27.8702 12.289C27.8399 12.3937 27.8046 12.6235 27.7643 12.9785C27.6963 13.5763 27.7509 14.1744 27.9627 14.7393C27.9754 14.7728 27.9958 14.8105 28.024 14.8525C28.1789 15.0821 28.2189 15.2963 28.37 15.4538C28.459 15.5466 28.5016 15.6838 28.5591 15.7975C28.6221 15.9218 28.667 16.0893 28.7607 16.2212C28.8031 16.2809 28.8349 16.3339 28.8561 16.3802C28.9053 16.487 28.9595 16.5913 29.0186 16.693C29.0624 16.7683 29.0951 16.8853 29.1578 16.9547C29.2625 17.0702 29.2859 17.1318 29.3413 17.2581C29.388 17.3638 29.4548 17.4638 29.4989 17.5765C29.5552 17.7209 29.6675 17.8108 29.7157 17.9584C29.7685 18.1212 29.8569 18.2709 29.9158 18.434C29.9327 18.4808 29.9587 18.531 29.9937 18.5845C30.0725 18.7047 30.1221 18.8672 30.1615 18.9618C30.2406 19.152 30.2969 19.3673 30.4159 19.5655C30.4597 19.6382 30.5058 19.751 30.5542 19.9039C30.619 20.1087 30.6826 20.3354 30.7838 20.5198C30.8591 20.6575 30.8921 20.8166 30.9396 20.947C30.9636 21.0131 30.9849 21.0799 31.0035 21.1474C31.0441 21.2942 31.0887 21.417 31.1304 21.553C31.1684 21.6764 31.2472 21.8007 31.2775 21.9212C31.3324 22.1383 31.3901 22.3546 31.4508 22.5701C31.4835 22.6859 31.524 22.8741 31.5839 23.0229C31.6247 23.1246 31.6527 23.206 31.6679 23.2671C31.7811 23.7219 31.8715 24.181 31.9392 24.6446C31.9777 24.9092 32.0405 25.2129 32.0653 25.477C32.1555 26.4492 32.1789 27.4229 32.1353 28.3982C32.1205 28.7248 32.0936 29.0142 32.0545 29.2665C32.0335 29.4021 31.9798 29.5518 31.9521 29.6857C31.9001 29.9353 31.8381 30.1823 31.7659 30.4268C31.7165 30.5939 31.6572 30.7377 31.5879 30.8581C31.5214 30.9738 31.4732 31.0706 31.4432 31.1484C31.3175 31.4755 31.0908 31.734 30.9396 32.0462C30.8941 32.1401 30.8578 32.199 30.8308 32.223C30.7698 32.2764 30.7266 32.3193 30.6878 32.396C30.6427 32.4853 30.5942 32.563 30.5422 32.6291C30.3518 32.8711 30.2231 33.0364 30.1559 33.1251C30.1157 33.1785 30.0909 33.2462 30.0419 33.2943C29.9462 33.3886 29.8417 33.4913 29.7863 33.5785C29.7258 33.6738 29.6755 33.7376 29.6354 33.7699C29.5749 33.8188 29.52 33.8731 29.4706 33.933C29.3725 34.0515 29.3127 34.1682 29.1774 34.2686C29.1339 34.3009 29.0869 34.3424 29.0577 34.3861C28.9797 34.504 28.8838 34.6041 28.77 34.6864C28.6513 34.7722 28.5714 34.9119 28.4584 34.9857C28.3394 35.0633 28.243 35.136 28.1693 35.2037C28.1142 35.2545 28.0642 35.2935 28.019 35.321C27.8599 35.4178 27.6749 35.5412 27.4641 35.6909C27.3042 35.8044 27.1058 35.8733 26.9331 35.9786C26.8905 36.0046 26.8633 36.0478 26.8073 36.0708C26.6369 36.1417 26.48 36.2348 26.3081 36.3028C26.1718 36.3565 26.07 36.4501 25.9437 36.5041C25.8258 36.5546 25.7164 36.6106 25.593 36.6558C25.3572 36.7425 25.1512 36.8749 24.9178 36.9616C24.7057 37.0401 24.5021 37.1299 24.285 37.197C24.2368 37.2122 24.2039 37.2621 24.1554 37.2834C24.0457 37.3313 23.9249 37.3575 23.819 37.3978C23.7336 37.4305 23.6466 37.4579 23.5579 37.4801C23.3379 37.5349 23.2063 37.5734 23.031 37.6265C22.9413 37.6538 22.8524 37.6752 22.7643 37.6907C22.1664 37.7958 21.567 37.891 20.9661 37.9764C20.9558 37.9779 20.9541 37.9747 20.9609 37.9667C21.0116 37.9084 21.0617 37.849 21.1111 37.7885C21.138 37.7558 21.2004 37.726 21.2147 37.6995C21.3051 37.5326 21.4137 37.3788 21.4933 37.2067C21.5266 37.1346 21.5887 37.0897 21.6235 37.0334C21.6839 36.9353 21.7233 36.8195 21.7656 36.7299C21.8108 36.6351 21.8528 36.5519 21.8858 36.4469C21.9272 36.3144 22.0098 36.236 22.0416 36.1379C22.1872 35.6889 22.268 35.2367 22.3856 34.7447C22.4196 34.6022 22.4424 34.474 22.4538 34.3602C22.5139 33.7607 22.5133 33.1614 22.4518 32.5623C22.4378 32.4263 22.4084 32.2538 22.3637 32.0447C22.3144 31.8157 22.2732 31.5685 22.223 31.3567C22.1421 31.0163 22.0795 30.7926 22.0351 30.6856C22.0031 30.6074 21.9365 30.5217 21.9015 30.4228C21.84 30.2492 21.7737 30.1044 21.699 29.913C21.6558 29.8025 21.5625 29.6793 21.519 29.6046C21.427 29.4477 21.3365 29.2899 21.2474 29.1314C21.2388 29.116 21.2205 29.0954 21.1925 29.0695C21.1237 29.0061 21.0655 28.9339 21.018 28.8527C20.9428 28.7242 20.8419 28.615 20.7155 28.5251C20.6577 28.4841 20.6104 28.4301 20.5737 28.3632C20.5704 28.3573 20.572 28.3549 20.5786 28.3559C20.621 28.3615 20.6564 28.3794 20.6848 28.4096C20.6918 28.4169 20.7002 28.4221 20.7099 28.425C20.7959 28.4517 20.8814 28.4797 20.9664 28.509C21.1029 28.5566 21.3011 28.6123 21.4647 28.6806C21.5359 28.7104 21.6223 28.7252 21.6984 28.7591C21.7585 28.7856 21.7939 28.844 21.8685 28.8685C22.0107 28.9152 22.148 28.9733 22.2802 29.043C22.3441 29.0765 22.467 29.1107 22.5347 29.1865C22.6928 29.3639 22.8927 29.4404 23.0514 29.6105C23.1091 29.6726 23.1739 29.7196 23.2352 29.7771C23.6008 30.119 23.9526 30.4718 24.2721 30.8581C24.2998 30.8917 24.3372 30.9303 24.3845 30.9739C24.5537 31.1303 24.6421 31.3442 24.8361 31.4868C24.8509 31.4977 24.8707 31.5237 24.8954 31.5647C24.9693 31.6879 25.0546 31.8023 25.1512 31.9082C25.1781 31.9376 25.2201 31.954 25.2414 31.9887C25.3112 32.1023 25.388 32.2111 25.4716 32.3152C25.5095 32.3621 25.5189 32.431 25.5626 32.4678C25.6107 32.508 25.6527 32.5538 25.6887 32.6052C25.6961 32.6155 25.6993 32.6143 25.6983 32.6017C25.6783 32.306 25.6544 32.0989 25.6268 31.9802C25.5422 31.6158 25.4798 31.2 25.4095 30.8832C25.3616 30.6678 25.319 30.4867 25.2817 30.3396C25.2501 30.2153 25.1722 30.0989 25.134 29.9866C25.0354 29.6974 24.9718 29.5212 24.8618 29.2872C24.7967 29.1483 24.6844 29.0097 24.6234 28.8705C24.566 28.7402 24.5008 28.6264 24.4276 28.5292C24.3656 28.4469 24.3196 28.3809 24.2896 28.3311C24.2202 28.2155 24.1277 28.1076 24.072 27.9853C24.0502 27.9371 24.0278 27.9032 24.0049 27.8838C23.8263 27.7309 23.7703 27.5045 23.5952 27.3443C23.5495 27.3025 23.5136 27.2618 23.4876 27.2223C23.3849 27.0665 23.2709 26.9192 23.1456 26.7803C23.0013 26.6204 22.9091 26.5106 22.869 26.4509C22.834 26.3986 22.8009 26.3574 22.7698 26.3275C22.6648 26.2268 22.5697 26.1092 22.4877 25.9893C22.4567 25.944 22.4188 25.9021 22.3739 25.8636C22.2038 25.7183 22.1279 25.5333 21.9666 25.3988C21.8417 25.2946 21.767 25.1487 21.6672 25.0525C21.5619 24.9506 21.4601 24.8646 21.3562 24.712C21.3257 24.667 21.2728 24.611 21.1978 24.5439C21.1361 24.4889 21.0837 24.4334 21.0405 24.3776C20.911 24.2104 20.794 24.1159 20.6921 23.9779C20.5389 23.7701 20.3651 23.5723 20.197 23.3762C20.1144 23.28 20.064 23.172 19.9706 23.0859C19.8589 22.9826 19.7644 22.8651 19.687 22.7332C19.6706 22.7054 19.6172 22.6496 19.5265 22.566C19.3815 22.4321 19.3281 22.2121 19.1624 22.0837C19.1429 22.0685 19.1272 22.0507 19.1151 22.0303C19.0232 21.871 18.9109 21.7286 18.8356 21.5626C18.8247 21.5385 18.8093 21.5154 18.7895 21.4935C18.657 21.3467 18.6069 21.169 18.5333 21.0158C18.495 20.9357 18.4612 20.8537 18.4318 20.7699C18.402 20.6847 18.3629 20.624 18.3151 20.5528C18.2669 20.4807 18.248 20.3608 18.2197 20.2861C18.1753 20.1696 18.1351 20.0517 18.0989 19.9325C18.0318 19.7119 17.9142 19.4957 17.8576 19.288C17.7345 18.8375 17.6752 18.5034 17.5848 18.139C17.5482 17.9921 17.5255 17.8842 17.5165 17.8151C17.4963 17.6599 17.4839 17.5041 17.4795 17.3477C17.4791 17.3355 17.4756 17.3346 17.469 17.3451C17.3975 17.46 17.3572 17.5945 17.2991 17.7043C17.2653 17.7676 17.2306 17.8513 17.1827 17.9035C17.1701 17.9173 17.1602 17.9314 17.153 17.9458C17.0639 18.1263 17.0065 18.2519 16.9808 18.3225C16.897 18.554 16.8342 18.7128 16.7923 18.799C16.7159 18.9568 16.6672 19.0586 16.6184 19.2337C16.5852 19.3539 16.5394 19.4753 16.5096 19.5897C16.4635 19.7674 16.425 19.9599 16.3489 20.1268C16.2835 20.2689 16.2692 20.4168 16.2356 20.5624C16.1014 21.1457 16.0168 21.7461 15.9535 22.3408C15.8762 23.0678 15.9593 23.7795 16.0568 24.5033C16.1146 24.9325 16.1834 25.2374 16.2625 25.5852C16.2833 25.6768 16.3144 25.7801 16.3559 25.8951C16.4086 26.0414 16.4527 26.1903 16.4883 26.3418C16.5298 26.5183 16.5829 26.6861 16.6313 26.8673C16.6784 27.0431 16.737 27.215 16.8072 27.3831C16.8685 27.529 16.9023 27.6863 16.9607 27.8371C17.0053 27.9526 17.0494 28.1262 17.1276 28.259C17.1793 28.3471 17.2153 28.4132 17.2355 28.4574C17.2863 28.5686 17.3453 28.6721 17.3949 28.7868C17.4386 28.8886 17.4859 28.9913 17.5641 29.073C17.6461 29.1585 17.6551 29.2283 17.7146 29.3143C17.7917 29.4258 17.8657 29.5391 17.9367 29.6542C17.9629 29.6965 18.0026 29.7149 18.0286 29.7461C18.1485 29.8894 18.2337 30.0671 18.3854 30.1765C18.4473 30.2212 18.5242 30.3167 18.6162 30.463C18.6481 30.5136 18.7163 30.5771 18.8207 30.6535C18.9357 30.7376 19.0045 30.9334 19.135 31.0168C19.2139 31.0676 19.2666 31.115 19.2928 31.1592C19.3691 31.2868 19.4644 31.3969 19.5787 31.4895C19.6645 31.5589 19.6823 31.6301 19.7453 31.7109C19.9432 31.9653 20.1162 32.1789 20.2618 32.4879C20.3137 32.5982 20.4138 32.6781 20.4616 32.7931C20.4916 32.8656 20.5234 32.9372 20.557 33.0078C20.6236 33.147 20.6659 33.2946 20.7271 33.4382C20.864 33.7586 20.8885 34.0384 20.8879 34.3917C20.8876 34.5682 20.904 34.7479 20.9075 34.9271C20.9115 35.1335 20.8836 35.3342 20.8237 35.5293C20.8056 35.5884 20.7744 35.6609 20.7301 35.7467C20.6268 35.9465 20.5842 36.1373 20.4456 36.3066C20.3468 36.427 20.2958 36.4892 20.2927 36.4933C20.2324 36.5703 20.1657 36.6418 20.0926 36.7078C19.9073 36.8744 19.7547 37.0377 19.5169 37.1332C19.4525 37.159 19.393 37.1923 19.3383 37.2329C19.2942 37.2656 19.2526 37.2881 19.2137 37.3003C18.9194 37.3927 18.6747 37.4463 18.4794 37.4611C18.0248 37.4958 17.555 37.5714 17.1296 37.4299C16.9989 37.3865 16.8676 37.3449 16.7358 37.305C16.6418 37.2764 16.5835 37.2128 16.4945 37.1825C16.2902 37.1133 16.1058 37.0197 15.9004 36.9368C15.7823 36.8889 15.6994 36.8061 15.5833 36.762C15.4767 36.7216 15.3752 36.671 15.279 36.6103C15.2101 36.5668 15.0911 36.5283 15.0356 36.4647C14.9673 36.3857 14.902 36.3318 14.8395 36.3028C14.5678 36.1773 14.3946 36.0863 14.3199 36.0297C14.1762 35.9204 14.0746 35.8535 14.0153 35.8289C13.8966 35.7799 13.7899 35.7137 13.6949 35.6302C13.6339 35.5764 13.5803 35.5354 13.5342 35.5074C13.2433 35.3312 12.9979 35.1161 12.7633 34.9414C12.7028 34.8963 12.6391 34.8409 12.5722 34.7754C12.4514 34.6569 12.3099 34.5717 12.1955 34.4492C12.0537 34.2966 11.8866 34.1644 11.7494 34.0194C11.6765 33.9422 11.6016 33.8669 11.5248 33.7936C11.3879 33.6629 11.2753 33.4986 11.1294 33.3644C10.9926 33.2386 10.8963 33.0528 10.7848 32.9416C10.7265 32.8832 10.6808 32.8296 10.6477 32.7805C10.4753 32.5255 10.2404 32.2819 10.1103 32.0041C10.0754 31.9298 10.0141 31.8478 9.92616 31.7579C9.8678 31.6981 9.83571 31.5846 9.79048 31.5134C9.73019 31.4191 9.67572 31.3216 9.62709 31.221C9.60511 31.1761 9.57341 31.1268 9.53198 31.0731C9.45553 30.9742 9.40885 30.8622 9.36129 30.7472C9.31899 30.6457 9.25917 30.5503 9.21716 30.4458C9.16814 30.3241 9.0847 30.2299 9.03597 30.1106C8.9996 30.0221 8.92257 29.8164 8.80489 29.4935C8.77192 29.4024 8.71211 29.3269 8.68147 29.2358C8.55387 28.8558 8.47062 28.5842 8.43172 28.4212C8.40798 28.3214 8.38153 28.2327 8.35235 28.1551C8.30781 28.0373 8.2798 27.9554 8.26832 27.9095C8.12769 27.3449 8.06117 26.7943 7.95788 26.1936C7.91995 25.973 7.89126 25.7183 7.87181 25.4294C7.83096 24.8235 7.83184 24.1696 7.87443 23.4676C7.88922 23.2254 7.91567 23.0021 7.95379 22.7977C8.03811 22.3445 8.08684 22.035 8.1592 21.6545C8.19012 21.4911 8.23885 21.3161 8.27707 21.1454C8.29808 21.052 8.35293 20.9875 8.37715 20.898C8.47538 20.5399 8.57925 20.207 8.68876 19.8992C8.70762 19.8459 8.74089 19.7993 8.78854 19.7592C8.79632 19.7526 8.80128 19.7543 8.80342 19.7644C8.83863 19.9403 8.8717 20.1164 8.90262 20.2928C8.93443 20.4734 8.98811 20.654 9.03304 20.8489C9.06601 20.9913 9.14859 21.1346 9.19177 21.2589C9.21161 21.3161 9.23223 21.373 9.25362 21.4296C9.30585 21.5682 9.34553 21.7161 9.40505 21.8567C9.40525 21.8573 9.42596 21.916 9.4672 22.0329C9.50805 22.1496 9.59703 22.2235 9.63351 22.346C9.68515 22.5193 9.78289 22.6915 9.85467 22.8589C9.90689 22.9809 10.0003 23.0614 10.0513 23.1843C10.0943 23.2872 10.1437 23.3867 10.1995 23.483C10.2512 23.5717 10.271 23.6721 10.3422 23.752C10.4064 23.8238 10.465 23.9219 10.5179 24.0461C10.5515 24.1249 10.6124 24.2243 10.7005 24.3443C10.7664 24.4339 10.8187 24.5238 10.8747 24.6136C10.8978 24.6508 10.9019 24.6487 10.8869 24.6075C10.823 24.4324 10.786 24.239 10.737 24.0607C10.6664 23.8046 10.6445 23.605 10.6092 23.2779C10.5831 23.0359 10.5645 22.6469 10.5535 22.1108C10.5408 21.4935 10.5711 20.8783 10.6442 20.2654C10.6613 20.1228 10.6842 19.9812 10.7128 19.8406C10.8216 19.3055 10.9202 18.7669 11.0165 18.3178C11.0332 18.2395 11.0583 18.1419 11.0918 18.0252C11.1277 17.9003 11.198 17.7439 11.233 17.5948C11.2983 17.3177 11.3905 17.0504 11.4693 16.7773C11.5069 16.6469 11.5869 16.5538 11.6245 16.4278C11.6531 16.3334 11.6866 16.2409 11.7249 16.1503C11.7803 16.019 11.8291 15.8422 11.9113 15.701C11.9623 15.6136 11.9954 15.5536 12.0105 15.5209C12.0791 15.3745 12.1243 15.2697 12.1996 15.0798C12.2445 14.9662 12.2871 14.885 12.3274 14.8362C12.3995 14.7486 12.4497 14.6346 12.4987 14.5371C12.5509 14.4327 12.6163 14.2643 12.6997 14.1374C12.7787 14.0174 12.8277 13.9406 12.8467 13.9072C12.9077 13.8001 12.9883 13.6924 13.0335 13.5786C13.0525 13.5312 13.0698 13.5003 13.0851 13.4859C13.1723 13.4051 13.2428 13.3128 13.2967 13.209C13.3693 13.0692 13.4493 12.9155 13.5438 12.8346C13.5625 12.8187 13.5774 12.8005 13.5887 12.7801C13.6459 12.6762 13.7096 12.5765 13.7798 12.481C13.837 12.4037 13.8662 12.2984 13.9388 12.238C14.0108 12.1781 14.0666 12.1079 14.1063 12.0276C14.1843 11.8689 14.2833 11.7314 14.4033 11.615C14.424 11.5952 14.4453 11.5301 14.4693 11.4989C14.5364 11.4112 14.5992 11.3207 14.6578 11.2276C14.7009 11.1589 14.751 11.0916 14.808 11.0257C14.9667 10.8421 15.0464 10.6286 15.2174 10.483C15.2401 10.4635 15.2653 10.4278 15.2929 10.3759C15.3685 10.2332 15.4686 10.1092 15.5771 9.97471C15.6761 9.85178 15.769 9.71669 15.8558 9.56944C15.9302 9.44282 16.0489 9.35587 16.1134 9.2202C16.171 9.09863 16.2355 8.99125 16.3071 8.89808C16.3655 8.82222 16.4089 8.75881 16.4373 8.70785C16.5032 8.58998 16.5747 8.48173 16.6281 8.35423C16.6756 8.24014 16.7276 8.18179 16.7906 8.09922C16.8597 8.00819 16.8872 7.89877 16.9458 7.80045C17.009 7.69424 17.0646 7.58425 17.1124 7.47046C17.1317 7.42465 17.1926 7.38118 17.2215 7.33479C17.3111 7.19182 17.3604 7.03222 17.4404 6.88342C17.4876 6.7953 17.5037 6.69727 17.5699 6.61878C17.6037 6.57891 17.6311 6.5295 17.6519 6.47057C17.7083 6.31029 17.763 6.14943 17.8159 5.98798C17.9005 5.72947 18.0207 5.52932 18.0519 5.23872C18.1003 4.78648 18.1175 4.30243 18.0499 3.88228C18.0413 3.82996 18.021 3.76587 17.9889 3.69001C17.9057 3.49423 17.8494 3.28678 17.7712 3.08809C17.6691 2.82841 17.5005 2.6163 17.3409 2.39105C17.2793 2.30381 17.2597 2.22241 17.1427 2.17047C17.1151 2.15822 17.0865 2.12554 17.057 2.07244C17.0529 2.06544 17.0548 2.06096 17.0628 2.05902C17.178 2.03023 17.2706 2.01885 17.3409 2.02488C17.5087 2.03947 17.6825 2.09072 17.8622 2.17864C17.9314 2.21249 18.014 2.23262 18.0863 2.27259C18.133 2.29856 18.1397 2.34116 18.1817 2.36829C18.353 2.48004 18.5179 2.54248 18.6693 2.71287C18.7099 2.75858 18.7543 2.79788 18.8023 2.83075C19.1478 3.06737 19.4147 3.40378 19.7109 3.69643C19.9984 3.98061 20.1849 4.17502 20.2705 4.27967C20.4111 4.45152 20.5372 4.56648 20.6492 4.73367C20.6811 4.78113 20.7192 4.82547 20.7633 4.86671C20.8561 4.95346 20.9354 5.0515 21.0011 5.16081C21.0851 5.30028 21.2225 5.37818 21.2975 5.51298C21.3648 5.63377 21.4388 5.74221 21.5193 5.8383C21.6517 5.99586 21.774 6.19134 21.8671 6.37312C21.938 6.51229 22.057 6.58056 22.1247 6.74133C22.172 6.85278 22.2327 6.93856 22.2895 7.04039C22.3218 7.09836 22.3673 7.16984 22.4258 7.25484C22.477 7.32914 22.5186 7.40335 22.5507 7.47746C22.6137 7.62276 22.6729 7.7418 22.7284 7.83459C22.8653 8.06353 22.9464 8.21719 22.9717 8.29558C23.0595 8.56693 23.2005 8.78108 23.2929 9.07606C23.3986 9.41276 23.47 9.87872 23.5923 10.3234C23.6236 10.4376 23.6557 10.6978 23.6886 11.1041C23.7631 12.0263 23.8142 12.9498 23.8421 13.8745C23.8424 13.8885 23.8457 13.8892 23.8517 13.8765ZM27.9163 27.8526C27.9966 28.2937 28.0888 28.7343 28.1255 29.2746C28.1257 29.277 28.1269 29.2779 28.129 29.2773C28.1314 29.2769 28.1338 29.2765 28.1363 29.2761C28.1406 29.2753 28.1431 29.2727 28.1439 29.2682C28.1646 29.1273 28.284 28.9724 28.3858 28.8154C28.4543 28.7098 28.5157 28.5904 28.5702 28.4571C28.653 28.2543 28.7015 28.1435 28.768 27.9868C28.7884 27.9386 28.8261 27.8864 28.8453 27.8301C28.9805 27.4292 29.0653 27.0179 29.0997 26.5962C29.1304 26.2248 29.0779 25.9456 28.9871 25.5957C28.9544 25.47 28.9034 25.3541 28.8561 25.2325C28.8339 25.1755 28.8011 25.1144 28.7575 25.0492C28.6978 24.9598 28.6463 24.8656 28.6031 24.7668C28.527 24.5926 28.4228 24.4272 28.3055 24.2685C28.1804 24.099 28.1261 23.9192 27.9922 23.7795C27.9047 23.6887 27.8656 23.5744 27.8005 23.4778C27.6744 23.291 27.5396 23.1107 27.4121 22.9246C27.3412 22.8207 27.2896 22.6798 27.1767 22.573C27.0778 22.4796 27.0352 22.3513 26.9663 22.2459C26.8937 22.1351 26.8344 22.0373 26.7481 21.9148C26.634 21.7531 26.5473 21.534 26.4817 21.4068C26.3845 21.2186 26.2602 21.0173 26.2033 20.8416C26.147 20.6683 26.0846 20.5152 26.0222 20.327C25.988 20.2237 25.9215 20.1376 25.8897 20.032C25.7992 19.7297 25.721 19.4244 25.6548 19.1161C25.6271 18.9872 25.5766 18.8702 25.5545 18.7386C25.5171 18.5153 25.4967 18.2823 25.4932 18.0395L25.4929 18.0392C25.4349 18.159 25.3881 18.2835 25.3525 18.4127C25.2901 18.6391 25.146 18.8743 25.0821 19.1281C24.8513 20.0477 24.7495 20.9385 25.0477 21.8608C25.0757 21.9469 25.1078 22.0965 25.1664 22.2074C25.2148 22.2996 25.246 22.3641 25.2598 22.4009C25.3642 22.6821 25.4655 22.9724 25.6151 23.233C25.7108 23.3993 25.7637 23.5093 25.8284 23.668C25.8555 23.7338 25.8915 23.7978 25.9367 23.86C25.9851 23.9267 26.0217 23.9844 26.0464 24.033C26.0915 24.1221 26.1405 24.2091 26.1934 24.2942C26.2436 24.3753 26.2833 24.5013 26.3726 24.5871C26.4686 24.6796 26.5077 24.798 26.5733 24.8993C26.667 25.044 26.7525 25.1753 26.8627 25.3247C26.999 25.5088 27.0501 25.692 27.1857 25.8537C27.2846 25.9715 27.3354 26.1192 27.4022 26.2551C27.4609 26.3745 27.5049 26.5332 27.5814 26.6642C27.6218 26.7334 27.6506 26.7939 27.6677 26.8457C27.7763 27.1725 27.846 27.4651 27.9163 27.8526Z" fill="white"/>
</svg>
