<svg width="40" height="40" viewBox="0 0 40 40" fill="none" xmlns="http://www.w3.org/2000/svg">
<path d="M20.6395 2.3085C21.3982 2.26284 22.1547 2.51714 22.7762 2.92806C23.054 3.11175 23.2716 3.28359 23.4289 3.44357C23.6431 3.6615 23.8544 3.88209 24.0349 4.13135C24.4443 4.69649 24.7516 5.27491 24.9969 5.98764C25.0597 6.16992 25.1114 6.3391 25.1519 6.49518C25.434 7.58105 25.5132 8.68559 25.3895 9.8088C25.3191 10.4475 25.2114 11.0008 25.0665 11.4687C24.8695 12.1039 24.5905 12.759 24.2255 13.3151C24.0971 13.511 24.0004 13.7101 23.8754 13.8856C23.7894 14.0066 23.7124 14.1311 23.6155 14.2402C23.4191 14.4613 23.216 14.6764 23.0063 14.8858C23.0026 14.8895 22.9978 14.8918 22.9927 14.8924C22.9875 14.893 22.9823 14.8918 22.9779 14.889C22.9323 14.8591 22.8825 14.834 22.8287 14.8136C22.2811 14.6068 21.6971 14.4688 21.1113 14.4438C20.5782 14.421 20.0958 14.4664 19.664 14.58C19.583 14.6014 19.4171 14.6523 19.1666 14.7326C19.067 14.7645 18.6696 14.5232 18.5648 14.4682C18.4535 14.41 18.3584 14.3507 18.2797 14.2904C17.77 13.9002 17.3753 13.395 17.0546 12.8424C16.6185 12.0909 16.2965 11.1236 16.1609 10.1271C16.0364 9.21445 16.0469 8.30502 16.1922 7.39877C16.2352 7.13173 16.3058 6.85964 16.3761 6.59181C16.6501 5.54381 17.1136 4.56987 17.856 3.74034C18.5791 2.93284 19.5496 2.3746 20.6395 2.3085Z" fill="white"/>
<path d="M36.3494 14.0439C35.8196 15.09 35.0471 16.0318 34.1634 16.8067C33.2073 17.645 32.0374 18.2741 30.827 18.6606C30.6226 18.7259 30.3279 18.7968 29.943 18.8735C28.9003 19.0813 27.7705 19.0917 26.7541 18.7466C26.666 18.7165 26.5726 18.6732 26.4738 18.6168C26.3211 18.5292 26.1674 18.4438 26.0127 18.3606C25.9687 18.3367 25.9397 18.3094 25.9254 18.2579C25.6865 17.4023 25.2562 16.6615 24.6324 16.0236C24.5217 15.9102 24.5392 15.7202 24.5238 15.5694C24.5042 15.3746 24.5059 15.1512 24.5289 14.8994C24.5451 14.7242 24.5381 14.4861 24.5695 14.2905C24.6096 14.0399 24.6619 13.8292 24.7264 13.6584C24.8102 13.4352 24.8915 13.2016 24.9945 12.9959C25.5861 11.8146 26.5128 10.8056 27.5688 10.0231C27.9869 9.71331 28.3678 9.48051 28.7867 9.25249C29.2738 8.98757 29.7022 8.81264 30.3223 8.59683C30.598 8.50091 30.9653 8.41207 31.4242 8.33031C32.8048 8.08398 34.3359 8.18644 35.5212 9.0104C37.2201 10.1914 37.1901 12.3848 36.3494 14.0439Z" fill="white"/>
<path d="M16.7057 16.6069C16.1705 17.3627 15.8825 18.1999 15.8355 19.1136C15.8339 19.1433 15.8168 19.165 15.784 19.1786C15.5273 19.2853 15.2465 19.4252 15.0179 19.5083C14.0413 19.8624 12.9206 19.8728 11.9135 19.6984C11.3167 19.5948 10.7113 19.4268 10.1344 19.1866C9.79783 19.0466 9.56742 18.9432 9.44319 18.8765C9.2149 18.7544 8.98423 18.6371 8.76496 18.4988C8.67789 18.4437 8.59091 18.3886 8.50402 18.3334C8.09222 18.072 7.71917 17.7886 7.38488 17.4832C6.84309 16.9878 6.34803 16.398 5.97268 15.7766C5.24295 14.5688 4.83336 13.064 5.46115 11.699C5.83889 10.8772 6.59197 10.2563 7.42549 9.93907C8.92502 9.36809 10.5727 9.52789 12.0449 10.0511C12.33 10.1523 12.5277 10.2281 12.6382 10.2783C13.0597 10.4697 13.4828 10.6619 13.8773 10.9061C14.09 11.0379 14.2272 11.124 14.289 11.1644C14.589 11.3599 14.9056 11.6027 15.239 11.8928C15.6616 12.2607 16.0268 12.643 16.3346 13.0398C16.6223 13.4105 16.881 13.8246 17.1105 14.2818C17.2082 14.4765 17.2859 14.6552 17.3435 14.8178C17.3767 14.9118 17.4333 14.9863 17.4704 15.0763C17.5375 15.2383 17.6106 15.3974 17.6897 15.5539C17.6939 15.5622 17.6923 15.569 17.6846 15.5743C17.6536 15.5966 17.6212 15.6179 17.5939 15.6439C17.3895 15.8384 17.1726 16.0229 16.9937 16.2433C16.8955 16.364 16.7909 16.4869 16.7057 16.6069Z" fill="white"/>
<path d="M21.9895 15.6225C22.2491 15.687 22.5817 15.8202 22.8169 15.9482C24.3714 16.7929 25.1871 18.5987 24.7443 20.3151C24.6873 20.5365 24.5991 20.7847 24.5227 21.0783C24.5186 21.0944 24.5033 21.1266 24.4768 21.1749C24.1393 21.7922 23.6832 22.2885 23.1086 22.6638C21.4097 23.7734 19.177 23.4148 17.9082 21.8383C17.7948 21.6976 17.6637 21.5142 17.5745 21.3472C17.4596 21.1327 17.3891 20.9921 17.3629 20.9254C17.2024 20.5182 17.1055 20.1199 17.0723 19.7306C17.0088 18.9916 17.2002 18.1549 17.5779 17.4913C17.9767 16.7913 18.5699 16.2274 19.2965 15.8808C20.1486 15.4744 21.0462 15.3884 21.9895 15.6225ZM22.2937 19.9127C22.2689 19.9318 22.264 19.9586 22.2791 19.9931C22.2806 19.9967 22.2834 19.9996 22.2869 20.0013C22.2905 20.0029 22.2945 20.0032 22.2982 20.0021C22.3189 19.9963 22.3277 19.9852 22.334 19.9623C22.3413 19.9361 22.3566 19.9149 22.38 19.8986C22.3853 19.8951 22.3853 19.8915 22.38 19.888C22.3633 19.877 22.3482 19.8754 22.3346 19.883C22.3294 19.8856 22.3158 19.8955 22.2937 19.9127Z" fill="white"/>
<path d="M30.3486 29.1656C29.0805 28.7361 27.9186 28.1009 26.9136 27.2137C26.5118 26.8591 26.1501 26.4672 25.8287 26.038C25.73 25.9058 25.635 25.7711 25.5437 25.6338C25.327 25.3073 25.1484 24.9965 25.0077 24.7015C24.8779 24.4294 24.8123 24.1125 24.7369 23.8157C24.6828 23.6017 24.6414 23.3403 24.5798 23.1053C24.5787 23.1013 24.5787 23.0969 24.5799 23.0928C24.581 23.0887 24.5833 23.085 24.5864 23.082C25.0699 22.6118 25.4391 22.0654 25.6939 21.4428C25.7921 21.2027 25.8741 20.957 25.94 20.7057C25.9524 20.6579 25.975 20.6327 26.0193 20.6061C26.2912 20.4413 26.5778 20.3279 26.8635 20.1865C27.5414 19.8507 28.3073 19.7575 29.0611 19.7835C29.5519 19.8003 30.0053 19.8582 30.4216 19.9571C30.5196 19.9803 30.7266 20.0338 31.0425 20.1177C31.2019 20.16 31.4939 20.2693 31.9185 20.4455C32.8505 20.8326 33.6745 21.3307 34.3903 21.94C34.8862 22.3619 35.3116 22.8016 35.6666 23.259C35.9846 23.6687 36.2389 24.0759 36.4293 24.4806C36.519 24.6711 36.6107 24.9195 36.7043 25.226C36.8375 25.661 36.8891 26.1274 36.859 26.6252C36.7677 28.1431 35.5928 29.1481 34.1838 29.457C33.5924 29.5869 32.9837 29.6386 32.3801 29.5869C31.6773 29.5265 31.0002 29.3861 30.3486 29.1656Z" fill="white"/>
<path d="M17.6828 25.4133C17.613 25.5977 17.5336 25.7777 17.4444 25.9533C17.2557 26.3249 17.0784 26.6182 16.9124 26.8332C16.8123 26.963 16.7099 27.091 16.6053 27.2173C15.4442 28.6218 13.7981 29.6178 12.043 30.1192C11.8503 30.1745 11.6786 30.2172 11.528 30.2475C10.3253 30.4895 9.00383 30.5283 7.83266 30.1139C7.39122 29.9579 6.94181 29.7328 6.56381 29.4211C5.98707 28.946 5.60721 28.357 5.42422 27.6543C5.26256 27.0329 5.3191 26.3092 5.50545 25.6838C5.6334 25.2559 5.75816 24.97 5.96203 24.583C6.07298 24.3722 6.20996 24.1575 6.34826 23.9611C6.56858 23.6487 6.81005 23.3537 7.07267 23.0761C7.21283 22.9277 7.36573 22.778 7.52181 22.6436C7.60915 22.5685 7.69064 22.487 7.77983 22.4175C7.90698 22.3179 8.03679 22.2072 8.1581 22.1172C8.6306 21.7658 9.05241 21.5014 9.52942 21.2694C9.63489 21.2181 9.74054 21.167 9.84637 21.1162C10.1248 20.9827 10.4166 20.8749 10.704 20.7621C10.8146 20.7188 11.031 20.6497 11.3531 20.5551C11.9251 20.3868 12.5226 20.2925 13.1157 20.2389C13.7535 20.1808 14.3967 20.2206 15.0259 20.3416C15.0935 20.3546 15.1612 20.3666 15.2292 20.3778C15.4745 20.4178 15.6964 20.5304 15.943 20.5742C15.9519 20.5758 15.9602 20.5798 15.9669 20.5859C15.9736 20.5919 15.9785 20.5998 15.9809 20.6084C16.1153 21.0799 16.2671 21.5171 16.5235 21.9503C16.8084 22.432 17.1643 22.8568 17.5912 23.2247C17.6814 23.3026 17.7729 23.3815 17.8656 23.4615C17.8718 23.4668 17.8767 23.4734 17.8799 23.4809C17.8832 23.4883 17.8847 23.4964 17.8845 23.5045C17.8633 24.1432 17.9102 24.8124 17.6828 25.4133Z" fill="white"/>
<path d="M25.6249 33.7767C25.4297 34.3426 25.1711 34.8778 24.8492 35.3821C23.8965 36.8748 22.2436 38.0082 20.395 37.5538C19.4035 37.3098 18.4898 36.6372 17.8742 35.801C17.3233 35.0528 16.9279 34.2281 16.6879 33.327C16.5446 32.7881 16.4382 32.3557 16.3864 31.8355C16.2933 30.9012 16.329 30.0164 16.4934 29.1809C16.5926 28.6761 16.6856 28.2977 16.7723 28.0459C17.0322 27.2904 17.3109 26.6594 17.7444 26.0314C18.111 25.4999 18.5607 24.9929 19.0908 24.6563C19.2288 24.5687 19.3541 24.4793 19.4868 24.3912C19.5636 24.3402 19.6254 24.3365 19.7202 24.359C20.1145 24.4528 20.4986 24.5047 20.8725 24.5146C21.126 24.5215 21.4154 24.4934 21.6699 24.4634C21.8677 24.44 22.0495 24.3519 22.2295 24.3792C22.4649 24.415 22.7036 24.5231 22.874 24.611C22.9247 24.637 22.9712 24.6826 23.0304 24.7097C23.1482 24.7639 23.2488 24.8249 23.3754 24.8793C23.471 24.9204 23.561 24.9721 23.6454 25.0343C23.9767 25.2794 24.2649 25.553 24.51 25.8551C24.7128 26.1052 24.9013 26.387 25.0754 26.7006C25.3925 27.2715 25.6239 27.8303 25.7695 28.3772C25.8356 28.6256 25.9264 28.9978 25.9739 29.2874C26.1476 30.3444 26.1584 31.4736 25.9567 32.5121C25.8978 32.8159 25.8085 33.1721 25.6889 33.5805C25.6745 33.6297 25.6532 33.6951 25.6249 33.7767Z" fill="white"/>
</svg>
