<svg width="40" height="40" viewBox="0 0 40 40" fill="none" xmlns="http://www.w3.org/2000/svg">
<g clip-path="url(#clip0_1340_534)">
<path d="M19.4765 3.97258C19.6674 3.21073 19.855 2.52385 20.3399 1.90474C20.5894 1.58618 20.8212 1.25813 21.033 0.913385C21.1348 0.747722 21.3146 0.84856 21.3083 1.01684C21.3073 1.04936 21.3002 1.08767 21.2871 1.13176C21.0553 1.91227 20.6499 2.83258 20.829 3.64846C20.9181 4.05377 21.0278 4.45156 21.054 4.87685C21.0703 5.14793 21.0143 5.40276 20.886 5.64132C20.6945 5.9972 20.481 6.35112 20.3468 6.72337C20.1081 7.38602 19.8488 8.18978 20.2342 8.85832C20.3564 9.07069 20.4868 9.27837 20.6254 9.48136C20.9728 9.98948 21.0225 10.5064 21.0265 11.1049C21.0269 11.1783 21.0181 11.244 20.9999 11.302C20.9923 11.3267 20.9757 11.3376 20.9502 11.3348C20.112 11.2428 19.3302 11.3311 18.5255 11.5535C18.5165 11.5559 18.5124 11.5524 18.513 11.543C18.5366 11.2509 18.6443 11.1059 18.7559 10.8767C18.9314 10.5159 18.9112 10.1688 18.6954 9.83527C18.5569 9.62181 18.3549 9.38609 18.2468 9.09568C18.2023 8.97586 18.166 8.8162 18.1378 8.6167C18.1107 8.42594 18.0811 8.11219 18.0488 7.67544C18.0118 7.17616 18.1807 6.79998 18.4891 6.43166C18.7189 6.15708 18.9442 5.85086 19.1649 5.51298C19.3158 5.28151 19.3587 5.08409 19.3751 4.78583C19.3904 4.50951 19.4081 4.24727 19.4765 3.97258Z" fill="white"/>
<path d="M26.4433 8.87253C26.3592 9.10826 26.3181 9.35129 26.3198 9.60164C26.3203 9.68415 26.3407 9.85047 26.3811 10.1006C26.5412 11.0942 26.3123 11.8725 25.4971 12.468C25.3776 12.5551 25.2319 12.6284 25.097 12.706C24.7994 12.8766 24.529 13.1244 24.4101 13.4531C24.409 13.4562 24.4072 13.459 24.4047 13.4612C24.4023 13.4633 24.3993 13.4649 24.3961 13.4656C24.3929 13.4664 24.3896 13.4663 24.3865 13.4654C24.3833 13.4646 24.3804 13.4629 24.378 13.4607C23.8925 12.9987 23.4129 12.5423 22.8347 12.2028C22.8294 12.1997 22.8253 12.195 22.823 12.1894C22.8207 12.1837 22.8203 12.1775 22.8219 12.1717C22.9342 11.7438 23.2276 11.4793 23.6617 11.4013C23.833 11.3708 23.9471 11.3474 24.0038 11.3313C24.2435 11.2632 24.4988 11.1096 24.5948 10.8765C24.7369 10.5311 24.4812 10.2843 24.3797 9.98306C24.2287 9.53616 24.3063 9.01429 24.6845 8.69868C24.7975 8.60439 24.9115 8.51098 25.0263 8.41843C25.1821 8.29206 25.3186 8.11264 25.4414 7.9424C25.6654 7.63137 25.7505 7.3868 25.8251 6.95464C25.89 6.57912 25.9476 6.20425 26.0494 5.83167C26.1028 5.63654 26.1512 5.43159 26.2118 5.24727C26.2788 5.04275 26.3381 4.87556 26.3896 4.74569C26.4799 4.51783 26.7854 4.61997 26.7366 4.84784C26.6535 5.23701 26.6375 5.61548 26.6888 5.98325C26.6958 6.03367 26.7363 6.21101 26.8103 6.51527C26.9462 7.07414 27.0012 7.68605 26.7615 8.20497C26.6741 8.3942 26.5173 8.66463 26.4433 8.87253Z" fill="white"/>
<path d="M13.2006 10.3512C12.7429 9.82045 12.7046 9.22557 12.7236 8.54623C12.728 8.39235 12.7453 8.17507 12.7757 7.89438C12.8106 7.56873 12.8395 7.22016 12.8624 6.84867C12.8668 6.77512 12.9056 6.73125 12.979 6.71706C13.0978 6.69382 13.1387 6.7845 13.1522 6.88894C13.1631 6.97188 13.1788 7.05384 13.1993 7.13482C13.3621 7.77521 13.4936 8.23105 13.5938 8.50236C13.7356 8.88639 13.918 9.21412 14.2241 9.47734C14.5315 9.74155 14.8239 9.95796 14.8831 10.3888C14.9231 10.6786 14.8982 11.0495 14.9293 11.2888C14.9745 11.6398 15.1297 12.0716 15.3811 12.3355C15.3892 12.344 15.3884 12.3514 15.3788 12.3578C14.9889 12.6158 14.6517 12.9477 14.2997 13.2542C14.291 13.2618 14.2819 13.2622 14.2725 13.2552C13.7435 12.8482 13.5932 12.1427 13.6122 11.5137C13.6144 11.4404 13.5998 11.3042 13.5686 11.1052C13.5195 10.7938 13.4079 10.5915 13.2006 10.3512Z" fill="white"/>
<path d="M8.56233 14.8367C8.20513 14.3662 7.93732 13.8506 7.3241 13.7416C6.94563 13.6741 6.4028 13.7481 5.95819 13.6037C5.37411 13.4145 4.94423 12.9738 4.58377 12.5033C4.47114 12.3563 4.63779 12.19 4.80018 12.2611C5.14067 12.41 5.41798 12.5292 5.77812 12.5606C6.06492 12.5855 6.34288 12.573 6.61201 12.523C7.1198 12.4284 7.5798 12.3072 8.02866 12.4722C8.5836 12.6762 9.10646 13.2826 9.78712 13.3087C10.0255 13.3179 10.3113 13.2554 10.5572 13.2125C11.0921 13.1192 11.6127 13.1899 12.1277 13.3448C12.5674 13.4767 12.7861 13.807 13.0323 14.1472C13.0353 14.1513 13.0371 14.1562 13.0375 14.1614C13.0378 14.1665 13.0367 14.1717 13.0343 14.1763C12.8655 14.4976 12.7039 14.823 12.5494 15.1523C12.3179 15.6467 12.1434 16.1394 12.001 16.6554C12.0008 16.6564 12.0002 16.6573 11.9995 16.6579C11.9987 16.6585 11.9977 16.6589 11.9967 16.6589C11.9957 16.659 11.9947 16.6587 11.9939 16.6581C11.9931 16.6575 11.9925 16.6567 11.9922 16.6557C11.9025 16.4038 11.8084 16.1525 11.7099 15.9017C11.6477 15.7429 11.506 15.5252 11.3744 15.4139C11.136 15.2119 10.8587 15.1713 10.5506 15.2378C10.1627 15.3219 9.76945 15.337 9.3746 15.2967C9.03956 15.2624 8.76881 15.1091 8.56233 14.8367Z" fill="white"/>
<path d="M28.5654 13.2779C28.7674 13.2334 29.0257 13.1254 29.1999 13.0114C29.6792 12.6984 30.2099 12.5583 30.7757 12.5197C30.9038 12.5107 31.0771 12.5123 31.2956 12.5243C31.7474 12.5488 32.1923 12.5678 32.6435 12.5161C32.819 12.4958 32.9952 12.4923 33.1722 12.5056C33.3605 12.52 33.3919 12.7518 33.2276 12.8294C32.8802 12.9934 32.4199 13.1165 32.1314 13.2219C31.8867 13.3112 31.6423 13.401 31.398 13.4914C31.1311 13.5903 30.931 13.6766 30.7976 13.7504C30.4274 13.9547 30.1011 14.2223 29.8187 14.5531C29.6491 14.7518 29.4412 14.8571 29.195 14.8691C29.1555 14.871 29.014 14.8558 28.7707 14.8232C28.5249 14.7903 28.2775 14.7832 28.0285 14.802C27.4699 14.8445 27.2738 15.0521 26.9801 15.4915C26.9672 15.5104 26.9552 15.5099 26.9441 15.4898C26.709 15.0694 26.4458 14.6676 26.1544 14.2843C26.1488 14.277 26.145 14.2683 26.1434 14.2592C26.1418 14.25 26.1424 14.2405 26.1453 14.2316C26.326 13.6525 26.8947 13.4259 27.4378 13.332C27.8117 13.2675 28.198 13.3588 28.5654 13.2779Z" fill="white"/>
<path d="M23.3629 16.4707C23.4015 16.6911 23.423 16.9133 23.4274 17.1373C23.4322 17.3802 23.4392 17.6231 23.4483 17.8661C23.4675 18.3691 23.4263 18.8573 23.3246 19.3305C23.2522 19.6677 23.1134 19.9123 22.896 20.2842C22.781 20.4809 22.6594 20.73 22.5313 21.0317C22.4643 21.1897 22.4103 21.3025 22.3692 21.3702C22.235 21.5918 22.0445 21.8596 21.8791 22.0178C21.5304 22.3511 21.166 22.6166 20.69 22.738C20.4209 22.8068 20.0925 22.778 19.8139 22.7796C19.2828 22.7822 18.8435 22.5917 18.3432 22.4568C17.7942 22.3092 17.3915 22.0161 17.0032 21.6255C16.5248 21.1443 16.2786 20.5281 16.256 19.8465C16.24 19.356 16.2668 18.899 16.3795 18.4053C16.4891 17.926 16.5631 17.6303 16.7848 17.2266C17.1639 16.5362 17.5031 15.9229 18.3157 15.8287C18.8428 15.7678 19.3617 15.8074 19.8725 15.9475C20.1773 16.0313 20.4363 16.3256 20.5797 16.5938C20.7208 16.8573 20.8743 17.1569 20.9202 17.4539C20.9542 17.6732 20.9156 17.9456 20.8953 18.1849C20.8798 18.3685 20.8299 18.5979 20.7457 18.8731C20.6258 19.2651 20.3646 19.5404 19.9619 19.6988C19.8896 19.7272 19.7559 19.7475 19.5608 19.7597C19.2873 19.7767 19.0366 19.7312 18.8088 19.6232C18.4503 19.4536 18.2276 19.0218 18.2296 18.6344C18.2309 18.399 18.3455 17.8372 18.6834 17.9053C18.6888 17.9064 18.6937 17.9093 18.6972 17.9135C18.7008 17.9178 18.7028 17.9231 18.703 17.9286C18.7122 18.1329 18.7217 18.3689 18.7803 18.5497C18.8225 18.6796 18.9433 18.9612 19.0985 18.9779C19.4102 19.0115 19.6889 18.9373 19.9347 18.7553C20.0889 18.641 20.102 18.5035 20.1334 18.2933C20.1989 17.8528 20.1277 17.4329 19.92 17.0335C19.8573 16.9134 19.7568 16.8613 19.6184 16.877C19.3071 16.9127 18.9649 17.041 18.6791 17.1654C18.4771 17.2532 18.2463 17.3992 18.0256 17.5085C17.8046 17.6185 17.6786 17.7092 17.5768 17.9142C17.4628 18.1427 17.3813 18.3526 17.3721 18.5948C17.3601 18.9242 17.4143 19.2378 17.5345 19.5358C17.5965 19.6899 17.685 19.8336 17.8 19.967C18.0406 20.2459 18.3271 20.4673 18.6595 20.6312C18.8461 20.7236 19.0383 20.7013 19.239 20.7223C19.5922 20.7589 19.9501 20.7422 20.3056 20.7746C20.509 20.793 20.6966 20.7743 20.8439 20.6316C21.5452 19.9542 22.0392 19.0994 22.2484 18.144C22.3882 17.5039 22.4946 16.8236 22.3168 16.177C22.309 16.1489 22.2963 16.1195 22.2789 16.0889C22.1527 15.8691 22.0475 15.6394 21.9633 15.3998C21.9419 15.3389 21.885 15.2695 21.7927 15.1915C21.6077 15.0357 21.4512 14.8926 21.2492 14.8033C20.9454 14.6687 20.6926 14.5381 20.3305 14.4745C19.9514 14.4084 19.5624 14.3131 19.2082 14.3036C18.6071 14.2879 17.9667 14.3439 17.4055 14.576C17.2792 14.6282 17.1271 14.6725 16.9495 14.709C16.8539 14.7286 16.7574 14.7708 16.66 14.8357C16.49 14.9492 16.3202 15.0628 16.1506 15.1765C15.6549 15.5085 15.301 16.0893 15.0633 16.6236C14.918 16.9506 14.8279 17.3409 14.7729 17.6938C14.6686 18.3611 14.6339 19.0322 14.6688 19.7073C14.6773 19.873 14.6958 20.0373 14.7241 20.2004C14.7991 20.6319 14.8839 20.9783 15.1259 21.3263C15.8966 22.4355 16.8244 23.4295 18.1772 23.7939C18.5675 23.899 19.0717 24.0319 19.5117 24.0705C19.8797 24.1028 20.2479 24.1059 20.6163 24.0797C21.2021 24.0381 21.7027 23.7896 22.2111 23.5208C22.7919 23.2137 23.2411 22.7521 23.6661 22.2528C23.9863 21.876 24.2901 21.4006 24.5507 20.9822C24.6531 20.8176 24.7451 20.6335 24.8267 20.4299C24.9219 20.1929 25.0137 19.9545 25.1024 19.7149C25.3489 19.0473 25.3505 18.346 25.2084 17.6202C25.11 17.1193 24.9774 16.6281 24.8106 16.1466C24.7866 16.0767 24.759 15.9889 24.7278 15.883C24.6388 15.5795 24.4672 15.315 24.3595 15.0141C24.2456 14.695 24.1122 14.3797 23.9594 14.0682L23.959 14.0673L23.9594 14.0663L23.9604 14.0659L23.9614 14.0663C23.9742 14.0739 23.9856 14.0832 23.9954 14.0941C24.2191 14.3449 24.4412 14.5971 24.6617 14.8507C24.9616 15.1958 25.139 15.4525 25.3119 15.8588C25.636 16.6193 25.952 17.4011 26.1916 18.1921C26.3124 18.5912 26.465 19.0411 26.5488 19.3881C26.6503 19.8082 26.6441 20.2318 26.6228 20.6977C26.6019 21.1541 26.4617 21.5948 26.3216 22.0237C26.228 22.3098 26.0483 22.7913 25.7827 23.4681C25.7072 23.6604 25.6307 23.8361 25.5532 23.9952C25.4321 24.2438 25.3414 24.4131 25.2811 24.503C25.104 24.7679 24.9354 25.0534 24.7314 25.279C24.3356 25.7167 23.8173 26.1479 23.2195 26.2363C22.9314 26.2788 22.6421 26.3129 22.3516 26.3384C22.2481 26.3476 22.0352 26.3422 21.7128 26.3224C21.1146 26.286 20.5057 26.214 19.9042 26.1531C19.6506 26.1274 19.4423 26.093 19.2792 26.05C18.693 25.8955 18.1101 25.7291 17.5306 25.551C17.4173 25.5161 17.1653 25.4229 16.7746 25.2714C16.4394 25.1414 16.0936 24.9731 15.7374 24.7666C15.5707 24.6699 15.4327 24.5786 15.3236 24.4926C14.8348 24.1069 14.4272 23.7644 14.1283 23.239C13.9473 22.9207 13.7895 22.592 13.6548 22.2528C13.4499 21.7369 13.3392 21.1826 13.3297 20.6407C13.3209 20.1424 13.3713 19.6324 13.4047 19.0938C13.4257 18.7585 13.4731 18.3552 13.5072 18.0897C13.6057 17.3249 13.8542 16.6167 14.2461 15.9541C14.4403 15.6263 14.6416 15.3081 14.8996 15.0337C14.9799 14.9484 15.1003 14.8376 15.2607 14.7014C15.7509 14.2856 16.2626 13.845 16.8257 13.5811C17.1044 13.4506 17.3584 13.3433 17.5876 13.2592C17.9539 13.125 18.3579 13.0805 18.7502 13.0117C19.1515 12.9413 19.5605 13.0026 20.009 13.1024C20.5175 13.2157 21.0315 13.3172 21.483 13.5454C21.6925 13.6515 21.905 13.8014 22.0998 13.9704C22.2932 14.1378 22.4158 14.2489 22.4678 14.3036C22.8878 14.746 23.155 15.3376 23.3259 15.9161C23.3767 16.0889 23.3974 16.2028 23.3878 16.2575C23.374 16.3361 23.3485 16.3892 23.3629 16.4707Z" fill="white"/>
<path d="M1.84828 18.2487C2.54073 18.5829 3.28098 18.7895 4.0579 18.7168C4.19454 18.704 4.38846 18.6842 4.63969 18.6576C5.18906 18.5996 5.67165 18.7614 6.13918 19.0338C6.51929 19.2554 7.02545 19.3939 7.49559 19.5203C7.85868 19.6182 8.24436 19.7026 8.60286 19.5854C8.69671 19.5549 8.84153 19.4768 9.03732 19.3513C9.34529 19.154 9.54686 19.0277 9.64202 18.9722C10.1927 18.6517 10.7968 18.5908 11.4165 18.7037C11.4233 18.705 11.4293 18.7086 11.4336 18.714C11.4378 18.7193 11.44 18.726 11.4398 18.7329C11.4112 19.5477 11.4358 20.3608 11.5138 21.1723C11.5139 21.174 11.5136 21.1757 11.5128 21.1772C11.512 21.1787 11.5108 21.18 11.5093 21.1808C11.5078 21.1816 11.5061 21.182 11.5044 21.1819C11.5027 21.1818 11.5011 21.1812 11.4997 21.1802C11.2345 20.9829 10.9393 20.8559 10.6141 20.7994C10.4 20.7624 10.1796 20.8891 10.0061 21.0086C9.77669 21.1666 9.62042 21.2715 9.53726 21.3232C8.38874 22.036 7.22484 21.4925 6.20204 20.8947C5.62451 20.5568 5.02537 20.4583 4.36926 20.379C3.96743 20.3308 3.59016 20.2084 3.23744 20.0117C2.78563 19.76 2.34866 19.4848 1.92653 19.186C1.44962 18.8486 0.986023 18.4367 0.535739 17.9504C0.395612 17.7988 0.479426 17.5795 0.6942 17.6122C0.745275 17.6198 0.798641 17.64 0.854299 17.6728C1.18563 17.8676 1.46392 18.063 1.84828 18.2487Z" fill="white"/>
<path d="M28.5152 18.3886C28.819 18.5487 29.1019 18.8018 29.4797 18.6924C29.5393 18.6752 29.6276 18.6277 29.7446 18.55C29.906 18.4426 30.0484 18.3352 30.2291 18.2576C30.8147 18.0062 31.396 17.9093 31.9728 17.9669C32.5235 18.0219 33.0293 18.3005 33.5902 18.5824C34.1695 18.8733 34.7448 19.0436 35.3162 19.0931C36.4562 19.1923 37.4067 19.7692 38.2733 20.4747C38.4267 20.5996 38.7564 20.8591 39.2624 21.2533C39.3534 21.324 39.5197 21.4612 39.5325 21.5823C39.5495 21.7424 39.3681 21.8086 39.2303 21.7486C38.6325 21.4902 38.0272 21.2501 37.4145 21.0284C37.0812 20.9077 36.7419 20.8063 36.3966 20.7242C35.9903 20.628 35.475 20.5906 35.1057 20.7327C34.9798 20.7814 34.8531 20.8278 34.7256 20.8719C34.4266 20.9758 34.1209 20.9645 33.8086 20.8382C33.4196 20.6807 33.1495 20.5189 32.8339 20.3009C32.5045 20.073 31.9741 19.9935 31.5842 20.0049C31.0358 20.021 30.807 20.3471 30.3941 20.6178C29.8598 20.9685 29.2832 21.2084 28.6288 21.1014C28.3992 21.0638 28.1692 21.0215 27.9389 20.9744C27.9361 20.9738 27.9335 20.9721 27.9318 20.9697C27.9301 20.9673 27.9294 20.9642 27.9298 20.9613C27.9739 20.6539 28.0038 20.3451 28.0195 20.0347C28.0509 19.4195 27.9867 18.8191 27.8512 18.2177C27.8509 18.2163 27.8509 18.2149 27.8513 18.2135C27.8516 18.2121 27.8523 18.2108 27.8532 18.2097C27.8541 18.2087 27.8553 18.2078 27.8566 18.2073C27.8579 18.2067 27.8593 18.2065 27.8607 18.2065C28.0941 18.22 28.3014 18.276 28.5152 18.3886Z" fill="white"/>
<path d="M33.3273 25.5932C33.9101 25.6348 34.3429 25.9141 34.8216 26.2104C34.9627 26.2978 34.9159 26.5322 34.7191 26.5289C34.6156 26.527 34.469 26.4834 34.3694 26.4723C33.8269 26.4101 33.3165 26.5093 32.6735 26.6062C32.3392 26.6566 31.9637 26.6278 31.6108 26.5394C31.3462 26.4733 31.084 26.3705 30.8237 26.2805C30.5672 26.1916 30.2752 26.1625 29.9476 26.193C29.7361 26.2127 29.4427 26.2935 29.2257 26.3076C28.7355 26.3391 28.1734 26.2192 27.7625 25.9206C27.4446 25.6895 27.1791 25.2377 27.0082 24.8838C27.0036 24.8744 27.0011 24.8642 27.0007 24.8538C27.0003 24.8434 27.0021 24.8331 27.0059 24.8235C27.2696 24.1552 27.4691 23.4683 27.6044 22.7629C27.607 22.7494 27.6136 22.737 27.6234 22.7274C27.6331 22.7177 27.6456 22.7113 27.6591 22.7089C27.8817 22.668 28.177 23.2249 28.2474 23.382C28.3594 23.6312 28.4088 23.8803 28.6668 24.0984C28.9402 24.3295 29.2771 24.2971 29.6143 24.2676C29.9695 24.2368 30.2819 24.2414 30.5706 24.4693C31.1524 24.928 31.634 25.4751 32.4273 25.5301C32.7274 25.5508 33.0274 25.5719 33.3273 25.5932Z" fill="white"/>
<path d="M11.7672 24.5439C12.0455 24.4339 12.2999 24.3036 12.4649 24.0925C12.466 24.0911 12.4673 24.09 12.4689 24.0892C12.4704 24.0884 12.4721 24.088 12.4738 24.0879C12.4755 24.0878 12.4772 24.088 12.4788 24.0887C12.4803 24.0893 12.4817 24.0902 12.4829 24.0915C12.8633 24.4886 13.305 24.8294 13.7322 25.1722C13.7405 25.1789 13.7466 25.1879 13.7496 25.198C13.7527 25.2082 13.7525 25.2191 13.7493 25.2292C13.561 25.8061 12.6901 26.1449 12.1571 26.2192C12.0652 26.2321 11.9203 26.24 11.7223 26.2428C11.4611 26.2467 11.2185 26.2487 10.9582 26.2821C10.6256 26.3246 10.4281 26.4883 10.1872 26.7021C9.86436 26.9886 9.36213 27.0544 8.96073 27.0557C8.56393 27.057 8.17127 27.0162 7.78275 26.9333C7.52913 26.8791 7.27561 26.8235 7.0222 26.7663C6.94821 26.7497 6.90249 26.7061 6.88502 26.6353C6.8839 26.6309 6.88368 26.6262 6.88438 26.6216C6.88507 26.617 6.88667 26.6126 6.88907 26.6087C6.89148 26.6047 6.89465 26.6013 6.89839 26.5985C6.90214 26.5958 6.90638 26.5939 6.91089 26.5928C7.09882 26.5466 7.29525 26.5132 7.47041 26.4592C7.88315 26.3324 8.2709 26.1966 8.63366 26.0519C8.79081 25.9893 8.93934 25.9063 9.07925 25.8031C9.56871 25.442 9.75861 24.7685 10.4671 24.7243C10.9353 24.6949 11.3393 24.7132 11.7672 24.5439Z" fill="white"/>
<path d="M26.7171 28.9209C26.8464 29.1832 27.0439 29.4373 27.1005 29.7745C27.1367 29.9895 27.1551 30.2052 27.1555 30.4217C27.1559 30.549 27.1376 30.7471 27.1005 31.016C27.0619 31.2992 27.0396 31.5883 26.9954 31.8639C26.9257 32.2971 26.8926 32.7309 26.7823 33.1568C26.7543 33.2657 26.6895 33.3159 26.5878 33.3074C26.4732 33.2976 26.4395 33.2017 26.4372 33.0943C26.4304 32.7577 26.3972 32.4234 26.3377 32.0915C26.2606 31.6615 26.1898 31.2304 26.1252 30.7982C26.0617 30.3736 25.8606 30.1274 25.5339 29.8773C25.4359 29.8024 25.3387 29.7267 25.2422 29.6501C24.9958 29.4545 24.8671 29.207 24.8562 28.9075C24.8474 28.669 24.857 28.4316 24.885 28.1954C24.9239 27.8628 24.7868 27.6945 24.5979 27.446C24.5964 27.4442 24.5954 27.442 24.5949 27.4398C24.5943 27.4375 24.5942 27.4351 24.5946 27.4328C24.595 27.4305 24.5959 27.4283 24.5972 27.4264C24.5985 27.4244 24.6002 27.4227 24.6021 27.4215C24.8429 27.2617 25.0736 27.087 25.2942 26.8973C25.4616 26.7535 25.63 26.6111 25.7994 26.4701C25.8217 26.4515 25.8421 26.4312 25.8606 26.4092C25.8674 26.4011 25.8751 26.3998 25.8839 26.4052C25.9697 26.4583 26.0721 26.4926 26.1409 26.5578C26.468 26.8678 26.5122 27.3789 26.4902 27.7944C26.4824 27.9469 26.4824 28.0612 26.4902 28.1372C26.5184 28.4106 26.594 28.6719 26.7171 28.9209Z" fill="white"/>
<path d="M16.2146 27.9688C15.88 28.1017 15.3297 28.2795 15.2599 28.6625C15.2195 28.8845 15.2262 29.1052 15.2799 29.3245C15.4069 29.8467 15.5238 30.4969 15.1774 30.9658C14.9931 31.2149 14.74 31.4218 14.5131 31.6363C14.1802 31.9509 13.9048 32.4299 13.8816 32.9013C13.8698 33.1379 13.8406 33.3725 13.7942 33.6049C13.6838 34.1549 13.3869 34.4804 13.0274 34.8811C12.8339 35.0969 12.6132 34.8772 12.7507 34.6444C12.8442 34.4859 12.8942 34.3142 12.901 34.1291C12.9106 33.8698 12.9092 33.6106 12.8968 33.3515C12.882 33.0441 12.7822 32.5838 12.8057 32.242C12.8385 31.7636 13.0248 31.3678 13.251 30.9088C13.3964 30.6139 13.4496 30.315 13.4108 30.0121C13.3535 29.5678 13.2559 29.1189 13.3636 28.6616C13.5127 28.0284 13.8414 27.5113 14.3498 27.1103C14.4676 27.0174 14.6303 26.8958 14.8379 26.7456C14.9689 26.651 15.0903 26.5358 15.216 26.4297C15.2243 26.4227 15.2332 26.4219 15.2426 26.4274C15.8358 26.7767 16.4625 26.9853 17.1218 27.1693C17.1249 27.1701 17.1278 27.1716 17.1302 27.1737C17.1327 27.1758 17.1346 27.1783 17.136 27.1812C17.1374 27.1841 17.1381 27.1872 17.1381 27.1904C17.1382 27.1936 17.1375 27.1968 17.1362 27.1997C16.9778 27.5618 16.5721 27.827 16.2146 27.9688Z" fill="white"/>
<path d="M17.8083 38.8347C18.4785 38.0637 18.8966 37.1267 18.966 36.1023C18.9719 36.0167 18.9608 35.8831 18.9326 35.7015C18.8606 35.235 18.762 34.7432 18.7519 34.3009C18.7457 34.0347 18.8341 33.7371 18.949 33.4739C19.0691 33.1992 19.3019 32.883 19.3867 32.6384C19.5301 32.2239 19.6833 31.7034 19.6329 31.264C19.571 30.7271 19.2001 30.3037 18.949 29.8359C18.6196 29.2214 18.6858 28.6402 18.8825 27.9989C18.8859 27.9881 18.8928 27.9789 18.9023 27.9727C18.9117 27.9664 18.923 27.9637 18.9343 27.9648C19.4603 28.0174 19.9883 28.0223 20.5182 27.9795C20.6725 27.9669 20.9468 27.935 21.341 27.8839C21.3538 27.8824 21.3568 27.887 21.3498 27.8977C21.1545 28.2037 21.04 28.5496 21.0064 28.9355C20.9874 29.1553 21.0374 29.3464 21.1563 29.5088C21.4209 29.8696 21.5795 30.2719 21.6324 30.7156C21.6563 30.9163 21.6897 31.1487 21.7034 31.281C21.7633 31.8474 21.5764 32.4226 21.2781 32.9078C20.8355 33.6271 20.365 34.3523 20.2655 35.2101C20.2428 35.4061 20.2209 35.6021 20.2 35.7981C20.1546 36.2231 20.0238 36.6195 19.8078 36.9875C19.3157 37.8263 18.8874 38.562 18.1187 39.0881C17.9976 39.1709 17.843 39.2315 17.7628 39.0691C17.7244 38.9919 17.7396 38.9137 17.8083 38.8347Z" fill="white"/>
</g>
<defs>
<clipPath id="clip0_1340_534">
<rect width="40" height="40" fill="white"/>
</clipPath>
</defs>
</svg>
