<svg width="40" height="40" viewBox="0 0 40 40" fill="none" xmlns="http://www.w3.org/2000/svg">
<path d="M12.2577 21.7755C12.3027 21.8229 12.3997 21.8691 12.4306 21.9319C12.4759 22.0237 12.5328 22.1081 12.6013 22.1852C12.846 22.4609 13.032 22.6905 13.1595 22.8741C13.2052 22.9398 13.2462 22.9907 13.2823 23.0268C13.416 23.1609 13.5219 23.305 13.6275 23.477C13.6706 23.5474 13.752 23.5875 13.7998 23.641C13.8575 23.7059 13.9091 23.7751 13.9546 23.8485C14.0143 23.9446 14.126 24.142 14.2328 24.1671C14.2375 24.1682 14.242 24.1702 14.246 24.173C14.2499 24.1759 14.2532 24.1795 14.2558 24.1836C14.3531 24.34 14.4268 24.4649 14.5826 24.6372C14.7286 24.7991 14.8519 24.9658 14.9875 25.1311C14.9962 25.1417 15.021 25.1811 15.0618 25.2492C15.1032 25.3181 15.1689 25.3487 15.213 25.4019C15.2659 25.4658 15.3166 25.531 15.3651 25.5975C15.4251 25.6795 15.4842 25.8233 15.598 25.909C15.6496 25.9478 15.6864 25.9805 15.7085 26.0073C15.8437 26.1722 15.9239 26.3629 16.0791 26.4874C16.127 26.5258 16.1559 26.5535 16.1657 26.5707C16.2799 26.7692 16.378 26.9058 16.4598 26.9804C16.5173 27.0329 16.5609 27.0822 16.5905 27.1286C16.6657 27.2458 16.7475 27.3504 16.8322 27.4603C16.8748 27.5157 16.8959 27.59 16.9476 27.636C17.0814 27.7547 17.1781 27.8659 17.2377 27.9695C17.2846 28.0509 17.3253 28.1166 17.3598 28.1666C17.3755 28.1895 17.4163 28.2316 17.4822 28.293C17.5848 28.3888 17.6325 28.5314 17.6903 28.6189C17.7603 28.7246 17.8328 28.8284 17.9079 28.9305C17.9189 28.9451 17.9177 28.9537 17.9235 28.969C17.9258 28.9749 17.9291 28.9756 17.9336 28.9712L17.9404 28.9647C17.9407 28.9644 17.9411 28.9641 17.9416 28.964C17.942 28.9638 17.9425 28.9637 17.943 28.9638C17.9434 28.9639 17.9439 28.964 17.9443 28.9643C17.9447 28.9646 17.945 28.9649 17.9453 28.9653L18.0417 29.1324C18.0519 29.1502 18.066 29.1542 18.0842 29.1444C18.3664 28.9911 18.6014 28.827 18.9334 28.7003C19.0353 28.6615 19.2202 28.5687 19.3579 28.4723C19.5394 28.3453 19.7701 28.2752 19.9363 28.1987C20.0457 28.1483 20.1558 28.0998 20.2668 28.0531C20.325 28.0286 20.3638 27.983 20.4275 27.9521C20.5268 27.9037 20.6208 27.8637 20.7093 27.8321C20.8412 27.785 20.9453 27.736 21.0637 27.6846C21.1359 27.6534 21.2574 27.6295 21.3257 27.579C21.5206 27.4346 21.6951 27.4156 21.9298 27.3152C22.0816 27.2504 22.2701 27.2112 22.4289 27.0848C22.4724 27.0505 22.6037 27.0251 22.6704 26.9945C22.7761 26.9462 22.8844 26.9058 22.9954 26.8733C23.1692 26.8222 23.3155 26.7622 23.4783 26.7111C23.5921 26.6753 23.6898 26.5945 23.7987 26.5642C23.9901 26.511 24.18 26.4528 24.3685 26.3898C24.423 26.3717 24.4946 26.3665 24.5418 26.3491C24.6425 26.3116 24.7446 26.2782 24.8481 26.249C24.9032 26.2335 24.9624 26.2086 25.0259 26.1744C25.1866 26.0881 25.3686 26.0578 25.5198 26.0051C25.776 25.9164 26.0483 25.8509 26.3103 25.778C26.4373 25.7425 26.5533 25.6746 26.6739 25.6492C26.9331 25.5941 27.0904 25.6119 27.319 25.6749C27.3249 25.6766 27.3305 25.6794 27.3353 25.6832C27.3402 25.6871 27.3442 25.6918 27.3472 25.6973C27.3501 25.7027 27.352 25.7086 27.3526 25.7148C27.3532 25.7209 27.3526 25.7271 27.3508 25.7331C27.3086 25.868 27.2082 25.8821 27.1292 25.9745C27.069 26.0455 27.0169 26.1006 26.9664 26.1869C26.9013 26.2985 26.8149 26.3914 26.7072 26.4657C26.6727 26.4894 26.6314 26.5393 26.5833 26.6156C26.5004 26.7474 26.4197 26.8457 26.3409 26.9104C26.2648 26.9728 26.2028 27.0335 26.1548 27.0924C26.0704 27.1959 26.0243 27.2515 26.0165 27.2592C25.9598 27.3153 25.9005 27.3685 25.8387 27.4187C25.7769 27.4689 25.7201 27.5236 25.6683 27.583C25.5701 27.6952 25.463 27.798 25.3469 27.8915C25.2884 27.9386 25.2348 27.9909 25.1863 28.0485C25.0727 28.1828 24.95 28.2835 24.8236 28.3915C24.7924 28.4181 24.7589 28.4556 24.7232 28.5042C24.5929 28.6807 24.408 28.7863 24.2703 28.9451C24.1106 29.1294 23.9168 29.2757 23.7669 29.4651C23.682 29.5726 23.6106 29.648 23.5527 29.6913C23.4642 29.7574 23.4006 29.8115 23.3323 29.9079C23.2423 30.0352 23.1426 30.1408 23.0186 30.2354C22.974 30.2694 22.9287 30.3207 22.8828 30.389C22.8393 30.4541 22.7483 30.5496 22.6098 30.6754C22.5418 30.7371 22.4745 30.8084 22.4078 30.8894C22.3337 30.9793 22.2554 31.0653 22.1728 31.1473C21.9895 31.3294 21.8407 31.5339 21.6507 31.7107C21.6161 31.7429 21.5935 31.7802 21.5607 31.8154C21.3208 32.0757 21.0834 32.3382 20.8486 32.6028C20.8115 32.6441 20.7788 32.7228 20.7207 32.7653C20.5943 32.8581 20.4673 33.0395 20.362 33.195C20.353 33.2083 20.3314 33.2298 20.2971 33.2596C20.1618 33.3771 20.074 33.4683 20.0336 33.5332C19.9538 33.6609 19.8801 33.7551 19.8124 33.8159C19.7195 33.8992 19.6581 33.9645 19.6281 34.0118C19.5377 34.1538 19.432 34.2823 19.3108 34.3974C19.2616 34.4441 19.2189 34.4946 19.1825 34.5489C19.1185 34.6446 19.0481 34.7355 18.9714 34.8218C18.9704 34.8229 18.9334 34.8554 18.8606 34.9195C18.7969 34.9755 18.7749 35.0495 18.7269 35.1058C18.6291 35.2215 18.5323 35.3374 18.4364 35.4535C18.3379 35.5725 18.2311 35.6812 18.1371 35.8051C18.122 35.8249 18.0975 35.8693 18.0634 35.9382C18.008 36.0496 17.9073 36.0934 17.8394 36.1733C17.7757 36.248 17.7356 36.2994 17.7191 36.3275C17.623 36.4894 17.5652 36.5794 17.4299 36.6871C17.3366 36.7615 17.3127 36.8701 17.2423 36.9579C17.1664 37.0522 17.0578 37.2175 16.951 37.2713C16.942 37.276 16.937 37.2834 16.936 37.2933C16.9256 37.3946 16.7181 37.6266 16.6498 37.7181C16.5902 37.7983 16.6024 37.8815 16.4947 37.9232C16.4849 37.9268 16.4768 37.9329 16.4705 37.9412C16.3854 38.0535 16.2777 38.1714 16.229 38.3042C16.2074 38.3623 16.1589 38.4223 16.0834 38.4841C16.0234 38.5334 15.9913 38.5805 15.957 38.6436C15.9564 38.6446 15.9555 38.6454 15.9544 38.6457C15.9532 38.6461 15.952 38.646 15.951 38.6455C15.9499 38.645 15.9491 38.6441 15.9487 38.643C15.9482 38.6419 15.9483 38.6407 15.9487 38.6396C15.9864 38.5374 16.0243 38.4266 16.0947 38.3381C16.1222 38.3039 16.1238 38.2592 16.1379 38.2261C16.1748 38.1398 16.2128 38.0541 16.252 37.9691C16.3089 37.8448 16.3781 37.6254 16.4913 37.469C16.5327 37.4117 16.5648 37.3569 16.5874 37.3047C16.6612 37.1348 16.7514 36.9901 16.8249 36.8089C16.8907 36.6464 17.0088 36.5479 17.081 36.4077C17.1594 36.2556 17.2371 36.131 17.3127 35.99C17.3418 35.9358 17.3656 35.8223 17.4085 35.7822C17.5578 35.6432 17.6056 35.4768 17.6959 35.3274C17.7442 35.2476 17.7918 35.1675 17.8388 35.0869C17.873 35.0283 17.9255 34.9515 17.9961 34.8564C18.1583 34.6385 18.2262 34.3796 18.4123 34.1862C18.486 34.1097 18.4891 34.036 18.5463 33.9607C18.6367 33.8419 18.7158 33.7164 18.7838 33.584C18.8075 33.5381 18.839 33.4947 18.8784 33.4539C19.058 33.2678 19.1216 33.0276 19.2829 32.8385C19.3329 32.7797 19.3715 32.7263 19.3986 32.6781C19.4672 32.5567 19.5424 32.4396 19.6245 32.3268C19.6584 32.28 19.6869 32.1805 19.7175 32.1527C19.8344 32.0455 19.9292 31.9224 20.0018 31.7833C20.0535 31.6841 20.1019 31.6223 20.1637 31.5406C20.2212 31.4641 20.2993 31.4127 20.3497 31.3224C20.4022 31.2287 20.4299 31.1797 20.433 31.1752C20.5179 31.0514 20.6075 30.9311 20.702 30.8144C20.8177 30.6716 20.9315 30.5272 21.0435 30.3813C21.0543 30.3675 21.0682 30.3404 21.0851 30.3003C21.089 30.2915 21.0865 30.2887 21.0775 30.292C21.0579 30.2993 21.0451 30.307 21.0392 30.3149C20.9744 30.3988 20.8458 30.452 20.7485 30.4854C20.5398 30.5567 20.3479 30.658 20.1386 30.7299C20.0238 30.7697 19.9709 30.849 19.8466 30.8933C19.7212 30.9384 19.5983 30.9898 19.4782 31.0476C19.3215 31.1229 19.1461 31.1553 19.0014 31.2551C18.9473 31.2924 18.8983 31.3197 18.8545 31.3371C18.699 31.3989 18.554 31.4858 18.4016 31.5385C18.2589 31.5878 18.1174 31.6398 17.9768 31.6945C17.8642 31.7383 17.7534 31.8234 17.6258 31.8677C17.1908 32.0189 16.7457 32.1477 16.2906 32.254C16.2765 32.2572 16.2667 32.2521 16.2612 32.2386C16.2089 32.112 16.1324 31.9983 16.0317 31.8977C16.0113 31.8773 15.9891 31.8352 15.9652 31.7713C15.9099 31.6226 15.8098 31.4815 15.7308 31.3432C15.6852 31.263 15.6895 31.2092 15.6032 31.1528C15.5093 31.0916 15.4043 30.8594 15.3351 30.7201C15.2933 30.6361 15.2359 30.5531 15.1628 30.4713C15.1167 30.4195 15.0798 30.3676 15.052 30.3156C14.9768 30.1754 14.8779 30.0484 14.8198 29.8994C14.792 29.8284 14.7649 29.7808 14.7384 29.7567C14.5716 29.6046 14.5058 29.4155 14.406 29.2591C14.2242 28.9745 14.018 28.7416 13.8695 28.4237C13.8359 28.3518 13.7875 28.2933 13.7223 28.2303C13.6158 28.1274 13.5871 28.0173 13.5231 27.9181C13.4119 27.7459 13.2942 27.5783 13.17 27.4153C13.0816 27.2994 13.0072 27.1752 12.9469 27.0426C12.9216 26.9869 12.8644 26.9214 12.7755 26.8461C12.7269 26.8051 12.674 26.7207 12.6167 26.593C12.5854 26.5236 12.5258 26.4343 12.4376 26.3249C12.2718 26.119 12.1304 25.9115 11.9979 25.6914C11.9607 25.6296 11.9079 25.5638 11.8393 25.494C11.7759 25.4296 11.7084 25.3264 11.6367 25.1846C11.5859 25.0841 11.5117 24.9882 11.414 24.897C11.3319 24.8205 11.3169 24.744 11.2524 24.6641C11.1863 24.5827 11.1238 24.4987 11.0651 24.4122C11.0165 24.341 10.9539 24.2578 10.8772 24.1625C10.7892 24.0532 10.712 23.936 10.6455 23.8112C10.6014 23.7286 10.5285 23.641 10.4267 23.5486C10.3588 23.4868 10.3168 23.3665 10.2688 23.2967C10.1978 23.1933 10.1503 23.1297 10.0451 23.0152C9.98111 22.9457 9.94286 22.8551 9.89145 22.7884C9.81188 22.685 9.73833 22.5777 9.6708 22.4665C9.63713 22.4112 9.5948 22.3564 9.54379 22.3022C9.35712 22.1041 9.28428 21.8587 9.1025 21.6742C9.06047 21.6313 9.02803 21.589 9.00518 21.5472C8.93908 21.4266 8.86655 21.3099 8.78759 21.1971C8.74138 21.131 8.72792 21.0431 8.66946 20.9877C8.56276 20.8866 8.4836 20.7809 8.43198 20.6707C8.36058 20.5187 8.27723 20.3887 8.18196 20.2808C8.13564 20.2284 8.09943 20.1776 8.07332 20.1284C8.01252 20.0142 7.94723 19.9026 7.87746 19.7936C7.81594 19.6972 7.79207 19.5797 7.70179 19.4842C7.64426 19.4234 7.60794 19.3808 7.59285 19.3563C7.494 19.1935 7.4282 19.0142 7.29875 18.8593C7.25081 18.8018 7.21214 18.7457 7.18276 18.691C7.14237 18.6159 7.09942 18.5423 7.05393 18.47C6.95538 18.314 6.9205 18.1322 6.76932 18.0061C6.67689 17.9293 6.66802 17.8145 6.60712 17.7187C6.53306 17.6026 6.46573 17.483 6.40514 17.3598C6.38106 17.3106 6.34801 17.2624 6.30599 17.2153C6.13583 17.0247 6.06606 16.7752 5.92406 16.5757C5.83511 16.4506 5.77951 16.37 5.75727 16.3336C5.69831 16.2378 5.6369 16.1434 5.57304 16.0506C5.51092 15.9606 5.48827 15.8464 5.40013 15.7764C5.34403 15.7319 5.31087 15.7028 5.30067 15.6891C5.26252 15.639 5.21978 15.5706 5.17245 15.4841C5.1398 15.4243 5.07319 15.3342 4.97261 15.2139C4.92058 15.1518 4.8352 15.1104 4.78165 15.0336C4.77389 15.0226 4.77665 15.0182 4.78991 15.0205C4.90314 15.0382 4.93068 14.9935 5.02188 14.9583C5.13786 14.9137 5.43777 14.9158 5.52101 15.0238C5.58895 15.1118 5.66301 15.1739 5.74319 15.2102C5.79828 15.235 5.89131 15.2234 5.95252 15.2374C6.1545 15.2843 6.34852 15.3274 6.55356 15.395C6.6417 15.4242 6.73035 15.4516 6.8195 15.4771C6.87765 15.4936 6.91131 15.5236 6.95967 15.5566C7.00394 15.5866 7.08708 15.6185 7.20908 15.6524C7.3976 15.7051 7.56499 15.7782 7.74769 15.8339C7.84297 15.8629 7.92958 15.9098 8.00752 15.9747C8.05985 16.0181 8.1994 16.0441 8.26366 16.0689C8.3314 16.0948 8.39872 16.1216 8.46564 16.1491C8.63488 16.2189 8.83533 16.2718 8.98712 16.3529C9.22807 16.4819 9.39475 16.5591 9.48717 16.5846C9.73169 16.6528 9.88134 16.7419 10.1124 16.8144C10.2186 16.8478 10.2887 16.9469 10.4175 16.9827C10.6051 17.0354 10.7731 17.1204 10.9598 17.1795C11.2548 17.2722 11.5177 17.4415 11.78 17.5287C11.9813 17.5958 12.1311 17.6506 12.2292 17.693C12.3057 17.7258 12.4391 17.7399 12.5248 17.8001C12.5838 17.8416 12.6199 17.8653 12.6332 17.8714C12.7467 17.9241 12.8755 17.9476 12.9833 17.9911C13.1485 18.0575 13.3392 18.1095 13.4836 18.1698C13.6119 18.2231 13.7211 18.2668 13.8582 18.3391C13.9525 18.3886 14.0506 18.4283 14.1526 18.4581C14.3151 18.5055 14.428 18.5502 14.5661 18.605C14.6306 18.6304 14.7567 18.6512 14.809 18.6928C14.9578 18.8113 15.127 18.8431 15.2696 18.9C15.3969 18.9505 15.5025 18.9961 15.6488 19.038C15.7484 19.0666 15.843 19.1062 15.9328 19.1568C16.0207 19.2066 16.0918 19.2419 16.1461 19.263C16.271 19.311 16.3866 19.3612 16.5188 19.4031C16.619 19.4347 16.7177 19.4705 16.8148 19.5102C16.9035 19.5467 17.1569 19.5953 17.2157 19.6593C17.22 19.664 17.2189 19.6664 17.2126 19.6666C17.21 19.6668 17.2073 19.6669 17.2047 19.6669C17.2032 19.6669 17.2017 19.6674 17.2006 19.6683C17.1994 19.6692 17.1986 19.6705 17.1982 19.6719C17.1978 19.6733 17.1979 19.6749 17.1985 19.6762C17.199 19.6776 17.2 19.6787 17.2013 19.6795C17.3378 19.7551 17.5015 19.7881 17.6255 19.8352C17.7166 19.8701 17.809 19.9013 17.9024 19.9289C18.0576 19.9748 18.198 20.0308 18.3477 20.0788C18.4048 20.0972 18.4716 20.1265 18.5481 20.1667C18.7183 20.256 18.9163 20.2924 19.0907 20.3515C19.2517 20.4063 19.4347 20.4476 19.5993 20.5171C19.6106 20.5218 19.6233 20.5225 19.6351 20.519C19.6469 20.5155 19.6572 20.508 19.6642 20.4978C19.6948 20.4528 19.7117 20.4164 19.757 20.3794C19.8821 20.2768 19.9014 20.1388 19.988 20.0137C20.0918 19.8643 20.1918 19.7079 20.3011 19.5632C20.3951 19.4387 20.4886 19.2868 20.5814 19.1075C20.6487 18.978 20.7825 18.9064 20.8486 18.7617C20.9092 18.6298 20.9811 18.5303 21.0585 18.4171C21.0851 18.3782 21.1316 18.2831 21.1837 18.2271C21.3027 18.0982 21.3939 17.9522 21.4863 17.7888C21.5561 17.6658 21.6712 17.5862 21.755 17.4843C21.7681 17.4684 21.8039 17.4115 21.8624 17.3135C21.9353 17.1913 22.0274 17.0844 22.1388 16.9928C22.1631 16.973 22.1946 16.9222 22.2334 16.8404C22.2635 16.7766 22.332 16.6842 22.4387 16.5635C22.6343 16.3416 22.8108 16.1369 22.9626 15.9021C22.9902 15.8593 23.0523 15.8391 23.0765 15.8109C23.1652 15.7072 23.2463 15.616 23.3213 15.4924C23.4143 15.3397 23.5814 15.2319 23.6729 15.0915C23.7547 14.966 23.8415 14.8584 23.9334 14.7686C24.1148 14.5911 24.2746 14.3692 24.4362 14.2098C24.6155 14.0326 24.7009 13.8496 24.8768 13.7033C24.9359 13.654 24.9561 13.587 24.9977 13.5365C25.0897 13.4251 25.1813 13.3137 25.2725 13.2023C25.297 13.1723 25.305 13.1365 25.3423 13.1075C25.3921 13.0689 25.4368 13.0265 25.4764 12.9802C25.4817 12.974 25.4803 12.9716 25.4724 12.9728C25.1486 13.0197 24.8242 13.0661 24.4992 13.1118C24.3563 13.1316 24.1503 13.2072 24.0288 13.206C23.743 13.203 23.4308 13.217 23.1719 13.2161C22.4868 13.2139 21.885 13.2179 21.3664 13.2284C18.7039 13.2816 16.0414 13.3362 13.379 13.3921C12.8244 13.4037 12.2641 13.4046 11.7108 13.4404C11.7002 13.4412 11.6982 13.4375 11.705 13.4291C11.7674 13.3517 11.8151 13.2874 11.892 13.214C11.9293 13.1785 11.9443 13.128 11.9697 13.0928C12.0597 12.9682 12.1815 12.8268 12.2414 12.6864C12.2637 12.6341 12.2836 12.6009 12.3011 12.5866C12.3993 12.5068 12.4718 12.4194 12.5187 12.3243C12.5932 12.1738 12.6796 12.0416 12.7779 11.9277C12.9371 11.7435 13.0705 11.525 13.2036 11.3209C13.2267 11.2852 13.2529 11.2514 13.2823 11.2196C13.3979 11.0935 13.4785 10.9827 13.524 10.8872C13.5958 10.7364 13.6754 10.6246 13.7627 10.5518C13.8374 10.4894 13.9108 10.3149 13.9665 10.2357C14.0273 10.1494 14.116 10.0344 14.2325 9.89078C14.3105 9.79438 14.4531 9.59853 14.5284 9.43939C14.5625 9.36737 14.5955 9.31749 14.6276 9.28974C14.81 9.13275 14.8892 8.89649 15.06 8.69359C15.1369 8.6024 15.1999 8.52089 15.2491 8.44908C15.312 8.35768 15.3765 8.2674 15.4428 8.17824C15.4884 8.11673 15.5224 8.01145 15.5977 7.94872C15.7975 7.78224 15.8688 7.53037 16.0396 7.35165C16.1208 7.26657 16.1702 7.20935 16.1877 7.17997C16.2856 7.01594 16.3985 6.86282 16.5262 6.72062C16.606 6.63166 16.7236 6.46396 16.879 6.2175C16.9107 6.16731 16.9548 6.11315 17.0115 6.055C17.1093 5.95462 17.1998 5.83384 17.283 5.69266C17.334 5.60636 17.4107 5.51761 17.5131 5.42641C17.5454 5.39744 17.5947 5.32257 17.6612 5.20179C17.6865 5.15568 17.7444 5.07774 17.8348 4.96798C18.0077 4.75805 18.1787 4.53893 18.3217 4.31063C18.3636 4.24361 18.4312 4.19893 18.4744 4.14445C18.5331 4.07039 18.5916 4.00399 18.6436 3.92044C18.7522 3.7457 18.9004 3.61839 19.0105 3.45191C19.1504 3.24075 19.3282 3.04795 19.4674 2.85576C19.5568 2.73243 19.6514 2.6143 19.7377 2.48852C19.7544 2.46445 19.7732 2.44211 19.794 2.4215C19.9081 2.30766 19.9785 2.11517 20.1545 2.09191C20.284 2.07498 20.4133 2.0557 20.5422 2.03407C20.8883 1.97592 21.2703 1.94226 21.5689 1.91747C22.4662 1.8428 23.6357 1.7512 25.0773 1.64266C25.2993 1.62593 25.5909 1.59175 25.9522 1.54014C26.4872 1.46393 27.0151 1.43976 27.5399 1.35499C27.5568 1.35234 27.5583 1.3558 27.5442 1.36539C27.4778 1.4116 27.378 1.46118 27.3404 1.53371C27.2896 1.63164 27.2033 1.63807 27.1335 1.69774C27.0392 1.77823 26.829 1.92329 26.7831 2.03254C26.7794 2.04172 26.7731 2.04855 26.7641 2.05304C26.6313 2.11792 26.4979 2.26726 26.3859 2.35785C26.3124 2.41701 26.2312 2.48944 26.1423 2.57513C26.0382 2.6753 25.9264 2.7665 25.8069 2.84872C25.761 2.88014 25.718 2.91921 25.678 2.96593C25.5556 3.10946 25.39 3.24258 25.245 3.34357C25.2256 3.35724 25.2015 3.38621 25.1728 3.43049C25.0972 3.54739 24.9674 3.64991 24.8481 3.73284C24.7021 3.83475 24.6253 3.99481 24.4879 4.08692C24.4258 4.12854 24.3725 4.16853 24.3278 4.20688C24.2253 4.29594 24.1353 4.45201 24.0163 4.5325C23.8986 4.61207 23.7896 4.71734 23.6894 4.84832C23.5692 5.00562 23.3819 5.09651 23.2631 5.26238C23.1919 5.36154 23.1303 5.42794 23.0783 5.46161C22.9424 5.54954 22.8297 5.66114 22.7401 5.79641C22.7052 5.84925 22.6177 5.93004 22.4776 6.03878C22.4268 6.07816 22.3651 6.1515 22.2927 6.25882C22.2055 6.38766 22.0041 6.52629 21.8814 6.69613C21.7596 6.86537 21.5953 6.98044 21.4655 7.146C21.3315 7.31676 21.1632 7.44774 21.0325 7.61484C20.9505 7.7197 20.8643 7.8211 20.7739 7.91903C20.758 7.93617 20.7373 7.95321 20.7118 7.97014C20.6466 8.01329 20.612 8.09867 20.5502 8.17395C20.3833 8.37634 20.2131 8.57598 20.0397 8.77286C19.9973 8.82121 19.9568 8.87109 19.9182 8.9225C19.8784 8.97637 19.8582 9.0694 19.7845 9.12081C19.6786 9.19457 19.6085 9.30565 19.5415 9.4097C19.5138 9.45275 19.5229 9.46295 19.569 9.44031C19.6658 9.39257 19.798 9.384 19.8937 9.35615C20.07 9.30474 20.2561 9.27291 20.4259 9.22915C20.7063 9.15692 20.9872 9.09174 21.2531 8.97575C21.4539 8.88792 21.6626 8.85518 21.8701 8.79244C22.1054 8.72144 22.3512 8.65871 22.5914 8.59934C22.7294 8.56537 22.8316 8.47662 22.9798 8.4503C23.0569 8.43643 23.1128 8.425 23.1475 8.41602C23.5089 8.32085 23.9624 8.22017 24.3872 8.10693C24.516 8.07266 24.6697 8.00288 24.8172 7.97442C25.025 7.93403 25.2701 7.86915 25.4191 7.8364C25.738 7.76622 26.0575 7.6993 26.3776 7.63565C26.4835 7.61453 26.5891 7.55486 26.6965 7.53405C27.3542 7.40551 28.0137 7.28983 28.6728 7.17018C28.7998 7.14692 28.9639 7.08296 29.1138 7.05725C29.7428 6.94892 30.3735 6.85231 31.0057 6.76744C31.3292 6.72398 31.5755 6.66094 31.81 6.63707C32.3604 6.58096 32.911 6.52639 33.4616 6.47334C34.0437 6.41703 34.6132 6.31941 35.1971 6.32492C35.2257 6.32512 35.2295 6.33481 35.2084 6.35399C35.1549 6.40234 35.0912 6.43448 35.0475 6.47855C34.9869 6.53955 34.9347 6.60688 34.8911 6.68053C34.8164 6.806 34.7237 6.90209 34.6086 6.99145C34.5321 7.05082 34.503 7.14478 34.4535 7.2069C34.361 7.32258 34.2717 7.43489 34.164 7.53649C34.1285 7.57016 34.1073 7.61943 34.0792 7.65278C33.991 7.75663 33.9065 7.86333 33.8255 7.97289C33.7739 8.04246 33.711 8.1152 33.637 8.19109C33.5209 8.31004 33.416 8.43857 33.3224 8.57669C33.3016 8.60729 33.2376 8.63912 33.2061 8.67309C33.1118 8.775 33.0093 8.88303 32.938 9.00207C32.9084 9.05145 32.8831 9.0846 32.8621 9.10153C32.736 9.20314 32.6424 9.30127 32.5812 9.39593C32.5006 9.52059 32.438 9.60271 32.3936 9.64229C32.286 9.73777 32.2194 9.80387 32.1937 9.8406C32.0783 10.0061 31.9641 10.1385 31.8513 10.2378C31.8003 10.2829 31.758 10.3288 31.7246 10.3755C31.6239 10.5166 31.5131 10.6494 31.3806 10.7614C31.3215 10.811 31.3062 10.8731 31.2631 10.9236C31.1439 11.0622 31.0232 11.1988 30.9008 11.3334C30.8032 11.4407 30.7087 11.5505 30.6171 11.6627C30.545 11.751 30.4652 11.8392 30.3774 11.9271C30.2567 12.0483 30.179 12.1389 30.1445 12.1989C30.1084 12.2613 30.087 12.3112 30.0289 12.3601C29.889 12.4777 29.8027 12.6114 29.6925 12.7531C29.5778 12.9006 29.4388 13.0123 29.3271 13.1684C29.2337 13.2987 29.1258 13.4163 29.0034 13.5209C28.9956 13.5274 28.9811 13.5458 28.9599 13.576C28.8108 13.7874 28.7026 13.9219 28.6355 13.9797C28.5817 14.0262 28.5406 14.0693 28.5125 14.1091C28.3041 14.4008 28.0464 14.6716 27.816 14.9473C27.7766 14.9945 27.7002 15.0834 27.5867 15.2142C27.4533 15.3678 27.3343 15.5294 27.191 15.6772C27.1121 15.7586 27.056 15.8231 27.0227 15.8706C26.8722 16.0858 26.695 16.229 26.5524 16.4325C26.4156 16.6277 26.2335 16.7691 26.1181 16.9543C26.0645 17.0406 25.9491 17.1656 25.772 17.3295C25.753 17.3472 25.731 17.394 25.7096 17.4188C25.6306 17.5104 25.5528 17.6028 25.4761 17.6961C25.3386 17.8635 25.1354 18.0676 24.9901 18.2785C24.9529 18.3325 24.9085 18.3836 24.8566 18.4318C24.6911 18.586 24.602 18.7761 24.4401 18.9168C24.255 19.0778 24.1516 19.3236 23.9979 19.464C23.9296 19.5267 23.8757 19.5876 23.8363 19.6467C23.7256 19.8132 23.6298 19.9408 23.4862 20.0758C23.4382 20.1208 23.4137 20.1872 23.377 20.2328C23.2705 20.3647 23.1447 20.5009 23.0768 20.6566C23.0726 20.6661 23.0651 20.6737 23.0557 20.678C22.9406 20.7288 22.8659 20.8635 22.7943 20.9636C22.7105 21.0808 22.6765 21.2078 22.5495 21.3155C22.435 21.4125 22.3851 21.5564 22.3178 21.6512C22.2711 21.7169 22.2225 21.7811 22.1722 21.8437C22.0173 22.0365 21.8471 22.2523 21.7358 22.4729C21.7051 22.5332 21.6467 22.5693 21.6143 22.606C21.5082 22.7246 21.4181 22.8543 21.344 22.9953C21.3047 23.0702 21.2351 23.1523 21.1353 23.2417C21.064 23.3056 21.0212 23.4305 20.9679 23.5045C20.896 23.6046 20.825 23.7148 20.7369 23.8011C20.7169 23.8207 20.698 23.8442 20.6803 23.8718C20.647 23.924 20.5663 24.0343 20.4382 24.2026C20.388 24.2684 20.3452 24.3685 20.2711 24.4382C20.1426 24.5588 20.0599 24.6381 19.9819 24.7712C19.9472 24.8304 19.9078 24.8863 19.8638 24.9389C19.8517 24.9534 19.8065 24.9942 19.7282 25.0613C19.6533 25.1256 19.5958 25.2079 19.5556 25.3083C19.5519 25.3177 19.5462 25.3261 19.539 25.3332C19.5318 25.3402 19.5231 25.3457 19.5137 25.3492C19.5042 25.3527 19.4941 25.3542 19.4841 25.3536C19.474 25.353 19.4642 25.3503 19.4552 25.3456C19.3726 25.3028 19.2915 25.2749 19.2082 25.2198C19.1132 25.157 19.012 25.1068 18.9047 25.0693C18.7165 25.0032 18.5475 24.927 18.3618 24.867C18.2066 24.8168 18.1203 24.7039 17.9511 24.6558C17.8201 24.6188 17.7185 24.5692 17.6013 24.5169C17.4994 24.471 17.3105 24.4196 17.2093 24.3409C17.1323 24.2809 17.0615 24.2368 16.9969 24.2084C16.8579 24.1475 16.7713 24.1022 16.6587 24.0376C16.5357 23.9676 16.3989 23.9419 16.2841 23.8194C16.2607 23.7944 16.2067 23.7667 16.1222 23.7365C15.9203 23.6643 15.7507 23.5397 15.5438 23.4816C15.5316 23.4783 15.5118 23.4646 15.4845 23.4403C15.3982 23.3642 15.3024 23.3049 15.1971 23.2625C15.0147 23.189 14.9097 23.1355 14.7647 23.0642C14.7026 23.0336 14.5991 23.0137 14.5428 22.9668C14.4488 22.8879 14.3635 22.8351 14.287 22.8083C14.1462 22.7592 14.0117 22.6965 13.8836 22.6204C13.7759 22.5565 13.6535 22.5341 13.5611 22.4503C13.4325 22.3334 13.2688 22.2988 13.125 22.2214C13.0207 22.1657 12.9139 22.1154 12.8046 22.0705C12.7548 22.0503 12.7061 22.0215 12.6586 21.9842C12.5394 21.8903 12.4071 21.8187 12.2617 21.7694C12.2523 21.7663 12.2509 21.7683 12.2577 21.7755Z" fill="white"/>
</svg>
