<svg width="40" height="40" viewBox="0 0 40 40" fill="none" xmlns="http://www.w3.org/2000/svg">
<path d="M3.9142 20.0887C3.8975 15.7713 5.61143 11.6713 8.67296 8.64385C10.6939 6.64518 13.0783 5.2688 15.8263 4.51469C16.8705 4.2281 17.9028 4.05415 18.9232 3.99281C22.851 3.75676 26.9386 4.96552 30.0293 7.46979C32.7277 9.65616 34.7298 12.6211 35.583 15.9979C35.8281 16.9676 35.9833 17.8948 36.0486 18.7795C36.099 19.4633 36.0982 20.219 36.0463 21.0467C35.9775 22.1461 35.7785 23.2592 35.4491 24.3859C34.5867 27.3341 32.9265 29.9906 30.6154 32.0156C29.4796 33.0109 28.264 33.8536 26.9099 34.5169C25.5917 35.1622 24.1617 35.5675 22.7044 35.8068C22.1236 35.9021 21.5565 35.9774 20.9777 36.0092C19.2226 36.1059 17.5281 35.9426 15.8941 35.5194C11.3305 34.3372 7.45308 31.1686 5.45331 26.881C4.67246 25.206 4.17186 23.4312 3.98131 21.5787C3.92893 21.069 3.91616 20.6198 3.9142 20.0887ZM22.4503 5.23693C22.098 5.17669 21.7431 5.12561 21.3866 5.0968C18.275 4.84569 15.1224 5.51784 12.4269 7.10409C8.73614 9.27605 6.18177 12.8712 5.3374 17.094C5.19924 17.7853 5.11084 18.4289 5.07221 19.025C4.98971 20.2955 5.07199 21.5833 5.31907 22.8883C6.24104 27.7581 9.64765 31.9478 14.2172 33.8794C16.8089 34.9751 19.4958 35.3124 22.2778 34.8911C23.0044 34.7811 23.7164 34.6102 24.4137 34.3784C27.0503 33.502 29.3974 32.1187 31.2371 30.0132C33.4938 27.4309 34.7283 24.416 34.9406 20.9685C34.9788 20.3486 34.9694 19.6598 34.9122 18.9022C34.7894 17.2767 34.4004 15.7032 33.7653 14.1903C32.6606 11.5582 30.9429 9.42164 28.612 7.78049C26.7513 6.47068 24.6974 5.62282 22.4503 5.23693Z" fill="white"/>
<path d="M21.6119 15.5454C20.9208 15.1375 20.3423 14.7184 19.7497 14.3527C19.3738 14.1206 19.0526 13.7952 18.7612 13.4714C18.761 13.471 18.7608 13.4706 18.7607 13.4701C18.7606 13.4697 18.7607 13.4692 18.7608 13.4688C18.761 13.4683 18.7613 13.468 18.7616 13.4677C18.762 13.4674 18.7624 13.4672 18.7629 13.4671L22.3797 13.2425C22.4294 13.2395 22.4587 13.2135 22.4674 13.1646C22.4923 13.0277 22.5205 12.902 22.567 12.7655C22.7526 12.223 22.9016 11.6631 23.1036 11.1311C23.2099 10.8513 23.3121 10.5773 23.4103 10.309C23.4267 10.2638 23.4448 10.2632 23.4647 10.3071C23.5626 10.5241 23.6536 10.7346 23.7387 10.9664C24.1783 12.1656 24.4559 12.9255 24.5716 13.2461C24.6004 13.3263 24.6348 13.3584 24.7206 13.3817C24.8756 13.4234 25.0329 13.451 25.1927 13.4645C25.8689 13.5219 26.5428 13.5982 27.2144 13.6933C27.4412 13.7254 27.6686 13.7493 27.8967 13.765C27.9043 13.7657 27.9049 13.768 27.8983 13.7719C27.3562 14.1023 26.8369 14.4752 26.3353 14.8546C26.071 15.0543 25.8168 15.2664 25.5728 15.4908C25.541 15.52 25.5052 15.5422 25.4654 15.5572C25.455 15.5611 25.4464 15.5689 25.4413 15.5788C25.4362 15.5888 25.435 15.6004 25.4379 15.6113C25.4504 15.6564 25.4659 15.7052 25.4844 15.7576C25.6165 16.1306 25.7503 16.5494 25.8858 17.0138C26.0816 17.686 26.3625 18.3735 26.6218 19.0398C26.6397 19.0858 26.6455 19.1299 26.6392 19.172C26.6379 19.1803 26.6346 19.1882 26.6295 19.1948C26.6243 19.2015 26.6176 19.2067 26.6098 19.2099C26.6021 19.2132 26.5936 19.2145 26.5852 19.2136C26.5768 19.2127 26.5688 19.2096 26.5619 19.2048C25.9968 18.8034 25.4478 18.384 24.8728 17.9957C24.5206 17.7578 24.1689 17.5191 23.818 17.2797C23.6811 17.1864 23.5302 17.1432 23.3933 17.2335C22.8534 17.5904 22.3519 17.8615 21.8316 18.1771C21.4283 18.422 21.132 18.6505 20.7011 19.0047C20.6908 19.013 20.687 19.0107 20.6896 18.9979C20.725 18.811 20.7608 18.6253 20.797 18.4406C20.8923 17.9531 21.055 17.4925 21.205 17.0207C21.3317 16.6216 21.4728 16.2382 21.6162 15.8499C21.6336 15.8028 21.6372 15.7095 21.627 15.57C21.6263 15.5593 21.6213 15.5511 21.6119 15.5454Z" fill="white"/>
<path d="M17.0767 16.9076C16.9487 17.2403 16.6956 17.6721 16.3784 17.8489C16.0866 18.011 15.738 17.994 15.4616 17.7959C15.0108 17.4731 14.7607 16.8206 14.6484 16.2915C14.4254 15.2392 14.4487 14.0671 14.8307 13.0509C14.9748 12.6678 15.2387 12.2285 15.608 12.0359C16.1112 11.7737 16.5925 12.0232 16.8688 12.4698C17.1572 12.9363 17.3046 13.5335 17.3687 14.073C17.4797 15.0055 17.4172 16.0243 17.0767 16.9076Z" fill="white"/>
<path d="M29.9899 24.5362C29.986 24.5214 29.9803 24.5207 29.9729 24.5343C29.8374 24.7824 29.6995 25.0315 29.5594 25.2814C28.9448 26.3784 28.2357 27.4105 27.4323 28.3776C26.5984 29.3814 25.629 30.2958 24.5427 31.022C23.0716 32.0055 21.2087 32.6145 19.4303 32.4825C16.7145 32.2812 14.3952 30.6668 12.5915 28.7122C12.0158 28.0884 11.5197 27.4903 11.1035 26.9181C10.4129 25.9692 9.79849 24.9737 9.26024 23.9315C9.17512 23.7665 9.0769 23.5462 8.98392 23.3546C8.9765 23.3394 8.97006 23.3398 8.9646 23.3559C8.88755 23.5832 8.82709 23.8392 8.78322 24.124C8.74884 24.345 8.57729 24.5965 8.31897 24.5143C7.94344 24.3948 7.93722 23.6725 7.99287 23.3713C8.14839 22.528 8.66634 21.6404 9.32376 21.089C9.39491 21.0292 9.47174 20.978 9.55425 20.9355C9.95859 20.726 10.2755 21.1139 10.0254 21.4813C9.73399 21.9088 9.45013 22.326 9.21964 22.7912C9.21735 22.7959 9.21633 22.8011 9.21667 22.8063C9.21702 22.8116 9.21872 22.8166 9.22161 22.821C9.64155 23.4677 10.0624 24.1131 10.4841 24.7572C11.1415 25.7617 11.8629 26.7176 12.6482 27.6249C14.2724 29.5019 16.3927 31.1644 18.9097 31.576C19.8821 31.7351 20.9403 31.6588 21.8616 31.3825C22.3156 31.2463 22.7958 31.0389 23.3021 30.7604C25.0501 29.7988 26.4694 28.2856 27.6127 26.6745C28.1215 25.9577 28.5914 25.2164 29.0225 24.4508C29.1112 24.2933 29.1829 24.1365 29.2546 23.9738C29.3247 23.8143 29.4766 23.6254 29.6681 23.6198C29.6703 23.6198 29.6725 23.6192 29.6744 23.6181C29.6763 23.617 29.6779 23.6155 29.6792 23.6137C29.6804 23.6119 29.6811 23.6098 29.6814 23.6076C29.6816 23.6054 29.6813 23.6032 29.6806 23.6012C29.5463 23.2574 29.4082 22.9153 29.2661 22.5748C29.2019 22.4202 29.1125 22.1603 29.3129 22.0843C29.6819 21.9442 30.1792 22.8275 30.316 23.0963C30.5478 23.5514 30.7351 24.0232 30.8779 24.5117C31.0019 24.9363 31.0484 25.3701 31.0681 25.8101C31.0782 26.0341 31.0412 26.3782 30.7587 26.427C30.4084 26.4875 30.3245 26.0842 30.2601 25.7856C30.1703 25.3695 30.0996 24.9478 29.9899 24.5362Z" fill="white"/>
</svg>
