<svg width="40" height="40" viewBox="0 0 40 40" fill="none" xmlns="http://www.w3.org/2000/svg">
<path d="M23.6402 17.4879L23.6562 17.4966C23.6669 17.5025 23.6749 17.5109 23.6804 17.5217C23.7712 17.7006 23.8294 17.8895 23.8552 18.0885C23.8652 18.1661 23.9181 18.3271 24.0139 18.5717C24.0351 18.6257 24.0504 18.6845 24.0601 18.748C24.1005 19.0154 24.2126 19.2856 24.2562 19.5661C24.2758 19.691 24.2975 19.7803 24.3211 19.8341C24.4193 20.0571 24.4937 20.3305 24.5446 20.6543C24.5655 20.7874 24.6107 20.9517 24.6801 21.1473C24.7391 21.313 24.7636 21.495 24.8006 21.635C24.8673 21.8887 24.9155 22.1011 24.945 22.2723C24.9851 22.5048 25.0893 22.6997 25.1295 22.9246C25.1816 23.2186 25.2295 23.5132 25.2732 23.8086C25.2926 23.9408 25.2569 24.0638 25.1659 24.1776C25.1188 24.2366 25.099 24.2366 25.0206 24.2542C24.8965 24.2824 24.778 24.2581 24.6651 24.1811C24.5431 24.098 24.375 23.9919 24.1608 23.8626C23.9449 23.7324 23.7152 23.5638 23.4833 23.4258C23.4544 23.4084 23.4233 23.3863 23.3898 23.3596C23.2288 23.2319 23.0512 23.1314 22.8761 23.0254C22.8314 22.9982 22.7757 22.9553 22.7092 22.8967C22.5868 22.7888 22.4365 22.7332 22.3235 22.6105C22.2598 22.5412 22.1939 22.5293 22.1255 22.475C21.9774 22.357 21.8272 22.2418 21.6749 22.1295C21.4866 21.9902 21.2588 21.8035 21.0404 21.6538C20.9679 21.6039 20.9061 21.5167 20.8427 21.4774C20.7455 21.4176 20.6534 21.351 20.5666 21.2775C20.4825 21.2063 20.3881 21.157 20.3002 21.0893C20.1794 20.9961 20.0573 20.9663 19.9497 20.8464C19.9043 20.7958 19.8491 20.7593 19.784 20.7369C19.6877 20.7033 19.6475 20.6757 19.5895 20.6041C19.5873 20.6015 19.5846 20.5993 19.5814 20.598C19.5783 20.5967 19.5748 20.5962 19.5714 20.5965C19.568 20.5968 19.5647 20.598 19.5619 20.6C19.5591 20.6019 19.5568 20.6045 19.5552 20.6076C19.514 20.6867 19.4811 20.7698 19.4564 20.8571C19.4378 20.923 19.4139 20.9841 19.3849 21.0406C19.3033 21.1994 19.2351 21.387 19.1803 21.6033C19.1631 21.6719 19.1285 21.7468 19.0764 21.8279C19.0406 21.884 19.0148 21.9379 18.9989 21.9895C18.9518 22.1429 18.8998 22.2945 18.8429 22.4445C18.8037 22.5484 18.7965 22.6733 18.7356 22.7668C18.5725 23.0178 18.5382 23.3454 18.4093 23.5573C18.3787 23.6073 18.3567 23.6531 18.3431 23.6947C18.2816 23.8839 18.1978 24.0653 18.1378 24.2238C18.0999 24.3245 18.0908 24.4616 18.0148 24.5492C17.9179 24.6612 17.8965 24.8291 17.8432 24.9605C17.7531 25.184 17.6781 25.3807 17.5642 25.6223C17.4961 25.767 17.4657 25.9176 17.4061 26.0635C17.3719 26.1476 17.3562 26.2336 17.2941 26.303C17.2401 26.3629 17.2241 26.4592 17.2009 26.5345C17.1862 26.5822 17.1658 26.6337 17.1397 26.6889C17.0666 26.8433 17.0324 27.0096 16.9545 27.1584C16.9006 27.261 16.8457 27.3601 16.8162 27.4743C16.7719 27.6438 16.6953 27.7878 16.6294 27.9491C16.605 28.0087 16.567 28.0615 16.5463 28.1189C16.5059 28.2308 16.462 28.3412 16.4145 28.4499C16.3627 28.5679 16.337 28.7236 16.2557 28.85C16.2124 28.9174 16.1829 28.9721 16.1672 29.0141C16.1438 29.0775 16.1208 29.1411 16.0982 29.2049C16.0502 29.3402 15.9736 29.4933 15.9178 29.642C15.8556 29.808 15.7577 29.9423 15.7094 30.1203C15.6846 30.2119 15.6498 30.2878 15.6187 30.3732C15.5836 30.4692 15.5051 30.5467 15.4769 30.6402C15.4144 30.8458 15.3228 31.0325 15.266 31.2135C15.2537 31.2526 15.2357 31.2922 15.212 31.3321C15.1351 31.4616 15.0736 31.5978 15.0275 31.7407C14.9281 32.0501 14.7693 32.3441 14.6431 32.6441C14.5744 32.8073 14.5612 32.9626 14.4316 33.096C14.4147 33.1134 14.4031 33.1354 14.3984 33.1594C14.3639 33.3341 14.2619 33.529 14.2151 33.6526C14.1696 33.7735 14.1339 33.8695 14.0604 33.9909C13.9741 34.134 13.9534 34.2887 13.8835 34.4246C13.8179 34.552 13.7363 34.6718 13.6892 34.7996C13.6534 34.8972 13.6283 34.9863 13.5778 35.0832C13.537 35.1619 13.5047 35.2439 13.4809 35.3292C13.447 35.4494 13.3713 35.5034 13.3331 35.6085C13.2793 35.7566 13.2266 35.905 13.1749 36.0535C13.1423 36.1473 13.0726 36.2264 13.0362 36.3186C12.9738 36.4771 12.8981 36.6098 12.8432 36.7818C12.7952 36.9327 12.6951 37.0366 12.6393 37.1744C12.5784 37.325 12.5103 37.4721 12.435 37.6159C12.3349 37.807 12.2364 37.9121 12.2043 38.1481C12.1874 38.2715 12.1398 38.3859 12.0616 38.4913C11.9182 38.684 11.4305 38.6969 11.306 38.476C11.2426 38.3633 11.1861 38.3084 11.1569 38.1559C11.136 38.0482 11.1196 37.8584 11.1076 37.5867C11.1007 37.4306 11.0974 37.2401 11.0976 37.0153C11.0982 35.8948 11.1061 35.0957 11.1211 34.6179C11.1444 33.8742 11.2322 32.7602 11.2711 31.6215C11.2937 30.9642 11.3255 30.3074 11.3665 29.6511C11.4089 28.9774 11.4365 28.3025 11.4735 27.6281C11.4983 27.1728 11.5052 26.5628 11.5322 26.04C11.5805 25.1064 11.6149 24.5113 11.6354 24.2548C11.6978 23.4747 11.7314 22.8681 11.7365 22.4348C11.7375 22.3357 11.7488 22.09 11.7704 21.6977C11.8151 20.885 11.859 20.0765 11.9018 19.2724C11.9029 19.2552 11.8957 19.2504 11.8802 19.258C11.7933 19.3 11.7286 19.3493 11.6323 19.3876C11.5752 19.4102 11.51 19.4461 11.4368 19.4955C11.3508 19.5535 11.1885 19.6297 10.9498 19.7243C10.8673 19.7569 10.823 19.8256 10.7458 19.8548C10.5506 19.9292 10.4352 20.0026 10.282 20.076C10.1173 20.1551 9.98644 20.2546 9.82358 20.3126C9.7056 20.3547 9.5941 20.4092 9.48908 20.4761C9.25123 20.6274 8.98921 20.7328 8.74571 20.8768C8.55806 20.9876 8.37637 21.0758 8.19155 21.1765C8.01331 21.2741 7.79931 21.4683 7.58059 21.5386C7.51721 21.559 7.38792 21.5204 7.34054 21.4737C7.19055 21.3256 7.25833 21.1062 7.37349 20.9477C7.47704 20.805 7.56239 20.6418 7.6581 20.5078C7.73989 20.3934 7.8197 20.2777 7.89752 20.1608C8.05881 19.9182 8.23956 19.6675 8.39896 19.412C8.42323 19.3731 8.46653 19.3172 8.52887 19.2442C8.59665 19.1648 8.6478 19.0612 8.7002 18.9887C8.81024 18.836 8.91892 18.6825 9.02624 18.5281C9.06515 18.4719 9.09998 18.369 9.13732 18.331C9.22727 18.2392 9.2962 18.151 9.34411 18.0665C9.44797 17.8845 9.54619 17.737 9.65853 17.5745C9.69963 17.5148 9.78906 17.3583 9.8672 17.2604C9.96636 17.1361 10.0461 16.9977 10.1314 16.8637C10.2102 16.7401 10.3348 16.6014 10.4176 16.4542C10.4524 16.3921 10.4935 16.3541 10.5419 16.3061C10.5445 16.3035 10.5464 16.3003 10.5476 16.2967C10.5487 16.2932 10.549 16.2895 10.5484 16.2858C10.5477 16.2822 10.5463 16.2787 10.544 16.2757C10.5418 16.2728 10.5389 16.2704 10.5356 16.2688C10.4349 16.2201 10.3417 16.1828 10.2246 16.1608C9.97138 16.1131 9.76333 16.0409 9.54556 15.9772C9.33281 15.9151 9.14736 15.8414 8.94653 15.7761C8.7479 15.7111 8.53264 15.6961 8.34185 15.5988C8.26623 15.5602 8.20598 15.5213 8.11906 15.5062C7.84198 15.4582 7.63425 15.3675 7.38949 15.2947C7.21125 15.2417 7.07915 15.1877 6.92351 15.1297C6.75249 15.066 6.56453 15.0293 6.38378 14.9756C6.3386 14.9622 6.26485 14.9315 6.16256 14.8834C6.02449 14.8187 5.85567 14.792 5.73643 14.7506C5.58926 14.6992 5.46688 14.6537 5.29837 14.6148C5.06177 14.5602 4.8804 14.4284 4.63093 14.3778C4.30961 14.3126 3.9795 14.1585 3.69457 14.0094C3.53862 13.9279 3.41938 13.9533 3.30641 13.7885C3.26813 13.7327 3.23424 13.7054 3.18278 13.6696C3.17399 13.6635 3.16751 13.6554 3.16332 13.6451C3.11155 13.5168 3.00391 13.5419 2.95528 13.4412C2.80999 13.1405 2.95277 12.9002 3.27535 12.8594C3.41216 12.8418 3.54563 12.8108 3.67575 12.7662C3.80628 12.7214 3.90314 12.6927 3.96632 12.6799C4.207 12.6319 4.45176 12.6303 4.63407 12.598C5.16469 12.5042 5.69186 12.4449 6.22908 12.3536C6.76776 12.2621 7.32254 12.1982 7.89344 12.1618C8.40074 12.1296 8.93554 12.0739 9.49786 11.9946C9.90799 11.9368 10.4838 11.9419 10.9482 11.9064C11.6542 11.8522 12.3677 11.7986 13.0886 11.7454C13.1074 11.744 13.1141 11.7342 13.1087 11.7162C13.039 11.4916 13.0261 11.1894 13.0023 11.0287C12.9411 10.617 12.8749 10.1994 12.8492 9.78389C12.8272 9.42554 12.7858 9.07943 12.696 8.72609C12.6298 8.46439 12.6264 8.23061 12.5762 7.98052C12.5316 7.75898 12.4541 7.47688 12.4968 7.2544C12.5131 7.16999 12.5705 7.10754 12.6198 7.03788C12.6259 7.02909 12.6339 7.02292 12.6439 7.01937C12.8432 6.94845 12.8787 7.07585 13.0208 7.15053C13.1043 7.19446 13.1669 7.23703 13.2088 7.27825C13.4341 7.49947 13.6547 7.7207 13.8928 7.93219C14.2022 8.20708 14.5164 8.47568 14.7972 8.78069C14.9708 8.96897 15.1786 9.22387 15.4204 9.54541C15.4543 9.59091 15.4719 9.63515 15.4929 9.6863C15.5046 9.71475 15.5175 9.73212 15.5315 9.73839C15.5534 9.74802 15.5706 9.74247 15.5829 9.72176C15.6601 9.59154 15.7053 9.44405 15.7775 9.32324C15.9193 9.08622 16.0506 8.84345 16.1713 8.59493C16.2159 8.5033 16.2899 8.43583 16.3301 8.34358C16.4474 8.07434 16.5842 7.83868 16.7628 7.55376C16.7814 7.52426 16.796 7.48954 16.8064 7.44958C16.8328 7.34948 16.8914 7.28578 16.9476 7.20953C17.0097 7.1248 17.0295 7.02502 17.0841 6.93182C17.1585 6.8041 17.2081 6.65599 17.2966 6.54742C17.3336 6.50192 17.3678 6.46521 17.3907 6.40966C17.5303 6.07296 17.7286 5.82256 17.8783 5.51284C17.9103 5.44632 17.9532 5.37393 18.007 5.2957C18.1014 5.15731 18.157 5.00889 18.2445 4.86925C18.312 4.76162 18.3663 4.64489 18.4353 4.54259C18.4861 4.46728 18.5269 4.41174 18.5599 4.31854C18.5929 4.22482 18.6445 4.14261 18.7146 4.0719C18.7883 3.99784 18.7786 3.93603 18.826 3.85789C18.8894 3.75329 18.9457 3.64514 18.9951 3.53343C19.0353 3.44243 19.1357 3.37559 19.1614 3.29965C19.2254 3.10949 19.3337 2.98711 19.4272 2.81798C19.4871 2.70909 19.559 2.61056 19.6092 2.49948C19.6572 2.39404 19.6851 2.31967 19.7579 2.26382C19.8402 2.20074 19.9189 2.02345 19.9735 1.93025C20.0297 1.83486 20.0598 1.73382 20.099 1.62995C20.1027 1.62012 20.1092 1.61161 20.1176 1.60548C20.1782 1.56071 20.2292 1.50695 20.2704 1.44419C20.3319 1.35099 20.5311 1.35632 20.6253 1.36699C20.8019 1.38739 20.9387 1.53425 20.9871 1.69805C21.0584 1.94071 21.0962 2.20315 21.1004 2.48536C21.1079 3.00479 21.1087 3.40749 21.1029 3.69346C21.065 5.55614 21.0345 7.40669 21.0112 9.24511C21.0106 9.29511 21.0285 9.30306 21.0649 9.26896C21.2265 9.11896 21.4226 9.05495 21.6181 8.9514C21.6555 8.93194 21.6915 8.88927 21.7361 8.86793C21.8486 8.81416 21.9601 8.75831 22.0706 8.70036C22.1594 8.65361 22.2953 8.62788 22.3781 8.55633C22.4436 8.49964 22.5102 8.45822 22.578 8.43207C22.7616 8.36178 22.9298 8.26858 23.1174 8.20708C23.1573 8.1939 23.2037 8.13271 23.2589 8.1098C23.355 8.07026 23.4434 8.02476 23.5426 7.99432C23.7739 7.92372 23.9013 7.81295 24.0946 7.75208C24.195 7.72038 24.2769 7.67833 24.3713 7.64476C24.4589 7.61401 24.574 7.55658 24.6854 7.53587C24.7291 7.52803 24.7899 7.48974 24.8364 7.45491C24.9638 7.35983 25.136 7.32845 25.2396 7.28578C25.4533 7.19729 25.6686 7.11225 25.876 7.00933C26.0517 6.92209 26.2114 6.90075 26.3875 6.85525C26.7533 6.7608 26.7662 7.04322 26.6266 7.28295C26.5371 7.4364 26.4775 7.5842 26.3667 7.72101C26.2974 7.8073 26.2814 7.90521 26.2142 7.9893C26.1581 8.05959 26.1044 8.11922 26.0614 8.20143C26.0002 8.31847 25.9146 8.42108 25.8603 8.53938C25.8333 8.59838 25.8116 8.65078 25.7677 8.70193C25.7033 8.77724 25.6613 8.83874 25.6419 8.88644C25.5699 9.06279 25.4805 9.22963 25.3736 9.38694C25.3294 9.45221 25.2456 9.61465 25.1219 9.87427C25.1023 9.91548 25.0699 9.96391 25.025 10.0196C24.9358 10.13 24.8903 10.2794 24.8279 10.3798C24.6989 10.5872 24.5565 10.7993 24.4457 11.0469C24.4181 11.1084 24.3378 11.1301 24.2982 11.2038C24.2267 11.3379 24.1423 11.4635 24.045 11.5807C23.9446 11.7018 23.8464 11.7959 23.7877 11.9591C23.7845 11.9683 23.7878 11.9735 23.7974 11.9748C23.8821 11.9864 23.9643 11.9955 24.0494 12.0156C24.363 12.0886 24.6443 12.1349 24.8935 12.1546C25.4825 12.2014 26.0755 12.2801 26.657 12.3862C26.7313 12.3998 26.8005 12.4099 26.8647 12.4166C27.3279 12.4653 27.787 12.5252 28.2492 12.582C28.3239 12.5912 28.5321 12.611 28.874 12.6413C29.1963 12.6702 29.5157 12.7203 29.832 12.7916C29.9397 12.8159 30.1077 12.8373 30.3359 12.8559C30.7388 12.8886 31.1009 12.9469 31.4831 13.005C31.7405 13.0439 32.0916 13.058 32.3966 13.1418C32.4711 13.1623 32.6313 13.1909 32.8773 13.2275C32.9612 13.24 33.1226 13.2593 33.3615 13.2852C33.8281 13.3357 34.2891 13.4496 34.7375 13.519C34.9168 13.5466 35.0959 13.576 35.275 13.6072C35.4974 13.6459 35.7207 13.6784 35.945 13.7047C36.1806 13.7327 36.3771 13.7976 36.5977 13.8645C36.7305 13.9046 36.8261 13.9456 36.8845 13.9875C37.0828 14.1299 37.1788 14.4328 37.0288 14.6634C36.9815 14.7356 36.9479 14.8137 36.9278 14.8978C36.8324 15.2922 36.4718 15.2401 36.1734 15.3534C36.0081 15.416 35.8385 15.461 35.6644 15.4884C35.5504 15.5061 35.4553 15.5272 35.3792 15.5514C35.1492 15.6245 34.975 15.681 34.6911 15.7171C34.4303 15.7504 34.2015 15.8028 33.9583 15.8618C33.7935 15.9019 33.6139 15.939 33.4196 15.9729C33.1067 16.0271 32.7964 16.0984 32.4343 16.141C32.1378 16.176 31.8458 16.2345 31.5581 16.3165C31.4927 16.3351 31.3551 16.3533 31.1455 16.3711C30.8257 16.398 30.5333 16.453 30.2277 16.5069C29.9747 16.5515 29.7212 16.5562 29.4746 16.6114C29.0183 16.7137 28.5568 16.7836 28.0901 16.821C27.9146 16.8353 27.566 16.8959 27.0442 17.003C26.9438 17.0235 26.8349 17.0398 26.7176 17.0517C26.3162 17.0928 25.923 17.1568 25.5248 17.2174C25.4313 17.2316 25.2248 17.2502 24.9051 17.2732C24.8256 17.2789 24.6857 17.3032 24.4852 17.3463C24.2978 17.3869 24.0175 17.4275 23.6443 17.4681C23.6221 17.4704 23.6207 17.477 23.6402 17.4879ZM33.6973 14.6336C33.6971 14.6296 33.6949 14.6275 33.6907 14.6273C33.3495 14.6137 33.0131 14.5672 32.6815 14.4877C32.4794 14.439 32.2617 14.4124 32.053 14.3935C31.5581 14.349 31.0724 14.262 30.5807 14.194C30.2531 14.1485 29.9606 14.0785 29.5734 14.0157C29.4797 14.0004 29.3008 13.9774 29.0368 13.9467C28.6801 13.9051 28.3281 13.8375 27.9806 13.744C27.9063 13.7239 27.7827 13.7082 27.6097 13.6969C27.4645 13.6875 27.3407 13.6757 27.2381 13.6614C26.8343 13.6062 26.4323 13.5538 26.0266 13.5127C25.8871 13.4987 25.725 13.4757 25.5405 13.4437C25.1577 13.3771 24.6004 13.3125 24.0896 13.2752C23.6151 13.2406 23.1406 13.1873 22.6734 13.095C22.4676 13.0546 22.1814 13.0489 22.0242 13.0348C21.4101 12.9799 21.0577 12.9306 20.5748 12.871C20.4373 12.8541 20.2603 12.8519 20.1038 12.8286C19.9368 12.8038 19.9051 12.6849 19.7752 12.6162C19.7027 12.5779 19.661 12.5239 19.6444 12.4524C19.617 12.3348 19.5858 12.2184 19.5508 12.1031C19.5057 11.9532 19.4808 11.7309 19.4762 11.4363C19.4722 11.1815 19.4811 10.839 19.5028 10.4087C19.543 9.61727 19.6023 8.82368 19.623 8.03198C19.6483 7.07449 19.6778 6.40496 19.7115 6.02338C19.7669 5.39663 19.8126 4.76915 19.8486 4.14093C19.8503 4.11227 19.8515 4.0833 19.8521 4.05401C19.8523 4.04439 19.849 4.04303 19.8424 4.04993C19.7551 4.14031 19.6845 4.21624 19.6484 4.3449C19.6218 4.44123 19.5552 4.54384 19.5261 4.60598C19.4901 4.68275 19.4544 4.75963 19.419 4.83661C19.4012 4.87552 19.3553 4.91852 19.3331 4.96841C19.2866 5.07102 19.2374 5.15574 19.1966 5.27028C19.1593 5.37488 19.1046 5.46985 19.0325 5.5552C18.9728 5.62581 18.9675 5.71963 18.9214 5.79933C18.8517 5.92025 18.8126 6.00027 18.804 6.03939C18.7848 6.12809 18.7611 6.18321 18.7331 6.20476C18.6029 6.3058 18.5916 6.46866 18.5128 6.60579C18.3651 6.86289 18.2371 7.10294 18.1287 7.32594C18.1068 7.37134 18.0853 7.4296 18.0644 7.50073C18.0613 7.51098 18.0555 7.52021 18.0475 7.5274C17.9621 7.60271 17.9106 7.6752 17.8677 7.80887C17.8291 7.92843 17.7556 8.01504 17.7045 8.12988C17.6762 8.19369 17.6462 8.24756 17.6144 8.29149C17.4804 8.47663 17.4466 8.67149 17.3122 8.84628C17.2865 8.87975 17.266 8.91249 17.2507 8.94449C17.1447 9.16478 17.0458 9.4042 16.9137 9.60942C16.7998 9.78703 16.7408 9.98347 16.6206 10.1532C16.5924 10.1934 16.5646 10.2437 16.5372 10.3042C16.5133 10.3573 16.4793 10.4193 16.4352 10.4902C16.3583 10.6142 16.3498 10.7711 16.2419 10.891C16.207 10.9297 16.1823 10.9665 16.1678 11.0014C16.0953 11.1744 16.0106 11.3416 15.914 11.5029C15.8893 11.5443 15.8642 11.5857 15.8387 11.6271C15.727 11.8097 15.6203 12.0307 15.4869 12.175C15.4007 12.2683 15.3161 12.3343 15.2331 12.373C15.1217 12.4251 14.9572 12.3771 14.8276 12.4003C14.2531 12.5032 13.6801 12.6055 13.0968 12.6448C12.9091 12.6573 12.6942 12.6946 12.5118 12.7376C12.2757 12.7935 12.0369 12.8314 11.7955 12.8512C11.5603 12.8705 11.3943 12.887 11.2975 12.9008C10.8742 12.9614 10.453 13.0273 10.0263 13.0593C9.89701 13.0691 9.7603 13.0884 9.61616 13.117C9.22392 13.195 8.82865 13.2491 8.43034 13.2792C7.75914 13.3301 7.0917 13.407 6.42206 13.4741C6.08442 13.508 5.74929 13.519 5.41667 13.5306C5.33299 13.5335 5.33226 13.5429 5.41447 13.5588C5.44711 13.5653 5.48853 13.5787 5.53873 13.599C5.68308 13.6574 5.83904 13.6922 5.98872 13.7342C6.06779 13.7562 6.13463 13.7986 6.20774 13.8353C6.34738 13.9053 6.51087 13.9407 6.66211 13.9806C6.88742 14.0405 7.10017 14.1459 7.32579 14.2175C7.36993 14.2317 7.45685 14.263 7.58655 14.3113C7.80526 14.3929 8.02868 14.4092 8.23359 14.5369C8.35283 14.6113 8.49561 14.6063 8.62426 14.6577C8.88283 14.761 9.11974 14.8062 9.34003 14.9216C9.43751 14.9729 9.55288 15.0133 9.68614 15.0428C9.82484 15.0735 9.9809 15.1349 10.1543 15.227C10.18 15.2406 10.2087 15.252 10.2403 15.2612C10.4992 15.3365 10.7348 15.4642 11.0031 15.5109C11.0402 15.5172 11.0638 15.5244 11.074 15.5326C11.3263 15.7331 11.6624 15.7303 11.9382 15.9057C11.9941 15.9412 12.0634 15.9434 12.1259 15.9732C12.2746 16.0445 12.4256 16.1106 12.5787 16.1715C12.7122 16.2244 12.8004 16.2955 12.8435 16.3849C12.9028 16.5079 12.9348 16.7473 12.9468 16.913C12.9738 17.2912 12.9818 17.6701 12.9709 18.0495C12.9245 19.6546 12.8708 21.2612 12.8486 22.8666C12.8308 24.154 12.797 25.5529 12.7472 27.0633C12.7246 27.748 12.7003 28.318 12.6744 28.7735C12.6443 29.3019 12.617 30.4682 12.5925 32.2723C12.5825 33.0097 12.5536 33.7474 12.5285 34.4845C12.5241 34.6117 12.5153 34.7302 12.5021 34.84C12.4973 34.8808 12.5026 34.8822 12.5178 34.8441C12.5643 34.7276 12.6005 34.6126 12.6264 34.4993C12.6399 34.4409 12.67 34.4067 12.7017 34.3593C12.8225 34.1779 12.8671 33.9351 12.9499 33.7283C12.9782 33.6578 13.0104 33.5692 13.0466 33.4625C13.0704 33.3925 13.1363 33.3056 13.1671 33.2196C13.2191 33.0742 13.2668 32.9275 13.3101 32.7794C13.3434 32.6651 13.4407 32.5465 13.49 32.399C13.5568 32.1979 13.644 32.0074 13.7055 31.8035C13.7344 31.7087 13.7862 31.6459 13.8339 31.5621C13.9368 31.3811 13.9798 31.1332 14.0573 30.9634C14.0808 30.9123 14.131 30.8834 14.1508 30.8122C14.2026 30.6245 14.2967 30.4573 14.3504 30.2778C14.4182 30.05 14.5462 29.9179 14.6014 29.7126C14.6356 29.5856 14.6777 29.4993 14.7279 29.3904C14.7611 29.3176 14.7803 29.2256 14.8207 29.1462C14.9064 28.9777 14.982 28.8124 15.0332 28.6357C15.0909 28.4364 15.2061 28.2802 15.2698 28.09C15.3129 27.9607 15.3633 27.8344 15.421 27.711C15.4653 27.6168 15.4741 27.5045 15.5331 27.4201C15.5779 27.3554 15.6134 27.3068 15.6391 27.229C15.6877 27.0819 15.742 26.9372 15.8023 26.795C15.8286 26.7329 15.8889 26.6579 15.9049 26.6048C15.9377 26.4969 15.9795 26.3926 16.0301 26.292C16.0778 26.1969 16.101 26.1053 16.1349 26.008C16.1529 25.9565 16.1862 25.8891 16.2347 25.8056C16.3295 25.643 16.3608 25.4695 16.4431 25.3051C16.5064 25.178 16.5369 25.0443 16.6138 24.9235C16.7164 24.7619 16.7882 24.5605 16.8362 24.3919C16.8638 24.294 16.9137 24.2307 16.9639 24.1469C17.0207 24.0524 17.0339 23.931 17.0801 23.8268C17.1761 23.6087 17.2467 23.401 17.3738 23.182C17.4506 23.0495 17.4757 22.9005 17.5451 22.7637C17.6797 22.4979 17.8018 22.2324 17.899 21.9506C17.9346 21.8477 17.9889 21.7543 18.0619 21.6704C18.0927 21.6353 18.1115 21.4997 18.1382 21.441C18.247 21.1991 18.3556 20.9531 18.4836 20.7206C18.5272 20.6415 18.5521 20.5854 18.5583 20.5524C18.5976 20.3465 18.7209 20.2552 18.7855 20.0785C18.8552 19.8887 18.9339 19.7067 19.0127 19.5209C19.0667 19.3935 19.1636 19.2824 19.2101 19.1356C19.2352 19.0571 19.2605 18.9943 19.286 18.947C19.4586 18.6271 19.6002 18.2938 19.7109 17.9469C19.7161 17.9308 19.7357 17.9049 19.7696 17.8691C19.8389 17.7963 19.8706 17.6717 19.8988 17.577C19.9261 17.485 19.9845 17.4229 20.0266 17.3366C20.0783 17.2305 20.1941 17.2566 20.2688 17.234C20.396 17.1951 20.5233 17.156 20.6507 17.1166C20.8503 17.0548 21.0665 17.0457 21.2758 16.9895C21.4444 16.9442 21.5589 16.9156 21.6194 16.9039C21.861 16.8571 22.065 16.8195 22.3414 16.7856C22.5996 16.7544 22.8529 16.6999 23.1014 16.6221C23.1868 16.5953 23.2718 16.5771 23.3565 16.5675C23.6101 16.5383 23.8558 16.4762 24.1024 16.4213C24.3525 16.3657 24.6469 16.3466 24.9195 16.2484C25.0815 16.19 25.2697 16.1586 25.4433 16.1395C25.742 16.1062 26.026 16.0322 26.3165 15.9769C26.5067 15.941 26.6939 15.8996 26.8782 15.853C27.4129 15.7181 27.8874 15.7086 28.3819 15.5536C28.4652 15.5275 28.5438 15.51 28.6179 15.5012C28.8206 15.4771 29.0155 15.4563 29.2176 15.4152C29.4234 15.3736 29.6296 15.3333 29.836 15.2944C29.9349 15.2759 30.0391 15.2681 30.1329 15.2464C30.318 15.2037 30.5037 15.1632 30.6899 15.1247C31.0862 15.0425 31.5832 15.0086 31.9557 14.9094C32.1452 14.8588 32.3129 14.8247 32.4587 14.8071C32.8711 14.7566 33.2774 14.6785 33.6913 14.6405C33.6953 14.6403 33.6973 14.6381 33.6973 14.6339L33.6973 14.6336Z" fill="white"/>
</svg>
