<svg width="65" height="65" viewBox="0 0 65 65" fill="none" xmlns="http://www.w3.org/2000/svg">
<path d="M24.7685 24.9537L52.7685 16.9537M52.7685 34.4284L52.7685 44.4284C52.7682 45.7321 52.3433 47.0003 51.5581 48.041C50.7729 49.0817 49.67 49.8383 48.4165 50.1964L44.8965 51.2017C44.2861 51.3862 43.6452 51.4474 43.011 51.3818C42.3768 51.3162 41.762 51.1251 41.2023 50.8196C40.6427 50.5142 40.1493 50.1005 39.7511 49.6026C39.3528 49.1047 39.0576 48.5325 38.8825 47.9194C38.7074 47.3063 38.656 46.6646 38.7313 46.0314C38.8067 45.3983 39.0071 44.7865 39.3211 44.2316C39.6351 43.6766 40.0563 43.1897 40.5602 42.7991C41.0642 42.4085 41.6408 42.1221 42.2565 41.9564L48.4165 40.1964C49.67 39.8383 50.7729 39.0817 51.5581 38.041C52.3433 37.0003 52.7682 35.7321 52.7685 34.4284ZM52.7685 34.4284L52.7685 6.95374L24.7685 14.9537L24.7685 42.4284M24.7685 42.4284L24.7685 52.4284C24.7682 53.7321 24.3433 55.0003 23.5581 56.041C22.7729 57.0817 21.67 57.8383 20.4165 58.1964L16.8965 59.2017C15.6774 59.5297 14.3783 59.3651 13.2795 58.7435C12.1808 58.1218 11.3707 57.0929 11.024 55.879C10.6774 54.6651 10.8221 53.3636 11.4269 52.2555C12.0317 51.1474 13.048 50.3216 14.2565 49.9564L20.4165 48.1964C21.67 47.8383 22.7729 47.0817 23.5581 46.041C24.3433 45.0003 24.7682 43.7321 24.7685 42.4284Z" stroke="#961340" stroke-width="6" stroke-linecap="round" stroke-linejoin="round"/>
</svg>
