<svg width="71" height="71" viewBox="0 0 71 71" fill="none" xmlns="http://www.w3.org/2000/svg">
<g clip-path="url(#clip0_1795_2747)">
<path d="M9.56124 40.5042C10.0072 44.7475 13.3741 48.1314 17.6399 48.3079C20.5673 48.4292 23.5135 48.4493 26.476 48.3686L27.7704 60.6847L37.4441 48.7388C38.1006 47.9333 39.0404 47.4096 40.0708 47.2749C45.0988 46.6053 50.0828 45.6391 54.9968 44.3815C59.1327 43.322 61.7226 39.3147 61.2761 35.0661L59.5986 19.106C59.1521 14.8574 55.7855 11.4761 51.5197 11.2997C45.2396 11.042 38.9491 11.2434 32.6983 11.9024C26.3546 12.5691 20.1657 13.6888 14.1628 15.2261C10.0269 16.2855 7.43722 20.2955 7.88349 24.5415L9.56096 40.5016L9.56124 40.5042Z" stroke="#5B3415" stroke-width="6" stroke-linecap="round" stroke-linejoin="round"/>
</g>
<defs>
<clipPath id="clip0_1795_2747">
<rect width="64" height="64" fill="white" transform="translate(0.0373535 7.29114) rotate(-6)"/>
</clipPath>
</defs>
</svg>
