<svg width="40" height="40" viewBox="0 0 40 40" fill="none" xmlns="http://www.w3.org/2000/svg">
<path d="M16.6422 9.8268C16.1917 9.1766 15.6368 8.63971 14.8594 8.45491C14.7992 8.4405 14.7388 8.44191 14.6783 8.44474C14.6721 8.44493 14.672 8.44427 14.678 8.44276C14.73 8.43014 14.7826 8.413 14.836 8.39133C15.4759 8.13231 16.0184 7.7725 16.4636 7.31191C16.6861 7.08171 16.8499 6.8013 16.9553 6.47069C17.0058 6.31189 17.0341 6.12313 17.0657 5.94765C17.0699 5.92448 17.0796 5.92184 17.0948 5.93974C17.1014 5.94784 17.1091 5.96187 17.1177 5.98184C17.5077 6.88494 18.1104 7.66484 18.8725 8.28141C19.0375 8.41516 19.2238 8.52395 19.4314 8.60778C19.4386 8.6108 19.4384 8.61296 19.4309 8.61428C18.5399 8.77506 17.753 9.51455 17.3331 10.2837C17.1932 10.5403 17.1256 10.7632 17.1375 11.0427L17.1375 11.0432L17.1371 11.0434L17.1365 11.0432L17.1361 11.0427C17.0623 10.6006 16.8976 10.1953 16.6422 9.8268Z" fill="white"/>
<path d="M13.8927 24.078C13.944 24.082 13.9948 24.0893 14.0453 24.1C14.5375 24.2049 15.0103 24.3518 15.4788 24.551C15.8689 24.717 16.2764 24.9081 16.7012 25.1244C17.3542 25.457 17.9437 25.8308 18.4419 26.3488C18.556 26.4674 18.6782 26.6106 18.8084 26.7783C19.3334 27.4547 19.7934 28.1761 19.9613 29.0281C20.0511 29.4851 20.0909 29.975 20.0805 30.4978C20.072 30.9157 20.0059 31.2703 19.8621 31.6444C19.7708 31.8818 19.6965 32.1449 19.5532 32.3565C19.5135 32.4155 19.4148 32.5256 19.2571 32.6868C18.7996 33.1551 18.2486 33.5176 17.5995 33.6552C13.8574 34.4495 9.95648 33.9519 6.56306 32.1839C6.39012 32.0938 6.22538 32.0025 6.06884 31.91C5.05609 31.3127 4.09393 30.5757 3.29256 29.7179C2.25269 28.6048 1.50443 27.127 1.35325 25.6005C1.23853 24.4448 1.42276 23.2735 1.91924 22.2297C2.88677 20.1946 4.83794 18.7459 6.88857 17.9394C7.63654 17.6453 8.44837 17.4082 9.26134 17.2864C9.26994 17.2851 9.27791 17.2811 9.28406 17.2749C9.29021 17.2688 9.29423 17.2608 9.29553 17.2522C9.33038 17.0165 9.39264 16.7846 9.48231 16.5565C9.74284 15.8947 10.1028 15.3265 10.5945 14.7582C11.7686 13.401 13.3993 12.3894 15.1422 11.9834C15.5866 11.8798 15.9886 11.8245 16.3483 11.8175C16.7147 11.8101 16.9549 11.8117 17.0688 11.822C17.1478 11.8292 17.329 11.8603 17.6125 11.9153C17.8922 11.9692 18.276 12.0738 18.5196 12.2577C18.5234 12.2606 18.5282 12.2619 18.533 12.2613C18.5377 12.2607 18.542 12.2583 18.545 12.2546C18.6899 12.076 18.8394 11.9023 19.0061 11.7446C19.8078 10.9856 20.7951 10.3654 21.8223 9.96919C22.4166 9.73993 23.0762 9.56907 23.8011 9.4566C24.4105 9.36204 24.9851 9.3269 25.5248 9.3512C25.7676 9.36194 26.0831 9.39642 26.4712 9.45463C29.0584 9.84203 31.3981 11.3496 32.768 13.5887C33.6878 15.0919 34.0899 16.9202 33.878 18.6724C33.8774 18.6772 33.8786 18.682 33.8814 18.686C33.8841 18.69 33.8882 18.6929 33.8929 18.6942C35.6915 19.1505 37.0832 20.5399 37.8767 22.176C38.7538 23.9842 38.9999 26.1656 38.2279 28.0464C38.0897 28.3824 38.005 28.6031 37.8936 28.8817C37.8614 28.9622 37.7827 29.0946 37.6574 29.279C37.5698 29.4076 37.4675 29.6057 37.3463 29.741C37.0605 30.0607 36.7324 30.3682 36.3621 30.6636C35.2052 31.5862 33.906 32.2777 32.5191 32.786C31.6872 33.091 30.8782 33.3245 30.0921 33.4865C29.1853 33.6736 28.2811 33.7897 27.3053 33.8038C26.1276 33.8214 24.9495 33.699 23.843 33.2664C23.6793 33.2023 23.5173 33.1341 23.3572 33.0615C22.5089 32.6774 21.9739 32.0385 21.7522 31.1448C21.5213 30.2132 21.7293 29.1476 22.1294 28.2852C22.3338 27.845 22.5808 27.4301 22.8703 27.0405C23.885 25.6759 25.1772 24.685 26.747 24.0678C27.0188 23.9608 27.3239 23.8725 27.6622 23.8028C27.672 23.8007 27.6723 23.7977 27.6631 23.7937C27.6408 23.7841 27.6193 23.7753 27.5984 23.7672C26.508 23.3514 25.5099 22.7759 24.6039 22.0407C23.7681 21.3625 23.0473 20.6162 22.4417 19.8018C21.8599 19.0191 21.3572 18.1358 21.0353 17.2129C21.0153 17.1558 21.0007 17.1021 20.9915 17.0516C20.9879 17.031 20.9837 17.0309 20.9788 17.051C20.6233 18.502 19.8465 19.816 18.8468 20.9386C18.0279 21.8581 17.029 22.6394 15.9552 23.2422C15.32 23.5986 14.6325 23.8771 13.8927 24.0777C13.8923 24.0779 13.8923 24.078 13.8927 24.078ZM29.0847 16.1129C28.1268 15.6904 27.4087 14.9125 27.0767 13.9142C27.056 13.8522 27.0421 13.7921 27.0349 13.7339C27.033 13.7179 27.0289 13.7172 27.0225 13.7319C26.8704 14.0823 26.6503 14.3985 26.4113 14.6946C26.1878 14.9719 25.8844 15.2855 25.5011 15.6353C25.3219 15.799 25.131 15.9476 24.9283 16.0809C24.92 16.0862 24.9204 16.0908 24.9294 16.0948C25.0266 16.1374 25.1204 16.1863 25.2106 16.2417C26.0377 16.7481 26.704 17.4342 27.0928 18.3302C27.0973 18.3408 27.1011 18.3405 27.1041 18.3294C27.1343 18.2207 27.1756 18.1141 27.2282 18.0098C27.5951 17.283 28.1232 16.7029 28.8123 16.2694C28.8748 16.23 28.9657 16.1829 29.085 16.1278C29.0959 16.1228 29.0958 16.1178 29.0847 16.1129ZM14.667 19.2726C14.9671 18.6238 15.494 18.1635 16.1352 17.8665C16.1442 17.8624 16.1441 17.8584 16.1346 17.8546C15.4762 17.5989 15.0597 17.0657 14.813 16.4186C14.8076 16.4047 14.8013 16.4043 14.7941 16.4175C14.4742 17.0027 13.8998 17.4972 13.3174 17.8018C13.3151 17.8029 13.3133 17.8047 13.312 17.807C13.3108 17.8092 13.3103 17.8117 13.3106 17.8143C13.3109 17.8168 13.3119 17.8192 13.3136 17.8211C13.3153 17.823 13.3175 17.8244 13.3199 17.825C13.3879 17.8436 13.4546 17.8736 13.52 17.9148C14.0769 18.2649 14.4033 18.7727 14.5969 19.3921C14.6001 19.4027 14.6041 19.403 14.609 19.3932C14.6277 19.3561 14.647 19.3159 14.667 19.2726Z" fill="white"/>
</svg>
