<svg width="127" height="81" viewBox="0 0 127 81" fill="none" xmlns="http://www.w3.org/2000/svg">
<path d="M124.004 3C114.993 5.78923 107.069 11.9202 98.6868 16.1565C88.4327 21.3387 78.6442 27.3919 68.3912 32.5844C54.2297 39.7563 40.4345 47.608 26.4681 55.1283C19.9272 58.6504 12.9112 63.8957 5.59546 65.7247M26.077 15.801C26.077 19.1036 23.8746 22.1063 22.5568 25.0462L22.5517 25.0575C21.0183 28.4781 19.5034 31.8574 18.1476 35.3225C15.7779 41.3782 14.2756 47.7689 11.0359 53.5283C9.02548 57.1024 6.43306 60.2489 4.45765 63.8046C2.88093 66.6427 1.93874 67.3337 5.0977 68.4272C15.6454 72.0783 27.4678 72.624 38.2735 75.3254C43.9989 76.7568 51.0082 77.8856 56.7993 77.8856" stroke="white" stroke-width="6" stroke-linecap="round"/>
</svg>
