<svg width="114" height="114" viewBox="0 0 114 114" fill="none" xmlns="http://www.w3.org/2000/svg">
<path d="M20.7878 66.5353C18.1639 56.892 19.5397 46.698 24.5711 38.0947C27.8922 32.4152 32.399 27.9092 38.0913 24.5767C40.2543 23.3104 42.4582 22.303 44.7029 21.5545C53.3437 18.6736 63.2072 18.9274 71.6179 22.675C78.9611 25.9469 85.2138 31.3767 89.1445 38.4157C90.2735 40.4371 91.176 42.4173 91.8519 44.3561C92.3743 45.8549 92.8254 47.5451 93.2051 49.4268C93.71 51.9262 93.9318 54.5341 93.8704 57.2506C93.7086 64.3591 91.588 71.2935 87.6338 77.2057C85.6907 80.1115 83.4775 82.724 80.8472 85.0184C78.2867 87.2509 75.332 89.0139 72.2172 90.4221C70.9756 90.9831 69.7529 91.4912 68.4777 91.9089C64.6115 93.1766 60.7249 93.8268 56.8181 93.8594C45.906 93.9501 35.3383 89.1885 28.2983 80.7999C25.549 77.5226 23.3664 73.8542 21.8305 69.8265C21.408 68.7181 21.1103 67.7214 20.7878 66.5353ZM53.3344 22.2232C52.5107 22.2995 51.6866 22.398 50.8721 22.5471C43.7645 23.8499 37.1185 27.2414 32.042 32.403C25.0911 39.4704 21.5338 49.0392 22.1758 58.9867C22.281 60.6151 22.469 62.1072 22.7397 63.4631C23.3164 66.3533 24.2719 69.1833 25.6062 71.9532C30.5851 82.2891 40.7119 89.6159 52.0861 91.1973C58.5373 92.0945 64.7468 91.2388 70.7147 88.6302C72.2734 87.9489 73.763 87.1402 75.1833 86.2041C80.5532 82.6649 84.9724 78.1659 87.8243 72.3561C91.3228 65.2304 92.2768 57.7498 90.6862 49.9142C90.4002 48.5054 89.9663 46.9711 89.3846 45.3115C88.1362 41.7505 86.3239 38.4654 83.9974 35.4632C79.9506 30.24 74.8298 26.4918 68.6351 24.2188C63.69 22.405 58.5898 21.7398 53.3344 22.2232Z" fill="#FF8812"/>
<path d="M57.6358 45.7742C55.8461 45.2762 54.3016 44.6857 52.7575 44.2231C51.7781 43.9293 50.865 43.394 50.0195 42.8446C50.0186 42.844 50.0179 42.8432 50.0175 42.8422C50.017 42.8412 50.0168 42.8401 50.017 42.8391C50.0171 42.838 50.0175 42.837 50.0181 42.8361C50.0187 42.8352 50.0196 42.8346 50.0206 42.8341L57.9727 40.1651C58.0822 40.1285 58.132 40.0529 58.1222 39.9384C58.0959 39.6175 58.0835 39.3195 58.1057 38.9864C58.1957 37.6622 58.1934 36.3212 58.3263 35.0106C58.3963 34.3213 58.4608 33.6473 58.5197 32.9887C58.5292 32.8779 58.5693 32.8655 58.64 32.9517C58.9889 33.3784 59.3186 33.7946 59.6478 34.2619C61.3491 36.6797 62.4251 38.2124 62.8758 38.86C62.9883 39.0221 63.0844 39.0732 63.2901 39.0738C63.6616 39.0742 64.03 39.0416 64.3953 38.9762C65.9416 38.6994 67.494 38.4662 69.0527 38.2767C69.5789 38.2125 70.1018 38.1297 70.6212 38.0282C70.6387 38.0251 70.6412 38.0299 70.629 38.0426C69.6146 39.106 68.677 40.2509 67.7829 41.3998C67.3116 42.0047 66.8703 42.6311 66.4591 43.279C66.4054 43.3635 66.3386 43.4344 66.2589 43.4919C66.2378 43.5069 66.2232 43.5293 66.2178 43.5547C66.2124 43.5801 66.2166 43.6067 66.2297 43.6292C66.2846 43.7227 66.3485 43.8225 66.4213 43.9285C66.9401 44.6835 67.4901 45.5396 68.0714 46.4969C68.9119 47.8824 69.9519 49.2514 70.9308 50.5857C70.9984 50.678 71.0377 50.7731 71.0488 50.8711C71.0511 50.8904 71.0483 50.9099 71.0408 50.9278C71.0333 50.9457 71.0213 50.9614 71.0059 50.9734C70.9906 50.9854 70.9724 50.9932 70.9531 50.9962C70.9338 50.9992 70.914 50.9973 70.8957 50.9906C69.3917 50.4316 67.9129 49.8229 66.3948 49.2991C65.4646 48.9782 64.5354 48.6552 63.6072 48.3301C63.2453 48.2035 62.882 48.1973 62.6301 48.4813C61.6368 49.6027 60.6778 50.5093 59.7036 51.5266C58.9485 52.3159 58.4229 53.0043 57.6718 54.0545C57.6539 54.0792 57.6439 54.0764 57.6421 54.046C57.6092 53.6071 57.578 53.1703 57.5483 52.7358C57.4693 51.5887 57.5571 50.4612 57.6098 49.3165C57.654 48.3483 57.7398 47.4065 57.8278 46.4524C57.8386 46.3366 57.7907 46.1258 57.6842 45.8201C57.6763 45.7966 57.6602 45.7813 57.6358 45.7742Z" fill="#FF8812"/>
<path d="M48.3117 51.537C48.2248 52.3574 47.9177 53.4746 47.3142 54.06C46.7591 54.5971 45.9693 54.7679 45.2328 54.4906C44.0314 54.0389 43.0812 52.7298 42.5131 51.6141C41.3842 49.395 40.734 46.7604 40.9794 44.2593C41.072 43.3165 41.3988 42.176 42.1092 41.5243C43.0772 40.6365 44.3027 40.9059 45.1881 41.7389C46.1125 42.6092 46.7997 43.8562 47.2665 45.0241C48.0732 47.0425 48.5438 49.358 48.3117 51.537Z" fill="#FF8812"/>
<path d="M81.7545 60.8574C81.7368 60.8265 81.7237 60.8285 81.7152 60.8632C81.5608 61.4992 81.4019 62.1387 81.2383 62.7814C80.5213 65.6024 79.5543 68.3348 78.3373 70.9786C77.0742 73.7225 75.4545 76.3479 73.4607 78.6224C70.7609 81.7027 66.9605 84.1803 62.9051 84.9508C56.7123 86.1276 50.5594 83.9075 45.3557 80.6178C43.6945 79.568 42.2272 78.528 40.9537 77.4978C38.8412 75.7901 36.871 73.9323 35.0431 71.9245C34.7539 71.6065 34.4023 71.1727 34.0797 70.8002C34.0539 70.7705 34.0398 70.7753 34.0373 70.8147C34.0011 71.3689 34.0193 71.9776 34.0919 72.6407C34.1474 73.1554 33.9145 73.8204 33.2877 73.7914C32.3765 73.7492 31.9299 72.1381 31.8738 71.4313C31.7163 69.4524 32.3426 67.1576 33.4822 65.531C33.6055 65.3546 33.7466 65.1941 33.9055 65.0495C34.6841 64.3388 35.6251 65.0164 35.2859 65.9876C34.8906 67.1182 34.5058 68.2208 34.2692 69.3992C34.2669 69.4111 34.2677 69.4233 34.2716 69.4348C34.2755 69.4463 34.2823 69.4566 34.2914 69.4646C35.6178 70.659 36.9454 71.85 38.2741 73.0375C40.3458 74.8895 42.5314 76.5946 44.8309 78.1528C49.587 81.3764 55.3236 83.8234 61.198 83.2356C63.4675 83.0089 65.7877 82.2043 67.6821 81.0346C68.6155 80.458 69.565 79.7067 70.5303 78.7807C73.8625 75.5835 76.1293 71.3497 77.7203 67.0625C78.4284 65.155 79.035 63.2161 79.5401 61.2459C79.6442 60.8406 79.7105 60.447 79.7734 60.0403C79.8345 59.6418 80.061 59.1284 80.4859 59.0012C80.4907 58.9998 80.4952 58.9971 80.4989 58.9936C80.5025 58.9901 80.5053 58.9857 80.5069 58.9809C80.5085 58.9761 80.509 58.971 80.5082 58.9659C80.5074 58.9609 80.5055 58.9562 80.5025 58.952C79.9964 58.2638 79.4825 57.5816 78.9608 56.9054C78.7248 56.5984 78.3692 56.0707 78.7717 55.7808C79.5127 55.2464 81.1539 56.9235 81.6209 57.4425C82.4118 58.3212 83.1132 59.2638 83.725 60.2705C84.2569 61.1456 84.6207 62.0877 84.9282 63.0598C85.0851 63.5544 85.2085 64.3459 84.606 64.6243C83.859 64.9696 83.43 64.1179 83.1069 63.489C82.657 62.6123 82.2463 61.7118 81.7545 60.8574Z" fill="#FF8812"/>
</svg>
