<svg width="176" height="176" viewBox="0 0 176 176" fill="none" xmlns="http://www.w3.org/2000/svg">
<g clip-path="url(#clip0_757_1403)">
<path d="M146.646 65.2527C149.352 62.6543 158.609 53.2115 152.265 49.769C149.816 48.44 146.858 48.1792 144.126 48.106C141.29 48.0307 138.568 48.2117 135.789 48.571C129.099 49.4378 122.559 51.0078 116.087 52.885C102.725 56.7627 89.7612 62.0309 77.2371 68.0672C75.0153 69.1385 72.7909 70.2037 70.5638 71.2629C69.8477 71.6037 69.1728 71.8871 68.5389 72.1131C68.3874 72.1674 68.2159 72.1927 68.0243 72.1891C67.2977 72.1742 67.0017 71.3707 67.4124 70.8399C67.7813 70.3612 68.4299 70.0086 68.9529 69.6696C69.2369 69.4853 69.5353 69.3032 69.8481 69.1232C71.6022 68.1127 73.3814 67.1482 75.1857 66.2296C83.5441 61.9725 92.244 58.1677 101.286 54.8154C110.893 51.2537 120.439 48.278 130.369 46.4011C134.342 45.65 138.295 45.1841 142.228 45.0035C143.143 44.9612 144.141 44.9591 145.223 44.9972C147.444 45.0757 149.77 45.4025 151.877 46.1235C154.759 47.1096 157.186 49.2981 157.422 52.4624C157.588 54.6976 156.596 57.164 155.404 59.1711C154.054 61.444 152.428 63.4496 150.599 65.3513C148.521 67.5109 146.342 69.5632 144.062 71.5081C143.407 72.0665 142.716 72.5748 141.988 73.0329C141.35 73.4345 140.407 73.4577 139.939 72.8135C139.129 71.7001 140.439 70.6188 141.241 69.9533C143.25 68.288 144.894 66.9366 146.646 65.2527Z" fill="#FF0D98"/>
<path d="M77.1446 38.7607C77.396 39.6735 78.1988 40.2484 78.9377 40.0449C79.6766 39.8413 80.0717 38.9364 79.8203 38.0237C79.5689 37.111 78.7661 36.5361 78.0273 36.7396C77.2884 36.9431 76.8932 37.848 77.1446 38.7607Z" fill="#FF0D98"/>
<path d="M138.875 64.3152C137.086 67.0459 134.892 69.4598 132.518 71.6904C132.275 71.9186 131.855 72.2811 131.255 72.778C130.726 73.216 129.96 73.4996 129.326 73.1619C128.641 72.7974 128.437 71.8679 128.838 71.2265C128.994 70.976 129.234 70.6964 129.557 70.3879C130.33 69.6493 131.106 68.9149 131.886 68.1846C133.132 67.0178 134.181 65.9263 135.234 64.7001C136.299 63.4601 138.099 61.1238 138.026 59.3007C137.924 56.7595 131.464 57.506 129.68 57.7019C127.469 57.9439 124.919 58.4366 122.03 59.18C119.01 59.9562 115.762 60.9454 112.286 62.1476C105.775 64.3988 99.3029 66.936 92.8699 69.7593C88.5241 71.666 84.8702 73.3858 80.5911 75.1553C80.0894 75.3632 78.8353 75.8755 78.3343 75.6214C77.967 75.4353 77.8643 75.1186 78.0262 74.6713C78.0706 74.5484 78.264 74.3549 78.6065 74.0908C79.0124 73.776 79.6303 73.3849 80.4601 72.9177C83.0303 71.4698 85.6505 70.1198 88.3208 68.8677C93.4459 66.4638 98.6146 64.1967 103.886 62.1294C110.927 59.367 118.169 56.9827 125.58 55.4265C128.624 54.7885 131.802 54.3126 134.914 54.6351C136.897 54.8401 139.243 55.5789 140.227 57.4835C141.379 59.7113 140.133 62.3962 138.875 64.3152Z" fill="#FF0D98"/>
<path d="M91.7739 49.7314C91.9588 50.4899 92.6345 50.9765 93.2832 50.8184C93.9318 50.6602 94.3078 49.9172 94.1229 49.1588C93.938 48.4003 93.2623 47.9137 92.6136 48.0718C91.965 48.2299 91.589 48.973 91.7739 49.7314Z" fill="#FF0D98"/>
<path d="M58.9906 51.6647C59.3676 51.4117 59.681 51.24 60.1599 50.9618C61.3488 50.2695 63.365 49.771 64.131 51.2599C64.3103 51.6075 64.3572 51.9752 64.2718 52.3631C63.9573 53.7925 62.1926 54.6375 61.0283 55.238C60.996 55.255 60.9872 55.2798 61.002 55.3123C61.3585 56.0896 61.6332 56.8917 61.826 57.7185C62.1378 59.0579 60.731 59.9806 59.6843 59.0284C58.9648 58.3735 58.367 57.6278 57.8908 56.7914C57.8815 56.775 57.8663 56.7628 57.8484 56.7572C57.8304 56.7516 57.811 56.753 57.794 56.7612C57.1632 57.0714 56.524 57.3718 55.8763 57.6625C55.3361 57.9061 54.5278 58.188 53.9966 57.8071C53.1137 57.1737 53.4957 56.0994 54.0674 55.431C54.6938 54.6981 55.4067 54.0616 56.2061 53.5213C56.3681 53.4117 56.3516 53.2896 56.275 53.1204C55.9087 52.3077 55.031 50.2657 55.767 49.527C56.9369 48.3546 58.4523 50.915 58.9439 51.6554C58.9464 51.6591 58.9497 51.6623 58.9534 51.6648C58.9571 51.6673 58.9613 51.669 58.9656 51.6699C58.97 51.6707 58.9744 51.6707 58.9787 51.6698C58.983 51.669 58.987 51.6672 58.9906 51.6647Z" fill="#FF0D98"/>
<path d="M103.836 101.209C103.565 101.033 103.291 100.863 103.047 100.655C101.655 99.4691 100.253 98.2951 98.8412 97.1331C98.6187 96.9494 98.3878 96.7773 98.1483 96.6169C96.9296 95.8025 95.6121 94.8376 94.1959 93.7222C92.9524 92.7418 91.6319 91.9612 89.964 91.0201C88.9388 90.4426 87.7955 89.4239 88.6139 88.122C88.9868 87.5288 89.5476 87.3121 90.2562 86.9992C90.6074 86.8437 91.4974 86.5359 92.9265 86.0759C93.9669 85.7407 94.9998 85.3831 96.0251 85.0032C99.3088 83.7878 102.312 82.7326 105.034 81.8375C105.266 81.7607 105.338 81.6867 105.406 81.4374C106.263 78.2923 107.116 75.1448 107.98 72.0003C108.311 70.7968 108.427 69.834 108.467 68.6447C108.494 67.8614 108.969 67.0483 109.315 66.3463C110.253 64.4484 112.353 63.2932 114.287 64.6662C115.428 65.4754 116.433 66.4592 117.302 67.6178C119.401 70.4136 121.237 73.38 123.387 76.1394C123.831 76.7085 124.238 77.3632 125.012 77.4199C125.623 77.4651 126.233 77.477 126.843 77.4557C127.696 77.4264 128.73 77.0864 129.475 77.0764C130.773 77.0598 131.603 77.0352 131.963 77.0027C133.897 76.8283 135.634 76.7444 137.176 76.751C138.834 76.7578 139.829 76.7528 140.88 77.9031C141.325 78.391 141.675 78.8559 141.93 79.298C142.534 80.3466 142.186 81.5498 141.868 82.6455C141.35 84.4236 140.127 85.7304 139.011 87.2147C138.302 88.1575 137.364 89.2027 136.793 89.96C135.906 91.1386 135.451 91.9313 134.894 93.0134C134.651 93.4873 134.584 93.9048 134.659 94.4587C134.755 95.1658 134.958 96.0044 135.074 96.5467C135.239 97.3205 135.396 98.0374 135.7 98.7897C137.365 102.913 138.669 106.185 139.674 110.054C139.907 110.947 140.165 112.341 139.839 113.078C139.438 113.982 138.426 114.382 137.474 114.252C136.2 114.077 134.982 113.73 133.739 113.417C133.115 113.26 132.455 113.065 131.757 112.833C130.178 112.31 128.581 111.832 127.025 111.233C125.485 110.641 123.955 110.061 122.38 109.565C121.154 109.179 120.61 109.643 119.626 110.266C118.99 110.67 118.352 111.071 117.713 111.469C117.341 111.7 116.701 112.237 115.795 113.077C114.829 113.973 113.444 114.954 112.331 115.865C111.033 116.927 109.658 117.922 108.291 118.93C107.741 119.335 107.04 119.749 106.362 119.724C104.667 119.664 104.29 117.767 104.257 116.438C104.22 114.9 104.217 113.395 104.087 111.834C103.851 109.037 103.7 106.239 103.752 103.43C103.765 102.717 103.807 102.006 103.879 101.296C103.88 101.279 103.877 101.262 103.87 101.247C103.862 101.231 103.85 101.218 103.836 101.209ZM108.348 82.3446C108.176 82.9478 107.832 83.552 107.305 83.8334C106.751 84.1307 105.97 84.4478 104.962 84.7845C104.495 84.9409 103.565 85.313 102.174 85.9009C99.887 86.8663 97.5746 87.7649 95.2365 88.5968C94.3898 88.8984 93.5186 89.3036 92.6526 89.5294C92.6462 89.5311 92.6405 89.5347 92.6361 89.5397C92.6317 89.5446 92.6289 89.5508 92.6279 89.5573C92.6269 89.5638 92.6279 89.5705 92.6307 89.5765C92.6334 89.5825 92.6379 89.5876 92.6435 89.5911C93.9419 90.4065 95.227 91.2033 96.4891 92.1459C97.5882 92.9667 98.6104 93.6471 99.6837 94.384C100.92 95.2329 102.114 96.2342 103.335 97.1553C104.561 98.0805 105.369 98.6853 106.086 99.6328C106.361 99.9966 106.442 100.4 106.33 100.844C106.275 101.061 106.254 101.254 106.267 101.424C106.338 102.343 106.395 103.262 106.439 104.183C106.574 106.979 106.835 109.756 107.13 112.54C107.265 113.816 107.291 114.938 107.262 116.154C107.262 116.159 107.263 116.163 107.266 116.167C107.268 116.171 107.271 116.174 107.275 116.176C107.279 116.178 107.284 116.179 107.288 116.179C107.293 116.179 107.298 116.178 107.302 116.175C108.456 115.434 109.55 114.613 110.584 113.712C111.839 112.618 112.959 111.733 114.386 110.473C115.233 109.726 116.044 109.09 117.054 108.479C117.708 108.083 118.362 107.689 119.016 107.295C119.608 106.939 120.036 106.729 120.301 106.664C121.073 106.472 121.845 106.436 122.617 106.554C123.378 106.67 124.313 107.075 125.158 107.318C125.667 107.464 126.051 107.655 126.308 107.891C126.535 108.1 126.782 108.25 127.05 108.34C127.818 108.6 128.841 108.933 129.777 109.205C131.501 109.705 133.192 110.249 134.946 110.709C135.819 110.937 136.686 111.176 137.546 111.426C137.554 111.428 137.562 111.428 137.57 111.427C137.577 111.425 137.584 111.421 137.59 111.416C137.596 111.41 137.601 111.403 137.603 111.396C137.606 111.388 137.607 111.38 137.605 111.372C137.489 110.71 137.331 110.101 137.09 109.43C136.311 107.252 135.449 105.107 134.505 102.995C133.675 101.14 132.807 99.0531 132.148 97.4133C131.883 96.7547 131.654 96.0392 131.459 95.2668C131.396 95.0144 131.355 94.7825 131.337 94.571C131.287 93.9724 131.459 93.5339 131.569 93.0059C131.955 91.1273 132.946 89.6587 134.138 88.1511C134.919 87.1612 135.958 86.2137 136.655 85.3522C137.265 84.5992 137.881 83.8515 138.505 83.1093C139.149 82.3406 139.396 81.5703 139.705 80.6368C139.758 80.4783 139.756 80.3487 139.699 80.248C139.534 79.9545 139.046 79.4279 138.63 79.4139C138.008 79.3934 137.386 79.3947 136.764 79.4176C135.491 79.4639 134.118 79.4511 132.797 79.5945C132.232 79.6555 131.787 79.6893 131.463 79.6959C130.456 79.7161 129.584 79.6663 128.519 79.9126C127.415 80.1675 126.236 80.274 124.98 80.232C123.54 80.1842 122.4 79.6788 121.484 78.6203C120.888 77.9323 120.449 77.2261 119.812 76.3965C118.891 75.1945 118.142 73.7786 117.149 72.4257C116.621 71.7055 116.113 70.9062 115.705 70.3101C115.284 69.6945 113.248 66.8854 112.526 66.8514C112.25 66.8385 111.851 67.2494 111.705 67.452C111.603 67.5929 111.534 67.7829 111.497 68.0219C111.07 70.8054 110.45 73.5522 109.857 76.304C109.42 78.334 108.917 80.3476 108.348 82.3446Z" fill="#FF0D98"/>
<path d="M72.5678 55.6017C72.6168 56.3797 73.2188 56.975 73.9125 56.9313C74.6061 56.8877 75.1288 56.2216 75.0799 55.4436C75.0309 54.6657 74.4289 54.0704 73.7352 54.114C73.0415 54.1577 72.5189 54.8237 72.5678 55.6017Z" fill="#FF0D98"/>
<path d="M47.4179 92.787C46.4646 92.3765 45.6311 91.9862 44.7233 91.298C43.4859 90.3588 42.2901 89.3164 40.9849 88.4746C40.4238 88.1135 39.8508 87.761 39.3584 87.3349C38.6601 86.7313 38.0388 86.0973 37.4944 85.433C36.415 84.1158 36.3952 82.6963 38.1976 82.0219C40.8193 81.0406 43.586 80.0169 46.1325 79.3279C46.4323 79.247 46.8875 79.1572 47.498 79.0583C47.5337 79.0529 47.5555 79.0327 47.5634 78.9978C47.7351 78.24 47.9107 77.4862 48.0902 76.7363C48.6035 74.5932 48.9415 72.3657 49.6869 70.3704C49.9721 69.6067 50.1639 69.1436 50.2624 68.981C50.8792 67.9685 52.1124 67.6817 53.2302 68.0572C54.3273 68.426 55.2935 69.7065 55.9462 70.688C56.5647 71.6175 57.1519 72.3001 58.0562 73.2088C59.1159 74.2736 60.0491 75.4433 60.8557 76.7177C60.8746 76.7484 60.9017 76.7603 60.9371 76.7534C61.6324 76.6231 62.331 76.499 63.0329 76.3811C63.9795 76.2219 64.7831 76.2008 65.8326 76.2884C66.8202 76.3711 67.9113 76.431 69.1059 76.468C69.3739 76.4763 69.6619 76.51 69.9699 76.569C71.6315 76.8869 72.1376 78.3597 71.3789 79.8177C71.0099 80.5268 70.591 81.2054 70.1221 81.8535C69.3612 82.9048 68.5886 83.9475 67.8044 84.9819C67.2036 85.7751 66.6719 86.6017 66.1095 87.4191C66.1003 87.4327 66.0947 87.4484 66.0933 87.4647C66.092 87.481 66.0948 87.4974 66.1017 87.5123C66.919 89.2684 67.6777 91.0838 68.6049 92.7774C69.1751 93.8192 69.7925 94.8446 70.2886 95.9232C70.7596 96.948 70.929 97.9486 69.895 98.63C69.1782 99.1012 67.9075 98.9211 67.1371 98.6944C64.8306 98.0165 62.6088 97.2104 60.5065 96.0299C60.1154 95.8102 59.7229 95.6341 59.3291 95.5015C59.2684 95.4811 59.2034 95.4772 59.1408 95.4903C59.0782 95.5035 59.0204 95.5331 58.9732 95.5762C58.1034 96.3712 57.2736 97.2207 56.3748 97.964C55.6336 98.5783 54.8935 99.1727 54.2002 99.8598C53.1106 100.94 51.9216 101.936 50.7669 102.948C50.0762 103.554 49.3175 103.974 48.4156 103.994C47.1825 104.021 46.5578 103.243 46.4371 102.1C46.3684 101.451 46.4922 100.346 46.5241 99.8194C46.623 98.221 46.8387 96.901 47.0589 95.4442C47.1483 94.8552 47.2642 93.716 47.4543 92.8588C47.4572 92.8443 47.4552 92.8294 47.4486 92.8163C47.442 92.8033 47.4311 92.7929 47.4179 92.787ZM63.6777 94.4866C64.8138 94.9893 65.9768 95.4197 67.1667 95.7777C67.2993 95.8175 67.4572 95.9229 67.604 95.974C67.6633 95.9949 67.6762 95.9788 67.6426 95.9256C66.8782 94.7024 66.0604 93.483 65.3961 92.2375C64.9185 91.3422 64.4509 90.442 63.9931 89.537C63.6781 88.9135 63.4711 88.3218 63.3723 87.7618C63.3108 87.4084 63.1017 87.1149 63.0554 86.7687C62.9917 86.296 63.0842 85.8679 63.3331 85.4846C63.7455 84.8506 64.302 84.1471 65.0026 83.3743C66.0425 82.2266 67.0223 81.0304 67.942 79.7857C68.0315 79.6631 68.1615 79.5492 68.2672 79.4342C68.2725 79.4287 68.276 79.4218 68.2773 79.4143C68.2786 79.4068 68.2777 79.399 68.2746 79.3919C68.2715 79.3849 68.2664 79.3788 68.2599 79.3745C68.2534 79.3702 68.2458 79.3678 68.238 79.3676C67.1738 79.347 66.1163 79.2894 65.0656 79.1946C64.1704 79.1142 63.4451 79.1584 62.5384 79.2246C61.7487 79.2815 60.9525 79.1911 60.1441 79.1938C59.4952 79.1964 58.9999 78.7771 58.5954 78.3146C57.8862 77.5041 57.2287 76.5407 56.6449 75.7852C56.0682 75.0391 55.1143 74.1481 54.5509 73.3082C53.9416 72.4005 53.3878 71.4091 52.6178 70.6262C52.6061 70.6144 52.5906 70.6073 52.574 70.606C52.5575 70.6047 52.541 70.6094 52.5277 70.6192C52.5161 70.6275 52.5044 70.6461 52.4924 70.675C51.7665 72.3461 51.3374 74.2668 50.824 76.0911C50.3864 77.6469 49.7904 79.1395 49.0358 80.569C48.7181 81.1717 47.6935 81.5582 47.0828 81.7936C44.3973 82.8294 42.7474 83.6015 40.5892 84.5539C40.4751 84.6047 40.3706 84.6447 40.2757 84.6742C40.2243 84.6904 40.2154 84.7194 40.2491 84.7613C40.7181 85.3426 41.1669 85.7196 41.8481 86.1674C43.4874 87.2474 45.2798 88.6145 46.6331 89.5558C47.2009 89.9519 47.846 90.2713 48.4659 90.6203C49.0479 90.9474 49.3305 91.2863 49.372 91.9617C49.4051 92.5086 49.5405 93.0573 49.5557 93.5716C49.6287 96.0376 49.369 98.5321 49.2232 100.996C49.2229 101.001 49.2239 101.005 49.226 101.008C49.2282 101.012 49.2315 101.015 49.2354 101.017C49.2394 101.019 49.2438 101.019 49.2483 101.019C49.2527 101.018 49.2569 101.016 49.2603 101.014C51.1385 99.4374 52.7232 97.7429 54.6302 96.0075C55.5099 95.2077 56.3158 94.3357 57.1529 93.4871C59.1599 91.4543 61.7362 93.6284 63.6777 94.4866Z" fill="#FF0D98"/>
<path d="M34.4224 109.764C35.7348 106.898 37.6207 104.26 39.8694 102.055C40.3893 101.544 41.8288 100.104 42.6765 100.593C43.5212 101.081 42.757 102.321 42.4245 102.867C41.7259 104.016 41.0046 105.15 40.2604 106.269C39.6677 107.159 39.1737 108.025 38.655 108.923C37.6857 110.6 36.9175 112.329 36.716 114.279C36.1268 119.983 46.3607 118.306 49.3246 117.728C53.0124 117.009 56.63 116.03 60.1775 114.791C67.9079 112.092 75.4318 108.906 82.749 105.231C84.0196 104.593 86.2532 103.444 89.4499 101.785C90.4651 101.258 91.5244 100.61 92.5727 100.035C93.3202 99.6245 94.2767 99.6679 94.8107 100.385C95.3306 101.084 95.0907 102.051 94.4036 102.552C94.1575 102.73 93.9002 102.892 93.6317 103.037C90.8621 104.535 88.1513 106.124 85.3439 107.551C80.7028 109.909 76.0351 112.151 71.2451 114.195C66.7801 116.099 62.6483 117.547 57.9968 118.941C53.7466 120.216 49.3511 121.19 44.9116 121.459C42.7062 121.593 40.4783 121.456 38.3898 120.847C36.5451 120.31 34.7197 119.15 33.8619 117.369C32.6844 114.925 33.352 112.102 34.4224 109.764Z" fill="#FF0D98"/>
<path d="M34.1962 101.096C32.2323 103.263 30.935 104.799 29.489 106.634C28.0446 108.468 26.7846 110.408 25.6435 112.443C24.6646 114.188 23.873 115.981 23.2687 117.82C22.885 118.989 22.6952 120.222 22.6995 121.518C22.7077 124.038 24.0476 125.872 26.2729 126.953C28.3878 127.979 30.6466 128.272 33.0175 128.322C37.484 128.416 42.0278 127.806 46.3854 126.854C51.6876 125.693 56.6721 124.225 61.7662 122.428C62.4075 122.201 63.0543 121.964 63.7066 121.718C67.6296 120.232 71.3897 118.669 74.9869 117.03C81.9441 113.856 88.7898 110.381 95.4583 106.64C96.3623 106.133 97.7368 105.73 98.2625 107.022C98.7663 108.259 97.4434 109.06 96.579 109.568C90.2532 113.275 83.5911 116.8 77.0765 119.727C71.3563 122.295 65.5953 124.641 59.7271 126.657C53.9673 128.635 48.031 130.281 41.9464 131.228C37.9358 131.852 34.1904 132.009 30.3461 131.501C25.2467 130.827 20.0195 128.47 19.1668 122.797C18.6119 119.104 19.9167 115.216 21.7108 111.922C22.6183 110.257 23.4567 108.875 24.2257 107.778C27.9955 102.399 32.292 97.3634 37.4303 93.2215C38.1046 92.6769 39.173 91.9234 40.1147 92.1576C40.8527 92.3414 40.7542 93.2521 40.5031 93.77C40.0856 94.6294 39.3877 95.3538 38.753 96.0577C37.2365 97.7387 35.7175 99.418 34.1962 101.096Z" fill="#FF0D98"/>
<path d="M124.344 128.337C123.522 128.931 122.845 129.324 122.311 129.514C120.522 130.154 119.236 128.401 120.611 126.954C121.251 126.28 121.962 125.687 122.744 125.174C122.757 125.165 122.767 125.151 122.771 125.135C122.775 125.119 122.773 125.102 122.766 125.088C122.349 124.297 121.569 122.838 122.452 122.062C123.564 121.082 124.805 122.573 125.346 123.391C125.369 123.426 125.405 123.45 125.445 123.459C125.486 123.468 125.528 123.46 125.563 123.438C126.523 122.827 128.238 122.416 129.02 123.491C129.416 124.036 129.18 124.821 128.799 125.294C128.425 125.76 127.9 126.103 127.374 126.381C127.357 126.39 127.343 126.402 127.331 126.417C127.319 126.432 127.31 126.448 127.305 126.467C127.3 126.485 127.299 126.504 127.301 126.522C127.303 126.541 127.309 126.559 127.319 126.575C127.859 127.501 128.866 129.928 127.618 130.686C126.808 131.177 126.071 130.591 125.563 129.98C125.138 129.471 124.761 128.93 124.431 128.356C124.409 128.318 124.38 128.311 124.344 128.337Z" fill="#FF0D98"/>
<path d="M111.116 124.745C111.752 124.647 112.366 124.988 112.623 125.576C112.948 126.324 113.163 127.403 112.561 127.986C111.494 129.018 109.751 128.223 109.702 126.767C109.672 125.853 110.118 124.897 111.116 124.745Z" fill="#FF0D98"/>
<path d="M117.466 139.675C117.328 140.709 117.931 141.642 118.814 141.76C119.696 141.878 120.523 141.135 120.661 140.101C120.799 139.067 120.196 138.133 119.313 138.016C118.431 137.898 117.604 138.641 117.466 139.675Z" fill="#FF0D98"/>
<path d="M77.0462 131.209C76.9713 132.182 77.6357 133.026 78.5301 133.095C79.4245 133.164 80.2103 132.431 80.2852 131.458C80.36 130.485 79.6956 129.64 78.8012 129.572C77.9068 129.503 77.121 130.236 77.0462 131.209Z" fill="#FF0D98"/>
</g>
<defs>
<clipPath id="clip0_757_1403">
<rect width="143.471" height="143.472" fill="white" transform="translate(37.1328 0.159424) rotate(15)"/>
</clipPath>
</defs>
</svg>
