<svg width="187" height="187" viewBox="0 0 187 187" fill="none" xmlns="http://www.w3.org/2000/svg">
<g clip-path="url(#clip0_779_3507)">
<path d="M113.441 74.738C113.686 74.4532 113.956 74.1941 114.251 73.9607C114.338 73.8912 114.457 73.6163 114.557 73.4915C114.811 73.1778 115.051 72.8537 115.277 72.519C115.96 71.4977 116.996 70.8016 117.831 69.9139C118.022 69.7113 118.172 69.5505 118.437 69.4092C119.105 69.0518 119.565 68.4472 120.29 68.0201C120.574 67.8507 120.877 67.6543 121.197 67.4309C121.511 67.2118 121.839 67.0172 122.181 66.8472C122.455 66.7115 122.745 66.5519 123.05 66.3681C123.707 65.9721 124.412 65.8834 125.016 65.494C125.232 65.3544 125.46 65.2586 125.701 65.2067C126.226 65.0926 126.718 64.9484 127.175 64.7738C127.981 64.4651 128.759 64.3038 129.626 64.1963C130.238 64.1202 130.681 63.8589 131.209 63.7731C131.834 63.672 132.444 63.531 133.076 63.4706C133.532 63.4264 133.884 63.2004 134.314 63.1676C134.61 63.1442 134.904 63.1128 135.197 63.0735C135.797 62.9918 136.666 62.9171 137.391 62.7496C137.902 62.6301 138.416 62.6216 138.933 62.7241C138.937 62.725 138.94 62.7267 138.943 62.7291C138.946 62.7315 138.948 62.7346 138.95 62.7381C138.951 62.7416 138.952 62.7453 138.952 62.749C138.951 62.7526 138.95 62.7561 138.948 62.7591C138.639 63.2137 138.052 63.602 137.605 63.9229C136.988 64.3661 136.389 64.8349 135.89 65.4109C135.64 65.6997 135.453 65.8716 135.329 65.9266C134.836 66.1456 134.633 66.5278 134.336 66.8407C134.014 67.1794 133.78 67.4381 133.437 67.8732C133.279 68.0729 133.061 68.2801 132.783 68.495C132.468 68.7377 132.189 69.2727 131.951 69.5695C131.472 70.1668 131.166 70.7702 130.73 71.277C130.322 71.7533 130.078 72.333 129.758 72.8627C129.543 73.2171 129.188 74.0262 128.69 75.29C127.853 77.4182 127.465 79.668 127.687 81.9504C127.7 82.0857 127.738 82.2444 127.8 82.4264C128.143 83.4219 128.079 84.2476 128.479 84.9748C128.715 85.403 128.736 85.9484 128.835 86.4228C128.944 86.9412 128.944 87.6003 129.159 88.1767C129.256 88.4376 129.32 88.6636 129.352 88.8544C129.428 89.2949 129.524 89.731 129.641 90.1627C129.728 90.4822 129.733 90.9439 129.895 91.2606C130.166 91.7879 130.191 92.0369 130.27 92.5553C130.338 92.989 130.485 93.4222 130.536 93.8791C130.6 94.4648 130.924 94.9053 130.956 95.4947C130.99 96.1445 131.167 96.781 131.223 97.4378C131.239 97.6266 131.285 97.8364 131.361 98.0673C131.532 98.5862 131.554 99.2317 131.606 99.6175C131.709 100.394 131.704 101.24 131.946 102.084C132.035 102.395 132.093 102.854 132.121 103.463C132.157 104.279 132.167 105.174 132.358 105.951C132.499 106.53 132.463 107.147 132.51 107.672C132.532 107.939 132.545 108.205 132.547 108.471C132.552 109.05 132.595 109.545 132.614 110.085C132.632 110.576 132.799 111.109 132.792 111.582C132.78 112.433 132.779 113.284 132.79 114.135C132.796 114.592 132.759 115.323 132.833 115.928C132.883 116.342 132.905 116.668 132.901 116.908C132.869 118.689 132.75 120.464 132.542 122.232C132.423 123.242 132.355 124.419 132.186 125.413C131.561 129.071 130.689 132.669 129.569 136.207C129.193 137.392 128.81 138.428 128.418 139.316C128.207 139.794 127.863 140.29 127.63 140.755C127.193 141.62 126.722 142.466 126.217 143.293C125.871 143.858 125.512 144.327 125.139 144.701C124.781 145.061 124.509 145.368 124.322 145.625C123.539 146.702 122.452 147.428 121.59 148.426C121.33 148.726 121.139 148.906 121.016 148.968C120.74 149.104 120.539 149.219 120.321 149.462C120.068 149.746 119.813 149.983 119.557 150.175C118.62 150.876 117.984 151.356 117.651 151.616C117.45 151.773 117.293 151.997 117.065 152.125C116.621 152.377 116.137 152.651 115.847 152.917C115.531 153.208 115.284 153.392 115.105 153.472C114.835 153.591 114.58 153.737 114.339 153.908C113.863 154.247 113.529 154.616 112.933 154.852C112.741 154.928 112.528 155.034 112.378 155.166C111.975 155.522 111.525 155.795 111.026 155.985C110.506 156.183 110.075 156.618 109.587 156.778C109.074 156.946 108.649 157.118 108.311 157.294C108.059 157.426 107.837 157.52 107.644 157.576C106.965 157.775 106.164 158.046 105.243 158.389C104.544 158.648 103.748 158.706 103.01 158.923C102.828 158.976 102.686 159.108 102.457 159.137C101.762 159.23 101.094 159.417 100.396 159.498C99.8431 159.561 99.3771 159.805 98.8601 159.879C98.3776 159.948 97.9208 160.046 97.4231 160.091C96.4723 160.177 95.5856 160.461 94.6433 160.549C93.7873 160.629 92.9511 160.758 92.088 160.791C91.8963 160.799 91.7262 160.95 91.5274 160.981C91.0775 161.049 90.6082 161.026 90.1797 161.07C89.834 161.106 89.4874 161.121 89.1399 161.115C88.2782 161.1 87.7571 161.112 87.061 161.134C86.705 161.146 86.3576 161.137 86.0187 161.108C83.7199 160.905 81.4254 160.665 79.1353 160.387C79.0959 160.383 79.0926 160.369 79.1255 160.347C79.3693 160.182 79.6117 160.014 79.8526 159.84C79.9833 159.746 80.2418 159.699 80.3204 159.615C80.8167 159.091 81.3665 158.634 81.8284 158.08C82.0214 157.848 82.2938 157.744 82.4767 157.572C82.7949 157.271 83.0535 156.885 83.2969 156.597C83.5563 156.294 83.7923 156.03 84.0167 155.676C84.2992 155.231 84.6796 155.024 84.8928 154.695C85.8692 153.19 86.6108 151.609 87.5265 149.918C87.7918 149.428 88.0015 148.98 88.1556 148.573C88.9661 146.431 89.5532 144.23 89.9169 141.97C89.9992 141.457 90.0611 140.795 90.1026 139.983C90.1469 139.093 90.239 138.145 90.2631 137.318C90.3009 135.989 90.291 135.106 90.2334 134.669C90.1925 134.351 90.0326 133.97 90.0014 133.573C89.9461 132.875 89.8453 132.278 89.7594 131.502C89.7096 131.053 89.488 130.51 89.4018 130.192C89.2184 129.526 89.0412 128.857 88.87 128.188C88.8537 128.123 88.8069 128.029 88.7295 127.907C88.539 127.606 88.3966 127.283 88.3021 126.939C88.1522 126.393 87.8894 125.892 87.5136 125.438C87.3418 125.231 87.2214 124.986 87.1522 124.704C87.1458 124.679 87.1543 124.672 87.1776 124.682C87.3278 124.745 87.4401 124.845 87.5147 124.984C87.5332 125.018 87.5588 125.045 87.5917 125.065C87.8811 125.248 88.1675 125.435 88.4507 125.626C88.9052 125.935 89.5778 126.335 90.1117 126.746C90.3438 126.926 90.6462 127.065 90.8925 127.264C91.0871 127.421 91.1593 127.67 91.4095 127.833C91.8856 128.145 92.3323 128.493 92.7494 128.879C92.951 129.065 93.3684 129.311 93.5424 129.657C93.9485 130.463 94.6071 130.941 95.0225 131.722C95.1735 132.007 95.3651 132.243 95.5335 132.514C96.5395 134.129 97.4844 135.771 98.2774 137.503C98.3457 137.654 98.4452 137.833 98.5759 138.039C99.0434 138.78 99.1576 139.652 99.7296 140.367C99.7732 140.421 99.8201 140.536 99.8704 140.711C100.021 141.236 100.221 141.74 100.472 142.224C100.542 142.359 100.68 142.46 100.724 142.608C100.869 143.094 101.043 143.569 101.248 144.034C101.341 144.243 101.308 144.505 101.432 144.683C101.569 144.879 101.678 145.088 101.76 145.312C101.777 145.357 101.79 145.356 101.798 145.309C102.016 144.203 102.132 143.419 102.147 142.956C102.195 141.535 102.375 139.947 102.429 138.715C102.465 137.877 102.487 137.17 102.494 136.593C102.501 136.106 102.329 135.601 102.299 135.151C102.222 133.993 102.162 133.283 101.988 132.316C101.886 131.742 101.61 131.122 101.523 130.551C101.44 130.016 101.313 129.534 101.14 129.105C100.993 128.742 100.889 128.454 100.828 128.242C100.687 127.75 100.453 127.262 100.369 126.759C100.336 126.56 100.287 126.414 100.222 126.32C99.7171 125.583 99.7342 124.696 99.249 123.936C99.1223 123.737 99.0305 123.553 98.9737 123.382C98.7498 122.709 98.4763 122.056 98.153 121.423C97.7804 120.694 97.5499 120.2 97.4615 119.941C97.3844 119.714 97.3035 119.531 97.2187 119.39C96.932 118.917 96.6985 118.392 96.5154 117.871C96.4464 117.674 96.3484 117.483 96.2213 117.297C95.7397 116.597 95.6432 115.843 95.1831 115.19C94.827 114.685 94.6963 114.076 94.4246 113.624C94.1381 113.146 93.8489 112.73 93.6176 112.068C93.5497 111.873 93.4109 111.615 93.2013 111.295C93.029 111.032 92.8911 110.777 92.7875 110.529C92.4763 109.788 92.1397 109.326 91.9016 108.719C91.5435 107.806 91.0997 106.908 90.6755 106.023C90.4671 105.588 90.3879 105.142 90.1298 104.734C89.8215 104.245 89.59 103.72 89.4355 103.16C89.4029 103.042 89.2613 102.784 89.0108 102.388C88.6101 101.754 88.6305 100.894 88.1483 100.259C88.0918 100.184 88.0515 100.103 88.0273 100.017C87.8466 99.3412 87.5742 98.7079 87.4611 98.0242C87.4449 97.925 87.4111 97.8252 87.3599 97.725C87.0179 97.0558 87.0085 96.354 86.8892 95.7192C86.8274 95.3873 86.7838 95.053 86.7584 94.7162C86.7329 94.3741 86.6491 94.1128 86.5434 93.8044C86.4376 93.4924 86.4859 93.0334 86.4555 92.7313C86.4073 92.2599 86.3754 91.7875 86.3599 91.3141C86.3305 90.4382 86.1115 89.5286 86.108 88.7102C86.0992 86.935 86.2103 85.6501 86.2368 84.223C86.247 83.6478 86.2696 83.2291 86.3047 82.9667C86.3832 82.3769 86.4911 81.7926 86.6285 81.214C86.6392 81.1687 86.6272 81.162 86.5925 81.1941C86.217 81.5458 85.9368 82.0001 85.6157 82.3458C85.4291 82.5449 85.2193 82.8182 84.9922 82.9629C84.9322 83.0012 84.8819 83.0432 84.8413 83.089C84.3366 83.6641 84.0024 84.0687 83.8386 84.3027C83.3031 85.0701 82.9161 85.5914 82.6778 85.8667C82.2418 86.371 81.9627 86.697 81.6116 87.2918C81.3712 87.7005 81.0836 88.1011 80.8618 88.4917C80.5177 89.0988 80.1869 89.768 79.7431 90.3058C79.3633 90.7632 79.1653 91.2923 78.8988 91.7939C77.8322 93.8034 76.9308 95.9249 76.1133 98.0459C75.1141 100.639 74.7193 103.334 74.3649 106.088C74.1547 107.721 74.1076 108.908 74.0558 110.263C74.042 110.62 74.0547 111.029 74.0937 111.492C74.1434 112.081 74.159 112.671 74.1406 113.263C74.1191 113.952 74.149 114.62 74.1486 115.333C74.1484 116.025 74.1946 116.714 74.287 117.4C74.3685 117.996 74.338 118.607 74.4039 119.218C74.4541 119.686 74.4451 120.367 74.6016 120.931C74.7049 121.306 74.7719 121.584 74.8028 121.766C74.8798 122.224 74.9943 122.662 75.0636 123.132C75.1241 123.549 75.1966 123.973 75.4034 124.35C75.6203 124.744 75.5849 125.009 75.7188 125.384C75.8919 125.869 76.0522 126.358 76.1996 126.85C76.2544 127.031 76.382 127.138 76.4467 127.278C76.746 127.922 76.884 128.658 77.3334 129.209C77.5165 129.434 77.705 129.861 77.899 130.488C77.9663 130.705 78.1542 131.006 78.4625 131.389C78.8019 131.811 78.8621 132.597 79.2589 133.032C79.4989 133.296 79.6454 133.522 79.6984 133.71C79.8528 134.254 80.0945 134.752 80.4233 135.204C80.67 135.544 80.6653 135.822 80.8172 136.181C81.2932 137.31 81.7183 138.264 81.9489 139.542C82.0311 139.998 82.3199 140.39 82.3825 140.859C82.4211 141.155 82.4675 141.449 82.5215 141.742C82.6289 142.318 82.639 142.902 82.7227 143.489C82.91 144.8 82.7247 145.852 82.3749 147.148C82.2002 147.796 82.0833 148.472 81.9199 149.133C81.7319 149.895 81.4319 150.605 81.02 151.262C80.8954 151.462 80.7095 151.697 80.4623 151.968C79.8864 152.6 79.5422 153.259 78.8669 153.744C78.3856 154.089 78.1373 154.267 78.1218 154.279C77.8246 154.503 77.5093 154.7 77.1759 154.87C76.3317 155.299 75.6107 155.749 74.6437 155.865C74.3819 155.897 74.1306 155.961 73.8899 156.056C73.6956 156.133 73.5211 156.174 73.3662 156.181C72.1947 156.231 71.2431 156.187 70.5115 156.049C68.8083 155.729 67.0092 155.544 65.5864 154.606C65.1492 154.318 64.708 154.036 64.263 153.76C63.9462 153.563 63.7945 153.272 63.4976 153.073C62.8157 152.618 62.2308 152.093 61.5582 151.586C61.1714 151.295 60.9486 150.909 60.5656 150.633C60.214 150.379 59.8913 150.094 59.5975 149.776C59.3875 149.549 58.9883 149.29 58.8473 149.002C58.6743 148.645 58.4874 148.383 58.2867 148.215C57.4124 147.487 56.866 146.982 56.6474 146.701C56.2271 146.158 55.9202 145.812 55.7264 145.664C55.339 145.367 55.0121 145.019 54.7456 144.619C54.5744 144.361 54.4179 144.158 54.2762 144.01C53.3815 143.077 52.6921 142.046 52.0027 141.173C51.825 140.948 51.6455 140.682 51.4644 140.376C51.1374 139.822 50.7016 139.37 50.4022 138.808C50.0317 138.108 49.5479 137.458 49.187 136.791C48.9952 136.435 48.7943 136.085 48.5843 135.74C48.2105 135.126 47.9586 134.412 47.555 133.776C47.1763 133.179 47.0056 132.402 46.7057 131.884C46.5489 131.613 46.4338 131.37 46.3607 131.158C45.9784 130.052 45.3557 128.926 45.1512 127.778C45.0964 127.471 44.9519 127.11 44.7175 126.693C44.562 126.416 44.5559 125.968 44.4599 125.662C44.3313 125.256 44.2272 124.845 44.1476 124.428C44.1111 124.241 44.0432 124.029 43.9438 123.791C43.7605 123.353 43.6993 122.895 43.6378 122.426C43.5823 122.012 43.4566 121.603 43.4051 121.178C43.3448 120.683 43.1311 120.255 43.0696 119.769C43.0231 119.408 42.9427 118.577 42.8283 117.276C42.7968 116.909 42.6515 116.573 42.6286 116.208C42.534 114.687 42.4955 113.608 42.513 112.972C42.5241 112.582 42.5142 112.23 42.4834 111.916C42.4358 111.44 42.4136 111.112 42.4166 110.932C42.4557 108.72 42.7531 106.633 42.9649 104.326C43.0426 103.479 43.1879 102.515 43.4006 101.436C43.8468 99.1706 44.4934 96.7704 45.3404 94.2347C45.633 93.3601 45.9498 92.5662 46.2909 91.8531C47.0463 90.2723 47.5298 89.1836 48.1698 87.8578C48.4441 87.2883 48.7952 86.6935 49.1035 86.1044C49.2725 85.7822 49.5373 85.5995 49.7144 85.2944C50.4273 84.0762 51.1363 82.956 51.8411 81.9339C51.9628 81.7568 52.1309 81.6181 52.3453 81.5179C52.3803 81.5012 52.3968 81.5125 52.3947 81.5518C52.351 82.2321 52.2991 82.9113 52.2391 83.5895C52.1782 84.2839 52.1976 84.9999 52.1709 85.7597C52.1518 86.3149 52.3141 86.9222 52.3503 87.421C52.3669 87.6505 52.3867 87.8797 52.4095 88.1086C52.4649 88.6689 52.4651 89.251 52.5453 89.826C52.5454 89.8283 52.5637 90.0644 52.6001 90.5342C52.6353 91.0029 52.8894 91.3615 52.9027 91.8473C52.9218 92.5345 53.1114 93.2627 53.2101 93.9482C53.2819 94.4474 53.5455 94.835 53.6121 95.3362C53.6687 95.7563 53.7521 96.1706 53.8624 96.579C53.9648 96.9555 53.9389 97.3436 54.1216 97.7071C54.2867 98.0338 54.4052 98.4514 54.4772 98.9598C54.5232 99.2822 54.649 99.707 54.8544 100.234C55.0084 100.628 55.1118 101.009 55.229 101.395C55.2775 101.554 55.2945 101.55 55.2801 101.384C55.2177 100.678 55.2719 99.9317 55.2674 99.229C55.2601 98.2189 55.3761 97.4646 55.5683 96.2289C55.7107 95.3148 56.0252 93.8682 56.5119 91.8889C57.0729 89.6096 57.7891 87.3807 58.6607 85.2022C58.8638 84.6956 59.087 84.1981 59.3304 83.7099C60.2564 81.8522 61.1484 79.9716 61.9437 78.4176C62.0823 78.1462 62.2704 77.8127 62.5081 77.4171C62.7627 76.9939 63.1747 76.4889 63.45 75.9759C63.9626 75.0225 64.5641 74.1319 65.122 73.2066C65.3886 72.7648 65.7737 72.5017 66.0359 72.0759C66.2337 71.7577 66.4475 71.451 66.6774 71.1559C67.0101 70.7283 67.363 70.127 67.804 69.6895C68.077 69.4189 68.2575 69.2312 68.3454 69.1261C68.7412 68.6558 69.0103 68.3157 69.4736 67.6923C69.7503 67.3194 69.9866 67.0631 70.1825 66.9235C70.5332 66.673 70.8297 66.3035 71.1056 65.9939C71.4001 65.6618 71.8057 65.1079 72.237 64.724C72.645 64.361 72.9005 64.1275 73.0034 64.0234C73.3326 63.6903 73.7342 63.3742 74.0122 63.0009C74.1289 62.8454 74.2226 62.7487 74.2931 62.711C74.6925 62.5003 75.0422 62.2308 75.3423 61.9025C75.7465 61.4608 76.1913 60.9749 76.6179 60.7711C76.7022 60.7309 76.7751 60.6789 76.8366 60.615C77.1488 60.2899 77.4807 59.9865 77.8325 59.7049C78.1186 59.4773 78.3293 59.1193 78.6555 58.969C78.9787 58.8198 79.2527 58.6173 79.4774 58.3613C79.9199 57.8553 80.4188 57.4478 80.9739 57.1387C81.0694 57.0863 81.2117 56.8683 81.3302 56.7772C81.6629 56.5212 81.9826 56.2509 82.2892 55.9664C82.5153 55.7567 82.7655 55.5589 83.0396 55.3729C83.8029 54.8552 84.3055 54.1493 85.0766 53.783C85.1793 53.734 85.3069 53.6277 85.4594 53.4642C85.8772 53.0146 86.3667 52.6578 86.8975 52.2707C87.382 51.9167 87.8559 51.5121 88.3193 51.0568C88.7171 50.6651 89.2386 50.4627 89.6089 50.0279C89.9399 49.6382 90.2826 49.3075 90.6371 49.0358C90.926 48.8147 91.1477 48.6245 91.3021 48.4654C91.6602 48.0974 92.0291 47.7703 92.3506 47.3547C92.6375 46.9826 92.8856 46.8194 93.1982 46.5783C93.5417 46.312 93.75 45.9373 94.0621 45.634C94.3987 45.3062 94.7108 44.957 94.9985 44.5862C95.1142 44.437 95.3809 44.3373 95.5326 44.1954C96.0022 43.7586 96.3402 43.2211 96.7802 42.7534C97.0404 42.4764 97.1958 42.1322 97.5162 41.9092C97.6797 41.7961 97.8286 41.6416 97.963 41.4456C98.3278 40.9126 98.6868 40.3758 99.0399 39.835C99.6049 38.9691 100.243 38.3525 100.644 37.3162C101.266 35.7033 101.806 33.943 101.971 32.3337C101.991 32.1332 101.979 31.8778 101.936 31.5677C101.823 30.7671 101.821 29.95 101.729 29.1435C101.61 28.0896 101.199 27.1448 100.835 26.1607C100.694 25.7799 100.703 25.4617 100.324 25.1559C100.235 25.0838 100.162 24.9356 100.106 24.7116C100.098 24.6819 100.109 24.6673 100.14 24.668C100.591 24.6756 100.943 24.725 101.195 24.8163C101.797 25.035 102.385 25.3942 102.958 25.8938C103.179 26.0861 103.462 26.2413 103.688 26.4592C103.834 26.6005 103.817 26.7635 103.944 26.9045C104.463 27.4833 105.007 27.8747 105.396 28.6493C105.5 28.8572 105.624 29.0451 105.768 29.213C106.804 30.4217 107.453 31.9196 108.252 33.2855C109.028 34.6118 109.522 35.5091 109.733 35.9776C110.081 36.7469 110.43 37.293 110.677 38.0171C110.748 38.2228 110.844 38.423 110.965 38.6179C111.221 39.0277 111.415 39.4656 111.549 39.9317C111.72 40.5264 112.148 40.9477 112.291 41.5164C112.419 42.0261 112.584 42.497 112.785 42.929C113.116 43.6379 113.373 44.4759 113.536 45.2349C113.659 45.8157 114.029 46.1835 114.12 46.8403C114.184 47.2961 114.322 47.6707 114.431 48.1006C114.492 48.3452 114.589 48.6524 114.72 49.0221C114.835 49.3452 114.915 49.6586 114.96 49.9623C115.048 50.5578 115.148 51.0532 115.261 51.4484C115.538 52.4238 115.685 53.0678 115.7 53.3805C115.756 54.4632 116.063 55.3882 116.112 56.5622C116.169 57.9024 115.973 59.6836 115.984 61.4366C115.987 61.8866 115.849 62.8738 115.569 64.3981C114.936 67.8574 114.215 71.2984 113.407 74.7211C113.395 74.7729 113.406 74.7785 113.441 74.738ZM114.615 130.053C114.475 131.752 114.381 133.46 113.984 135.481C113.982 135.489 113.986 135.494 113.994 135.494C114.003 135.495 114.012 135.496 114.022 135.497C114.039 135.498 114.05 135.491 114.058 135.475C114.272 134.978 114.863 134.527 115.391 134.05C115.747 133.73 116.09 133.352 116.421 132.916C116.925 132.253 117.212 131.894 117.61 131.384C117.732 131.227 117.922 131.073 118.048 130.885C118.939 129.546 119.655 128.119 120.196 126.605C120.674 125.271 120.756 124.194 120.767 122.82C120.771 122.326 120.697 121.851 120.643 121.358C120.618 121.127 120.557 120.87 120.461 120.588C120.33 120.201 120.234 119.804 120.173 119.399C120.064 118.684 119.845 117.975 119.57 117.276C119.277 116.531 119.255 115.817 118.901 115.173C118.669 114.753 118.638 114.295 118.494 113.876C118.215 113.067 117.897 112.272 117.612 111.463C117.454 111.012 117.403 110.444 117.093 109.94C116.822 109.5 116.792 108.987 116.643 108.533C116.485 108.054 116.364 107.637 116.167 107.102C115.907 106.396 115.805 105.506 115.689 104.975C115.517 104.188 115.259 103.327 115.223 102.626C115.187 101.934 115.108 101.31 115.064 100.558C115.04 100.145 114.881 99.7634 114.868 99.3443C114.833 98.1454 114.846 96.9475 114.906 95.7504C114.932 95.2496 114.861 94.7704 114.909 94.2654C114.992 93.4088 115.146 92.5331 115.372 91.6383L115.371 91.6369C115.041 92.0199 114.746 92.4309 114.489 92.8701C114.037 93.64 113.276 94.3617 112.792 95.2309C111.04 98.3805 109.789 101.551 109.977 105.231C109.995 105.574 109.966 106.156 110.072 106.62C110.159 107.006 110.21 107.274 110.224 107.422C110.331 108.558 110.417 109.723 110.71 110.827C110.898 111.532 110.984 111.988 111.066 112.635C111.1 112.903 111.17 113.173 111.274 113.446C111.386 113.739 111.464 113.986 111.507 114.189C111.585 114.561 111.679 114.929 111.79 115.293C111.894 115.64 111.916 116.142 112.159 116.544C112.421 116.979 112.448 117.452 112.589 117.888C112.791 118.512 112.975 119.078 113.233 119.735C113.553 120.545 113.56 121.268 113.899 121.995C114.146 122.525 114.187 123.117 114.299 123.682C114.397 124.178 114.402 124.804 114.554 125.36C114.635 125.654 114.681 125.905 114.693 126.112C114.77 127.418 114.738 128.561 114.615 130.053Z" fill="#FF0D41"/>
</g>
<defs>
<clipPath id="clip0_779_3507">
<rect width="152.051" height="152.051" fill="white" transform="translate(39.5137 0.320068) rotate(15)"/>
</clipPath>
</defs>
</svg>
