<svg width="200" height="201" viewBox="0 0 200 201" fill="none" xmlns="http://www.w3.org/2000/svg">
<g clip-path="url(#clip0_757_1438)">
<path d="M76.0118 63.59C73.5487 61.502 70.7929 59.9712 67.5322 60.0638C67.2797 60.0706 67.0427 60.14 66.8072 60.2151C66.7829 60.2224 66.7818 60.2199 66.804 60.2076C66.9957 60.1029 67.1852 59.9796 67.3726 59.8379C69.6224 58.1403 71.3816 56.1482 72.6503 53.8615C73.2844 52.7187 73.6344 51.4397 73.7003 50.0247C73.732 49.3451 73.6439 48.5709 73.5833 47.8454C73.5752 47.7497 73.6107 47.729 73.6897 47.7835C73.7243 47.8085 73.7692 47.8558 73.8245 47.9253C76.3164 51.0746 79.5173 53.5132 83.174 55.1393C83.9661 55.4924 84.8157 55.7245 85.7229 55.8358C85.7543 55.8401 85.7559 55.8488 85.7276 55.862C82.3841 57.4374 80.0622 61.185 79.2191 64.6618C78.9386 65.8214 78.9079 66.7719 79.25 67.8614L79.2505 67.8635L79.2491 67.8647L79.2466 67.8645L79.2444 67.8629C78.486 66.1974 77.4085 64.7731 76.0118 63.59Z" fill="#0CBFA1"/>
<path d="M80.228 122.693C80.4343 122.655 80.6426 122.63 80.853 122.619C82.9049 122.512 84.9244 122.592 86.9824 122.883C88.6962 123.125 90.5049 123.448 92.4086 123.852C95.3351 124.474 98.0545 125.325 100.566 126.841C101.142 127.188 101.775 127.624 102.465 128.148C105.251 130.26 107.827 132.619 109.389 135.801C110.226 137.509 110.901 139.398 111.412 141.471C111.82 143.128 111.934 144.596 111.762 146.223C111.653 147.256 111.638 148.372 111.297 149.358C111.202 149.632 110.929 150.171 110.478 150.973C109.169 153.303 107.379 155.315 104.965 156.543C91.0477 163.63 75.1391 165.789 59.8895 162.403C59.1124 162.23 58.3663 162.044 57.6512 161.845C53.0264 160.559 48.4536 158.67 44.387 156.134C39.1103 152.843 34.5982 147.806 32.3891 141.947C30.7155 137.51 30.2045 132.697 31.0593 128.056C32.7243 119.009 38.8877 111.234 46.1219 105.887C48.7606 103.937 51.7115 102.144 54.7886 100.805C54.8212 100.791 54.8483 100.766 54.8661 100.736C54.8839 100.705 54.8913 100.669 54.8873 100.634C54.7757 99.6678 54.7762 98.6875 54.8887 97.6932C55.2169 94.8082 56.036 92.187 57.3745 89.4266C60.5703 82.8341 65.9319 77.1219 72.3758 73.679C74.0187 72.8009 75.5456 72.1581 76.9563 71.7507C78.3934 71.3345 79.3422 71.0867 79.8025 71.0071C80.1214 70.952 80.8688 70.883 82.0449 70.8004C83.2051 70.7176 84.8288 70.7245 85.9837 71.1925C86.002 71.1997 86.0223 71.1996 86.0404 71.1923C86.0584 71.185 86.0729 71.1711 86.0807 71.1534C86.4636 70.296 86.8695 69.4527 87.3603 68.6548C89.7195 64.8148 92.9575 61.3257 96.5893 58.6781C98.6908 57.1461 101.111 55.7753 103.851 54.5659C106.154 53.5491 108.383 52.8034 110.537 52.329C111.506 52.1148 112.786 51.9174 114.378 51.7369C124.99 50.5309 135.809 54.0034 143.577 61.3856C148.792 66.3418 152.31 73.1264 153.325 80.2601C153.328 80.2795 153.338 80.2973 153.353 80.3101C153.368 80.323 153.388 80.33 153.407 80.33C160.982 80.2292 167.938 84.2377 172.796 89.8511C178.165 96.0547 181.441 104.397 180.384 112.629C180.194 114.1 180.093 115.06 179.948 116.276C179.906 116.628 179.736 117.233 179.436 118.093C179.227 118.692 179.033 119.582 178.698 120.243C177.909 121.806 176.94 123.365 175.791 124.921C172.204 129.782 167.812 133.881 162.88 137.351C159.922 139.433 156.978 141.209 154.049 142.678C150.671 144.374 147.228 145.787 143.396 146.874C138.77 148.188 133.995 148.95 129.174 148.413C128.461 148.334 127.75 148.235 127.042 148.118C123.291 147.5 120.507 145.546 118.688 142.256C116.793 138.826 116.487 134.405 117.154 130.581C117.495 128.629 118.03 126.732 118.76 124.89C121.319 118.436 125.368 113.163 130.906 109.071C131.865 108.362 132.975 107.691 134.235 107.059C134.272 107.04 134.27 107.028 134.229 107.022C134.131 107.008 134.037 106.996 133.946 106.986C129.207 106.499 124.663 105.284 120.314 103.342C116.301 101.55 112.67 99.3691 109.421 96.7977C106.3 94.3259 103.384 91.3738 101.14 88.0745C101.001 87.8706 100.887 87.6739 100.797 87.4846C100.761 87.4074 100.744 87.4111 100.746 87.4958C100.877 93.5933 99.2027 99.5955 96.4466 105.079C94.1889 109.57 91.0755 113.707 87.478 117.218C85.3497 119.295 82.933 121.119 80.2277 122.692C80.2265 122.693 80.2266 122.694 80.228 122.693ZM131.719 75.2315C127.495 74.5778 123.842 72.2688 121.478 68.6828C121.331 68.4603 121.212 68.2381 121.123 68.0161C121.098 67.9549 121.081 67.9567 121.071 68.0214C120.842 69.5638 120.308 71.0433 119.678 72.4636C119.09 73.7932 118.225 75.3503 117.083 77.1348C116.55 77.9697 115.954 78.7571 115.295 79.4973C115.268 79.5268 115.275 79.5446 115.315 79.5507C115.743 79.6158 116.164 79.71 116.579 79.833C120.375 80.9559 123.728 82.9574 126.208 86.08C126.237 86.1168 126.251 86.1117 126.251 86.0647C126.255 85.6042 126.306 85.1404 126.403 84.6733C127.082 81.4196 128.551 78.5741 130.811 76.1366C131.016 75.9153 131.324 75.6332 131.736 75.2902C131.774 75.2586 131.768 75.2391 131.719 75.2315ZM78.2036 102.926C78.7015 100.05 80.2932 97.678 82.5077 95.8294C82.539 95.8035 82.5341 95.7881 82.493 95.7832C79.6265 95.4705 77.4206 93.8079 75.7641 91.5168C75.7278 91.4676 75.7025 91.4728 75.6882 91.5324C75.0452 94.1781 73.3024 96.7351 71.3277 98.5516C71.3199 98.5585 71.3145 98.5676 71.3121 98.5777C71.3096 98.5877 71.3104 98.5983 71.3141 98.608C71.3179 98.6176 71.3245 98.6259 71.3331 98.6317C71.3417 98.6375 71.3518 98.6405 71.3622 98.6403C71.6501 98.642 71.9447 98.6897 72.2461 98.7833C74.8123 99.5754 76.6358 101.233 78.0536 103.471C78.0773 103.509 78.0937 103.506 78.1027 103.463C78.137 103.297 78.1707 103.117 78.2036 102.926Z" fill="#0CBFA1"/>
</g>
<defs>
<clipPath id="clip0_757_1438">
<rect width="163.299" height="163.3" fill="white" transform="matrix(0.965926 -0.258818 0.25882 0.965925 0 42.4238)"/>
</clipPath>
</defs>
</svg>
