<svg width="107" height="107" viewBox="0 0 107 107" fill="none" xmlns="http://www.w3.org/2000/svg">
<path d="M81.7435 24.2117C82.6344 21.9604 85.5328 13.9341 80.8855 13.6163C79.0917 13.4935 77.286 14.1342 75.6625 14.8246C73.9779 15.5415 72.4291 16.3783 70.8944 17.335C67.2007 19.6391 63.7834 22.3159 60.4888 25.1546C53.6873 31.0166 47.493 37.5876 41.7626 44.4916C40.7461 45.7166 39.7265 46.9388 38.7036 48.1581C38.3749 48.5504 38.0548 48.8978 37.7434 49.2006C37.669 49.2731 37.5752 49.334 37.4618 49.3833C37.0313 49.5695 36.6419 49.1774 36.7405 48.7557C36.8286 48.3757 37.1146 47.9947 37.3306 47.6553C37.4478 47.471 37.5741 47.284 37.7093 47.0944C38.4676 46.0306 39.253 44.987 40.0654 43.9636C43.8284 39.2219 47.9133 34.654 52.3201 30.2599C57.0027 25.5911 61.8069 21.2826 67.1313 17.5159C69.2615 16.0088 71.4565 14.6745 73.7162 13.513C74.2418 13.2427 74.8271 12.9735 75.4721 12.7056C76.7967 12.1555 78.2494 11.7232 79.6799 11.5806C81.6359 11.386 83.6476 12.0191 84.6352 13.813C85.3325 15.0803 85.4126 16.7939 85.2514 18.2919C85.0689 19.9883 84.6533 21.6016 84.0899 23.2087C83.4501 25.0338 82.722 26.8231 81.9055 28.5766C81.6713 29.08 81.4019 29.5639 81.0975 30.0282C80.8313 30.4349 80.284 30.7016 79.8363 30.4492C79.0622 30.0131 79.5409 29.0268 79.833 28.421C80.5652 26.9044 81.1671 25.6702 81.7435 24.2117Z" fill="#F955E9"/>
<path d="M33.843 27.3163C34.2355 27.7846 34.8609 27.9065 35.24 27.5888C35.619 27.271 35.6081 26.6339 35.2155 26.1657C34.823 25.6975 34.1976 25.5755 33.8186 25.8932C33.4395 26.211 33.4505 26.8481 33.843 27.3163Z" fill="#F955E9"/>
<path d="M76.9313 25.747C76.6138 27.8299 75.9742 29.8353 75.1793 31.7818C75.0984 31.9807 74.9486 32.3064 74.7301 32.759C74.5371 33.158 74.1636 33.5301 73.7011 33.5019C73.201 33.472 72.8322 32.981 72.8953 32.497C72.9197 32.308 72.9854 32.0797 73.0921 31.8119C73.3474 31.1711 73.6058 30.5317 73.8675 29.8938C74.2859 28.8745 74.6085 27.9525 74.8972 26.9502C75.1895 25.9366 75.6192 24.0822 75.0871 23.0319C74.3451 21.5678 70.7541 23.7397 69.7594 24.3335C68.5269 25.0689 67.1626 26.0424 65.6665 27.2541C64.1024 28.5201 62.4616 29.9724 60.744 31.611C57.5269 34.6796 54.4095 37.9056 51.3916 41.2891C49.3528 43.5745 47.6699 45.5645 45.6334 47.7515C45.3947 48.0081 44.7962 48.6453 44.4339 48.6307C44.1684 48.62 44.0231 48.4617 43.9981 48.1558C43.9912 48.0717 44.0527 47.9063 44.1829 47.6593C44.3366 47.3656 44.5943 46.9703 44.9559 46.4733C46.0758 44.9338 47.2513 43.4382 48.4824 41.9867C50.8452 39.2004 53.2703 36.4827 55.8092 33.8546C59.2001 30.3438 62.8106 27.0007 66.7423 24.0985C68.3577 22.907 70.0954 21.7747 72.0084 21.1288C73.2271 20.717 74.8022 20.521 75.8909 21.3747C77.1649 22.373 77.1544 24.2832 76.9313 25.747Z" fill="#F955E9"/>
<path d="M45.3733 29.8288C45.6853 30.2244 46.2125 30.3286 46.5508 30.0617C46.889 29.7948 46.9103 29.2578 46.5982 28.8623C46.2862 28.4668 45.759 28.3625 45.4207 28.6294C45.0824 28.8963 45.0612 29.4333 45.3733 29.8288Z" fill="#F955E9"/>
<path d="M26.6515 39.7619C26.8048 39.5122 26.9427 39.3274 27.1491 39.0356C27.6611 38.3102 28.7106 37.4765 29.5598 38.1448C29.7583 38.3007 29.8845 38.5039 29.9385 38.7545C30.1375 39.6778 29.3286 40.6473 28.8065 41.3122C28.792 41.3309 28.7935 41.3478 28.811 41.3629C29.2288 41.7234 29.6053 42.1204 29.9403 42.554C30.4828 43.2564 29.9048 44.1755 29.0349 43.8975C28.4369 43.7063 27.8859 43.4291 27.3819 43.0659C27.3721 43.0589 27.3599 43.0558 27.3479 43.0573C27.3358 43.0588 27.3248 43.0649 27.317 43.0742C27.0301 43.4255 26.7355 43.7734 26.4334 44.1179C26.1817 44.4058 25.783 44.7882 25.369 44.7072C24.6809 44.5724 24.6167 43.8394 24.7729 43.2937C24.9438 42.6954 25.1914 42.1305 25.5156 41.5988C25.5812 41.4911 25.5388 41.4238 25.4484 41.3451C25.0153 40.9664 23.9522 40.0035 24.1859 39.3724C24.5578 38.3704 26.1344 39.4664 26.6216 39.769C26.6241 39.7705 26.6268 39.7715 26.6297 39.772C26.6325 39.7724 26.6355 39.7723 26.6382 39.7717C26.641 39.771 26.6436 39.7698 26.6459 39.7681C26.6482 39.7665 26.6501 39.7644 26.6515 39.7619Z" fill="#F955E9"/>
<path d="M66.268 56.8039C66.0619 56.7731 65.8553 56.747 65.6565 56.6906C64.521 56.3682 63.3831 56.0554 62.2428 55.7523C62.0629 55.7042 61.8812 55.6652 61.6976 55.6353C60.7638 55.4844 59.7316 55.2717 58.601 54.9972C57.6081 54.7555 56.6236 54.6517 55.3921 54.547C54.6355 54.4833 53.691 54.1922 53.822 53.2085C53.8816 52.7602 54.1526 52.4826 54.4845 52.1088C54.6489 51.9233 55.0887 51.5037 55.8039 50.8502C56.3246 50.3742 56.8348 49.8872 57.3346 49.389C58.9356 47.7944 60.4149 46.3692 61.7724 45.1132C61.8882 45.0058 61.9101 44.9432 61.883 44.7787C61.5423 42.7027 61.1982 40.6265 60.8613 38.5491C60.7326 37.7539 60.5421 37.1578 60.2467 36.4489C60.0523 35.9819 60.1127 35.3773 60.1276 34.8723C60.1684 33.5069 61.091 32.2652 62.5946 32.5519C63.4815 32.7206 64.3354 33.0283 65.1564 33.475C67.1383 34.5528 69.0123 35.8008 71.0147 36.8433C71.4276 37.0583 71.8425 37.3332 72.3122 37.1587C72.6826 37.0214 73.0438 36.8646 73.396 36.6885C73.8887 36.4424 74.4046 35.9652 74.8392 35.7593C75.5966 35.4012 76.0767 35.1642 76.2794 35.0485C77.3675 34.4272 78.3648 33.9116 79.2712 33.5017C80.2463 33.0607 80.829 32.7906 81.7548 33.1836C82.1468 33.3506 82.477 33.5295 82.7454 33.7205C83.3811 34.1739 83.4998 34.9735 83.6071 35.7019C83.7802 36.8846 83.4131 37.9798 83.1568 39.1503C82.9935 39.894 82.7235 40.7591 82.5917 41.3568C82.3874 42.2866 82.333 42.874 82.2969 43.6585C82.2811 44.0019 82.3539 44.2649 82.5467 44.5698C82.7929 44.9591 83.1372 45.3967 83.3506 45.6839C83.6551 46.0938 83.9394 46.4725 84.32 46.8323C86.4036 48.8058 88.0473 50.3761 89.6757 52.377C90.0518 52.8383 90.5778 53.5875 90.5836 54.1072C90.5912 54.7456 90.1045 55.2517 89.5106 55.431C88.7165 55.6704 87.9081 55.7933 87.0949 55.9433C86.6865 56.0185 86.2466 56.0816 85.7751 56.1328C84.7073 56.2493 83.6422 56.3972 82.568 56.4634C81.5053 56.5297 80.4521 56.5998 79.3943 56.7316C78.571 56.8339 78.3765 57.2522 77.9661 57.882C77.7012 58.2896 77.4346 58.6959 77.1661 59.1009C77.0098 59.3369 76.7785 59.8232 76.4722 60.5597C76.1455 61.3451 75.5959 62.2926 75.1874 63.1256C74.7108 64.0973 74.1704 65.0507 73.6388 66.0086C73.4246 66.3944 73.1246 66.825 72.7201 66.9926C71.7089 67.4121 70.9782 66.3999 70.6027 65.6288C70.1682 64.7364 69.7623 63.8534 69.2668 62.9726C68.3777 61.3941 67.5382 59.7923 66.8148 58.1297C66.631 57.7081 66.4649 57.2794 66.3166 56.8437C66.313 56.8333 66.3065 56.8241 66.2979 56.817C66.2894 56.81 66.279 56.8055 66.268 56.8039ZM63.8534 44.5215C63.9142 44.9217 63.8746 45.3686 63.6409 45.6751C63.3956 45.9983 63.0224 46.3939 62.5211 46.8621C62.2886 47.0794 61.843 47.5473 61.1843 48.2656C60.1012 49.446 58.9852 50.594 57.8362 51.7098C57.4202 52.114 57.0176 52.5856 56.57 52.9506C56.5667 52.9533 56.5643 52.957 56.5631 52.961C56.5618 52.9651 56.5618 52.9695 56.563 52.9736C56.5642 52.9777 56.5665 52.9813 56.5698 52.9841C56.573 52.9869 56.577 52.9887 56.5812 52.9892C57.5621 53.1193 58.5302 53.2421 59.5239 53.4566C60.3892 53.6433 61.1717 53.7683 61.9995 53.9127C62.9526 54.0792 63.9221 54.3465 64.8865 54.5592C65.8538 54.7733 66.4904 54.9114 67.1658 55.275C67.4247 55.4148 67.5806 55.6299 67.6337 55.9203C67.6599 56.0624 67.6996 56.1815 67.7528 56.2776C68.0407 56.7979 68.3212 57.3223 68.5942 57.8506C69.4235 59.4554 70.3223 61.0154 71.2425 62.5704C71.6643 63.283 71.9805 63.9343 72.2901 64.6557C72.2912 64.6584 72.2931 64.6607 72.2954 64.6624C72.2978 64.6641 72.3006 64.6651 72.3036 64.6653C72.3065 64.6655 72.3095 64.6648 72.3122 64.6635C72.3149 64.6622 72.3172 64.6601 72.3188 64.6576C72.7973 63.9129 73.219 63.1373 73.5839 62.331C74.0274 61.3521 74.4469 60.532 74.9461 59.4098C75.2428 58.7437 75.5483 58.1532 75.9769 57.523C76.2544 57.1155 76.5324 56.7084 76.811 56.3017C77.0628 55.9342 77.2576 55.6957 77.3956 55.5864C77.7971 55.2671 78.2402 55.0384 78.725 54.9003C79.2031 54.7642 79.8603 54.7514 80.4215 54.6668C80.7596 54.6157 81.0359 54.625 81.2506 54.6947C81.4395 54.7566 81.6248 54.7781 81.8065 54.7592C82.3269 54.7052 83.0168 54.6261 83.6391 54.5346C84.7852 54.3657 85.9236 54.2311 87.0765 54.0299C87.6501 53.9296 88.2229 53.8372 88.7947 53.7529C88.7998 53.7523 88.8046 53.7503 88.8087 53.7472C88.8128 53.7441 88.816 53.74 88.818 53.7352C88.8201 53.7305 88.8209 53.7253 88.8204 53.7201C88.8199 53.7149 88.8181 53.7099 88.8151 53.7056C88.5689 53.3481 88.313 53.0335 87.9917 52.7043C86.9497 51.6348 85.8682 50.6072 84.7471 49.6215C83.7624 48.7549 82.6924 47.7635 81.8661 46.9778C81.5338 46.6623 81.207 46.304 80.8855 45.9029C80.7804 45.7719 80.6944 45.6466 80.6274 45.5272C80.4372 45.1894 80.4205 44.8859 80.3429 44.5466C80.0658 43.3403 80.2529 42.2125 80.5481 41.0077C80.7407 40.2172 81.0962 39.3822 81.2742 38.6895C81.4299 38.0839 81.5911 37.4797 81.7576 36.8768C81.9296 36.2527 81.8679 35.7343 81.7987 35.1035C81.7869 34.9964 81.7509 34.9208 81.6908 34.8769C81.515 34.749 81.0874 34.5709 80.8397 34.6742C80.4691 34.8291 80.1043 34.9968 79.7452 35.1773C79.0108 35.546 78.2014 35.907 77.4646 36.3458C77.1491 36.5333 76.8971 36.6725 76.7086 36.7634C76.1232 37.0454 75.5979 37.2503 75.0389 37.6807C74.4599 38.1264 73.7962 38.5054 73.0478 38.8179C72.1899 39.1762 71.3854 39.1855 70.5634 38.8102C70.0292 38.5662 69.5816 38.2698 68.9853 37.9538C68.1222 37.4955 67.3025 36.8655 66.3568 36.338C65.8536 36.057 65.341 35.7242 64.9414 35.4839C64.5289 35.2356 62.5801 34.1334 62.1475 34.3071C61.9822 34.3736 61.8584 34.7218 61.8269 34.8799C61.8049 34.99 61.8151 35.1201 61.8576 35.2703C62.354 37.0185 62.7276 38.7969 63.1182 40.5711C63.4061 41.88 63.6512 43.1968 63.8534 44.5215Z" fill="#F955E9"/>
<path d="M35.6766 38.4287C35.9142 38.8721 36.4272 39.06 36.8227 38.8482C37.2181 38.6364 37.3461 38.1052 37.1085 37.6617C36.871 37.2183 36.3579 37.0305 35.9625 37.2423C35.5671 37.454 35.4391 37.9852 35.6766 38.4287Z" fill="#F955E9"/>
<path d="M30.8959 67.0026C30.2263 67.0175 29.6323 67.0122 28.9148 66.8519C27.9366 66.6328 26.955 66.3419 25.963 66.1981C25.5368 66.1368 25.1059 66.0837 24.7025 65.9658C24.1307 65.7989 23.5959 65.5936 23.0981 65.3498C22.1111 64.8664 21.7185 64.0387 22.5954 63.1591C23.8706 61.8796 25.2197 60.5362 26.5293 59.4484C26.6836 59.3205 26.9266 59.1456 27.2584 58.9237C27.2779 58.911 27.2853 58.8933 27.2806 58.8706C27.1779 58.3798 27.0787 57.8903 26.9828 57.402C26.7089 56.0065 26.3094 54.6084 26.2114 53.2373C26.1738 52.7126 26.1621 52.3893 26.1763 52.2674C26.2665 51.5076 26.9133 51.0083 27.6701 50.9287C28.413 50.8507 29.3237 51.343 29.9702 51.7438C30.5827 52.1233 31.1105 52.3663 31.8852 52.657C32.7929 52.9975 33.6544 53.4336 34.4699 53.965C34.4892 53.978 34.5083 53.9777 34.5272 53.9642C34.9003 53.7011 35.277 53.4407 35.6574 53.1832C36.1702 52.8357 36.6362 52.6076 37.2756 52.3774C37.8775 52.1609 38.5339 51.9032 39.2449 51.6043C39.4045 51.5373 39.5825 51.4797 39.7791 51.4317C40.8397 51.1723 41.5319 51.9009 41.478 52.9602C41.4517 53.4754 41.388 53.9861 41.2867 54.4923C41.1223 55.3135 40.9487 56.1329 40.7661 56.9504C40.6263 57.5772 40.5361 58.2051 40.4254 58.8357C40.4237 58.8462 40.4246 58.8568 40.4282 58.8668C40.4317 58.8767 40.4378 58.8856 40.4458 58.8925C41.3969 59.7038 42.3294 60.5657 43.3281 61.3108C43.9423 61.7692 44.5798 62.2053 45.1605 62.7052C45.712 63.1802 46.0799 63.722 45.6559 64.3995C45.3617 64.8684 44.5676 65.1037 44.0546 65.1774C42.519 65.3986 40.9986 65.5218 39.448 65.3931C39.1595 65.3692 38.8819 65.3712 38.6152 65.399C38.5741 65.4033 38.5349 65.4185 38.5017 65.443C38.4685 65.4675 38.4424 65.5004 38.4263 65.5384C38.1292 66.2384 37.8701 66.9597 37.5421 67.6371C37.272 68.1966 36.9972 68.7441 36.7747 69.3334C36.4251 70.26 35.9947 71.1637 35.5885 72.0674C35.3456 72.6081 35.0132 73.0584 34.4893 73.3125C33.7728 73.6592 33.1973 73.3701 32.8198 72.7318C32.6051 72.3691 32.3813 71.6873 32.2587 71.3699C31.8877 70.4052 31.6601 69.5726 31.3984 68.6585C31.2927 68.2888 31.055 67.5891 30.9365 67.035C30.9344 67.0257 30.9292 67.0175 30.9218 67.0116C30.9144 67.0057 30.9053 67.0026 30.8959 67.0026ZM40.895 63.6363C41.6967 63.6264 42.4947 63.5669 43.2892 63.4577C43.3777 63.4454 43.4987 63.4649 43.5985 63.4555C43.6389 63.4519 43.6421 63.4389 43.6082 63.4167C42.8313 62.904 42.024 62.4078 41.2999 61.8551C40.7793 61.4578 40.2633 61.055 39.7517 60.6467C39.3995 60.3653 39.1192 60.0736 38.9109 59.7715C38.78 59.5806 38.5785 59.4644 38.4584 59.2737C38.2941 59.0133 38.2336 58.7372 38.2768 58.4455C38.3486 57.9627 38.4864 57.4005 38.6902 56.7589C38.9925 55.8062 39.2465 54.8412 39.4522 53.8638C39.4719 53.7679 39.5176 53.6661 39.5488 53.5703C39.5504 53.5656 39.5506 53.5606 39.5494 53.5558C39.5481 53.5511 39.5455 53.5468 39.5418 53.5435C39.5381 53.5402 39.5334 53.538 39.5285 53.5372C39.5235 53.5364 39.5184 53.537 39.5138 53.539C38.8837 53.8125 38.2476 54.0625 37.6055 54.2889C37.0585 54.4819 36.6446 54.7025 36.1303 54.9847C35.6821 55.2301 35.1905 55.3907 34.7168 55.6093C34.3366 55.785 33.9334 55.6718 33.5719 55.5089C32.9382 55.2236 32.2937 54.8345 31.7483 54.5478C31.2096 54.2647 30.4106 53.9978 29.8546 53.6561C29.2533 53.2869 28.6623 52.8537 28.0002 52.6008C27.9902 52.5971 27.9791 52.597 27.9691 52.6007C27.959 52.6044 27.9506 52.6116 27.9454 52.6209C27.9409 52.6289 27.939 52.643 27.9397 52.6631C27.9621 53.8387 28.2258 55.0811 28.4141 56.2896C28.5748 57.3201 28.6256 58.3561 28.5664 59.3976C28.5417 59.8366 28.0441 60.3384 27.7488 60.6405C26.4507 61.9692 25.6896 62.8651 24.6785 64.0033C24.6252 64.0637 24.5746 64.1153 24.5268 64.1581C24.501 64.1813 24.5036 64.2008 24.5346 64.2163C24.9658 64.4316 25.3304 64.5324 25.8504 64.6124C27.1024 64.8063 28.5212 65.1276 29.5682 65.3169C30.0077 65.3969 30.472 65.4112 30.9295 65.4497C31.3589 65.4855 31.6156 65.6085 31.8213 65.9938C31.9875 66.3059 32.2142 66.5916 32.3612 66.8894C33.0659 68.3171 33.5829 69.8508 34.1587 71.3361C34.1596 71.3387 34.1613 71.341 34.1636 71.3426C34.1659 71.3441 34.1686 71.345 34.1714 71.345C34.1742 71.3451 34.177 71.3442 34.1794 71.3427C34.1819 71.3412 34.1839 71.339 34.1851 71.3364C34.8644 69.9072 35.3397 68.4874 35.9931 66.9571C36.2948 66.2516 36.5338 65.5236 36.7973 64.8008C37.4296 63.0692 39.5252 63.6537 40.895 63.6363Z" fill="#F955E9"/>
<path d="M27.8252 80.4544C27.8263 78.42 28.2249 76.3653 28.9531 74.468C29.121 74.0286 29.5794 72.7969 30.2082 72.8565C30.835 72.9165 30.7191 73.8489 30.6706 74.2588C30.5688 75.1204 30.4498 75.9795 30.3134 76.836C30.2046 77.5178 30.1469 78.1585 30.0835 78.8244C29.9647 80.0691 29.978 81.2902 30.383 82.4885C31.568 85.9944 37.1243 82.2637 38.7087 81.1289C40.6801 79.7171 42.5405 78.1716 44.2901 76.4925C48.1027 72.8338 51.6632 68.9442 54.9716 64.8238C55.5461 64.1084 56.5487 62.8347 57.9794 61.0029C58.4338 60.4211 58.8816 59.7565 59.3426 59.1378C59.6712 58.6962 60.2442 58.465 60.7502 58.7428C61.2428 59.0134 61.3616 59.6453 61.0926 60.1234C60.9961 60.2943 60.8885 60.4583 60.7698 60.6154C59.5463 62.2378 58.3819 63.8983 57.1172 65.4891C55.0262 68.1187 52.8884 70.6872 50.6256 73.172C48.5162 75.4882 46.4797 77.4466 44.1241 79.5135C41.9716 81.4022 39.6534 83.1538 37.1199 84.5028C35.8616 85.1736 34.5173 85.6911 33.1281 85.8943C31.9013 86.0742 30.5187 85.8834 29.5373 85.0683C28.1903 83.9498 27.8245 82.114 27.8252 80.4544Z" fill="#F955E9"/>
<path d="M25.3659 75.4274C24.795 77.2265 24.4458 78.4762 24.0898 79.9415C23.7342 81.4054 23.5153 82.882 23.3917 84.3825C23.2855 85.6695 23.302 86.934 23.4412 88.176C23.5296 88.9649 23.749 89.7392 24.0994 90.4988C24.7806 91.9757 26.0593 92.6926 27.6554 92.7297C29.1719 92.7641 30.5762 92.3297 31.9812 91.7229C34.6278 90.5793 37.1309 89.002 39.4327 87.2735C42.2332 85.1694 44.7646 82.97 47.272 80.5481C47.5875 80.2428 47.9036 79.9303 48.2202 79.6105C50.124 77.6858 51.9114 75.7595 53.5825 73.8316C56.8141 70.1022 59.899 66.225 62.8089 62.24C63.2033 61.6994 63.9018 61.094 64.557 61.7112C65.1849 62.3025 64.6235 63.1275 64.2523 63.6574C61.5346 67.5308 58.5707 71.3876 55.5327 74.8538C52.8649 77.8965 50.1134 80.8195 47.2102 83.5772C44.3606 86.2841 41.3185 88.8435 38.0015 91.032C35.8151 92.4747 33.659 93.5721 31.2665 94.3056C28.0927 95.2785 24.3923 95.298 22.3695 92.1978C21.0524 90.1789 20.7749 87.5471 20.9437 85.1322C21.0295 83.9113 21.1507 82.8756 21.3075 82.025C22.0766 77.8568 23.2467 73.748 25.1508 69.9381C25.4004 69.4375 25.8252 68.7086 26.4407 68.5933C26.9232 68.5031 27.1098 69.064 27.1014 69.4353C27.087 70.0518 26.8718 70.6642 26.6883 71.2477C26.2493 72.6413 25.8086 74.0345 25.3659 75.4274Z" fill="#F955E9"/>
<path d="M85.5849 67.2214C85.2621 67.7907 84.9698 68.2029 84.7081 68.458C83.8293 69.3136 82.6042 68.6296 83.0229 67.4114C83.2176 66.8444 83.4756 66.3054 83.797 65.7945C83.8025 65.7856 83.8046 65.7749 83.8027 65.7645C83.8008 65.7541 83.7951 65.7447 83.7868 65.7381C83.3297 65.3857 82.4808 64.7391 82.7907 64.0464C83.1803 63.1726 84.3084 63.7147 84.8457 64.0501C84.8687 64.0641 84.8961 64.0687 84.9223 64.0629C84.9485 64.0571 84.9713 64.0414 84.9859 64.019C85.385 63.4026 86.2812 62.7016 87.0291 63.1226C87.4073 63.336 87.4794 63.8601 87.3831 64.2395C87.2887 64.6138 87.0725 64.956 86.8385 65.2605C86.8311 65.2701 86.8258 65.2812 86.8227 65.2929C86.8197 65.3047 86.8191 65.317 86.8209 65.329C86.8228 65.341 86.827 65.3525 86.8334 65.3628C86.8398 65.3732 86.8483 65.3821 86.8582 65.3891C87.4238 65.7873 88.666 66.9418 88.1368 67.7215C87.7933 68.2271 87.2034 68.0811 86.7412 67.8588C86.3557 67.6741 85.989 67.4576 85.641 67.2092C85.6179 67.1928 85.5992 67.1969 85.5849 67.2214Z" fill="#F955E9"/>
<path d="M76.8578 68.6636C77.2047 68.4354 77.6563 68.4708 77.9646 68.7468C78.3566 69.0986 78.7722 69.6743 78.5752 70.1782C78.226 71.0702 76.99 71.0711 76.5701 70.2296C76.3072 69.7012 76.3128 69.0206 76.8578 68.6636Z" fill="#F955E9"/>
<path d="M84.5909 75.7217C84.7875 76.3655 85.3922 76.7515 85.9417 76.5838C86.4912 76.4161 86.7773 75.7582 86.5808 75.1143C86.3842 74.4704 85.7795 74.0844 85.23 74.2521C84.6805 74.4198 84.3944 75.0778 84.5909 75.7217Z" fill="#F955E9"/>
<path d="M58.5965 81.6008C58.8137 82.1919 59.4303 82.5092 59.9737 82.3096C60.5171 82.1099 60.7815 81.4689 60.5644 80.8777C60.3472 80.2866 59.7306 79.9693 59.1872 80.1689C58.6438 80.3686 58.3793 81.0096 58.5965 81.6008Z" fill="#F955E9"/>
</svg>
