<svg width="217" height="217" viewBox="0 0 217 217" fill="none" xmlns="http://www.w3.org/2000/svg">
<g clip-path="url(#clip0_779_3505)">
<path d="M73.2115 107.155C73.3492 107.409 73.7102 107.717 73.7704 108.02C73.8587 108.463 74.005 108.889 74.2093 109.296C74.9378 110.752 75.4692 111.944 75.8033 112.873C75.9232 113.206 76.0395 113.47 76.1523 113.665C76.5696 114.39 76.8566 115.126 77.1104 115.98C77.2141 116.33 77.5155 116.594 77.658 116.877C77.8302 117.22 77.9713 117.574 78.0815 117.939C78.2262 118.417 78.4771 119.387 78.9041 119.616C78.9231 119.626 78.9399 119.64 78.9535 119.657C78.9671 119.673 78.9772 119.693 78.9832 119.713C79.2196 120.492 79.3915 121.109 79.8591 122.022C80.2968 122.879 80.6324 123.732 81.0218 124.592C81.0471 124.647 81.1079 124.844 81.2041 125.181C81.3016 125.522 81.5474 125.728 81.6745 126.005C81.8269 126.338 81.9687 126.674 82.0999 127.014C82.262 127.432 82.3496 128.113 82.7373 128.609C82.9132 128.833 83.0329 129.015 83.0964 129.154C83.4849 130.013 83.609 130.918 84.1286 131.627C84.2893 131.845 84.3808 131.996 84.4029 132.081C84.6635 133.058 84.9255 133.753 85.1892 134.165C85.3748 134.455 85.5042 134.715 85.5774 134.947C85.7646 135.533 85.9936 136.073 86.2297 136.638C86.3478 136.923 86.3529 137.265 86.5211 137.52C86.9563 138.179 87.2418 138.764 87.3775 139.274C87.4846 139.675 87.5832 140.002 87.6732 140.255C87.7141 140.37 87.84 140.597 88.0509 140.934C88.3788 141.46 88.4195 142.123 88.5662 142.562C88.7439 143.093 88.9347 143.619 89.1384 144.14C89.1686 144.216 89.1536 144.251 89.1609 144.323C89.1637 144.351 89.1772 144.357 89.2015 144.343L89.2376 144.324C89.2394 144.323 89.2414 144.322 89.2436 144.322C89.2457 144.322 89.2478 144.322 89.2498 144.323C89.2517 144.323 89.2535 144.325 89.2549 144.326C89.2563 144.328 89.2573 144.33 89.2578 144.332L89.478 145.155C89.5013 145.242 89.5572 145.276 89.6459 145.255C91.025 144.923 92.2152 144.492 93.7767 144.331C94.2559 144.282 95.1505 144.097 95.8483 143.843C96.7677 143.509 97.8323 143.474 98.6288 143.337C99.1529 143.247 99.6785 143.166 100.205 143.094C100.481 143.056 100.699 142.906 101.006 142.847C101.485 142.754 101.932 142.691 102.346 142.657C102.963 142.607 103.462 142.517 104.027 142.433C104.37 142.382 104.916 142.419 105.265 142.282C106.262 141.888 107.028 142.007 108.144 141.847C108.866 141.744 109.715 141.792 110.537 141.434C110.761 141.338 111.351 141.379 111.67 141.325C112.176 141.24 112.685 141.191 113.195 141.18C113.995 141.16 114.688 141.072 115.441 141.04C115.968 141.017 116.477 140.784 116.976 140.779C117.853 140.771 118.73 140.74 119.607 140.686C119.86 140.672 120.171 140.731 120.392 140.711C120.865 140.666 121.339 140.64 121.813 140.634C122.066 140.631 122.348 140.593 122.657 140.519C123.442 140.334 124.253 140.413 124.958 140.361C126.152 140.276 127.389 140.308 128.59 140.296C129.173 140.29 129.745 140.133 130.289 140.162C131.458 140.224 132.108 140.479 133.012 141.009C133.035 141.023 133.056 141.042 133.072 141.064C133.088 141.085 133.1 141.11 133.106 141.137C133.113 141.163 133.114 141.191 133.11 141.218C133.105 141.245 133.095 141.271 133.081 141.294C132.746 141.821 132.302 141.767 131.86 142.071C131.521 142.305 131.236 142.48 130.922 142.791C130.517 143.192 130.042 143.49 129.498 143.684C129.323 143.745 129.09 143.911 128.797 144.182C128.293 144.65 127.836 144.976 127.426 145.162C127.03 145.342 126.696 145.53 126.424 145.726C125.946 146.071 125.686 146.256 125.644 146.28C125.337 146.454 125.024 146.613 124.703 146.757C124.382 146.9 124.077 147.069 123.788 147.263C123.241 147.63 122.666 147.946 122.064 148.212C121.76 148.346 121.472 148.508 121.199 148.698C120.561 149.141 119.922 149.431 119.26 149.747C119.096 149.824 118.911 149.946 118.703 150.113C117.945 150.717 117.035 150.956 116.266 151.476C115.374 152.08 114.38 152.482 113.524 153.119C113.039 153.481 112.648 153.721 112.352 153.839C111.899 154.02 111.565 154.178 111.164 154.512C110.634 154.952 110.088 155.288 109.451 155.55C109.222 155.644 108.97 155.811 108.696 156.05C108.436 156.278 107.939 156.582 107.204 156.96C106.843 157.146 106.475 157.373 106.097 157.642C105.679 157.941 105.246 158.219 104.8 158.474C103.809 159.041 102.941 159.744 101.928 160.281C101.744 160.379 101.605 160.512 101.425 160.625C100.103 161.461 98.7906 162.309 97.4863 163.17C97.281 163.304 97.0514 163.602 96.7547 163.717C96.1095 163.968 95.3602 164.597 94.7333 165.14C94.6798 165.186 94.563 165.254 94.3827 165.341C93.6712 165.688 93.1923 165.977 92.9458 166.208C92.4594 166.661 92.037 166.979 91.6785 167.161C91.1873 167.41 90.8507 167.618 90.6686 167.786C90.1207 168.289 89.5224 168.716 88.8738 169.068C88.6106 169.211 88.3705 169.378 88.1536 169.568C87.7709 169.903 87.3665 170.211 86.9406 170.491C86.9351 170.494 86.7403 170.591 86.3563 170.781C86.0207 170.947 85.8421 171.238 85.5727 171.423C85.0235 171.805 84.478 172.189 83.9362 172.575C83.3797 172.97 82.7998 173.311 82.2573 173.733C82.1703 173.8 82.0147 173.961 81.7905 174.216C81.4268 174.628 80.9472 174.7 80.566 174.963C80.2091 175.209 79.9793 175.382 79.8766 175.484C79.2815 176.064 78.9319 176.382 78.2317 176.687C77.7484 176.898 77.5224 177.334 77.1217 177.628C76.6901 177.944 76.0377 178.524 75.5205 178.632C75.4768 178.642 75.4471 178.667 75.4313 178.709C75.2711 179.129 74.1207 179.882 73.7249 180.194C73.3786 180.468 73.3357 180.837 72.8285 180.891C72.7826 180.896 72.7413 180.912 72.7048 180.941C72.2134 181.323 71.6191 181.702 71.2597 182.213C71.1009 182.437 70.8252 182.637 70.4325 182.815C70.1202 182.956 69.9293 183.121 69.711 183.35C69.7074 183.354 69.7025 183.356 69.6973 183.357C69.6921 183.357 69.687 183.355 69.683 183.352C69.6791 183.348 69.6766 183.344 69.6761 183.338C69.6755 183.333 69.677 183.328 69.6803 183.324C69.9577 182.931 70.2462 182.502 70.6477 182.205C70.8043 182.09 70.862 181.901 70.9598 181.776C71.216 181.45 71.4763 181.128 71.7407 180.81C72.1256 180.345 72.6715 179.488 73.3334 178.95C73.5756 178.753 73.7749 178.556 73.9312 178.359C74.44 177.718 74.9907 177.204 75.5111 176.515C75.9776 175.897 76.5943 175.612 77.0626 175.096C77.5708 174.537 78.0448 174.094 78.5286 173.579C78.7145 173.381 78.9462 172.924 79.1748 172.802C79.9708 172.38 80.3648 171.724 80.9207 171.19C81.2182 170.905 81.5131 170.617 81.8054 170.327C82.0186 170.117 82.3301 169.849 82.7399 169.524C83.681 168.78 84.2668 167.753 85.2818 167.14C85.6839 166.898 85.7813 166.587 86.1115 166.331C86.6329 165.928 87.1141 165.483 87.5554 164.995C87.7088 164.827 87.8929 164.678 88.1075 164.549C89.0866 163.96 89.6328 163.008 90.5371 162.385C90.8175 162.192 91.0432 162.008 91.214 161.834C91.6452 161.394 92.1003 160.98 92.5792 160.593C92.7776 160.432 93.0128 160.04 93.1752 159.956C93.7964 159.633 94.3414 159.216 94.8104 158.705C95.1444 158.341 95.4214 158.133 95.7785 157.855C96.1114 157.594 96.5032 157.464 96.8218 157.137C97.1526 156.797 97.327 156.62 97.3452 156.604C97.8489 156.173 98.3689 155.762 98.9054 155.372C99.5622 154.895 100.213 154.409 100.858 153.915C100.92 153.868 101.01 153.769 101.128 153.617C101.154 153.584 101.147 153.569 101.105 153.573C101.013 153.582 100.949 153.6 100.915 153.627C100.542 153.91 99.9332 153.991 99.4799 154.022C98.5079 154.087 97.5735 154.3 96.5982 154.368C96.0631 154.406 95.7466 154.684 95.1658 154.731C94.5789 154.78 93.9961 154.859 93.4174 154.968C92.6629 155.11 91.8777 155.048 91.146 155.308C90.8727 155.406 90.6325 155.466 90.4256 155.49C89.6916 155.576 88.9734 155.781 88.263 155.831C87.5981 155.879 86.9345 155.939 86.2723 156.012C85.7418 156.07 85.1719 156.306 84.5767 156.35C82.5481 156.497 80.5021 156.538 78.4386 156.471C78.3748 156.469 78.3389 156.436 78.3308 156.372C78.2528 155.772 78.0563 155.199 77.7412 154.655C77.6775 154.545 77.6313 154.34 77.6024 154.04C77.5361 153.342 77.2704 152.626 77.0917 151.945C76.9888 151.551 77.0687 151.326 76.7649 150.987C76.434 150.619 76.2517 149.508 76.1158 148.835C76.0334 148.428 75.8832 148.009 75.6651 147.576C75.5276 147.302 75.4295 147.039 75.3706 146.785C75.2096 146.101 74.9331 145.446 74.8554 144.744C74.8181 144.409 74.7567 144.175 74.6711 144.042C74.1334 143.203 74.0689 142.321 73.822 141.539C73.3718 140.117 72.758 138.888 72.4883 137.362C72.4269 137.016 72.2874 136.712 72.0813 136.368C71.7445 135.808 71.7477 135.305 71.5882 134.809C71.3107 133.947 71 133.097 70.6563 132.26C70.4119 131.664 70.2366 131.049 70.1306 130.414C70.0863 130.148 69.9175 129.803 69.624 129.38C69.4637 129.15 69.3343 128.729 69.2357 128.119C69.1818 127.787 69.0294 127.338 68.7783 126.77C68.3061 125.702 67.9401 124.655 67.6263 123.565C67.5386 123.259 67.3883 122.918 67.1756 122.542C66.9786 122.194 66.8084 121.677 66.665 120.99C66.5632 120.503 66.356 120.009 66.0433 119.508C65.7809 119.088 65.8043 118.744 65.6202 118.33C65.4312 117.907 65.2608 117.477 65.109 117.041C64.9833 116.682 64.8112 116.255 64.5928 115.761C64.3427 115.194 64.1471 114.606 64.0061 113.997C63.9125 113.594 63.7014 113.137 63.3727 112.627C63.1535 112.285 63.1121 111.724 62.9869 111.372C62.8022 110.849 62.6726 110.523 62.3543 109.915C62.1609 109.545 62.1012 109.115 61.9581 108.772C61.7369 108.239 61.5458 107.697 61.3848 107.146C61.3044 106.871 61.1864 106.589 61.0308 106.299C60.4607 105.241 60.4305 104.111 59.8659 103.116C59.7356 102.885 59.6456 102.667 59.5959 102.463C59.4517 101.873 59.2757 101.292 59.0678 100.72C58.9462 100.385 58.9892 99.9952 58.8031 99.6921C58.4636 99.1384 58.2467 98.597 58.1524 98.068C58.0215 97.3379 57.8145 96.6881 57.5314 96.1187C57.3937 95.8421 57.2973 95.584 57.2421 95.3443C57.1133 94.7874 56.9624 94.2366 56.7892 93.692C56.637 93.2104 56.6695 92.6818 56.3935 92.1712C56.2175 91.846 56.1113 91.6226 56.0749 91.5009C55.8393 90.6933 55.7636 89.8529 55.3883 89.0443C55.2495 88.744 55.1487 88.4605 55.0859 88.1936C54.9994 87.8271 54.9003 87.4638 54.7888 87.1036C54.5468 86.3251 54.6057 85.5096 54.1049 84.7989C53.7984 84.3655 53.8917 83.8657 53.7414 83.3874C53.5581 82.8075 53.4077 82.22 53.29 81.625C53.2435 81.3877 53.1576 81.1445 53.0321 80.8954C52.5241 79.8875 52.5116 78.7436 52.1339 77.73C51.8973 77.0947 51.7524 76.6869 51.699 76.5065C51.5571 76.03 51.4029 75.5572 51.2366 75.0882C51.0744 74.6333 51.1083 74.1204 50.8124 73.7206C50.6238 73.4667 50.5156 73.3048 50.4877 73.2348C50.3823 72.9771 50.2781 72.6366 50.1751 72.2134C50.1041 71.9211 49.9229 71.4606 49.6314 70.8321C49.4804 70.5076 49.1634 70.2337 49.0227 69.8448C49.0022 69.7889 49.019 69.7733 49.073 69.7981C49.5358 70.0032 49.7044 69.8441 50.1337 69.7982C50.6796 69.7402 51.9567 70.0922 52.1884 70.6482C52.3777 71.101 52.6227 71.4508 52.9232 71.6974C53.1299 71.8661 53.5401 71.9228 53.7852 72.0529C54.5934 72.4835 55.3718 72.8894 56.1693 73.4124C56.512 73.6376 56.8589 73.8556 57.2102 74.0663C57.4393 74.2033 57.5487 74.3697 57.7172 74.566C57.8718 74.7446 58.19 74.9758 58.6718 75.2598C59.4159 75.6999 60.0465 76.2033 60.7623 76.6498C61.1357 76.8823 61.4515 77.1815 61.7099 77.5474C61.8835 77.7927 62.4491 78.0632 62.695 78.2424C62.9543 78.4304 63.211 78.6214 63.465 78.8154C64.1073 79.3065 64.902 79.7616 65.4569 80.2811C66.3375 81.1067 66.9603 81.6267 67.3255 81.8411C68.2907 82.4118 68.8273 82.9628 69.7302 83.5364C70.1451 83.8001 70.3308 84.3033 70.8395 84.6033C71.5797 85.0424 72.1993 85.5974 72.9282 86.0628C74.0808 86.7957 75.0089 87.8182 76.0282 88.4901C76.8106 89.0067 77.3869 89.4116 77.757 89.7049C78.046 89.932 78.5992 90.1446 78.8958 90.4998C79.1 90.7439 79.2269 90.8866 79.2765 90.9279C79.7008 91.2822 80.2235 91.5301 80.6334 91.8386C81.2625 92.3109 82.0165 92.7508 82.5638 93.1731C83.05 93.5469 83.4661 93.8585 83.9685 94.3234C84.314 94.6426 84.6873 94.9241 85.0885 95.1678C85.7275 95.556 86.1582 95.8757 86.6845 96.2672C86.9309 96.4494 87.4451 96.6823 87.6208 96.9197C88.1199 97.595 88.8056 97.9243 89.3489 98.3301C89.8344 98.6911 90.2327 99.0063 90.8089 99.3524C91.201 99.5881 91.5596 99.8652 91.8848 100.184C92.203 100.497 92.4659 100.729 92.6734 100.881C93.1512 101.228 93.5874 101.575 94.1035 101.905C94.4947 102.154 94.8748 102.419 95.2436 102.7C95.5806 102.957 96.6061 103.454 96.7836 103.794C96.7965 103.819 96.7894 103.828 96.7622 103.822C96.7506 103.82 96.7392 103.817 96.7279 103.814C96.7216 103.813 96.7149 103.813 96.7089 103.816C96.7028 103.818 96.6978 103.822 96.6946 103.828C96.6913 103.834 96.69 103.84 96.6908 103.847C96.6916 103.853 96.6946 103.859 96.6992 103.864C97.1951 104.342 97.8558 104.671 98.3307 105.013C98.6799 105.266 99.0381 105.505 99.4053 105.73C100.015 106.103 100.55 106.502 101.134 106.878C101.356 107.022 101.608 107.223 101.888 107.482C102.512 108.058 103.315 108.44 103.992 108.891C104.616 109.309 105.35 109.694 105.973 110.179C106.016 110.212 106.069 110.23 106.123 110.228C106.177 110.227 106.23 110.206 106.272 110.171C106.454 110.014 106.567 109.878 106.803 109.772C107.454 109.477 107.694 108.91 108.206 108.475C108.82 107.957 109.426 107.404 110.057 106.911C110.601 106.488 111.173 105.947 111.774 105.288C112.209 104.812 112.862 104.66 113.309 104.118C113.719 103.624 114.139 103.282 114.599 102.888C114.757 102.752 115.064 102.399 115.35 102.22C116.005 101.806 116.561 101.288 117.142 100.696C117.581 100.251 118.163 100.043 118.637 99.7042C118.711 99.6512 118.929 99.4493 119.29 99.0984C119.741 98.6603 120.256 98.3095 120.836 98.046C120.962 97.9893 121.155 97.8086 121.414 97.5039C121.615 97.266 122.013 96.9503 122.606 96.557C123.694 95.834 124.682 95.1624 125.598 94.3344C125.764 94.1831 126.052 94.168 126.188 94.0755C126.685 93.7344 127.135 93.438 127.596 92.9962C128.168 92.451 129.004 92.1825 129.555 91.6878C130.047 91.246 130.541 90.8861 131.035 90.608C132.012 90.0582 132.947 89.2942 133.819 88.7987C134.787 88.2477 135.36 87.5646 136.278 87.1416C136.587 86.9989 136.749 86.7361 136.985 86.5682C137.505 86.1982 138.023 85.8276 138.539 85.4566C138.678 85.3567 138.753 85.213 138.945 85.1316C139.202 85.024 139.441 84.8941 139.663 84.7417C139.692 84.7217 139.689 84.7097 139.654 84.7058C138.219 84.5359 136.782 84.3626 135.343 84.1861C134.711 84.1076 133.746 84.1946 133.229 84.0505C132.013 83.7107 130.665 83.4139 129.561 83.114C126.641 82.3212 124.069 81.6506 121.844 81.1021C110.424 78.2856 99.0023 75.4748 87.5791 72.6696C85.2 72.0852 82.8083 71.4486 80.4067 70.9688C80.3605 70.9602 80.3566 70.9419 80.3949 70.9139C80.7497 70.6549 81.0269 70.4353 81.4386 70.2097C81.6384 70.101 81.7601 69.9027 81.9087 69.7816C82.435 69.353 83.1163 68.889 83.5328 68.3583C83.6874 68.1609 83.8102 68.0418 83.9014 68.0009C84.4113 67.7727 84.8207 67.4827 85.1296 67.1307C85.6194 66.5734 86.1392 66.1082 86.6889 65.7349C87.5784 65.1308 88.3975 64.3511 89.1988 63.6324C89.338 63.5064 89.4884 63.3924 89.6501 63.2902C90.2878 62.8845 90.7583 62.5039 91.0615 62.1486C91.5403 61.5874 92.0076 61.2014 92.4634 60.9905C92.8533 60.8095 93.3661 60.1492 93.6943 59.8747C94.0524 59.576 94.562 59.1869 95.2232 58.7073C95.6664 58.3852 96.4987 57.7126 97.0018 57.1197C97.2295 56.8514 97.4276 56.6764 97.5959 56.5946C98.5536 56.1333 99.1618 55.216 100.122 54.5455C100.555 54.2444 100.917 53.9687 101.209 53.7185C101.581 53.4004 101.96 53.0891 102.345 52.7845C102.61 52.5742 102.875 52.1639 103.268 51.9823C104.311 51.5004 104.903 50.5074 105.836 49.9401C106.28 49.67 106.556 49.4822 106.664 49.377C107.269 48.7891 107.926 48.2648 108.633 47.8041C109.075 47.5158 109.769 46.9347 110.714 46.061C110.906 45.883 111.156 45.7024 111.465 45.5192C111.997 45.2026 112.521 44.7908 113.037 44.2836C113.354 43.9737 113.782 43.6828 114.323 43.4108C114.494 43.324 114.79 43.061 115.212 42.6217C115.373 42.4539 115.709 42.1875 116.22 41.8226C117.197 41.1246 118.178 40.3853 119.049 39.5746C119.304 39.3366 119.644 39.2233 119.89 39.0402C120.225 38.7914 120.551 38.5749 120.868 38.278C121.531 37.6566 122.309 37.2828 122.969 36.6985C123.807 35.9575 124.786 35.3382 125.6 34.6774C126.122 34.2534 126.661 33.8575 127.173 33.4195C127.272 33.3359 127.377 33.2621 127.49 33.1979C128.107 32.8427 128.627 32.1019 129.405 32.2039C129.977 32.2797 130.55 32.3452 131.125 32.4004C132.668 32.548 134.336 32.841 135.639 33.0767C139.552 33.7838 144.646 34.7299 150.921 35.9149C151.887 36.0972 153.17 36.2849 154.771 36.4777C157.14 36.7641 159.42 37.2645 161.756 37.5028C161.832 37.5108 161.834 37.5273 161.763 37.5521C161.427 37.6733 160.944 37.7708 160.701 38.0372C160.372 38.3969 159.997 38.3257 159.631 38.5005C159.137 38.7362 158.074 39.1147 157.753 39.5283C157.727 39.5633 157.692 39.5852 157.649 39.5941C157.008 39.7191 156.268 40.2037 155.686 40.4621C155.305 40.6306 154.876 40.8468 154.399 41.1107C153.84 41.4191 153.259 41.6804 152.655 41.8945C152.423 41.9761 152.195 42.0937 151.971 42.2473C151.285 42.7197 150.426 43.0984 149.692 43.3634C149.594 43.3996 149.458 43.4957 149.284 43.6517C148.828 44.064 148.158 44.3531 147.554 44.5705C146.814 44.8384 146.304 45.4334 145.612 45.6693C145.3 45.776 145.026 45.8856 144.792 45.9982C144.253 46.2609 143.691 46.8239 143.091 47.0312C142.497 47.2361 141.912 47.5607 141.335 48.005C140.642 48.5387 139.739 48.7123 139.043 49.2843C138.626 49.6259 138.287 49.8388 138.027 49.9229C137.346 50.1428 136.738 50.49 136.201 50.9647C135.992 51.1503 135.526 51.3949 134.804 51.6986C134.542 51.8086 134.195 52.051 133.764 52.4261C133.244 52.8761 132.227 53.2373 131.509 53.8217C130.796 54.4045 129.963 54.7075 129.22 55.2655C128.453 55.8409 127.585 56.2073 126.837 56.7708C126.367 57.1244 125.883 57.4585 125.386 57.773C125.298 57.8279 125.19 57.8769 125.062 57.92C124.735 58.0296 124.49 58.3543 124.14 58.6048C123.197 59.2775 122.242 59.9347 121.277 60.5765C121.041 60.7342 120.811 60.9008 120.588 61.076C120.357 61.2604 120.164 61.6342 119.791 61.7692C119.255 61.9628 118.829 62.3567 118.424 62.724C118.256 62.8759 118.284 62.9299 118.506 62.886C118.973 62.7929 119.547 62.9075 119.988 62.8982C120.799 62.8803 121.629 62.9573 122.404 62.9647C123.682 62.977 124.955 63.0201 126.222 62.8293C127.179 62.684 128.107 62.7829 129.064 62.7525C130.149 62.7186 131.27 62.7319 132.362 62.7532C132.99 62.7661 133.528 62.5043 134.19 62.5613C134.534 62.5903 134.786 62.6054 134.944 62.6068C136.595 62.6139 138.645 62.7028 140.587 62.7053C141.176 62.7064 141.911 62.5843 142.573 62.6315C143.505 62.6967 144.625 62.7001 145.299 62.7308C146.74 62.7959 148.179 62.8757 149.618 62.97C150.094 63.001 150.612 62.8671 151.094 62.9011C154.047 63.1046 156.993 63.3649 159.942 63.608C160.511 63.654 161.284 63.5686 161.953 63.6304C164.76 63.8872 167.561 64.196 170.356 64.5567C171.785 64.7411 172.908 64.7537 173.936 64.9199C176.348 65.3098 178.76 65.7063 181.17 66.1095C183.717 66.5347 186.259 66.7692 188.744 67.4602C188.865 67.4938 188.87 67.5394 188.759 67.5972C188.475 67.7423 188.167 67.8066 187.93 67.9446C187.601 68.1356 187.302 68.3632 187.032 68.6276C186.57 69.0775 186.064 69.3815 185.471 69.6312C185.077 69.797 184.845 70.1646 184.563 70.373C184.036 70.7609 183.527 71.1379 182.951 71.4482C182.761 71.5513 182.614 71.7373 182.456 71.8475C181.961 72.1898 181.479 72.5483 181.008 72.9232C180.708 73.161 180.357 73.3995 179.954 73.6386C179.323 74.0133 178.729 74.4418 178.171 74.9241C178.047 75.0309 177.738 75.0935 177.565 75.2024C177.046 75.5294 176.485 75.8731 176.045 76.2995C175.862 76.4764 175.716 76.5889 175.607 76.6371C174.953 76.9264 174.442 77.2381 174.072 77.572C173.586 78.0117 173.225 78.2906 172.99 78.4086C172.422 78.693 172.063 78.8989 171.911 79.0262C171.229 79.6001 170.591 80.0345 169.996 80.3294C169.727 80.4635 169.494 80.6111 169.298 80.7722C168.707 81.259 168.083 81.699 167.389 82.0254C167.08 82.1694 166.944 82.4169 166.702 82.583C166.036 83.0378 165.364 83.4825 164.688 83.9171C164.149 84.2634 163.62 84.6236 163.101 84.9976C162.693 85.2922 162.251 85.5769 161.777 85.8518C161.123 86.2308 160.688 86.5285 160.472 86.745C160.247 86.9701 160.099 87.1584 159.794 87.3008C159.063 87.6423 158.542 88.1142 157.91 88.5928C157.252 89.0909 156.532 89.4087 155.877 89.9469C155.329 90.3962 154.734 90.7742 154.092 91.0808C154.052 91.0998 153.969 91.1616 153.844 91.2662C152.966 91.9974 152.351 92.4479 151.998 92.6175C151.715 92.7544 151.491 92.8916 151.326 93.0291C150.103 94.0352 148.694 94.8961 147.396 95.8091C147.174 95.9651 146.746 96.2573 146.113 96.6856C145.368 97.1885 144.675 97.7418 143.895 98.2087C143.465 98.4657 143.152 98.6766 142.956 98.8414C142.068 99.5872 141.148 99.9957 140.307 100.701C139.5 101.378 138.561 101.773 137.858 102.431C137.53 102.737 136.895 103.139 135.952 103.636C135.851 103.69 135.703 103.864 135.583 103.946C135.142 104.246 134.704 104.551 134.27 104.862C133.493 105.419 132.392 106.057 131.531 106.791C131.311 106.979 131.063 107.146 130.787 107.292C129.904 107.761 129.307 108.47 128.455 108.886C127.481 109.361 126.759 110.291 125.943 110.715C125.58 110.904 125.28 111.102 125.045 111.309C124.382 111.893 123.827 112.328 123.06 112.74C122.804 112.877 122.624 113.132 122.415 113.284C121.81 113.725 121.117 114.163 120.649 114.75C120.621 114.785 120.58 114.809 120.535 114.817C119.986 114.902 119.513 115.391 119.093 115.736C118.602 116.14 118.312 116.644 117.647 116.958C117.047 117.241 116.67 117.798 116.274 118.125C116 118.352 115.719 118.57 115.433 118.78C114.552 119.426 113.579 120.152 112.852 120.966C112.652 121.188 112.362 121.275 112.181 121.395C111.593 121.779 111.06 122.23 110.583 122.747C110.33 123.021 109.939 123.292 109.411 123.559C109.034 123.75 108.708 124.234 108.396 124.489C107.975 124.834 107.546 125.223 107.072 125.49C106.964 125.551 106.857 125.63 106.749 125.727C106.548 125.912 106.077 126.29 105.338 126.862C105.049 127.085 104.752 127.463 104.356 127.676C103.67 128.044 103.227 128.287 102.742 128.766C102.526 128.979 102.294 129.172 102.046 129.347C101.978 129.395 101.739 129.517 101.328 129.714C100.935 129.902 100.595 130.188 100.309 130.57C100.282 130.606 100.248 130.636 100.209 130.657C100.171 130.679 100.128 130.693 100.083 130.697C100.039 130.701 99.9941 130.696 99.9519 130.682C99.9096 130.668 99.8708 130.645 99.8379 130.615C99.5343 130.338 99.2202 130.126 98.928 129.796C98.5942 129.419 98.2199 129.089 97.8049 128.806C97.0775 128.309 96.4439 127.791 95.7199 127.323C95.1154 126.931 94.8763 126.351 94.2092 125.952C93.6927 125.645 93.3159 125.317 92.8756 124.96C92.4933 124.647 91.7465 124.212 91.4042 123.761C91.1446 123.417 90.8931 123.148 90.6496 122.953C90.1264 122.534 89.8087 122.242 89.402 121.837C88.9573 121.398 88.403 121.132 88.0534 120.478C87.982 120.344 87.7833 120.165 87.4575 119.939C86.6783 119.4 86.0974 118.675 85.2812 118.191C85.2327 118.163 85.164 118.081 85.0751 117.946C84.7939 117.523 84.453 117.161 84.0524 116.859C83.3582 116.337 82.9716 115.989 82.4342 115.519C82.2041 115.317 81.7856 115.114 81.5989 114.85C81.2878 114.406 80.9844 114.083 80.6885 113.881C80.1442 113.511 79.6421 113.09 79.1825 112.619C78.796 112.222 78.2993 111.987 78.0008 111.524C77.5861 110.878 76.9271 110.543 76.402 110.049C76.0209 109.692 75.6227 109.355 75.2074 109.039C75.0181 108.896 74.8434 108.717 74.6833 108.504C74.2822 107.967 73.7996 107.51 73.2354 107.133C73.1989 107.11 73.1909 107.117 73.2115 107.155Z" fill="#FF0D98"/>
</g>
<defs>
<clipPath id="clip0_779_3505">
<rect width="176.677" height="176.677" fill="white" transform="translate(45.8066 0.238281) rotate(15)"/>
</clipPath>
</defs>
</svg>
