<svg width="120" height="120" viewBox="0 0 120 120" fill="none" xmlns="http://www.w3.org/2000/svg">
<path d="M57.9642 11.8229C58.5322 9.55549 59.0906 7.51125 60.5336 5.66871C61.2761 4.72064 61.966 3.74432 62.5964 2.7183C62.8994 2.22526 63.4344 2.52537 63.4158 3.0262C63.4126 3.12299 63.3915 3.23699 63.3525 3.36821C62.6626 5.69112 61.4564 8.43009 61.9894 10.8582C62.2544 12.0645 62.5808 13.2484 62.6588 14.5141C62.7075 15.3209 62.5409 16.0793 62.1589 16.7893C61.5889 17.8484 60.9536 18.9017 60.5541 20.0096C59.8438 21.9817 59.0721 24.3738 60.2189 26.3635C60.5827 26.9955 60.9708 27.6136 61.3833 28.2177C62.4171 29.7299 62.5652 31.2685 62.5769 33.0496C62.5782 33.2679 62.5519 33.4634 62.498 33.6362C62.4753 33.7096 62.4259 33.7421 62.3499 33.7336C59.8555 33.4599 57.5287 33.7229 55.1336 34.3845C55.107 34.3917 55.0946 34.3813 55.0966 34.3534C55.1667 33.4842 55.4873 33.0526 55.8196 32.3705C56.3418 31.2967 56.2818 30.2636 55.6393 29.271C55.2272 28.6357 54.626 27.9342 54.3044 27.0699C54.1719 26.7133 54.0637 26.2381 53.9799 25.6444C53.8994 25.0766 53.811 24.1429 53.7149 22.8431C53.6048 21.3571 54.1076 20.2376 55.0254 19.1414C55.7095 18.3242 56.3798 17.4129 57.0366 16.4073C57.4858 15.7184 57.6134 15.1309 57.6621 14.2432C57.7079 13.4208 57.7605 12.6404 57.9642 11.8229Z" fill="#830DFF"/>
<path d="M78.6981 26.4058C78.448 27.1073 78.3255 27.8306 78.3307 28.5757C78.332 28.8212 78.3928 29.3162 78.5129 30.0606C78.9894 33.0179 78.3083 35.334 75.8821 37.1064C75.5264 37.3655 75.0928 37.5838 74.6914 37.8147C73.8057 38.3224 73.0009 39.06 72.6471 40.0382C72.6439 40.0474 72.6383 40.0556 72.631 40.0621C72.6238 40.0686 72.615 40.0732 72.6055 40.0754C72.596 40.0776 72.5861 40.0774 72.5767 40.0749C72.5673 40.0723 72.5587 40.0674 72.5517 40.0607C71.1067 38.6858 69.6792 37.3275 67.9584 36.3171C67.9427 36.3079 67.9305 36.2938 67.9237 36.2771C67.9168 36.2603 67.9157 36.2419 67.9204 36.2245C68.2546 34.951 69.1277 34.1637 70.4197 33.9318C70.9296 33.8409 71.269 33.7714 71.4379 33.7233C72.1512 33.5207 72.9112 33.0637 73.1967 32.3699C73.6196 31.3419 72.8586 30.6073 72.5565 29.7108C72.1073 28.3808 72.3383 26.8277 73.4637 25.8884C73.8002 25.6077 74.1392 25.3297 74.4809 25.0543C74.9447 24.6782 75.3511 24.1442 75.7164 23.6376C76.3829 22.7119 76.6363 21.984 76.8584 20.6979C77.0514 19.5803 77.2228 18.4646 77.5259 17.3558C77.6847 16.775 77.8289 16.1651 78.0092 15.6165C78.2086 15.0078 78.385 14.5103 78.5383 14.1238C78.8072 13.4456 79.7163 13.7496 79.5711 14.4278C79.3236 15.586 79.2762 16.7123 79.4288 17.8069C79.4496 17.9569 79.5701 18.4847 79.7903 19.3903C80.1947 21.0535 80.3584 22.8746 79.6452 24.419C79.385 24.9822 78.9183 25.787 78.6981 26.4058Z" fill="#830DFF"/>
<path d="M39.2862 30.8064C37.924 29.2269 37.81 27.4565 37.8665 25.4346C37.8795 24.9767 37.9312 24.33 38.0215 23.4947C38.1254 22.5255 38.2115 21.4881 38.2797 20.3825C38.2927 20.1636 38.4083 20.033 38.6266 19.9908C38.9803 19.9216 39.1021 20.1915 39.142 20.5023C39.1745 20.7492 39.2213 20.9931 39.2823 21.2341C39.7669 23.14 40.1583 24.4966 40.4565 25.3041C40.8784 26.447 41.4211 27.4224 42.3321 28.2058C43.2471 28.9921 44.1172 29.6361 44.2936 30.9184C44.4125 31.7807 44.3384 32.8847 44.431 33.597C44.5654 34.6415 45.0273 35.9267 45.7756 36.7121C45.7997 36.7374 45.7974 36.7595 45.7688 36.7783C44.6083 37.5461 43.6047 38.5341 42.5572 39.4462C42.5312 39.4689 42.5043 39.4699 42.4764 39.4491C40.9018 38.2379 40.4545 36.1381 40.511 34.2664C40.5175 34.0481 40.4743 33.6428 40.3814 33.0504C40.2353 32.1237 39.903 31.5216 39.2862 30.8064Z" fill="#830DFF"/>
<path d="M25.482 44.1559C24.419 42.7558 23.6219 41.2211 21.7969 40.8966C20.6705 40.6959 19.055 40.9161 17.7318 40.4864C15.9935 39.9232 14.7141 38.6117 13.6413 37.2116C13.3061 36.7741 13.8021 36.2791 14.2854 36.4905C15.2987 36.9339 16.124 37.2885 17.1959 37.3821C18.0494 37.4561 18.8767 37.4188 19.6776 37.27C21.1889 36.9884 22.5579 36.6279 23.8938 37.119C25.5454 37.726 27.1014 39.5306 29.1272 39.6085C29.8365 39.6358 30.6872 39.4497 31.4189 39.3221C33.0111 39.0444 34.5603 39.2548 36.0931 39.7157C37.4016 40.1084 38.0525 41.0915 38.7853 42.1039C38.7943 42.1161 38.7996 42.1308 38.8006 42.1461C38.8017 42.1615 38.7984 42.1769 38.7911 42.1906C38.289 43.1468 37.808 44.115 37.3481 45.0952C36.6592 46.5665 36.1398 48.033 35.716 49.5686C35.7153 49.5715 35.7137 49.5741 35.7114 49.576C35.7091 49.5779 35.7062 49.579 35.7032 49.5791C35.7002 49.5792 35.6973 49.5784 35.6948 49.5766C35.6924 49.5749 35.6906 49.5724 35.6897 49.5696C35.4227 48.8199 35.1427 48.0719 34.8497 47.3256C34.6646 46.853 34.2427 46.205 33.851 45.8738C33.1417 45.2726 32.3164 45.1517 31.3995 45.3495C30.2448 45.6 29.0746 45.6448 27.8995 45.5249C26.9024 45.4229 26.0965 44.9666 25.482 44.1559Z" fill="#830DFF"/>
<path d="M85.0138 39.5168C85.615 39.3843 86.3838 39.0628 86.9021 38.7237C88.3286 37.7922 89.9081 37.3751 91.5918 37.2602C91.9731 37.2335 92.4889 37.2381 93.1392 37.2738C94.4838 37.3469 95.808 37.4034 97.1507 37.2494C97.6729 37.189 98.1975 37.1786 98.7243 37.2183C99.2846 37.2611 99.3781 37.951 98.889 38.1819C97.8552 38.6701 96.4852 39.0364 95.6268 39.3502C94.8986 39.6159 94.171 39.8832 93.4441 40.1521C92.6497 40.4464 92.054 40.7033 91.6571 40.9228C90.5554 41.5308 89.5843 42.3272 88.7437 43.312C88.239 43.9031 87.6202 44.2165 86.8875 44.2523C86.7699 44.2581 86.349 44.2126 85.6247 44.1159C84.8933 44.0178 84.157 43.9967 83.4158 44.0525C81.7535 44.1792 81.1698 44.7969 80.2958 46.1046C80.2575 46.1611 80.2218 46.1595 80.1886 46.0997C79.489 44.8486 78.7056 43.6527 77.8384 42.512C77.8216 42.4901 77.8103 42.4644 77.8055 42.4371C77.8008 42.4097 77.8027 42.3816 77.8111 42.3552C78.349 40.6315 80.0415 39.9572 81.658 39.6776C82.7707 39.4856 83.9205 39.7575 85.0138 39.5168Z" fill="#830DFF"/>
<path d="M69.5304 49.0189C69.6454 49.6749 69.7094 50.3362 69.7224 51.0027C69.7367 51.7257 69.7575 52.4487 69.7848 53.1716C69.8419 54.6689 69.7192 56.1217 69.4164 57.53C69.2011 58.5336 68.788 59.2615 68.141 60.3684C67.7987 60.9537 67.4368 61.6952 67.0555 62.5929C66.8561 63.0632 66.6953 63.399 66.5732 63.6004C66.1737 64.26 65.6066 65.0571 65.1146 65.5277C64.0768 66.5196 62.9923 67.3098 61.5756 67.6713C60.7747 67.876 59.7973 67.7902 58.9681 67.7951C57.3877 67.8029 56.0801 67.2358 54.5912 66.8343C52.9572 66.3949 51.7587 65.5228 50.6031 64.3604C49.1795 62.9281 48.4468 61.0943 48.3795 59.0656C48.3318 57.606 48.4117 56.2458 48.7469 54.7764C49.0733 53.35 49.2935 52.4701 49.9531 51.2687C51.0815 49.2137 52.0909 47.3887 54.5094 47.1081C56.0781 46.9269 57.6225 47.0448 59.1425 47.4618C60.0497 47.7112 60.8204 48.5872 61.2472 49.3852C61.6672 50.1696 62.1242 51.0611 62.2606 51.9449C62.3619 52.5977 62.2469 53.4084 62.1865 54.1207C62.1404 54.667 61.992 55.3497 61.7412 56.1688C61.3846 57.3355 60.6071 58.1546 59.4086 58.6262C59.1935 58.7106 58.7957 58.7711 58.2149 58.8074C57.401 58.8581 56.655 58.7227 55.9768 58.4011C54.9098 57.8964 54.2472 56.6112 54.2531 55.4585C54.257 54.7579 54.598 53.0859 55.6036 53.2886C55.6197 53.2918 55.6342 53.3005 55.6448 53.313C55.6554 53.3256 55.6615 53.3413 55.6621 53.3578C55.6893 53.9658 55.7176 54.6683 55.892 55.2061C56.0177 55.593 56.3773 56.4309 56.8391 56.4806C57.7667 56.5807 58.5962 56.3598 59.3277 55.8181C59.7866 55.478 59.8256 55.0688 59.9191 54.4432C60.114 53.1323 59.9022 51.8825 59.2838 50.6938C59.0974 50.3365 58.7983 50.1813 58.3864 50.2281C57.4598 50.3343 56.4416 50.7162 55.5909 51.0865C54.9897 51.3476 54.3028 51.7822 53.6461 52.1076C52.9883 52.435 52.6132 52.7049 52.3102 53.3149C51.9711 53.995 51.7285 54.6196 51.7012 55.3406C51.6655 56.3208 51.8266 57.2543 52.1845 58.141C52.369 58.5996 52.6324 59.0273 52.9747 59.4242C53.6906 60.2544 54.5431 60.9134 55.5325 61.4012C56.0879 61.676 56.6598 61.6097 57.2571 61.6721C58.3085 61.7812 59.3735 61.7315 60.4317 61.828C61.0368 61.8826 61.5951 61.827 62.0336 61.4022C64.1207 59.3862 65.591 56.8421 66.2136 53.9989C66.6297 52.094 66.9464 50.0692 66.4173 48.1448C66.3939 48.061 66.3562 47.9737 66.3043 47.8827C65.9288 47.2286 65.6157 46.5449 65.365 45.8317C65.3013 45.6504 65.1321 45.4439 64.8573 45.212C64.3068 44.7482 63.841 44.3224 63.2398 44.0564C62.3356 43.6559 61.5834 43.2671 60.5057 43.0781C59.3774 42.8813 58.2198 42.5977 57.1655 42.5695C55.3765 42.5227 53.4707 42.6893 51.8006 43.3801C51.4245 43.5354 50.972 43.6673 50.4433 43.7757C50.1587 43.8342 49.8716 43.9599 49.5819 44.1528C49.0759 44.4906 48.5705 44.8287 48.0658 45.1672C46.5905 46.1552 45.5372 47.8837 44.8298 49.4739C44.3972 50.4473 44.1293 51.6088 43.9656 52.6591C43.6551 54.6449 43.5518 56.6424 43.6557 58.6515C43.681 59.1446 43.7359 59.6337 43.8204 60.1189C44.0435 61.4032 44.2959 62.4341 45.016 63.4698C47.3097 66.771 50.0711 69.7292 54.0972 70.8137C55.2587 71.1265 56.7592 71.5221 58.0688 71.637C59.164 71.7332 60.2599 71.7423 61.3564 71.6643C63.0995 71.5406 64.5894 70.801 66.1026 70.0011C67.8311 69.0871 69.168 67.7132 70.4327 66.2273C71.3857 65.1058 72.2899 63.691 73.0655 62.4458C73.3702 61.956 73.644 61.408 73.8869 60.802C74.1701 60.0965 74.4436 59.3872 74.7074 58.6739C75.4411 56.6872 75.4459 54.6001 75.0231 52.4399C74.7301 50.9491 74.3355 49.4872 73.8392 48.0542C73.7677 47.8464 73.6855 47.5849 73.5926 47.2699C73.3276 46.3666 72.817 45.5793 72.4965 44.6839C72.1574 43.7342 71.7605 42.7958 71.3058 41.8689L71.3046 41.866L71.3058 41.863L71.3087 41.8618L71.3116 41.863C71.3499 41.8858 71.3837 41.9134 71.4129 41.9459C72.0788 42.6922 72.7397 43.4428 73.3958 44.1976C74.2883 45.2246 74.8165 45.9886 75.3309 47.1978C76.2956 49.4612 77.2359 51.788 77.9491 54.1421C78.3087 55.3299 78.7627 56.6687 79.0122 57.7015C79.3142 58.9516 79.2957 60.2125 79.2324 61.599C79.17 62.9573 78.753 64.2688 78.336 65.5452C78.0573 66.3969 77.5227 67.8298 76.7321 69.8442C76.5074 70.4165 76.2797 70.9394 76.0491 71.4129C75.6886 72.1528 75.4187 72.6566 75.2394 72.9242C74.7122 73.7125 74.2104 74.5621 73.6034 75.2335C72.4254 76.5362 70.8829 77.8194 69.1037 78.0825C68.2462 78.2092 67.3852 78.3105 66.5206 78.3865C66.2127 78.4138 65.579 78.3979 64.6196 78.3388C62.8394 78.2306 61.027 78.0163 59.2371 77.835C58.4823 77.7584 57.8622 77.6561 57.377 77.5281C55.6322 77.0682 53.8975 76.5732 52.1728 76.0432C51.8357 75.9392 51.0857 75.6619 49.923 75.2111C48.9252 74.8239 47.8962 74.3231 46.8361 73.7086C46.3398 73.4208 45.9293 73.1489 45.6045 72.893C44.1497 71.7452 42.9366 70.726 42.047 69.1621C41.5085 68.215 41.0388 67.2368 40.638 66.2273C40.0281 64.6917 39.6987 63.0421 39.6705 61.4295C39.6442 59.9465 39.7942 58.4284 39.8936 56.8256C39.956 55.8278 40.0973 54.6274 40.1986 53.8371C40.4919 51.561 41.2314 49.4534 42.3978 47.4813C42.9756 46.5059 43.5748 45.5589 44.3426 44.7423C44.5817 44.4883 44.9399 44.1587 45.4174 43.7533C46.876 42.5159 48.399 41.2044 50.0749 40.419C50.9045 40.0306 51.6603 39.7113 52.3423 39.4612C53.4327 39.0617 54.635 38.9292 55.8024 38.7246C56.9969 38.5151 58.214 38.6973 59.5489 38.9945C61.0621 39.3316 62.5918 39.6337 63.9355 40.3128C64.5591 40.6285 65.1915 41.0748 65.7713 41.5776C66.3468 42.0758 66.7119 42.4064 66.8665 42.5695C68.1166 43.8858 68.9117 45.6465 69.4203 47.3683C69.5717 47.8827 69.6331 48.2215 69.6045 48.3845C69.5636 48.6184 69.4876 48.7762 69.5304 49.0189Z" fill="#830DFF"/>
<path d="M5.50016 54.3104C7.56098 55.3052 9.76406 55.92 12.0763 55.7037C12.4829 55.6654 13.0601 55.6066 13.8077 55.5274C15.4428 55.3549 16.879 55.8362 18.2704 56.6469C19.4017 57.3066 20.9081 57.7187 22.3073 58.0948C23.3879 58.3862 24.5357 58.6376 25.6027 58.2887C25.882 58.1978 26.313 57.9656 26.8957 57.5921C27.8122 57.0048 28.4121 56.6287 28.6953 56.4637C30.3343 55.5098 32.132 55.3286 33.9765 55.6647C33.9965 55.6685 34.0145 55.6793 34.0273 55.6952C34.04 55.7111 34.0465 55.7311 34.0457 55.7515C33.9606 58.1764 34.034 60.5964 34.2659 63.0115C34.2663 63.0166 34.2653 63.0217 34.2629 63.0261C34.2606 63.0306 34.2569 63.0343 34.2525 63.0368C34.2481 63.0392 34.243 63.0404 34.238 63.0401C34.2329 63.0397 34.2281 63.0379 34.224 63.0349C33.4348 62.4477 32.5562 62.07 31.5883 61.9017C30.9511 61.7916 30.2953 62.1687 29.7789 62.5244C29.0961 62.9947 28.631 63.3068 28.3836 63.4607C24.9654 65.5819 21.5015 63.9645 18.4575 62.1853C16.7387 61.1797 14.9556 60.8864 13.0029 60.6506C11.807 60.5071 10.6842 60.1427 9.63447 59.5574C8.28982 58.8084 6.98934 57.9893 5.73304 57.1C4.31368 56.0958 2.93396 54.87 1.59385 53.4227C1.17682 52.9716 1.42626 52.3187 2.06545 52.4162C2.21746 52.4389 2.37628 52.499 2.54193 52.5964C3.528 53.1762 4.35623 53.7579 5.50016 54.3104Z" fill="#830DFF"/>
<path d="M84.8643 54.7268C85.7685 55.2032 86.6104 55.9564 87.7348 55.631C87.9122 55.5797 88.1749 55.4384 88.5231 55.2071C89.0035 54.8875 89.4273 54.5679 89.9652 54.337C91.708 53.5887 93.4379 53.3003 95.1548 53.4718C96.7937 53.6355 98.2991 54.4647 99.9682 55.3036C101.692 56.1695 103.405 56.6762 105.105 56.8236C108.498 57.1189 111.327 58.8357 113.906 60.9355C114.362 61.307 115.344 62.0794 116.849 63.2525C117.12 63.463 117.615 63.8713 117.653 64.2318C117.704 64.7083 117.164 64.9051 116.754 64.7268C114.975 63.9577 113.173 63.2431 111.35 62.5831C110.358 62.2239 109.348 61.9222 108.321 61.678C107.111 61.3915 105.578 61.2804 104.479 61.7033C104.104 61.8481 103.727 61.9862 103.347 62.1174C102.457 62.4266 101.548 62.3931 100.618 62.017C99.4606 61.5484 98.6567 61.067 97.7174 60.4181C96.7372 59.7399 95.1587 59.5031 93.9982 59.5373C92.3661 59.585 91.685 60.5555 90.4563 61.3613C88.8661 62.4048 87.1502 63.1191 85.2024 62.8004C84.5191 62.6887 83.8347 62.5627 83.1494 62.4224C83.1408 62.4207 83.1332 62.4158 83.1281 62.4085C83.1231 62.4013 83.1209 62.3923 83.1221 62.3834C83.2533 61.4688 83.3423 60.5496 83.3891 59.6259C83.4826 57.7951 83.2916 56.0081 82.8882 54.2181C82.8873 54.214 82.8874 54.2097 82.8884 54.2056C82.8894 54.2016 82.8914 54.1977 82.8941 54.1945C82.8969 54.1913 82.9003 54.1888 82.9042 54.1871C82.9081 54.1855 82.9123 54.1848 82.9165 54.185C83.6112 54.225 84.228 54.3916 84.8643 54.7268Z" fill="#830DFF"/>
<path d="M99.1859 76.1688C100.92 76.2925 102.208 77.1237 103.633 78.0055C104.053 78.2657 103.914 78.9633 103.328 78.9536C103.02 78.9477 102.584 78.8181 102.287 78.785C100.673 78.5999 99.1537 78.8951 97.2401 79.1835C96.2452 79.3336 95.1276 79.2478 94.0772 78.9847C93.2899 78.7879 92.5094 78.482 91.7348 78.214C90.9715 77.9496 90.1024 77.8629 89.1273 77.9539C88.4979 78.0123 87.6248 78.253 86.9788 78.2949C85.5202 78.3884 83.8472 78.0318 82.6243 77.1432C81.6782 76.4553 80.888 75.1106 80.3793 74.0573C80.3658 74.0294 80.3582 73.999 80.3571 73.9682C80.3559 73.9373 80.3611 73.9066 80.3725 73.8781C81.1572 71.889 81.7509 69.8448 82.1537 67.7453C82.1615 67.7051 82.1812 67.6683 82.2102 67.6396C82.2393 67.6109 82.2763 67.5917 82.3164 67.5845C82.979 67.4628 83.8579 69.1202 84.0674 69.5879C84.4006 70.3294 84.5477 71.0709 85.3156 71.7198C86.1292 72.4077 87.1318 72.3112 88.1354 72.2235C89.1926 72.132 90.1222 72.1456 90.9816 72.8238C92.7131 74.1889 94.1464 75.817 96.5073 75.9807C97.4005 76.0424 98.2934 76.1051 99.1859 76.1688Z" fill="#830DFF"/>
<path d="M35.0202 73.0459C35.8484 72.7185 36.6055 72.3307 37.0966 71.7022C37.0998 71.6982 37.1038 71.6949 37.1084 71.6926C37.113 71.6902 37.1179 71.6888 37.123 71.6886C37.1281 71.6883 37.1332 71.6891 37.1378 71.691C37.1425 71.6928 37.1467 71.6957 37.1502 71.6993C38.2824 72.8812 39.5968 73.8956 40.8684 74.9157C40.893 74.9355 40.9111 74.9624 40.9201 74.9926C40.9292 75.0229 40.9288 75.0552 40.9191 75.0853C40.3588 76.8021 37.7669 77.8106 36.1806 78.0318C35.9072 78.0701 35.4758 78.0935 34.8867 78.102C34.1091 78.1136 33.3871 78.1195 32.6125 78.2189C31.6225 78.3455 31.0349 78.8327 30.3178 79.469C29.357 80.3216 27.8623 80.5174 26.6677 80.5213C25.4868 80.5252 24.3182 80.4038 23.1619 80.1569C22.4071 79.9958 21.6526 79.8302 20.8984 79.66C20.6782 79.6106 20.5421 79.4807 20.4902 79.2702C20.4868 79.2569 20.4862 79.2429 20.4882 79.2293C20.4903 79.2157 20.4951 79.2026 20.5022 79.1908C20.5094 79.1791 20.5188 79.1688 20.5299 79.1607C20.5411 79.1526 20.5537 79.1468 20.5671 79.1436C21.1264 79.0062 21.7111 78.9068 22.2324 78.746C23.4607 78.3686 24.6147 77.9646 25.6943 77.5339C26.162 77.3475 26.6041 77.1006 27.0205 76.7934C28.4772 75.7186 29.0423 73.7143 31.1509 73.5828C32.5442 73.4951 33.7466 73.5497 35.0202 73.0459Z" fill="#830DFF"/>
<path d="M79.5131 86.0725C79.8979 86.8529 80.4855 87.6091 80.6541 88.6127C80.7619 89.2525 80.8165 89.8946 80.8178 90.539C80.8191 90.9177 80.7645 91.5072 80.6541 92.3075C80.5391 93.1503 80.4728 94.0107 80.3413 94.8311C80.1337 96.1202 80.0353 97.4113 79.707 98.679C79.6238 99.0031 79.4309 99.1525 79.1282 99.1272C78.7871 99.0979 78.6868 98.8124 78.68 98.4928C78.6598 97.4912 78.5611 96.4963 78.3837 95.5083C78.1544 94.2286 77.9437 92.9457 77.7514 91.6595C77.5623 90.3958 76.9641 89.663 75.9916 88.9186C75.7 88.6958 75.4106 88.4704 75.1235 88.2424C74.3901 87.6604 74.0071 86.9238 73.9747 86.0325C73.9487 85.3225 73.9773 84.6161 74.0604 83.9133C74.1764 82.9233 73.7681 82.4225 73.2059 81.6829C73.2017 81.6774 73.1986 81.671 73.197 81.6643C73.1954 81.6575 73.1951 81.6505 73.1963 81.6436C73.1975 81.6368 73.2001 81.6302 73.2039 81.6244C73.2077 81.6186 73.2127 81.6136 73.2185 81.6098C73.935 81.1343 74.6216 80.6143 75.2784 80.0499C75.7766 79.6218 76.2778 79.1979 76.7819 78.7783C76.8481 78.7231 76.9088 78.6627 76.9641 78.5971C76.9842 78.573 77.0073 78.5691 77.0332 78.5854C77.2885 78.7432 77.5935 78.8455 77.7981 79.0394C78.7715 79.9622 78.9031 81.4832 78.8378 82.7196C78.8144 83.1737 78.8144 83.5138 78.8378 83.7398C78.9216 84.5537 79.1467 85.3313 79.5131 86.0725Z" fill="#830DFF"/>
<path d="M48.2563 83.2387C47.2604 83.6343 45.6225 84.1634 45.415 85.3034C45.2948 85.964 45.3146 86.6208 45.4744 87.2736C45.8525 88.8277 46.2003 90.7628 45.1694 92.1581C44.6208 92.8996 43.8676 93.5154 43.1924 94.1537C42.2015 95.09 41.382 96.5155 41.3128 97.9186C41.2777 98.6228 41.191 99.3208 41.0527 100.013C40.7243 101.65 39.8405 102.618 38.7707 103.811C38.1948 104.453 37.5381 103.799 37.9473 103.106C38.2253 102.635 38.3744 102.123 38.3945 101.573C38.4231 100.801 38.4189 100.029 38.3819 99.2584C38.338 98.3435 38.0408 96.9735 38.111 95.9562C38.2084 94.5327 38.7629 93.3547 39.4361 91.9886C39.8688 91.111 40.0273 90.2214 39.9116 89.3198C39.7411 87.9975 39.4508 86.6617 39.7713 85.3005C40.215 83.416 41.1933 81.8772 42.7062 80.6839C43.0569 80.4072 43.5412 80.0453 44.159 79.5984C44.5487 79.3168 44.9102 78.9739 45.2844 78.6582C45.3091 78.6374 45.3354 78.6351 45.3633 78.6513C47.1289 79.691 48.9939 80.3117 50.9563 80.8593C50.9654 80.8618 50.9739 80.8663 50.9812 80.8724C50.9885 80.8786 50.9944 80.8862 50.9984 80.8948C51.0025 80.9034 51.0047 80.9127 51.0048 80.9223C51.0049 80.9318 51.003 80.9412 50.9991 80.9499C50.5275 82.0275 49.3203 82.8168 48.2563 83.2387Z" fill="#830DFF"/>
<path d="M52.9994 115.577C54.9939 113.282 56.2382 110.494 56.4448 107.445C56.4623 107.19 56.4292 106.793 56.3454 106.252C56.131 104.864 55.8377 103.4 55.8075 102.084C55.789 101.292 56.0521 100.406 56.3941 99.6227C56.7517 98.8052 57.4445 97.8639 57.6969 97.1361C58.1236 95.9025 58.5797 94.3533 58.4296 93.0457C58.2454 91.4477 57.1415 90.1878 56.3941 88.7954C55.4139 86.9665 55.6107 85.237 56.1963 83.3282C56.2062 83.2962 56.227 83.2687 56.255 83.2502C56.2831 83.2318 56.3167 83.2235 56.3503 83.2269C57.9158 83.3834 59.4871 83.398 61.0643 83.2707C61.5236 83.233 62.3398 83.1382 63.5129 82.9862C63.5513 82.9817 63.56 82.9953 63.5393 83.0271C62.9579 83.9378 62.6172 84.9674 62.5171 86.1159C62.4606 86.77 62.6094 87.3387 62.9634 87.822C63.7507 88.8958 64.223 90.093 64.3802 91.4136C64.4513 92.0109 64.5507 92.7027 64.5916 93.0963C64.7699 94.782 64.2135 96.494 63.3259 97.938C62.0085 100.079 60.6083 102.237 60.3121 104.79C60.2446 105.373 60.1796 105.956 60.1172 106.54C59.9821 107.805 59.593 108.985 58.9499 110.08C57.4854 112.576 56.2109 114.765 53.9231 116.331C53.5626 116.578 53.1027 116.758 52.8639 116.275C52.7496 116.045 52.7948 115.812 52.9994 115.577Z" fill="#830DFF"/>
</svg>
