<svg width="156" height="156" viewBox="0 0 156 156" fill="none" xmlns="http://www.w3.org/2000/svg">
<g clip-path="url(#clip0_754_1283)">
<path d="M91.1247 73.3239L91.1663 73.3637C91.194 73.3902 91.2116 73.4222 91.2193 73.4598C91.3497 74.078 91.373 74.7003 91.2891 75.3266C91.2564 75.5709 91.2861 76.1042 91.3782 76.9264C91.3985 77.1078 91.3974 77.2992 91.3748 77.5006C91.28 78.347 91.4006 79.2604 91.3046 80.1496C91.2626 80.5456 91.2556 80.835 91.2837 81.0179C91.4005 81.7764 91.4041 82.669 91.2948 83.6958C91.25 84.1177 91.2535 84.6545 91.3054 85.3063C91.3498 85.8585 91.2759 86.4322 91.2744 86.8882C91.2706 87.7147 91.2438 88.4003 91.194 88.945C91.1267 89.6853 91.2848 90.3631 91.2236 91.0804C91.1424 92.0172 91.048 92.9528 90.9402 93.8872C90.8916 94.3053 90.6825 94.6504 90.3128 94.9225C90.1215 95.0636 90.0613 95.0475 89.8083 95.037C89.4078 95.0218 89.0671 94.851 88.7862 94.5247C88.4828 94.1726 88.0579 93.7125 87.5115 93.1445C86.9608 92.5723 86.3993 91.8723 85.8063 91.2631C85.7326 91.1868 85.6558 91.0942 85.5758 90.9854C85.1901 90.4656 84.7315 90.0153 84.2853 89.5498C84.1712 89.4306 84.0369 89.2547 83.8822 89.0223C83.5979 88.594 83.1858 88.3025 82.9421 87.8371C82.8048 87.5741 82.6141 87.4842 82.4502 87.2632C82.0957 86.7835 81.7326 86.3106 81.3608 85.8446C80.9015 85.2672 80.3606 84.5134 79.8181 83.8799C79.6382 83.669 79.5213 83.3532 79.3604 83.1822C79.1132 82.9208 78.8874 82.643 78.6831 82.3488C78.4853 82.0635 78.2381 81.8366 78.026 81.5588C77.7344 81.1767 77.3873 80.9865 77.1576 80.534C77.0607 80.343 76.9224 80.1869 76.7427 80.0657C76.477 79.885 76.3773 79.7683 76.259 79.5032C76.2547 79.4933 76.248 79.4847 76.2395 79.478C76.231 79.4714 76.221 79.467 76.2103 79.4653C76.1997 79.4635 76.1888 79.4645 76.1786 79.4681C76.1684 79.4717 76.1593 79.4778 76.1521 79.4859C75.9623 79.6929 75.7942 79.919 75.648 80.1643C75.5376 80.3496 75.4152 80.5164 75.2806 80.6645C74.9029 81.0811 74.5425 81.5962 74.1994 82.2096C74.0913 82.4044 73.9249 82.6041 73.7002 82.8086C73.5457 82.95 73.4232 83.0928 73.3326 83.2371C73.0644 83.6653 72.7826 84.0844 72.4872 84.4944C72.2832 84.7784 72.1594 85.1525 71.8979 85.3874C71.1968 86.0182 70.8256 86.9871 70.2605 87.5264C70.1268 87.6536 70.0223 87.7751 69.947 87.8906C69.6056 88.4162 69.2028 88.8998 68.8913 89.3331C68.6936 89.6086 68.5541 90.0184 68.2517 90.2229C67.8653 90.4847 67.6636 90.9781 67.394 91.3346C66.9379 91.941 66.5493 92.4785 66.0057 93.1208C65.6806 93.5055 65.4652 93.9389 65.1648 94.3343C64.9922 94.5623 64.8744 94.8111 64.6288 94.9715C64.4157 95.1098 64.2884 95.3899 64.1564 95.6001C64.073 95.7333 63.9689 95.8732 63.8444 96.0199C63.496 96.4301 63.2564 96.9082 62.8983 97.2974C62.6504 97.5656 62.4025 97.8225 62.2196 98.146C61.9469 98.6255 61.5965 99.0013 61.2645 99.4383C61.1414 99.5998 60.9829 99.7292 60.8731 99.8871C60.659 100.195 60.4353 100.495 60.2022 100.787C59.9484 101.104 59.7433 101.556 59.3929 101.875C59.2062 102.044 59.0719 102.187 58.9898 102.302C58.8669 102.476 58.745 102.65 58.6242 102.826C58.3679 103.199 58.0101 103.602 57.7189 104.009C57.3945 104.464 56.9871 104.792 56.695 105.294C56.5449 105.553 56.377 105.756 56.2129 105.99C56.0277 106.253 55.7258 106.425 55.5636 106.687C55.2061 107.261 54.7751 107.755 54.4546 108.259C54.3852 108.368 54.2982 108.474 54.1937 108.576C53.8539 108.907 53.5557 109.272 53.2992 109.669C52.7443 110.529 52.0215 111.294 51.3931 112.104C51.051 112.545 50.8842 113.007 50.3812 113.307C50.3153 113.346 50.2622 113.403 50.2283 113.472C49.9808 113.976 49.5116 114.486 49.2686 114.824C49.0316 115.154 48.8445 115.417 48.5221 115.727C48.1429 116.092 47.9537 116.546 47.63 116.902C47.3266 117.236 46.9806 117.535 46.7333 117.885C46.5449 118.153 46.3959 118.403 46.1631 118.657C45.9749 118.863 45.8097 119.086 45.6675 119.327C45.4664 119.665 45.1923 119.767 44.9901 120.056C44.7058 120.463 44.4245 120.871 44.1462 121.281C43.9704 121.54 43.6939 121.723 43.508 121.974C43.1888 122.406 42.8505 122.748 42.5432 123.226C42.274 123.646 41.8848 123.881 41.6025 124.255C41.2945 124.663 40.9674 125.055 40.621 125.431C40.1607 125.931 39.7752 126.171 39.4854 126.863C39.3332 127.224 39.0951 127.534 38.7711 127.791C38.1777 128.26 36.6835 127.902 36.4846 127.128C36.3835 126.733 36.2564 126.52 36.292 126.033C36.3162 125.688 36.4209 125.097 36.6062 124.26C36.7124 123.78 36.8575 123.198 37.0415 122.514C37.9569 119.105 38.6322 116.68 39.0676 115.238C39.7446 112.994 40.9201 109.677 41.9669 106.243C42.5715 104.262 43.2037 102.29 43.8635 100.326C44.5417 98.3109 45.176 96.2797 45.8384 94.2581C46.2851 92.8929 46.8034 91.0425 47.3117 89.4738C48.2199 86.6725 48.8098 84.8899 49.0812 84.1263C49.9069 81.8036 50.504 79.9851 50.8725 78.671C50.9565 78.3701 51.1912 77.6318 51.5765 76.4559C52.3754 74.0195 53.1678 71.5954 53.9539 69.1836C53.9711 69.1323 53.953 69.1118 53.8998 69.1221C53.601 69.1791 53.3642 69.2763 53.0399 69.3143C52.8477 69.3365 52.6201 69.3928 52.357 69.4833C52.0482 69.5896 51.4921 69.6892 50.6887 69.7823C50.411 69.8143 50.2204 69.9874 49.9617 70.0132C49.3072 70.0804 48.896 70.2096 48.3702 70.3082C47.8045 70.4145 47.3253 70.6105 46.7824 70.6543C46.3891 70.6861 46.0054 70.761 45.6313 70.8791C44.7843 71.1454 43.9011 71.2525 43.0428 71.4923C42.3815 71.6763 41.7568 71.7965 41.1124 71.9523C40.4905 72.1039 39.681 72.5204 38.9582 72.556C38.7487 72.5664 38.3868 72.3435 38.2808 72.1626C37.9451 71.5897 38.3302 70.9776 38.8098 70.5893C39.2413 70.2393 39.634 69.8124 40.0344 69.4827C40.3766 69.2013 40.7137 68.9143 41.0459 68.622C41.7344 68.0154 42.4887 67.3999 43.182 66.7527C43.2875 66.6541 43.4649 66.5191 43.7141 66.3478C43.9851 66.1615 44.2251 65.8881 44.4437 65.7103C44.903 65.3354 45.3588 64.9568 45.8112 64.5745C45.9754 64.4353 46.1653 64.1506 46.3099 64.0655C46.6585 63.8594 46.9401 63.6473 47.1547 63.4292C47.6192 62.9601 48.0382 62.5914 48.5126 62.1884C48.6862 62.0406 49.086 61.637 49.4036 61.4029C49.8066 61.1056 50.1619 60.7495 50.5308 60.4114C50.8713 60.0995 51.3634 59.779 51.7355 59.3988C51.8921 59.2381 52.0481 59.1561 52.2343 59.0494C52.2444 59.0436 52.253 59.0354 52.2593 59.0256C52.2656 59.0158 52.2695 59.0046 52.2706 58.993C52.2717 58.9814 52.27 58.9696 52.2657 58.9588C52.2614 58.948 52.2545 58.9383 52.2456 58.9307C51.9788 58.7006 51.7257 58.511 51.3875 58.3487C50.6559 57.9971 50.0817 57.6079 49.471 57.2366C48.8743 56.8741 48.3702 56.4985 47.8124 56.1362C47.2609 55.7766 46.6183 55.5553 46.1171 55.1038C45.9184 54.9247 45.7668 54.7572 45.5146 54.6405C44.7107 54.2685 44.1526 53.8232 43.4672 53.4021C42.9682 53.0955 42.6102 52.8236 42.184 52.52C41.7156 52.1868 41.1736 51.9218 40.6674 51.6112C40.5408 51.5336 40.3415 51.3799 40.0695 51.1501C39.7021 50.8409 39.2102 50.6221 38.8811 50.3989C38.4753 50.1223 38.14 49.8841 37.6591 49.6283C36.9837 49.2693 36.5393 48.7204 35.8214 48.3633C34.8969 47.9027 34.0181 47.1648 33.2727 46.479C32.8647 46.1036 32.4812 46.0837 32.2718 45.4904C32.2008 45.2892 32.12 45.1785 31.9926 45.0277C31.9708 45.0021 31.9577 44.972 31.9533 44.9374C31.9004 44.5047 31.5525 44.4933 31.4866 44.1472C31.2896 43.1141 31.92 42.4991 32.9348 42.638C33.3654 42.6961 33.7968 42.7104 34.229 42.6809C34.6627 42.6511 34.9809 42.6425 35.1835 42.6552C35.955 42.7053 36.701 42.9001 37.282 42.9504C38.973 43.0975 40.6254 43.3469 42.3344 43.507C44.0479 43.668 45.7881 43.9259 47.5548 44.2806C49.1246 44.5961 50.7973 44.8625 52.5729 45.0797C53.8678 45.2384 55.6157 45.7231 57.0577 45.9939C59.2501 46.4046 61.4647 46.823 63.7014 47.2491C63.7599 47.26 63.7882 47.2359 63.7863 47.1767C63.7575 46.4363 63.9647 45.5063 64.0232 44.998C64.1726 43.6955 64.3117 42.3707 64.5721 41.0856C64.7974 39.9774 64.9536 38.8905 64.9686 37.7423C64.9805 36.892 65.1606 36.1779 65.2117 35.376C65.2568 34.6656 65.2509 33.7441 65.5621 33.1019C65.6806 32.8584 65.9062 32.7152 66.1129 32.5434C66.1386 32.5216 66.1681 32.5094 66.2015 32.5068C66.8656 32.4535 66.8697 32.87 67.2413 33.2131C67.4594 33.4148 67.6154 33.5955 67.7091 33.755C68.2142 34.6118 68.7051 35.4647 69.2573 36.3024C69.9746 37.391 70.7113 38.4644 71.3172 39.6214C71.692 40.3358 72.1162 41.2808 72.5899 42.4563C72.6559 42.6223 72.6733 42.7713 72.6956 42.9441C72.708 43.0402 72.733 43.1035 72.7706 43.134C72.8295 43.1812 72.8863 43.1783 72.9407 43.1254C73.2817 42.7921 73.5395 42.3802 73.8576 42.0714C74.4823 41.4659 75.0797 40.8342 75.6496 40.1765C75.8598 39.934 76.1402 39.7891 76.3376 39.5411C76.9142 38.8176 77.5226 38.2121 78.2981 37.4908C78.3788 37.4162 78.4514 37.3224 78.5158 37.2093C78.6776 36.9263 78.9081 36.7803 79.1411 36.5941C79.3993 36.3869 79.5408 36.0994 79.7829 35.8604C80.1133 35.5324 80.3849 35.1222 80.7427 34.864C80.8924 34.7557 81.0264 34.6719 81.1414 34.5216C81.8408 33.611 82.6483 33.0107 83.3563 32.1904C83.5079 32.0141 83.6974 31.8288 83.9247 31.6346C84.325 31.2906 84.615 30.8842 84.9952 30.5307C85.2882 30.2582 85.5485 29.9473 85.842 29.6924C86.0581 29.5047 86.2275 29.3689 86.4037 29.1122C86.5807 28.854 86.8046 28.6459 87.0755 28.4879C87.3602 28.3227 87.381 28.1267 87.5889 27.9276C87.867 27.661 88.1268 27.3779 88.368 27.0782C88.5644 26.8341 88.9245 26.7126 89.0647 26.5025C89.4145 25.9761 89.8436 25.692 90.266 25.2536C90.5372 24.9712 90.8362 24.73 91.0795 24.4329C91.3115 24.1512 91.4571 23.9477 91.7242 23.8371C92.0257 23.7123 92.4099 23.237 92.652 22.998C92.9007 22.7535 93.0748 22.4706 93.2788 22.1866C93.298 22.1597 93.3245 22.139 93.3551 22.1272C93.5761 22.0404 93.775 21.9184 93.9515 21.761C94.2146 21.5276 94.8166 21.7063 95.0943 21.8155C95.6152 22.0216 95.9118 22.58 95.9253 23.1178C95.9445 23.9143 95.8454 24.7436 95.628 25.6056C95.2275 27.1922 94.9017 28.4182 94.6507 29.2836C93.0169 34.9202 91.4153 40.5259 89.8458 46.1007C89.8031 46.2523 89.8511 46.291 89.9896 46.217C90.6036 45.8923 91.2526 45.8575 91.9318 45.7018C92.0613 45.673 92.2059 45.5726 92.3588 45.544C92.7451 45.4722 93.1299 45.3931 93.5132 45.3069C93.8215 45.237 94.2559 45.2695 94.5663 45.1193C94.8118 45.0002 95.0483 44.9285 95.2758 44.9042C95.8917 44.84 96.4794 44.6935 97.1005 44.6594C97.2325 44.6518 97.4237 44.5035 97.6104 44.4788C97.9348 44.4368 98.2411 44.3705 98.5677 44.3587C99.3289 44.3324 99.8068 44.0993 100.445 44.0716C100.776 44.0571 101.059 43.9959 101.374 43.9707C101.666 43.9486 102.063 43.8677 102.419 43.8955C102.558 43.9072 102.774 43.8404 102.944 43.7722C103.409 43.5868 103.959 43.6318 104.309 43.5864C105.031 43.4913 105.755 43.4081 106.47 43.264C107.076 43.1419 107.58 43.2072 108.152 43.2122C109.343 43.2232 109.151 44.0929 108.531 44.7085C108.134 45.1025 107.832 45.5036 107.383 45.8296C107.102 46.0356 106.974 46.3204 106.701 46.5216C106.472 46.6896 106.261 46.8273 106.063 47.0424C105.781 47.3486 105.437 47.591 105.175 47.9067C105.045 48.0642 104.936 48.206 104.761 48.3258C104.504 48.5024 104.326 48.6554 104.228 48.7846C103.865 49.2625 103.457 49.6972 103.003 50.0888C102.816 50.2514 102.428 50.6772 101.84 51.3663C101.747 51.4757 101.609 51.5967 101.427 51.7293C101.066 51.9928 100.805 52.4101 100.534 52.6648C99.9721 53.1907 99.3657 53.72 98.8268 54.383C98.6926 54.5476 98.4305 54.548 98.2501 54.7401C97.9231 55.0898 97.5639 55.4032 97.1724 55.6804C96.7681 55.967 96.3925 56.1734 96.0809 56.622C96.0639 56.6475 96.0695 56.6661 96.0977 56.6777C96.3461 56.7821 96.5888 56.8768 96.8312 57.0073C97.7258 57.4851 98.5441 57.8555 99.2862 58.1184C101.04 58.7409 102.78 59.464 104.463 60.2608C104.678 60.3627 104.88 60.45 105.07 60.5228C106.44 61.0484 107.788 61.605 109.148 62.1546C109.368 62.2435 109.985 62.4735 111.001 62.8445C111.958 63.1951 112.889 63.6079 113.793 64.0828C114.101 64.2445 114.595 64.4467 115.274 64.6894C116.473 65.1172 117.527 65.59 118.643 66.0783C119.394 66.4064 120.451 66.7357 121.311 67.2392C121.521 67.3623 121.985 67.5799 122.704 67.8918C122.949 67.9984 123.424 68.1886 124.13 68.4623C125.508 68.9964 126.818 69.7188 128.126 70.2954C128.649 70.5256 129.17 70.7611 129.689 71.0019C130.334 71.3009 130.987 71.582 131.648 71.845C132.343 72.1221 132.887 72.4799 133.504 72.8631C133.875 73.0936 134.133 73.2963 134.276 73.4712C134.764 74.0664 134.809 75.066 134.165 75.6455C133.962 75.8265 133.796 76.0368 133.666 76.2763C133.054 77.3987 132 76.9463 130.999 77.0476C130.445 77.1032 129.893 77.1018 129.341 77.0432C128.979 77.0044 128.673 76.9908 128.421 77.0026C127.662 77.0375 127.086 77.0674 126.192 76.9457C125.372 76.8343 124.633 76.8072 123.845 76.7885C123.311 76.7763 122.734 76.7425 122.115 76.6872C121.119 76.5973 120.117 76.561 118.98 76.3956C118.05 76.2603 117.113 76.2001 116.171 76.2151C115.957 76.2184 115.524 76.1616 114.871 76.0448C113.876 75.8662 112.942 75.7949 111.968 75.7099C111.162 75.6393 110.387 75.4469 109.591 75.4139C108.12 75.3532 106.659 75.1895 105.208 74.9229C104.662 74.8231 103.552 74.7235 101.877 74.624C101.555 74.6045 101.211 74.5651 100.844 74.5057C99.5891 74.3036 98.3406 74.1778 97.0796 74.0374C96.7835 74.0045 96.1397 73.8927 95.1484 73.7021C94.9019 73.6545 94.4562 73.6145 93.8113 73.5823C93.2079 73.5529 92.3219 73.4479 91.1533 73.2671C91.0839 73.256 91.0744 73.275 91.1247 73.3239ZM124.052 72.8386C124.055 72.8264 124.05 72.8182 124.037 72.8142C123.01 72.4946 122.024 72.0788 121.08 71.5666C120.505 71.2538 119.864 70.9951 119.245 70.7677C117.775 70.2287 116.368 69.5682 114.928 68.9601C113.968 68.5546 113.135 68.1032 112.008 67.5966C111.736 67.4737 111.21 67.2579 110.432 66.9491C109.381 66.5316 108.364 66.039 107.383 65.4712C107.174 65.3495 106.81 65.201 106.293 65.0256C105.859 64.8786 105.492 64.7416 105.192 64.6148C104.008 64.1175 102.828 63.6303 101.627 63.1745C101.213 63.0181 100.739 62.8159 100.204 62.5681C99.0934 62.0536 97.4504 61.4026 95.9265 60.8725C94.511 60.3806 93.1109 59.8315 91.7645 59.1699C91.1711 58.8789 90.305 58.6284 89.8382 58.4572C88.0144 57.7895 86.9824 57.3523 85.5616 56.7772C85.1573 56.6136 84.6206 56.4626 84.1631 56.2643C83.6753 56.0528 83.6759 55.6651 83.3366 55.3501C83.1473 55.1745 83.0643 54.9762 83.072 54.745C83.0845 54.3649 83.0846 53.9853 83.0722 53.6061C83.057 53.1129 83.1625 52.4163 83.3886 51.5163C83.5843 50.7378 83.8906 49.7027 84.3076 48.4112C85.0751 46.036 85.9025 43.6697 86.611 41.2777C87.4686 38.385 88.1042 36.3719 88.5178 35.2384C89.1974 33.3766 89.8481 31.5046 90.4697 29.6225C90.4982 29.5367 90.5253 29.4494 90.5511 29.3608C90.5596 29.3317 90.5508 29.325 90.5248 29.3405C90.1857 29.5444 89.909 29.7179 89.6943 30.0799C89.5346 30.3513 89.2485 30.6092 89.1091 30.7745C88.937 30.9788 88.7658 31.1836 88.5955 31.389C88.5093 31.4928 88.3349 31.5863 88.2264 31.7199C88.0015 31.9943 87.7825 32.2119 87.565 32.5271C87.3664 32.815 87.1225 33.0594 86.8334 33.2602C86.5944 33.4265 86.5017 33.7076 86.2963 33.9125C85.9858 34.2236 85.8015 34.4352 85.7435 34.5472C85.6127 34.8014 85.4958 34.9499 85.3929 34.9926C84.9143 35.1938 84.7472 35.6801 84.3957 36.0332C83.7368 36.695 83.1515 37.3211 82.64 37.9112C82.5361 38.0314 82.4234 38.1912 82.3018 38.3906C82.2841 38.4193 82.2587 38.4426 82.2285 38.4579C81.9074 38.6175 81.6917 38.7961 81.4519 39.1678C81.237 39.5001 80.943 39.7037 80.6937 40.0115C80.5558 40.1826 80.4205 40.322 80.2879 40.4298C79.7293 40.8838 79.4673 41.4491 78.9162 41.8714C78.8106 41.9523 78.7215 42.0352 78.649 42.1201C78.1467 42.7039 77.6507 43.3518 77.0815 43.8685C76.5901 44.3161 76.2504 44.8657 75.7463 45.2842C75.6277 45.3834 75.502 45.5138 75.3693 45.6754C75.2534 45.8176 75.0994 45.9786 74.9073 46.1584C74.5723 46.4729 74.4187 46.9434 73.9925 47.2201C73.8546 47.3094 73.7495 47.4013 73.6771 47.4958C73.3152 47.963 72.9215 48.4026 72.4959 48.8145C72.387 48.9204 72.2769 49.026 72.1654 49.1312C71.6766 49.5958 71.1719 50.181 70.6485 50.5115C70.3102 50.7251 69.9989 50.8569 69.7146 50.907C69.3332 50.9747 68.8721 50.6945 68.4588 50.6595C66.6267 50.5043 64.7999 50.3484 62.993 49.9921C62.4118 49.8773 61.7274 49.8157 61.1376 49.7979C60.3735 49.7753 59.616 49.6958 58.8653 49.5594C58.1341 49.4263 57.6156 49.3412 57.3096 49.3043C55.9723 49.1434 54.6373 49.0006 53.3127 48.7501C52.9113 48.6746 52.4796 48.6217 52.0177 48.5914C50.7606 48.509 49.5139 48.3513 48.2774 48.1182C46.1937 47.7257 44.1002 47.4155 42.008 47.0738C40.9531 46.9017 39.9244 46.6619 38.9029 46.426C38.6459 46.3667 38.636 46.3948 38.8732 46.5102C38.9672 46.5565 39.0823 46.631 39.2185 46.7337C39.6101 47.0289 40.0563 47.2621 40.4774 47.512C40.7001 47.6433 40.8689 47.8267 41.0614 47.9981C41.4293 48.3248 41.8978 48.566 42.3255 48.8106C42.9622 49.1766 43.5235 49.6709 44.1517 50.0725C44.2744 50.1518 44.5134 50.3178 44.8686 50.5706C45.4676 50.9971 46.134 51.2289 46.6534 51.7845C46.9556 52.108 47.3941 52.2092 47.7436 52.4706C48.4461 52.9956 49.1302 53.3262 49.7063 53.8572C49.9611 54.0926 50.2792 54.3095 50.6606 54.5079C51.0575 54.7145 51.4823 55.0286 51.935 55.45C52.0022 55.5124 52.0801 55.5704 52.1687 55.6242C52.895 56.0644 53.5079 56.6451 54.2861 57.0061C54.3936 57.0554 54.4597 57.0966 54.4842 57.1298C55.0884 57.9456 56.1132 58.211 56.8094 58.9696C56.9505 59.123 57.1597 59.1862 57.3254 59.3278C57.7198 59.6662 58.1251 59.9904 58.5414 60.3004C58.9044 60.5703 59.115 60.8587 59.1733 61.1656C59.2535 61.5882 59.1557 62.3428 59.0569 62.8566C58.8306 64.0295 58.5462 65.1887 58.2038 66.3345C56.7539 71.1803 55.2808 76.025 53.9042 80.8914C52.8005 84.794 51.5572 89.0229 50.1743 93.5779C49.5474 95.6428 49.0088 97.3575 48.5585 98.722C48.0361 100.305 47.0022 103.832 45.4568 109.301C44.8251 111.536 44.1358 113.758 43.4585 115.98C43.3414 116.363 43.2181 116.717 43.0884 117.04C43.0405 117.16 43.0553 117.169 43.1328 117.065C43.3691 116.749 43.573 116.428 43.7443 116.105C43.833 115.938 43.9525 115.859 44.0876 115.74C44.603 115.287 44.9366 114.584 45.3573 114.023C45.5007 113.831 45.6709 113.588 45.868 113.293C45.9976 113.099 46.269 112.888 46.4327 112.652C46.7097 112.252 46.9745 111.844 47.227 111.429C47.4213 111.109 47.814 110.827 48.0841 110.418C48.4515 109.861 48.8722 109.352 49.2256 108.782C49.3907 108.517 49.5994 108.368 49.8129 108.152C50.2736 107.685 50.6065 106.966 50.9808 106.513C51.0941 106.376 51.2704 106.329 51.3886 106.129C51.6991 105.6 52.1219 105.168 52.4315 104.666C52.8235 104.028 53.3207 103.73 53.6561 103.151C53.8637 102.792 54.062 102.564 54.3036 102.273C54.4641 102.079 54.5973 101.815 54.7852 101.606C55.1833 101.163 55.5482 100.722 55.8478 100.226C56.186 99.6668 56.6638 99.2852 57.0126 98.7585C57.2491 98.4003 57.5056 98.0569 57.7819 97.7285C57.9932 97.4781 58.1115 97.1435 58.3599 96.9347C58.5491 96.7746 58.6966 96.6555 58.8384 96.4397C59.1059 96.0318 59.3894 95.636 59.6887 95.2523C59.8195 95.0848 60.064 94.9057 60.1559 94.7574C60.3438 94.4557 60.5558 94.1724 60.7919 93.9076C61.0146 93.6571 61.1599 93.3973 61.3423 93.1289C61.439 92.987 61.5952 92.8089 61.811 92.5945C62.2318 92.1771 62.4688 91.6747 62.853 91.2415C63.1495 90.9065 63.351 90.5245 63.6835 90.2196C64.1274 89.8116 64.5103 89.2572 64.7938 88.7836C64.9576 88.5083 65.1611 88.3561 65.3822 88.1421C65.632 87.901 65.7711 87.5423 65.9964 87.2629C66.4663 86.6776 66.8505 86.1031 67.4158 85.5403C67.7576 85.2 67.9555 84.767 68.2781 84.4072C68.9044 83.7083 69.4922 83.0001 70.0179 82.222C70.21 81.9378 70.4514 81.6979 70.7419 81.5022C70.8641 81.4203 71.0319 81.0232 71.1609 80.8664C71.6895 80.2191 72.2204 79.559 72.7995 78.9559C72.9964 78.7508 73.1178 78.6005 73.1639 78.5051C73.451 77.9107 73.9007 77.7334 74.2414 77.2486C74.6081 76.7277 74.9962 76.2382 75.3873 75.7372C75.6553 75.3935 76.0409 75.1346 76.302 74.7256C76.4423 74.5074 76.5706 74.3368 76.6868 74.2137C77.4727 73.3812 78.1754 72.4824 78.7949 71.5172C78.8239 71.4725 78.9046 71.4095 79.0369 71.3283C79.3072 71.1633 79.5052 70.8101 79.6684 70.5448C79.8264 70.2873 80.0547 70.1459 80.2529 69.9176C80.497 69.6371 80.828 69.8107 81.0737 69.8029C81.4924 69.7882 81.9116 69.7729 82.3313 69.7571C82.9889 69.7318 83.6542 69.8803 84.3368 69.8801C84.8869 69.8794 85.2586 69.8859 85.4521 69.8995C86.2254 69.9543 86.8767 70.006 87.7455 70.1283C88.5564 70.2439 89.3716 70.2846 90.1912 70.2504C90.4728 70.2386 90.7463 70.2525 91.012 70.2923C91.8072 70.4102 92.6055 70.4215 93.4007 70.4555C94.2069 70.4904 95.1181 70.6721 96.0278 70.5956C96.5681 70.55 97.1665 70.608 97.7101 70.6913C98.6462 70.8336 99.5706 70.8398 100.5 70.9087C101.108 70.9542 101.711 70.9811 102.31 70.9895C104.047 71.0148 105.498 71.373 107.129 71.3045C107.404 71.2929 107.657 71.3038 107.89 71.3375C108.526 71.4292 109.136 71.5251 109.785 71.5648C110.445 71.6059 111.105 71.6515 111.765 71.7014C112.081 71.7257 112.404 71.7867 112.707 71.7973C113.305 71.8184 113.903 71.8463 114.501 71.881C115.774 71.954 117.314 72.2561 118.528 72.258C119.146 72.2585 119.684 72.2915 120.142 72.3569C121.438 72.5393 122.738 72.6329 124.028 72.8548C124.041 72.8574 124.048 72.8523 124.052 72.8396L124.052 72.8386Z" fill="#FF9700"/>
</g>
<defs>
<clipPath id="clip0_754_1283">
<rect width="126" height="126" fill="white" transform="translate(33.4531 0.841064) rotate(15)"/>
</clipPath>
</defs>
</svg>
