<svg width="177" height="178" viewBox="0 0 177 178" fill="none" xmlns="http://www.w3.org/2000/svg">
<g clip-path="url(#clip0_757_1428)">
<path d="M101.119 20.9288C104.064 21.1902 106.828 22.6043 108.982 24.5432C109.946 25.41 110.684 26.1964 111.197 26.9025C111.896 27.8644 112.582 28.8348 113.132 29.8977C114.382 32.3078 115.231 34.7103 115.765 37.5937C115.901 38.3312 116.003 39.0118 116.069 39.6357C116.529 43.9759 116.197 48.2711 115.074 52.5213C114.435 54.9379 113.702 57.0046 112.875 58.7213C111.751 61.0518 110.301 63.4116 108.576 65.341C107.969 66.0207 107.483 66.731 106.9 67.3341C106.5 67.7502 106.132 68.1849 105.696 68.5488C104.813 69.2861 103.908 69.997 102.981 70.6817C102.964 70.6937 102.944 70.6999 102.924 70.6992C102.904 70.6984 102.885 70.6908 102.869 70.6776C102.711 70.5362 102.534 70.4109 102.339 70.3016C100.351 69.1906 98.1836 68.3231 95.9439 67.8897C93.9062 67.4948 92.024 67.3916 90.2972 67.58C89.9731 67.6157 89.3058 67.7159 88.2954 67.8807C87.894 67.9459 86.5041 66.7887 86.1323 66.5169C85.7376 66.2288 85.4061 65.9459 85.1379 65.6684C83.4017 63.8735 82.174 61.7027 81.2586 59.3916C80.0134 56.2492 79.3317 52.3421 79.3837 48.4301C79.4307 44.8472 79.9947 41.3543 81.0757 37.9513C81.395 36.9487 81.8233 35.9426 82.2483 34.9526C83.9059 31.0783 86.2501 27.5982 89.5845 24.8343C92.8317 22.1441 96.8871 20.5553 101.119 20.9288Z" fill="#0000FF"/>
<path d="M154.803 75.128C152.162 78.8477 148.647 82.0263 144.801 84.4985C140.639 87.1729 135.776 88.9196 130.896 89.7093C130.072 89.8428 128.897 89.9461 127.372 90.0193C123.241 90.2183 118.888 89.6074 115.176 87.6943C114.855 87.5278 114.52 87.3075 114.173 87.0334C113.636 86.6084 113.093 86.1914 112.546 85.7823C112.39 85.665 112.295 85.5431 112.269 85.3368C111.843 81.9075 110.614 78.8093 108.581 75.9958C108.221 75.496 108.398 74.7748 108.425 74.1858C108.462 73.4249 108.597 72.5666 108.831 71.611C108.994 70.9463 109.104 70.0262 109.338 69.2916C109.637 68.3506 109.959 67.5702 110.305 66.9503C110.757 66.1397 111.204 65.2877 111.718 64.5556C114.675 60.3517 118.822 57.0035 123.335 54.601C125.122 53.65 126.722 52.9737 128.465 52.3377C130.492 51.599 132.241 51.1728 134.751 50.6996C135.867 50.4894 137.331 50.3592 139.144 50.309C144.598 50.1564 150.43 51.4326 154.515 55.2853C160.372 60.8076 158.993 69.2292 154.803 75.128Z" fill="#0000FF"/>
<path d="M77.7476 73.6743C75.2533 76.2737 73.663 79.3289 72.9559 82.8171C72.9327 82.9306 72.8542 83.0041 72.7203 83.0377C71.6713 83.3004 70.5101 83.6768 69.5829 83.8648C65.6215 84.6647 61.3036 84.059 57.5292 82.8079C55.2929 82.0659 53.06 81.0707 50.9791 79.8141C49.7647 79.0817 48.9377 78.5514 48.4981 78.2231C47.6901 77.6218 46.8702 77.0376 46.1063 76.3792C45.803 76.1173 45.5001 75.8551 45.1975 75.5926C43.7637 74.3498 42.4916 73.0445 41.3814 71.6768C39.5822 69.459 38.0172 66.9046 36.9309 64.2975C34.819 59.2303 34.1099 53.2047 37.3115 48.3149C39.2382 45.3706 42.4933 43.4156 45.8829 42.6752C51.9812 41.3422 58.2285 42.906 63.5913 45.767C64.6299 46.3206 65.3472 46.7259 65.7431 46.9829C67.2547 47.9621 68.772 48.9452 70.149 50.112C70.8915 50.7418 71.3699 51.152 71.5843 51.3429C72.6258 52.268 73.7044 53.3845 74.8201 54.6925C76.2341 56.3514 77.4189 58.0327 78.3744 59.7365C79.2679 61.3286 80.0246 63.0705 80.6443 64.962C80.908 65.7672 81.104 66.4993 81.2323 67.1582C81.3059 67.5389 81.4804 67.8584 81.5716 68.2261C81.7364 68.8877 81.9259 69.5422 82.1401 70.1896C82.1517 70.2241 82.1413 70.2493 82.109 70.2654C81.9766 70.3333 81.8398 70.3963 81.7196 70.4807C80.8211 71.1115 79.8805 71.6964 79.0652 72.441C78.6177 72.8491 78.1445 73.2618 77.7476 73.6743Z" fill="#0000FF"/>
<path d="M98.644 72.9303C99.6056 73.328 100.809 74.0323 101.64 74.66C107.134 78.8051 109.232 86.2228 106.54 92.5714C106.193 93.3903 105.711 94.2944 105.248 95.3799C105.223 95.4395 105.146 95.5546 105.016 95.7252C103.362 97.9056 101.321 99.5524 98.8942 100.666C91.7186 103.956 83.3349 101.29 79.361 94.4939C79.006 93.8873 78.6071 93.1061 78.3601 92.4123C78.0418 91.521 77.8514 90.9394 77.7891 90.6676C77.406 89.0085 77.2627 87.4204 77.3589 85.9034C77.5405 83.0236 78.7588 79.9147 80.5943 77.5791C82.5315 75.1156 85.1389 73.2881 88.1339 72.3728C91.6464 71.3004 95.1497 71.4862 98.644 72.9303ZM97.3433 89.6115C97.237 89.6708 97.2028 89.7711 97.2408 89.9126C97.2446 89.9272 97.2537 89.94 97.2663 89.9484C97.2789 89.9568 97.2941 89.9604 97.3091 89.9583C97.3922 89.9478 97.4323 89.9099 97.47 89.8258C97.513 89.7292 97.5841 89.6563 97.6833 89.6071C97.7058 89.5965 97.7078 89.5829 97.6895 89.5662C97.6318 89.5145 97.5745 89.4993 97.5177 89.5207C97.4964 89.528 97.4383 89.5582 97.3433 89.6115Z" fill="#0000FF"/>
<path d="M123.005 129.85C118.373 127.468 114.269 124.354 110.913 120.362C109.571 118.767 108.406 117.05 107.416 115.214C107.112 114.649 106.824 114.076 106.552 113.495C105.907 112.114 105.399 110.815 105.027 109.599C104.684 108.478 104.615 107.22 104.496 106.035C104.41 105.181 104.402 104.151 104.3 103.212C104.298 103.195 104.301 103.179 104.308 103.164C104.314 103.148 104.325 103.135 104.339 103.126C106.47 101.595 108.205 99.7056 109.544 97.4571C110.06 96.5897 110.517 95.6916 110.916 94.7627C110.991 94.5861 111.092 94.502 111.278 94.4254C112.419 93.9478 113.587 93.6768 114.768 93.297C117.57 92.3956 120.57 92.4782 123.455 93.0125C125.334 93.3599 127.045 93.8437 128.59 94.4641C128.953 94.6097 129.719 94.9349 130.886 95.4396C131.475 95.6942 132.536 96.2828 134.067 97.2054C137.431 99.2314 140.314 101.623 142.717 104.379C144.382 106.288 145.766 108.225 146.868 110.189C147.855 111.948 148.599 113.661 149.099 115.328C149.334 116.113 149.544 117.121 149.727 118.354C149.989 120.105 149.919 121.929 149.517 123.827C148.291 129.614 143.192 132.804 137.593 133.181C135.243 133.34 132.871 133.188 130.578 132.641C127.909 132.004 125.385 131.074 123.005 129.85Z" fill="#0000FF"/>
<path d="M76.4346 108.119C76.0601 108.788 75.6507 109.435 75.2064 110.059C74.2666 111.38 73.4154 112.406 72.6529 113.138C72.1928 113.579 71.7252 114.013 71.25 114.439C65.9738 119.174 59.0669 122.057 52.0252 122.976C51.2519 123.077 50.5668 123.143 49.97 123.172C45.2029 123.411 40.0965 122.799 35.8291 120.53C34.2206 119.675 32.6211 118.55 31.3463 117.134C29.401 114.973 28.2787 112.489 27.9794 109.68C27.7154 107.196 28.3497 104.444 29.4269 102.145C30.1656 100.573 30.8103 99.5446 31.8176 98.173C32.3659 97.426 33.0166 96.6787 33.6619 96.0026C34.6895 94.9278 35.7884 93.9319 36.9588 93.0149C37.5835 92.5247 38.258 92.0368 38.9359 91.6099C39.3152 91.3712 39.6757 91.1046 40.0589 90.8884C40.6054 90.5786 41.1686 90.2275 41.6872 89.9512C43.7076 88.8712 45.4827 88.0969 47.4517 87.4791C47.887 87.3424 48.3229 87.2068 48.7593 87.0724C49.9076 86.719 51.0921 86.4724 52.2632 86.204C52.7137 86.1009 53.5858 85.96 54.8795 85.7812C57.1774 85.4632 59.5307 85.4448 61.8432 85.5801C64.3309 85.7239 66.7826 86.2475 69.1334 87.0756C69.3861 87.1643 69.6399 87.2496 69.8949 87.3316C70.8155 87.6271 71.6045 88.188 72.5281 88.4985C72.5615 88.5098 72.5911 88.5302 72.6134 88.5573C72.6358 88.5845 72.65 88.6174 72.6544 88.6521C72.8997 90.5433 73.2321 92.3128 73.9691 94.1273C74.7879 96.1447 75.9125 97.9841 77.3428 99.6454C77.6452 99.997 77.9518 100.353 78.2625 100.715C78.283 100.739 78.298 100.767 78.3062 100.797C78.3145 100.828 78.3159 100.86 78.3102 100.891C77.8607 103.336 77.656 105.938 76.4346 108.119Z" fill="#0000FF"/>
<path d="M102.175 144.87C101.098 146.935 99.7946 148.845 98.2656 150.6C93.7404 155.794 86.7278 159.203 79.8771 156.39C76.203 154.88 73.075 151.766 71.1882 148.194C69.4996 144.998 68.4532 141.598 68.0489 137.993C67.8078 135.837 67.6473 134.112 67.7478 132.08C67.9277 128.432 68.5746 125.049 69.6883 121.929C70.3611 120.044 70.9368 118.642 71.4155 117.723C72.8505 114.966 74.2863 112.699 76.3159 110.532C78.0324 108.699 80.0546 107.007 82.288 106.017C82.8695 105.76 83.4031 105.488 83.9645 105.225C84.2891 105.073 84.5292 105.095 84.8808 105.236C86.3438 105.824 87.7917 106.245 89.2247 106.498C90.1961 106.671 91.3255 106.729 92.3223 106.76C93.0966 106.784 93.847 106.55 94.5237 106.759C95.4089 107.032 96.2649 107.586 96.8699 108.022C97.05 108.151 97.2025 108.353 97.4146 108.492C97.8369 108.768 98.1888 109.061 98.6446 109.343C98.9887 109.556 99.3051 109.807 99.594 110.095C100.727 111.229 101.679 112.447 102.448 113.751C103.084 114.83 103.647 116.023 104.136 117.329C105.027 119.708 105.596 121.992 105.841 124.18C105.952 125.174 106.087 126.658 106.103 127.799C106.162 131.966 105.554 136.317 104.18 140.196C103.778 141.331 103.229 142.65 102.534 144.152C102.45 144.333 102.33 144.573 102.175 144.87Z" fill="#0000FF"/>
</g>
<defs>
<clipPath id="clip0_757_1428">
<rect width="155.614" height="155.61" fill="white" transform="matrix(0.988979 0.148058 -0.148057 0.988979 23.0391 0.15918)"/>
</clipPath>
</defs>
</svg>
