<svg width="280" height="82" viewBox="0 0 280 82" fill="none" xmlns="http://www.w3.org/2000/svg">
<mask id="path-1-outside-1_2747_228" maskUnits="userSpaceOnUse" x="0.03125" y="0.354492" width="280" height="82" fill="black">
<rect fill="white" x="0.03125" y="0.354492" width="280" height="82"/>
<path d="M30.5312 8.35449C41.7552 8.35449 49.6198 16.4404 54.125 32.6123C54.5938 35.0081 54.8281 37.3258 54.8281 39.5654C54.8281 49.4873 49.6328 57.43 39.2422 63.3936C34.5026 66.5706 28.4479 68.1592 21.0781 68.1592C18.9167 68.1592 17.8359 66.7139 17.8359 63.8232C17.3411 60.3076 14.6719 47.4561 9.82812 25.2686C8.63021 17.5602 8.03125 13.2243 8.03125 12.2607H13.8516C14.5547 12.2607 18.6693 11.1019 26.1953 8.78418L30.5312 8.35449ZM23.6172 21.3623C23.6172 26.7008 25.1927 36.3753 28.3438 50.3857H32.7188C38.9948 47.5993 42.1328 42.6904 42.1328 35.6592C42.1328 32.2998 39.9583 28.2503 35.6094 23.5107C32.4583 22.0785 30.401 21.3623 29.4375 21.3623H23.6172Z"/>
<path d="M60.375 10.3467C65.0365 11.4925 67.3672 14.1618 67.3672 18.3545C67.3672 21.6618 65.2057 23.7712 60.8828 24.6826C55.8828 23.7451 53.3828 21.4404 53.3828 17.7686V17.2217C53.3828 13.5238 55.7135 11.2321 60.375 10.3467ZM55.375 26.9482C57.875 28.4847 61.7031 30.2165 66.8594 32.1436C68.1875 36.5186 68.8516 40.529 68.8516 44.1748C68.8516 46.154 68.526 51.1279 67.875 59.0967C67.875 63.3675 68.8776 66.805 70.8828 69.4092C70.5443 69.4092 70.375 69.6045 70.375 69.9951L58.8906 65.4248C57.875 63.2894 57.3672 61.18 57.3672 59.0967C57.7057 46.8571 57.875 39.7868 57.875 37.8857C57.875 35.516 56.8724 31.8701 54.8672 26.9482H55.375Z"/>
<path d="M82.1328 10.8545C84.1641 10.8545 88.2005 12.9378 94.2422 17.1045C97.4714 17.9378 99.0859 19.7087 99.0859 22.417L100.297 32.6514H99.8672C97.2891 32.6514 91.651 29.6826 82.9531 23.7451H81.3125C80.2448 24.2399 79.7109 25.2816 79.7109 26.8701C79.7109 31.0107 87.1068 35.1514 101.898 39.292C110.779 43.641 115.219 49.7217 115.219 57.5342V60.6201C115.219 65.9326 111.456 68.9014 103.93 69.5264C100.544 69.5264 94.0859 67.7425 84.5547 64.1748H84.1641C83.513 64.1748 81.4948 64.3311 78.1094 64.6436L77.6797 63.7451V57.9639C77.6797 56.4274 77.5495 53.9144 77.2891 50.4248C78.1745 49.8258 78.9818 49.5264 79.7109 49.5264H80.1016C82.6016 49.5264 88.526 51.7529 97.875 56.2061H100.297C100.505 56.2061 100.909 55.7633 101.508 54.8779C101.508 51.5706 95.4531 48.3024 83.3438 45.0732C77.5365 42.4951 72.9661 37.9118 69.6328 31.3232C68.5391 27.8337 67.862 25.0212 67.6016 22.8857C67.6016 16.6357 71.9115 12.6253 80.5312 10.8545H82.1328Z"/>
<path d="M118.188 10.0342H120.141C129.073 10.0342 137.602 15.3857 145.727 26.0889C147.523 28.8753 148.448 31.3363 148.5 33.4717V33.9014H148.109C142.589 32.5212 137.471 31.5576 132.758 31.0107C132.758 28.7191 130.648 25.1514 126.43 20.3076L125.648 19.917H124.086C120.674 20.3857 118.969 21.8831 118.969 24.4092C118.969 25.9456 121.195 30.2035 125.648 37.1826C126.43 39.0316 126.82 40.542 126.82 41.7139V48.667C126.82 51.6357 129.06 53.5628 133.539 54.4482C135.362 54.4482 136.273 53.3545 136.273 51.167C136.273 50.3337 135.492 47.3128 133.93 42.1045H134.32L148.891 44.9951C149.229 45.3337 149.49 47.2477 149.672 50.7373C148.865 61.154 145.714 66.3623 140.219 66.3623H134.711C124.06 66.3623 116.182 62.2477 111.078 54.0186C110.557 52.6123 110.297 51.5186 110.297 50.7373C110.297 49.8258 110.427 45.8545 110.688 38.8232C110.688 36.5055 109.112 32.6644 105.961 27.2998C105.44 26.3102 105.18 25.2165 105.18 24.0186V23.1982C105.18 16.6097 109.516 12.2217 118.188 10.0342Z"/>
<path d="M166.898 10.1904C177.497 10.1904 184.919 19.6956 189.164 38.7061C189.633 40.3467 189.867 42.6774 189.867 45.6982C189.867 57.8076 184.763 64.7607 174.555 66.5576H173.148C162.784 66.5576 155.362 56.818 150.883 37.3389V30.3857C153.201 16.9222 157.602 10.1904 164.086 10.1904H166.898ZM164.086 33.1592C166.404 46.154 170.128 52.6514 175.258 52.6514C176.638 50.9587 177.328 49.3311 177.328 47.7686V45.6982C177.328 38.0941 174.307 32.0524 168.266 27.5732H166.898C165.492 27.5732 164.555 29.4352 164.086 33.1592ZM167.602 11.5967C173.982 11.5967 180.245 17.8597 186.391 30.3857C188.24 36.7399 189.164 42.0654 189.164 46.3623C189.164 57.7946 184.06 64.5264 173.852 66.5576C164.06 66.5576 156.872 57.7425 152.289 40.1123C152.289 39.6436 151.82 39.4092 150.883 39.4092V28.9795C151.977 28.9795 153.37 25.5029 155.062 18.5498C158.37 13.9144 162.549 11.5967 167.602 11.5967ZM163.422 33.8623C165.714 47.2998 169.19 54.0186 173.852 54.0186H175.258C177.107 53.2633 178.031 51.6488 178.031 49.1748V45.6982C178.031 38.0941 175.01 32.0524 168.969 27.5732H166.195C164.346 28.1982 163.422 30.2946 163.422 33.8623Z"/>
<path d="M184.984 8.90137H188.07C205.935 8.90137 217.771 13.3936 223.578 22.3779C224.802 25.1383 225.414 27.3779 225.414 29.0967V33.3936C225.414 38.654 222.354 42.3258 216.234 44.4092C215.818 44.4092 215.609 44.6175 215.609 45.0342C216.495 46.3363 221.807 50.8285 231.547 58.5107C226.391 65.0472 223.526 68.3154 222.953 68.3154C221.781 68.029 216.273 62.7165 206.43 52.3779V53.0029C207.237 59.305 208.253 64.8128 209.477 69.5264C207.966 69.5264 202.458 67.8988 192.953 64.6436L193.578 60.3467V58.5107C193.578 49.1097 190.518 34.2008 184.398 13.7842L183.773 9.52637L184.984 8.90137ZM199.086 20.542V21.167C200.727 24.5003 202.354 29.7998 203.969 37.0654H206.43C210.518 36.779 212.562 35.555 212.562 33.3936C212.562 26.8571 208.07 22.5732 199.086 20.542Z"/>
<path d="M247.016 8.35449C258.24 8.35449 266.104 16.4404 270.609 32.6123C271.078 35.0081 271.312 37.3258 271.312 39.5654C271.312 49.4873 266.117 57.43 255.727 63.3936C250.987 66.5706 244.932 68.1592 237.562 68.1592C235.401 68.1592 234.32 66.7139 234.32 63.8232C233.826 60.3076 231.156 47.4561 226.312 25.2686C225.115 17.5602 224.516 13.2243 224.516 12.2607H230.336C231.039 12.2607 235.154 11.1019 242.68 8.78418L247.016 8.35449ZM240.102 21.3623C240.102 26.7008 241.677 36.3753 244.828 50.3857H249.203C255.479 47.5993 258.617 42.6904 258.617 35.6592C258.617 32.2998 256.443 28.2503 252.094 23.5107C248.943 22.0785 246.885 21.3623 245.922 21.3623H240.102Z"/>
</mask>
<path d="M30.5312 8.35449C41.7552 8.35449 49.6198 16.4404 54.125 32.6123C54.5938 35.0081 54.8281 37.3258 54.8281 39.5654C54.8281 49.4873 49.6328 57.43 39.2422 63.3936C34.5026 66.5706 28.4479 68.1592 21.0781 68.1592C18.9167 68.1592 17.8359 66.7139 17.8359 63.8232C17.3411 60.3076 14.6719 47.4561 9.82812 25.2686C8.63021 17.5602 8.03125 13.2243 8.03125 12.2607H13.8516C14.5547 12.2607 18.6693 11.1019 26.1953 8.78418L30.5312 8.35449ZM23.6172 21.3623C23.6172 26.7008 25.1927 36.3753 28.3438 50.3857H32.7188C38.9948 47.5993 42.1328 42.6904 42.1328 35.6592C42.1328 32.2998 39.9583 28.2503 35.6094 23.5107C32.4583 22.0785 30.401 21.3623 29.4375 21.3623H23.6172Z" fill="url(#paint0_linear_2747_228)"/>
<path d="M60.375 10.3467C65.0365 11.4925 67.3672 14.1618 67.3672 18.3545C67.3672 21.6618 65.2057 23.7712 60.8828 24.6826C55.8828 23.7451 53.3828 21.4404 53.3828 17.7686V17.2217C53.3828 13.5238 55.7135 11.2321 60.375 10.3467ZM55.375 26.9482C57.875 28.4847 61.7031 30.2165 66.8594 32.1436C68.1875 36.5186 68.8516 40.529 68.8516 44.1748C68.8516 46.154 68.526 51.1279 67.875 59.0967C67.875 63.3675 68.8776 66.805 70.8828 69.4092C70.5443 69.4092 70.375 69.6045 70.375 69.9951L58.8906 65.4248C57.875 63.2894 57.3672 61.18 57.3672 59.0967C57.7057 46.8571 57.875 39.7868 57.875 37.8857C57.875 35.516 56.8724 31.8701 54.8672 26.9482H55.375Z" fill="url(#paint1_linear_2747_228)"/>
<path d="M82.1328 10.8545C84.1641 10.8545 88.2005 12.9378 94.2422 17.1045C97.4714 17.9378 99.0859 19.7087 99.0859 22.417L100.297 32.6514H99.8672C97.2891 32.6514 91.651 29.6826 82.9531 23.7451H81.3125C80.2448 24.2399 79.7109 25.2816 79.7109 26.8701C79.7109 31.0107 87.1068 35.1514 101.898 39.292C110.779 43.641 115.219 49.7217 115.219 57.5342V60.6201C115.219 65.9326 111.456 68.9014 103.93 69.5264C100.544 69.5264 94.0859 67.7425 84.5547 64.1748H84.1641C83.513 64.1748 81.4948 64.3311 78.1094 64.6436L77.6797 63.7451V57.9639C77.6797 56.4274 77.5495 53.9144 77.2891 50.4248C78.1745 49.8258 78.9818 49.5264 79.7109 49.5264H80.1016C82.6016 49.5264 88.526 51.7529 97.875 56.2061H100.297C100.505 56.2061 100.909 55.7633 101.508 54.8779C101.508 51.5706 95.4531 48.3024 83.3438 45.0732C77.5365 42.4951 72.9661 37.9118 69.6328 31.3232C68.5391 27.8337 67.862 25.0212 67.6016 22.8857C67.6016 16.6357 71.9115 12.6253 80.5312 10.8545H82.1328Z" fill="url(#paint2_linear_2747_228)"/>
<path d="M118.188 10.0342H120.141C129.073 10.0342 137.602 15.3857 145.727 26.0889C147.523 28.8753 148.448 31.3363 148.5 33.4717V33.9014H148.109C142.589 32.5212 137.471 31.5576 132.758 31.0107C132.758 28.7191 130.648 25.1514 126.43 20.3076L125.648 19.917H124.086C120.674 20.3857 118.969 21.8831 118.969 24.4092C118.969 25.9456 121.195 30.2035 125.648 37.1826C126.43 39.0316 126.82 40.542 126.82 41.7139V48.667C126.82 51.6357 129.06 53.5628 133.539 54.4482C135.362 54.4482 136.273 53.3545 136.273 51.167C136.273 50.3337 135.492 47.3128 133.93 42.1045H134.32L148.891 44.9951C149.229 45.3337 149.49 47.2477 149.672 50.7373C148.865 61.154 145.714 66.3623 140.219 66.3623H134.711C124.06 66.3623 116.182 62.2477 111.078 54.0186C110.557 52.6123 110.297 51.5186 110.297 50.7373C110.297 49.8258 110.427 45.8545 110.688 38.8232C110.688 36.5055 109.112 32.6644 105.961 27.2998C105.44 26.3102 105.18 25.2165 105.18 24.0186V23.1982C105.18 16.6097 109.516 12.2217 118.188 10.0342Z" fill="url(#paint3_linear_2747_228)"/>
<path d="M166.898 10.1904C177.497 10.1904 184.919 19.6956 189.164 38.7061C189.633 40.3467 189.867 42.6774 189.867 45.6982C189.867 57.8076 184.763 64.7607 174.555 66.5576H173.148C162.784 66.5576 155.362 56.818 150.883 37.3389V30.3857C153.201 16.9222 157.602 10.1904 164.086 10.1904H166.898ZM164.086 33.1592C166.404 46.154 170.128 52.6514 175.258 52.6514C176.638 50.9587 177.328 49.3311 177.328 47.7686V45.6982C177.328 38.0941 174.307 32.0524 168.266 27.5732H166.898C165.492 27.5732 164.555 29.4352 164.086 33.1592ZM167.602 11.5967C173.982 11.5967 180.245 17.8597 186.391 30.3857C188.24 36.7399 189.164 42.0654 189.164 46.3623C189.164 57.7946 184.06 64.5264 173.852 66.5576C164.06 66.5576 156.872 57.7425 152.289 40.1123C152.289 39.6436 151.82 39.4092 150.883 39.4092V28.9795C151.977 28.9795 153.37 25.5029 155.062 18.5498C158.37 13.9144 162.549 11.5967 167.602 11.5967ZM163.422 33.8623C165.714 47.2998 169.19 54.0186 173.852 54.0186H175.258C177.107 53.2633 178.031 51.6488 178.031 49.1748V45.6982C178.031 38.0941 175.01 32.0524 168.969 27.5732H166.195C164.346 28.1982 163.422 30.2946 163.422 33.8623Z" fill="url(#paint4_linear_2747_228)"/>
<path d="M184.984 8.90137H188.07C205.935 8.90137 217.771 13.3936 223.578 22.3779C224.802 25.1383 225.414 27.3779 225.414 29.0967V33.3936C225.414 38.654 222.354 42.3258 216.234 44.4092C215.818 44.4092 215.609 44.6175 215.609 45.0342C216.495 46.3363 221.807 50.8285 231.547 58.5107C226.391 65.0472 223.526 68.3154 222.953 68.3154C221.781 68.029 216.273 62.7165 206.43 52.3779V53.0029C207.237 59.305 208.253 64.8128 209.477 69.5264C207.966 69.5264 202.458 67.8988 192.953 64.6436L193.578 60.3467V58.5107C193.578 49.1097 190.518 34.2008 184.398 13.7842L183.773 9.52637L184.984 8.90137ZM199.086 20.542V21.167C200.727 24.5003 202.354 29.7998 203.969 37.0654H206.43C210.518 36.779 212.562 35.555 212.562 33.3936C212.562 26.8571 208.07 22.5732 199.086 20.542Z" fill="url(#paint5_linear_2747_228)"/>
<path d="M247.016 8.35449C258.24 8.35449 266.104 16.4404 270.609 32.6123C271.078 35.0081 271.312 37.3258 271.312 39.5654C271.312 49.4873 266.117 57.43 255.727 63.3936C250.987 66.5706 244.932 68.1592 237.562 68.1592C235.401 68.1592 234.32 66.7139 234.32 63.8232C233.826 60.3076 231.156 47.4561 226.312 25.2686C225.115 17.5602 224.516 13.2243 224.516 12.2607H230.336C231.039 12.2607 235.154 11.1019 242.68 8.78418L247.016 8.35449ZM240.102 21.3623C240.102 26.7008 241.677 36.3753 244.828 50.3857H249.203C255.479 47.5993 258.617 42.6904 258.617 35.6592C258.617 32.2998 256.443 28.2503 252.094 23.5107C248.943 22.0785 246.885 21.3623 245.922 21.3623H240.102Z" fill="url(#paint6_linear_2747_228)"/>
<path d="M30.5312 8.35449C41.7552 8.35449 49.6198 16.4404 54.125 32.6123C54.5938 35.0081 54.8281 37.3258 54.8281 39.5654C54.8281 49.4873 49.6328 57.43 39.2422 63.3936C34.5026 66.5706 28.4479 68.1592 21.0781 68.1592C18.9167 68.1592 17.8359 66.7139 17.8359 63.8232C17.3411 60.3076 14.6719 47.4561 9.82812 25.2686C8.63021 17.5602 8.03125 13.2243 8.03125 12.2607H13.8516C14.5547 12.2607 18.6693 11.1019 26.1953 8.78418L30.5312 8.35449ZM23.6172 21.3623C23.6172 26.7008 25.1927 36.3753 28.3438 50.3857H32.7188C38.9948 47.5993 42.1328 42.6904 42.1328 35.6592C42.1328 32.2998 39.9583 28.2503 35.6094 23.5107C32.4583 22.0785 30.401 21.3623 29.4375 21.3623H23.6172Z" stroke="black" stroke-width="16" mask="url(#path-1-outside-1_2747_228)"/>
<path d="M60.375 10.3467C65.0365 11.4925 67.3672 14.1618 67.3672 18.3545C67.3672 21.6618 65.2057 23.7712 60.8828 24.6826C55.8828 23.7451 53.3828 21.4404 53.3828 17.7686V17.2217C53.3828 13.5238 55.7135 11.2321 60.375 10.3467ZM55.375 26.9482C57.875 28.4847 61.7031 30.2165 66.8594 32.1436C68.1875 36.5186 68.8516 40.529 68.8516 44.1748C68.8516 46.154 68.526 51.1279 67.875 59.0967C67.875 63.3675 68.8776 66.805 70.8828 69.4092C70.5443 69.4092 70.375 69.6045 70.375 69.9951L58.8906 65.4248C57.875 63.2894 57.3672 61.18 57.3672 59.0967C57.7057 46.8571 57.875 39.7868 57.875 37.8857C57.875 35.516 56.8724 31.8701 54.8672 26.9482H55.375Z" stroke="black" stroke-width="16" mask="url(#path-1-outside-1_2747_228)"/>
<path d="M82.1328 10.8545C84.1641 10.8545 88.2005 12.9378 94.2422 17.1045C97.4714 17.9378 99.0859 19.7087 99.0859 22.417L100.297 32.6514H99.8672C97.2891 32.6514 91.651 29.6826 82.9531 23.7451H81.3125C80.2448 24.2399 79.7109 25.2816 79.7109 26.8701C79.7109 31.0107 87.1068 35.1514 101.898 39.292C110.779 43.641 115.219 49.7217 115.219 57.5342V60.6201C115.219 65.9326 111.456 68.9014 103.93 69.5264C100.544 69.5264 94.0859 67.7425 84.5547 64.1748H84.1641C83.513 64.1748 81.4948 64.3311 78.1094 64.6436L77.6797 63.7451V57.9639C77.6797 56.4274 77.5495 53.9144 77.2891 50.4248C78.1745 49.8258 78.9818 49.5264 79.7109 49.5264H80.1016C82.6016 49.5264 88.526 51.7529 97.875 56.2061H100.297C100.505 56.2061 100.909 55.7633 101.508 54.8779C101.508 51.5706 95.4531 48.3024 83.3438 45.0732C77.5365 42.4951 72.9661 37.9118 69.6328 31.3232C68.5391 27.8337 67.862 25.0212 67.6016 22.8857C67.6016 16.6357 71.9115 12.6253 80.5312 10.8545H82.1328Z" stroke="black" stroke-width="16" mask="url(#path-1-outside-1_2747_228)"/>
<path d="M118.188 10.0342H120.141C129.073 10.0342 137.602 15.3857 145.727 26.0889C147.523 28.8753 148.448 31.3363 148.5 33.4717V33.9014H148.109C142.589 32.5212 137.471 31.5576 132.758 31.0107C132.758 28.7191 130.648 25.1514 126.43 20.3076L125.648 19.917H124.086C120.674 20.3857 118.969 21.8831 118.969 24.4092C118.969 25.9456 121.195 30.2035 125.648 37.1826C126.43 39.0316 126.82 40.542 126.82 41.7139V48.667C126.82 51.6357 129.06 53.5628 133.539 54.4482C135.362 54.4482 136.273 53.3545 136.273 51.167C136.273 50.3337 135.492 47.3128 133.93 42.1045H134.32L148.891 44.9951C149.229 45.3337 149.49 47.2477 149.672 50.7373C148.865 61.154 145.714 66.3623 140.219 66.3623H134.711C124.06 66.3623 116.182 62.2477 111.078 54.0186C110.557 52.6123 110.297 51.5186 110.297 50.7373C110.297 49.8258 110.427 45.8545 110.688 38.8232C110.688 36.5055 109.112 32.6644 105.961 27.2998C105.44 26.3102 105.18 25.2165 105.18 24.0186V23.1982C105.18 16.6097 109.516 12.2217 118.188 10.0342Z" stroke="black" stroke-width="16" mask="url(#path-1-outside-1_2747_228)"/>
<path d="M166.898 10.1904C177.497 10.1904 184.919 19.6956 189.164 38.7061C189.633 40.3467 189.867 42.6774 189.867 45.6982C189.867 57.8076 184.763 64.7607 174.555 66.5576H173.148C162.784 66.5576 155.362 56.818 150.883 37.3389V30.3857C153.201 16.9222 157.602 10.1904 164.086 10.1904H166.898ZM164.086 33.1592C166.404 46.154 170.128 52.6514 175.258 52.6514C176.638 50.9587 177.328 49.3311 177.328 47.7686V45.6982C177.328 38.0941 174.307 32.0524 168.266 27.5732H166.898C165.492 27.5732 164.555 29.4352 164.086 33.1592ZM167.602 11.5967C173.982 11.5967 180.245 17.8597 186.391 30.3857C188.24 36.7399 189.164 42.0654 189.164 46.3623C189.164 57.7946 184.06 64.5264 173.852 66.5576C164.06 66.5576 156.872 57.7425 152.289 40.1123C152.289 39.6436 151.82 39.4092 150.883 39.4092V28.9795C151.977 28.9795 153.37 25.5029 155.062 18.5498C158.37 13.9144 162.549 11.5967 167.602 11.5967ZM163.422 33.8623C165.714 47.2998 169.19 54.0186 173.852 54.0186H175.258C177.107 53.2633 178.031 51.6488 178.031 49.1748V45.6982C178.031 38.0941 175.01 32.0524 168.969 27.5732H166.195C164.346 28.1982 163.422 30.2946 163.422 33.8623Z" stroke="black" stroke-width="16" mask="url(#path-1-outside-1_2747_228)"/>
<path d="M184.984 8.90137H188.07C205.935 8.90137 217.771 13.3936 223.578 22.3779C224.802 25.1383 225.414 27.3779 225.414 29.0967V33.3936C225.414 38.654 222.354 42.3258 216.234 44.4092C215.818 44.4092 215.609 44.6175 215.609 45.0342C216.495 46.3363 221.807 50.8285 231.547 58.5107C226.391 65.0472 223.526 68.3154 222.953 68.3154C221.781 68.029 216.273 62.7165 206.43 52.3779V53.0029C207.237 59.305 208.253 64.8128 209.477 69.5264C207.966 69.5264 202.458 67.8988 192.953 64.6436L193.578 60.3467V58.5107C193.578 49.1097 190.518 34.2008 184.398 13.7842L183.773 9.52637L184.984 8.90137ZM199.086 20.542V21.167C200.727 24.5003 202.354 29.7998 203.969 37.0654H206.43C210.518 36.779 212.562 35.555 212.562 33.3936C212.562 26.8571 208.07 22.5732 199.086 20.542Z" stroke="black" stroke-width="16" mask="url(#path-1-outside-1_2747_228)"/>
<path d="M247.016 8.35449C258.24 8.35449 266.104 16.4404 270.609 32.6123C271.078 35.0081 271.312 37.3258 271.312 39.5654C271.312 49.4873 266.117 57.43 255.727 63.3936C250.987 66.5706 244.932 68.1592 237.562 68.1592C235.401 68.1592 234.32 66.7139 234.32 63.8232C233.826 60.3076 231.156 47.4561 226.312 25.2686C225.115 17.5602 224.516 13.2243 224.516 12.2607H230.336C231.039 12.2607 235.154 11.1019 242.68 8.78418L247.016 8.35449ZM240.102 21.3623C240.102 26.7008 241.677 36.3753 244.828 50.3857H249.203C255.479 47.5993 258.617 42.6904 258.617 35.6592C258.617 32.2998 256.443 28.2503 252.094 23.5107C248.943 22.0785 246.885 21.3623 245.922 21.3623H240.102Z" stroke="black" stroke-width="16" mask="url(#path-1-outside-1_2747_228)"/>
<defs>
<linearGradient id="paint0_linear_2747_228" x1="288.141" y1="17.1623" x2="13.852" y2="83.1401" gradientUnits="userSpaceOnUse">
<stop stop-color="#00FFD1"/>
<stop offset="0.551963" stop-color="#E858FF"/>
<stop offset="1" stop-color="#7289DA"/>
</linearGradient>
<linearGradient id="paint1_linear_2747_228" x1="288.141" y1="17.1623" x2="13.852" y2="83.1401" gradientUnits="userSpaceOnUse">
<stop stop-color="#00FFD1"/>
<stop offset="0.551963" stop-color="#E858FF"/>
<stop offset="1" stop-color="#7289DA"/>
</linearGradient>
<linearGradient id="paint2_linear_2747_228" x1="288.141" y1="17.1623" x2="13.852" y2="83.1401" gradientUnits="userSpaceOnUse">
<stop stop-color="#00FFD1"/>
<stop offset="0.551963" stop-color="#E858FF"/>
<stop offset="1" stop-color="#7289DA"/>
</linearGradient>
<linearGradient id="paint3_linear_2747_228" x1="288.141" y1="17.1623" x2="13.852" y2="83.1401" gradientUnits="userSpaceOnUse">
<stop stop-color="#00FFD1"/>
<stop offset="0.551963" stop-color="#E858FF"/>
<stop offset="1" stop-color="#7289DA"/>
</linearGradient>
<linearGradient id="paint4_linear_2747_228" x1="288.141" y1="17.1623" x2="13.852" y2="83.1401" gradientUnits="userSpaceOnUse">
<stop stop-color="#00FFD1"/>
<stop offset="0.551963" stop-color="#E858FF"/>
<stop offset="1" stop-color="#7289DA"/>
</linearGradient>
<linearGradient id="paint5_linear_2747_228" x1="288.141" y1="17.1623" x2="13.852" y2="83.1401" gradientUnits="userSpaceOnUse">
<stop stop-color="#00FFD1"/>
<stop offset="0.551963" stop-color="#E858FF"/>
<stop offset="1" stop-color="#7289DA"/>
</linearGradient>
<linearGradient id="paint6_linear_2747_228" x1="288.141" y1="17.1623" x2="13.852" y2="83.1401" gradientUnits="userSpaceOnUse">
<stop stop-color="#00FFD1"/>
<stop offset="0.551963" stop-color="#E858FF"/>
<stop offset="1" stop-color="#7289DA"/>
</linearGradient>
</defs>
</svg>
