<svg width="1232" height="215" viewBox="0 0 1232 215" fill="none" xmlns="http://www.w3.org/2000/svg">
<mask id="path-1-outside-1_2582_5554" maskUnits="userSpaceOnUse" x="124.613" y="0" width="983" height="164" fill="black">
<rect fill="white" x="124.613" width="983" height="164"/>
<path d="M533.667 23.0262C535.565 23.0307 536.728 23.0712 537.158 23.1477C540.322 26.1437 543.044 29.1398 545.323 32.1336C547.601 35.1274 550.512 39.4956 554.05 45.238C557.59 50.9805 564.133 61.8243 573.675 77.7719C575.594 81.1233 577.087 83.9012 578.149 86.1033C579.213 88.3076 579.951 89.9091 580.364 90.9123C581.044 91.2542 582.447 91.8795 584.58 92.7904C586.71 93.6991 589.076 94.6078 591.676 95.5121C590.839 96.3376 590.095 97.0686 589.438 97.7051C588.784 98.3417 588.248 98.9333 587.83 99.4776C587.414 100.024 587.151 100.598 587.045 101.198C586.939 101.799 586.993 102.318 587.211 102.755C587.699 104.17 588.887 106.927 590.772 111.023C592.657 115.121 593.997 118.468 594.794 121.066C595.59 123.664 595.777 126.145 595.358 128.505C595.176 129.535 594.809 130.277 594.261 130.734C593.712 131.19 592.553 131.948 590.788 133.006C589.022 134.065 587.841 135.028 587.243 135.896C585.387 134.414 583.437 132.133 581.397 129.047C579.357 125.961 577.364 122.398 575.42 118.358C573.475 114.316 571.952 110.969 570.845 108.315C569.739 105.661 568.794 103.202 568.014 100.94C564.044 99.7048 559.869 98.0785 555.496 96.0609C551.121 94.0455 547.093 92.444 543.408 91.2587C544.009 96.7672 544.382 100.971 544.533 103.875C544.684 106.779 544.553 109.39 544.142 111.707C543.471 115.484 541.672 119.37 538.743 123.365C538.703 123.316 536.685 122.6 532.688 121.228C528.694 119.854 526.289 119.096 525.477 118.952L524.694 21.7329C524.755 21.391 525.122 21.2763 525.79 21.3955C526.46 21.5147 527.447 21.8453 528.757 22.3874C530.066 22.9295 530.745 23.2061 530.792 23.2129C530.815 23.0847 531.775 23.0217 533.671 23.0262H533.667ZM543.397 76.7147L560.73 82.3829L540.219 42.5524L543.397 76.7169V76.7147Z"/>
<path d="M587.469 137.435L586.578 136.724C584.641 135.179 582.599 132.792 580.509 129.632C578.451 126.519 576.416 122.88 574.461 118.817C572.524 114.791 570.977 111.395 569.861 108.723C568.833 106.255 567.931 103.927 567.182 101.79C563.332 100.564 559.254 98.9629 555.047 97.024C551.336 95.3146 547.843 93.893 544.635 92.7886C545.133 97.4941 545.452 101.201 545.587 103.821C545.74 106.793 545.603 109.51 545.18 111.894C544.482 115.815 542.604 119.886 539.592 123.995L538.767 125.122L538.072 124.241C537.631 124.074 536.302 123.597 532.339 122.236C527.449 120.556 525.804 120.093 525.285 120.001L524.416 119.845L523.627 21.6456L523.645 21.5489C523.692 21.2879 524.021 20.0058 525.971 20.3522C526.72 20.4849 527.761 20.8313 529.158 21.4072C530.053 21.7783 530.539 21.9762 530.805 22.0842C531.423 21.9627 532.343 21.965 533.67 21.9672C536.277 21.974 537.001 22.046 537.343 22.1067L537.656 22.1629L537.888 22.3811C541.082 25.4042 543.866 28.47 546.167 31.4953C548.459 34.5071 551.415 38.9449 554.955 44.6851C558.462 50.3691 565.066 61.3209 574.587 77.2325C576.526 80.6176 578.042 83.4428 579.106 85.6471C580.051 87.604 580.75 89.111 581.189 90.1389C581.929 90.4921 583.206 91.0544 584.997 91.8191C587.109 92.7211 589.473 93.6276 592.026 94.5138L593.639 95.0739L592.424 96.2728C591.533 97.1522 590.8 97.8698 590.179 98.4726C589.567 99.0686 589.059 99.6264 588.674 100.128C588.36 100.54 588.168 100.954 588.092 101.388C588.024 101.761 588.049 102.056 588.164 102.285L588.218 102.413C588.692 103.79 589.878 106.539 591.738 110.585C593.634 114.703 595.004 118.127 595.809 120.761C596.65 123.509 596.851 126.179 596.405 128.696C596.178 129.974 595.685 130.937 594.941 131.555C594.343 132.052 593.162 132.826 591.335 133.921C589.309 135.138 588.467 135.998 588.119 136.504L587.473 137.442L587.469 137.435ZM542.17 89.7453L543.729 90.2469C547.429 91.4368 551.536 93.0697 555.936 95.0964C560.246 97.0825 564.413 98.7087 568.325 99.9256L568.838 100.085L569.013 100.594C569.783 102.823 570.727 105.283 571.82 107.906C572.92 110.545 574.452 113.905 576.373 117.897C578.287 121.874 580.273 125.428 582.28 128.462C583.962 131.004 585.586 132.995 587.122 134.398C587.853 133.667 588.884 132.907 590.238 132.095C592.366 130.82 593.229 130.208 593.578 129.918C593.927 129.628 594.172 129.09 594.309 128.321C594.696 126.139 594.516 123.804 593.774 121.379C592.995 118.835 591.659 115.502 589.804 111.469C587.912 107.357 586.74 104.64 586.225 103.162C585.93 102.535 585.854 101.813 585.996 101.014C586.13 100.25 586.463 99.5162 586.983 98.837C587.433 98.2521 588.009 97.6156 588.695 96.9475C589.005 96.6461 589.345 96.3155 589.718 95.9489C587.73 95.2291 585.865 94.4981 584.16 93.7715C581.978 92.8403 580.579 92.2173 579.884 91.8664L579.531 91.6887L579.38 91.3243C578.975 90.3436 578.24 88.7444 577.19 86.5715C576.148 84.4122 574.655 81.6298 572.752 78.3076C563.246 62.4208 556.647 51.478 553.145 45.803C549.642 40.1213 546.725 35.7419 544.476 32.7841C542.305 29.9297 539.682 27.0327 536.68 24.167C536.272 24.1333 535.425 24.0996 533.661 24.0951C532.669 24.0928 532.066 24.1108 531.702 24.1288L531.646 24.4505L530.6 24.2638C530.451 24.2368 530.413 24.23 528.344 23.373C527.215 22.9052 526.346 22.606 525.757 22.4778L526.526 118.118C527.48 118.379 529.297 118.946 533.029 120.23C535.926 121.226 537.487 121.762 538.355 122.083C540.895 118.469 542.487 114.919 543.09 111.527C543.486 109.301 543.612 106.748 543.468 103.936C543.32 101.059 542.942 96.8328 542.348 91.3805L542.17 89.7543V89.7453ZM562.857 84.194L542.404 77.5069L538.655 37.1927L562.857 84.194ZM544.39 75.9211L558.604 80.5682L541.786 47.9084L544.392 75.9211H544.39Z"/>
<path d="M630.738 47.583C650.073 47.583 663.593 60.6941 671.297 86.9164C672.163 89.1612 672.597 92.3755 672.597 96.5592C672.597 113.242 663.287 122.833 644.665 125.332H642.14C623.263 125.332 609.743 111.89 601.58 85.0023V75.436C605.816 56.8658 613.848 47.5807 625.686 47.5807H630.736L630.738 47.583ZM625.688 79.2643C629.872 97.171 636.631 106.125 645.968 106.125C648.467 103.779 649.717 101.535 649.717 99.391V96.5592C649.717 86.0504 644.231 77.7348 633.264 71.6122H630.738C628.187 71.6122 626.502 74.1629 625.688 79.2643Z"/>
<path d="M707.062 49.4179C724.611 49.4179 736.703 59.6477 743.337 80.105C744.05 83.0651 744.407 86.1759 744.407 89.4419C744.407 99.5952 740.759 107.477 733.464 113.089C723.311 122.579 709.41 127.322 691.758 127.322C688.44 127.322 686.783 126.225 686.783 124.032C686.783 121.838 683.134 107.07 675.84 79.5697C674.002 72.2752 672.346 63.8561 670.864 54.3168C671.222 54.3168 671.4 54.1391 671.4 53.7815L674.155 54.3168H680.201L699.945 49.9554C701.731 49.6001 704.102 49.4201 707.062 49.4201V49.4179ZM697.19 68.0128C697.19 72.7566 699.563 84.2887 704.307 102.603H708.745C713.641 102.603 718.207 98.0387 722.443 88.9043C722.443 88.6501 722.621 87.5525 722.978 85.6136C720.733 78.3708 717.265 73.4201 712.571 70.7682C708.54 68.9305 705.607 68.0128 703.769 68.0128H697.188H697.19Z"/>
<path d="M779.38 49.4179C796.929 49.4179 809.021 59.6477 815.654 80.105C816.367 83.0651 816.725 86.1759 816.725 89.4419C816.725 99.5952 813.077 107.477 805.782 113.089C795.629 122.579 781.728 127.322 764.076 127.322C760.758 127.322 759.1 126.225 759.1 124.032C759.1 121.838 755.452 107.07 748.157 79.5697C746.32 72.2752 744.664 63.8561 743.182 54.3168C743.54 54.3168 743.717 54.1391 743.717 53.7815L746.473 54.3168H752.519L772.263 49.9554C774.049 49.6001 776.42 49.4201 779.38 49.4201V49.4179ZM769.508 68.0128C769.508 72.7566 771.881 84.2887 776.624 102.603H781.062C785.959 102.603 790.525 98.0387 794.761 88.9043C794.761 88.6501 794.938 87.5525 795.296 85.6136C793.051 78.3708 789.583 73.4201 784.888 70.7682C780.858 68.9305 777.925 68.0128 776.087 68.0128H769.505H769.508Z"/>
<path d="M820.55 69.9271C827.284 71.1012 832.743 71.6883 836.927 71.6883V72.1471C836.927 72.7589 836.621 75.5413 836.009 80.4875C836.009 82.1205 838.229 85.8184 842.667 91.5833C844.453 95.614 845.346 101.941 845.346 110.563C846.52 114.186 848.585 119.209 851.545 125.638C848.738 125.026 846.518 124.72 844.887 124.72H839.99C836.317 125.332 833.663 125.638 832.032 125.638C828.818 115.028 827.212 108.395 827.212 105.74C827.466 100.587 827.594 97.3483 827.594 96.0212C827.594 91.1739 824.814 86.3019 819.254 81.4052C818.642 80.1816 818.336 79.2886 818.336 78.7263C818.847 73.7779 819.587 70.8448 820.556 69.9248L820.55 69.9271ZM825.831 46.892C829.862 46.892 832.819 50.871 834.709 58.829V61.9668C834.709 64.621 833.535 66.6611 831.189 68.0894H829.428C823.51 66.2517 820.55 61.5349 820.55 53.9323C820.55 49.238 822.311 46.892 825.831 46.892Z"/>
<path d="M904.345 48.4245L905.11 49.7246V55.0824C905.11 59.4708 908.171 78.3199 914.294 111.634V115.613C914.294 117.093 906.718 119.772 891.565 123.648C891.565 118.24 883.301 104.466 866.771 82.3236H865.318C869.245 101.557 872.331 115.332 874.578 123.648C875.037 124.464 875.266 125.128 875.266 125.638C874.807 125.638 874.578 125.841 874.578 126.25L873.123 125.638H871.746C871.184 125.638 868.581 126.07 863.941 126.938H856.824C855.907 126.938 855.448 126.504 855.448 125.638C855.448 112.732 852.359 90.3109 846.187 58.3731C853.329 56.18 858.534 55.0824 861.8 55.0824L868.152 65.7193C880.905 76.995 890.368 89.4179 896.542 102.988V104.979H897.307V102.988C895.368 88.7049 892.053 74.062 887.359 59.0614L886.594 55.0824C887.869 53.1952 893.787 50.9752 904.347 48.4245H904.345Z"/>
<path d="M931.282 48.6528C950.874 48.6528 963.243 69.2137 968.398 110.333C970.236 115.74 973.933 121.685 979.494 128.163V128.622H976.127C963.933 128.622 957.838 124.771 957.838 117.067H956.843C955.057 122.832 950.721 125.716 943.833 125.716H943.375C935.875 125.716 928.808 121.073 922.177 111.788C918.963 106.788 917.357 100.998 917.357 94.417V92.5051C917.357 84.7001 921.361 79.241 929.37 76.128C930.646 75.7726 931.946 75.5927 933.273 75.5927H938.093C939.879 75.5927 942.277 75.9256 945.286 76.5869V75.5927C945.286 68.4512 942.711 64.2945 937.558 63.1203H935.646C935.135 63.1203 934.499 63.7591 933.732 65.0322C933.732 67.3288 934.062 69.0877 934.726 70.3136L917.814 72.7631C917.098 72.7631 916.462 70.1876 915.899 65.0345V62.1261C915.899 55.3917 919.75 51.0551 927.456 49.1162C929.242 48.8103 930.518 48.6573 931.282 48.6573V48.6528ZM931.282 94.4148V95.8701C931.282 100.564 934.497 105.385 940.925 110.333C941.996 110.945 942.965 111.251 943.833 111.251H945.286C948.856 111.251 951.103 107.884 952.021 101.149C952.021 98.1396 950.415 93.65 947.201 87.6804C945.008 87.0169 943.093 86.6862 941.46 86.6862H939.47C934.011 87.4015 931.282 89.9769 931.282 94.4148Z"/>
<path d="M969.854 46.892H973.757C996.868 46.892 1012.2 52.7087 1019.75 64.3398C1021.33 67.9117 1022.12 70.82 1022.12 73.0648V78.5756C1022.12 85.3617 1018.17 90.1302 1010.26 92.8856C1009.7 92.8856 1009.42 93.1421 1009.42 93.6504C1010.59 95.3329 1017.48 101.15 1030.08 111.098C1023.4 119.515 1019.7 123.726 1018.99 123.726C1017.46 123.37 1010.31 116.508 997.559 103.14V103.905C998.63 112.119 999.957 119.261 1001.54 125.332C999.547 125.332 992.406 123.215 980.111 118.98L980.953 113.469V111.096C980.953 98.9025 976.973 79.6193 969.015 53.2418L968.251 47.6568L969.859 46.892H969.854ZM988.067 61.969V62.7338C990.159 67.0705 992.276 73.9331 994.419 83.3194H997.557C1002.86 82.964 1005.51 81.3805 1005.51 78.5756C1005.51 70.107 999.698 64.5715 988.067 61.969Z"/>
<path d="M1089.55 51.6384C1089.55 52.2008 1089.82 52.4797 1090.39 52.4797C1086 88.14 1082.15 109.542 1078.83 116.686C1072.1 135.103 1067.02 144.541 1063.6 145C1059.57 142.346 1054.52 138.443 1048.45 133.292V132.528C1053.35 127.273 1057.51 118.089 1060.93 104.978C1061.54 104.978 1061.85 104.699 1061.85 104.137C1039.81 92.5059 1028.79 81.6643 1028.79 71.6144C1026.39 67.9931 1025.19 65.2129 1025.19 63.274V62.5093H1026.11C1029.58 62.5093 1035.52 61.9492 1043.94 60.8268C1048.48 71.8979 1055.34 80.4947 1064.52 86.6172H1065.36C1068.58 66.0587 1070.98 55.7771 1072.56 55.7771C1081.84 54.1441 1087.51 52.7676 1089.55 51.6452V51.6384Z"/>
<path d="M235.974 51.1758L233.211 73.5563L215.775 71.3722L213.847 79.0851L227.946 80.9497L225.184 103.193L208.035 101.094L200.977 124.361L179.525 121.595L186.188 98.2761L179.143 97.4146L172.217 120.765L150.748 118.122L157.561 94.7694L141.613 92.961L144.256 70.423L163.616 73.0345L165.692 65.2699L149.78 63.3175L152.543 40.937L171.371 43.247L178.979 17L200.277 19.6384L192.778 46.0137L199.899 46.7514L207.464 20.5989L229.334 23.2283L221.578 49.5518L235.976 51.1803L235.974 51.1758ZM194.179 68.7676L187.004 67.8858L184.953 75.4075L192.123 76.4264L194.179 68.7698V68.7676Z"/>
<path d="M245.2 19.2662L267.426 25.0762V34.6694C267.426 56.7845 272.561 75.4289 282.829 90.6072C283.639 91.282 286.522 92.8812 291.475 95.4049C296.61 92.9734 299.177 89.7749 299.177 85.8117V67.5046C299.177 59.983 296.61 45.8417 291.475 25.0784L293.434 24.064C297.937 24.064 305.009 23.7491 314.647 23.117C317.844 36.4936 319.443 51.6044 319.443 68.4471V89.6602C319.443 111.503 311.089 122.426 294.379 122.426C277.669 122.426 264.54 114.387 255.804 98.3088C248.102 72.4126 244.251 46.7189 244.251 21.2254L245.198 19.2662H245.2Z"/>
<path d="M323.497 24.3342C338.225 26.7229 345.587 28.9947 345.587 31.1563V37.9807C346.939 78.8301 351.015 99.256 357.814 99.256C375.514 99.256 384.365 102.432 384.365 108.782C384.365 110.404 385.827 114.952 388.756 122.428H368.827C348.198 122.428 337.885 118.802 337.885 111.551C337.885 107.183 333.09 83.1083 323.497 39.3325V24.3342Z"/>
<path d="M369.518 29.2663H370.193C372.04 29.2663 381.79 31.5853 399.445 36.2256H400.797C408.094 35.7758 415.051 35.5508 421.673 35.5508C427.258 35.5508 430.049 39.0193 430.049 45.9538C430.049 47.1707 431.671 52.9581 434.914 63.3162C427.213 60.0727 418.859 57.7536 409.85 56.3568V57.7761C412.057 61.6944 414.151 72.5945 416.133 90.4742C419.691 100.022 426.176 110.45 435.589 121.753C435.139 121.753 434.914 121.978 434.914 122.428C423.025 119.636 413.971 118.239 407.756 118.239H403.568C394.335 102.971 389.719 85.5864 389.719 66.085C388.547 59.1505 385.981 55.682 382.018 55.682C378.099 55.2322 374.856 55.0073 372.289 55.0073C371.48 55.0073 368.936 55.4571 364.655 56.3591C362.809 48.7025 361.886 41.0684 361.886 33.4567V31.3626C361.886 29.9681 364.43 29.2685 369.521 29.2685L369.518 29.2663Z"/>
<path d="M437.683 23.0499H443.02C473.917 23.0499 494.385 30.819 504.431 46.3571C506.547 51.1324 507.607 55.0034 507.607 57.977V65.4087C507.607 74.5071 502.314 80.8569 491.731 84.4602C491.009 84.4602 490.649 84.8201 490.649 85.5421C492.179 87.7937 501.367 95.5628 518.212 108.849C509.294 120.154 504.341 125.807 503.349 125.807C501.322 125.31 491.796 116.124 474.772 98.2439V99.3258C476.166 110.226 477.923 119.752 480.042 127.903C477.43 127.903 467.904 125.087 451.464 119.459L452.546 112.028V108.852C452.546 92.5937 447.254 66.81 436.671 31.4983L435.589 24.1341L437.683 23.0522V23.0499ZM462.072 43.1811V44.263C464.908 50.028 467.724 59.1939 470.516 71.7585H474.772C481.841 71.2636 485.377 69.147 485.377 65.4087C485.377 54.1037 477.608 46.6945 462.07 43.1834L462.072 43.1811Z"/>
</mask>
<path d="M533.667 23.0262C535.565 23.0307 536.728 23.0712 537.158 23.1477C540.322 26.1437 543.044 29.1398 545.323 32.1336C547.601 35.1274 550.512 39.4956 554.05 45.238C557.59 50.9805 564.133 61.8243 573.675 77.7719C575.594 81.1233 577.087 83.9012 578.149 86.1033C579.213 88.3076 579.951 89.9091 580.364 90.9123C581.044 91.2542 582.447 91.8795 584.58 92.7904C586.71 93.6991 589.076 94.6078 591.676 95.5121C590.839 96.3376 590.095 97.0686 589.438 97.7051C588.784 98.3417 588.248 98.9333 587.83 99.4776C587.414 100.024 587.151 100.598 587.045 101.198C586.939 101.799 586.993 102.318 587.211 102.755C587.699 104.17 588.887 106.927 590.772 111.023C592.657 115.121 593.997 118.468 594.794 121.066C595.59 123.664 595.777 126.145 595.358 128.505C595.176 129.535 594.809 130.277 594.261 130.734C593.712 131.19 592.553 131.948 590.788 133.006C589.022 134.065 587.841 135.028 587.243 135.896C585.387 134.414 583.437 132.133 581.397 129.047C579.357 125.961 577.364 122.398 575.42 118.358C573.475 114.316 571.952 110.969 570.845 108.315C569.739 105.661 568.794 103.202 568.014 100.94C564.044 99.7048 559.869 98.0785 555.496 96.0609C551.121 94.0455 547.093 92.444 543.408 91.2587C544.009 96.7672 544.382 100.971 544.533 103.875C544.684 106.779 544.553 109.39 544.142 111.707C543.471 115.484 541.672 119.37 538.743 123.365C538.703 123.316 536.685 122.6 532.688 121.228C528.694 119.854 526.289 119.096 525.477 118.952L524.694 21.7329C524.755 21.391 525.122 21.2763 525.79 21.3955C526.46 21.5147 527.447 21.8453 528.757 22.3874C530.066 22.9295 530.745 23.2061 530.792 23.2129C530.815 23.0847 531.775 23.0217 533.671 23.0262H533.667ZM543.397 76.7147L560.73 82.3829L540.219 42.5524L543.397 76.7169V76.7147Z" fill="url(#paint0_linear_2582_5554)"/>
<path d="M587.469 137.435L586.578 136.724C584.641 135.179 582.599 132.792 580.509 129.632C578.451 126.519 576.416 122.88 574.461 118.817C572.524 114.791 570.977 111.395 569.861 108.723C568.833 106.255 567.931 103.927 567.182 101.79C563.332 100.564 559.254 98.9629 555.047 97.024C551.336 95.3146 547.843 93.893 544.635 92.7886C545.133 97.4941 545.452 101.201 545.587 103.821C545.74 106.793 545.603 109.51 545.18 111.894C544.482 115.815 542.604 119.886 539.592 123.995L538.767 125.122L538.072 124.241C537.631 124.074 536.302 123.597 532.339 122.236C527.449 120.556 525.804 120.093 525.285 120.001L524.416 119.845L523.627 21.6456L523.645 21.5489C523.692 21.2879 524.021 20.0058 525.971 20.3522C526.72 20.4849 527.761 20.8313 529.158 21.4072C530.053 21.7783 530.539 21.9762 530.805 22.0842C531.423 21.9627 532.343 21.965 533.67 21.9672C536.277 21.974 537.001 22.046 537.343 22.1067L537.656 22.1629L537.888 22.3811C541.082 25.4042 543.866 28.47 546.167 31.4953C548.459 34.5071 551.415 38.9449 554.955 44.6851C558.462 50.3691 565.066 61.3209 574.587 77.2325C576.526 80.6176 578.042 83.4428 579.106 85.6471C580.051 87.604 580.75 89.111 581.189 90.1389C581.929 90.4921 583.206 91.0544 584.997 91.8191C587.109 92.7211 589.473 93.6276 592.026 94.5138L593.639 95.0739L592.424 96.2728C591.533 97.1522 590.8 97.8698 590.179 98.4726C589.567 99.0686 589.059 99.6264 588.674 100.128C588.36 100.54 588.168 100.954 588.092 101.388C588.024 101.761 588.049 102.056 588.164 102.285L588.218 102.413C588.692 103.79 589.878 106.539 591.738 110.585C593.634 114.703 595.004 118.127 595.809 120.761C596.65 123.509 596.851 126.179 596.405 128.696C596.178 129.974 595.685 130.937 594.941 131.555C594.343 132.052 593.162 132.826 591.335 133.921C589.309 135.138 588.467 135.998 588.119 136.504L587.473 137.442L587.469 137.435ZM542.17 89.7453L543.729 90.2469C547.429 91.4368 551.536 93.0697 555.936 95.0964C560.246 97.0825 564.413 98.7087 568.325 99.9256L568.838 100.085L569.013 100.594C569.783 102.823 570.727 105.283 571.82 107.906C572.92 110.545 574.452 113.905 576.373 117.897C578.287 121.874 580.273 125.428 582.28 128.462C583.962 131.004 585.586 132.995 587.122 134.398C587.853 133.667 588.884 132.907 590.238 132.095C592.366 130.82 593.229 130.208 593.578 129.918C593.927 129.628 594.172 129.09 594.309 128.321C594.696 126.139 594.516 123.804 593.774 121.379C592.995 118.835 591.659 115.502 589.804 111.469C587.912 107.357 586.74 104.64 586.225 103.162C585.93 102.535 585.854 101.813 585.996 101.014C586.13 100.25 586.463 99.5162 586.983 98.837C587.433 98.2521 588.009 97.6156 588.695 96.9475C589.005 96.6461 589.345 96.3155 589.718 95.9489C587.73 95.2291 585.865 94.4981 584.16 93.7715C581.978 92.8403 580.579 92.2173 579.884 91.8664L579.531 91.6887L579.38 91.3243C578.975 90.3436 578.24 88.7444 577.19 86.5715C576.148 84.4122 574.655 81.6298 572.752 78.3076C563.246 62.4208 556.647 51.478 553.145 45.803C549.642 40.1213 546.725 35.7419 544.476 32.7841C542.305 29.9297 539.682 27.0327 536.68 24.167C536.272 24.1333 535.425 24.0996 533.661 24.0951C532.669 24.0928 532.066 24.1108 531.702 24.1288L531.646 24.4505L530.6 24.2638C530.451 24.2368 530.413 24.23 528.344 23.373C527.215 22.9052 526.346 22.606 525.757 22.4778L526.526 118.118C527.48 118.379 529.297 118.946 533.029 120.23C535.926 121.226 537.487 121.762 538.355 122.083C540.895 118.469 542.487 114.919 543.09 111.527C543.486 109.301 543.612 106.748 543.468 103.936C543.32 101.059 542.942 96.8328 542.348 91.3805L542.17 89.7543V89.7453ZM562.857 84.194L542.404 77.5069L538.655 37.1927L562.857 84.194ZM544.39 75.9211L558.604 80.5682L541.786 47.9084L544.392 75.9211H544.39Z" fill="url(#paint1_linear_2582_5554)"/>
<path d="M630.738 47.583C650.073 47.583 663.593 60.6941 671.297 86.9164C672.163 89.1612 672.597 92.3755 672.597 96.5592C672.597 113.242 663.287 122.833 644.665 125.332H642.14C623.263 125.332 609.743 111.89 601.58 85.0023V75.436C605.816 56.8658 613.848 47.5807 625.686 47.5807H630.736L630.738 47.583ZM625.688 79.2643C629.872 97.171 636.631 106.125 645.968 106.125C648.467 103.779 649.717 101.535 649.717 99.391V96.5592C649.717 86.0504 644.231 77.7348 633.264 71.6122H630.738C628.187 71.6122 626.502 74.1629 625.688 79.2643Z" fill="url(#paint2_linear_2582_5554)"/>
<path d="M707.062 49.4179C724.611 49.4179 736.703 59.6477 743.337 80.105C744.05 83.0651 744.407 86.1759 744.407 89.4419C744.407 99.5952 740.759 107.477 733.464 113.089C723.311 122.579 709.41 127.322 691.758 127.322C688.44 127.322 686.783 126.225 686.783 124.032C686.783 121.838 683.134 107.07 675.84 79.5697C674.002 72.2752 672.346 63.8561 670.864 54.3168C671.222 54.3168 671.4 54.1391 671.4 53.7815L674.155 54.3168H680.201L699.945 49.9554C701.731 49.6001 704.102 49.4201 707.062 49.4201V49.4179ZM697.19 68.0128C697.19 72.7566 699.563 84.2887 704.307 102.603H708.745C713.641 102.603 718.207 98.0387 722.443 88.9043C722.443 88.6501 722.621 87.5525 722.978 85.6136C720.733 78.3708 717.265 73.4201 712.571 70.7682C708.54 68.9305 705.607 68.0128 703.769 68.0128H697.188H697.19Z" fill="url(#paint3_linear_2582_5554)"/>
<path d="M779.38 49.4179C796.929 49.4179 809.021 59.6477 815.654 80.105C816.367 83.0651 816.725 86.1759 816.725 89.4419C816.725 99.5952 813.077 107.477 805.782 113.089C795.629 122.579 781.728 127.322 764.076 127.322C760.758 127.322 759.1 126.225 759.1 124.032C759.1 121.838 755.452 107.07 748.157 79.5697C746.32 72.2752 744.664 63.8561 743.182 54.3168C743.54 54.3168 743.717 54.1391 743.717 53.7815L746.473 54.3168H752.519L772.263 49.9554C774.049 49.6001 776.42 49.4201 779.38 49.4201V49.4179ZM769.508 68.0128C769.508 72.7566 771.881 84.2887 776.624 102.603H781.062C785.959 102.603 790.525 98.0387 794.761 88.9043C794.761 88.6501 794.938 87.5525 795.296 85.6136C793.051 78.3708 789.583 73.4201 784.888 70.7682C780.858 68.9305 777.925 68.0128 776.087 68.0128H769.505H769.508Z" fill="url(#paint4_linear_2582_5554)"/>
<path d="M820.55 69.9271C827.284 71.1012 832.743 71.6883 836.927 71.6883V72.1471C836.927 72.7589 836.621 75.5413 836.009 80.4875C836.009 82.1205 838.229 85.8184 842.667 91.5833C844.453 95.614 845.346 101.941 845.346 110.563C846.52 114.186 848.585 119.209 851.545 125.638C848.738 125.026 846.518 124.72 844.887 124.72H839.99C836.317 125.332 833.663 125.638 832.032 125.638C828.818 115.028 827.212 108.395 827.212 105.74C827.466 100.587 827.594 97.3483 827.594 96.0212C827.594 91.1739 824.814 86.3019 819.254 81.4052C818.642 80.1816 818.336 79.2886 818.336 78.7263C818.847 73.7779 819.587 70.8448 820.556 69.9248L820.55 69.9271ZM825.831 46.892C829.862 46.892 832.819 50.871 834.709 58.829V61.9668C834.709 64.621 833.535 66.6611 831.189 68.0894H829.428C823.51 66.2517 820.55 61.5349 820.55 53.9323C820.55 49.238 822.311 46.892 825.831 46.892Z" fill="url(#paint5_linear_2582_5554)"/>
<path d="M904.345 48.4245L905.11 49.7246V55.0824C905.11 59.4708 908.171 78.3199 914.294 111.634V115.613C914.294 117.093 906.718 119.772 891.565 123.648C891.565 118.24 883.301 104.466 866.771 82.3236H865.318C869.245 101.557 872.331 115.332 874.578 123.648C875.037 124.464 875.266 125.128 875.266 125.638C874.807 125.638 874.578 125.841 874.578 126.25L873.123 125.638H871.746C871.184 125.638 868.581 126.07 863.941 126.938H856.824C855.907 126.938 855.448 126.504 855.448 125.638C855.448 112.732 852.359 90.3109 846.187 58.3731C853.329 56.18 858.534 55.0824 861.8 55.0824L868.152 65.7193C880.905 76.995 890.368 89.4179 896.542 102.988V104.979H897.307V102.988C895.368 88.7049 892.053 74.062 887.359 59.0614L886.594 55.0824C887.869 53.1952 893.787 50.9752 904.347 48.4245H904.345Z" fill="url(#paint6_linear_2582_5554)"/>
<path d="M931.282 48.6528C950.874 48.6528 963.243 69.2137 968.398 110.333C970.236 115.74 973.933 121.685 979.494 128.163V128.622H976.127C963.933 128.622 957.838 124.771 957.838 117.067H956.843C955.057 122.832 950.721 125.716 943.833 125.716H943.375C935.875 125.716 928.808 121.073 922.177 111.788C918.963 106.788 917.357 100.998 917.357 94.417V92.5051C917.357 84.7001 921.361 79.241 929.37 76.128C930.646 75.7726 931.946 75.5927 933.273 75.5927H938.093C939.879 75.5927 942.277 75.9256 945.286 76.5869V75.5927C945.286 68.4512 942.711 64.2945 937.558 63.1203H935.646C935.135 63.1203 934.499 63.7591 933.732 65.0322C933.732 67.3288 934.062 69.0877 934.726 70.3136L917.814 72.7631C917.098 72.7631 916.462 70.1876 915.899 65.0345V62.1261C915.899 55.3917 919.75 51.0551 927.456 49.1162C929.242 48.8103 930.518 48.6573 931.282 48.6573V48.6528ZM931.282 94.4148V95.8701C931.282 100.564 934.497 105.385 940.925 110.333C941.996 110.945 942.965 111.251 943.833 111.251H945.286C948.856 111.251 951.103 107.884 952.021 101.149C952.021 98.1396 950.415 93.65 947.201 87.6804C945.008 87.0169 943.093 86.6862 941.46 86.6862H939.47C934.011 87.4015 931.282 89.9769 931.282 94.4148Z" fill="url(#paint7_linear_2582_5554)"/>
<path d="M969.854 46.892H973.757C996.868 46.892 1012.2 52.7087 1019.75 64.3398C1021.33 67.9117 1022.12 70.82 1022.12 73.0648V78.5756C1022.12 85.3617 1018.17 90.1302 1010.26 92.8856C1009.7 92.8856 1009.42 93.1421 1009.42 93.6504C1010.59 95.3329 1017.48 101.15 1030.08 111.098C1023.4 119.515 1019.7 123.726 1018.99 123.726C1017.46 123.37 1010.31 116.508 997.559 103.14V103.905C998.63 112.119 999.957 119.261 1001.54 125.332C999.547 125.332 992.406 123.215 980.111 118.98L980.953 113.469V111.096C980.953 98.9025 976.973 79.6193 969.015 53.2418L968.251 47.6568L969.859 46.892H969.854ZM988.067 61.969V62.7338C990.159 67.0705 992.276 73.9331 994.419 83.3194H997.557C1002.86 82.964 1005.51 81.3805 1005.51 78.5756C1005.51 70.107 999.698 64.5715 988.067 61.969Z" fill="url(#paint8_linear_2582_5554)"/>
<path d="M1089.55 51.6384C1089.55 52.2008 1089.82 52.4797 1090.39 52.4797C1086 88.14 1082.15 109.542 1078.83 116.686C1072.1 135.103 1067.02 144.541 1063.6 145C1059.57 142.346 1054.52 138.443 1048.45 133.292V132.528C1053.35 127.273 1057.51 118.089 1060.93 104.978C1061.54 104.978 1061.85 104.699 1061.85 104.137C1039.81 92.5059 1028.79 81.6643 1028.79 71.6144C1026.39 67.9931 1025.19 65.2129 1025.19 63.274V62.5093H1026.11C1029.58 62.5093 1035.52 61.9492 1043.94 60.8268C1048.48 71.8979 1055.34 80.4947 1064.52 86.6172H1065.36C1068.58 66.0587 1070.98 55.7771 1072.56 55.7771C1081.84 54.1441 1087.51 52.7676 1089.55 51.6452V51.6384Z" fill="url(#paint9_linear_2582_5554)"/>
<path d="M235.974 51.1758L233.211 73.5563L215.775 71.3722L213.847 79.0851L227.946 80.9497L225.184 103.193L208.035 101.094L200.977 124.361L179.525 121.595L186.188 98.2761L179.143 97.4146L172.217 120.765L150.748 118.122L157.561 94.7694L141.613 92.961L144.256 70.423L163.616 73.0345L165.692 65.2699L149.78 63.3175L152.543 40.937L171.371 43.247L178.979 17L200.277 19.6384L192.778 46.0137L199.899 46.7514L207.464 20.5989L229.334 23.2283L221.578 49.5518L235.976 51.1803L235.974 51.1758ZM194.179 68.7676L187.004 67.8858L184.953 75.4075L192.123 76.4264L194.179 68.7698V68.7676Z" fill="url(#paint10_linear_2582_5554)"/>
<path d="M245.2 19.2662L267.426 25.0762V34.6694C267.426 56.7845 272.561 75.4289 282.829 90.6072C283.639 91.282 286.522 92.8812 291.475 95.4049C296.61 92.9734 299.177 89.7749 299.177 85.8117V67.5046C299.177 59.983 296.61 45.8417 291.475 25.0784L293.434 24.064C297.937 24.064 305.009 23.7491 314.647 23.117C317.844 36.4936 319.443 51.6044 319.443 68.4471V89.6602C319.443 111.503 311.089 122.426 294.379 122.426C277.669 122.426 264.54 114.387 255.804 98.3088C248.102 72.4126 244.251 46.7189 244.251 21.2254L245.198 19.2662H245.2Z" fill="url(#paint11_linear_2582_5554)"/>
<path d="M323.497 24.3342C338.225 26.7229 345.587 28.9947 345.587 31.1563V37.9807C346.939 78.8301 351.015 99.256 357.814 99.256C375.514 99.256 384.365 102.432 384.365 108.782C384.365 110.404 385.827 114.952 388.756 122.428H368.827C348.198 122.428 337.885 118.802 337.885 111.551C337.885 107.183 333.09 83.1083 323.497 39.3325V24.3342Z" fill="url(#paint12_linear_2582_5554)"/>
<path d="M369.518 29.2663H370.193C372.04 29.2663 381.79 31.5853 399.445 36.2256H400.797C408.094 35.7758 415.051 35.5508 421.673 35.5508C427.258 35.5508 430.049 39.0193 430.049 45.9538C430.049 47.1707 431.671 52.9581 434.914 63.3162C427.213 60.0727 418.859 57.7536 409.85 56.3568V57.7761C412.057 61.6944 414.151 72.5945 416.133 90.4742C419.691 100.022 426.176 110.45 435.589 121.753C435.139 121.753 434.914 121.978 434.914 122.428C423.025 119.636 413.971 118.239 407.756 118.239H403.568C394.335 102.971 389.719 85.5864 389.719 66.085C388.547 59.1505 385.981 55.682 382.018 55.682C378.099 55.2322 374.856 55.0073 372.289 55.0073C371.48 55.0073 368.936 55.4571 364.655 56.3591C362.809 48.7025 361.886 41.0684 361.886 33.4567V31.3626C361.886 29.9681 364.43 29.2685 369.521 29.2685L369.518 29.2663Z" fill="url(#paint13_linear_2582_5554)"/>
<path d="M437.683 23.0499H443.02C473.917 23.0499 494.385 30.819 504.431 46.3571C506.547 51.1324 507.607 55.0034 507.607 57.977V65.4087C507.607 74.5071 502.314 80.8569 491.731 84.4602C491.009 84.4602 490.649 84.8201 490.649 85.5421C492.179 87.7937 501.367 95.5628 518.212 108.849C509.294 120.154 504.341 125.807 503.349 125.807C501.322 125.31 491.796 116.124 474.772 98.2439V99.3258C476.166 110.226 477.923 119.752 480.042 127.903C477.43 127.903 467.904 125.087 451.464 119.459L452.546 112.028V108.852C452.546 92.5937 447.254 66.81 436.671 31.4983L435.589 24.1341L437.683 23.0522V23.0499ZM462.072 43.1811V44.263C464.908 50.028 467.724 59.1939 470.516 71.7585H474.772C481.841 71.2636 485.377 69.147 485.377 65.4087C485.377 54.1037 477.608 46.6945 462.07 43.1834L462.072 43.1811Z" fill="url(#paint14_linear_2582_5554)"/>
<path d="M533.667 23.0262C535.565 23.0307 536.728 23.0712 537.158 23.1477C540.322 26.1437 543.044 29.1398 545.323 32.1336C547.601 35.1274 550.512 39.4956 554.05 45.238C557.59 50.9805 564.133 61.8243 573.675 77.7719C575.594 81.1233 577.087 83.9012 578.149 86.1033C579.213 88.3076 579.951 89.9091 580.364 90.9123C581.044 91.2542 582.447 91.8795 584.58 92.7904C586.71 93.6991 589.076 94.6078 591.676 95.5121C590.839 96.3376 590.095 97.0686 589.438 97.7051C588.784 98.3417 588.248 98.9333 587.83 99.4776C587.414 100.024 587.151 100.598 587.045 101.198C586.939 101.799 586.993 102.318 587.211 102.755C587.699 104.17 588.887 106.927 590.772 111.023C592.657 115.121 593.997 118.468 594.794 121.066C595.59 123.664 595.777 126.145 595.358 128.505C595.176 129.535 594.809 130.277 594.261 130.734C593.712 131.19 592.553 131.948 590.788 133.006C589.022 134.065 587.841 135.028 587.243 135.896C585.387 134.414 583.437 132.133 581.397 129.047C579.357 125.961 577.364 122.398 575.42 118.358C573.475 114.316 571.952 110.969 570.845 108.315C569.739 105.661 568.794 103.202 568.014 100.94C564.044 99.7048 559.869 98.0785 555.496 96.0609C551.121 94.0455 547.093 92.444 543.408 91.2587C544.009 96.7672 544.382 100.971 544.533 103.875C544.684 106.779 544.553 109.39 544.142 111.707C543.471 115.484 541.672 119.37 538.743 123.365C538.703 123.316 536.685 122.6 532.688 121.228C528.694 119.854 526.289 119.096 525.477 118.952L524.694 21.7329C524.755 21.391 525.122 21.2763 525.79 21.3955C526.46 21.5147 527.447 21.8453 528.757 22.3874C530.066 22.9295 530.745 23.2061 530.792 23.2129C530.815 23.0847 531.775 23.0217 533.671 23.0262H533.667ZM543.397 76.7147L560.73 82.3829L540.219 42.5524L543.397 76.7169V76.7147Z" stroke="black" stroke-width="29.5386" mask="url(#path-1-outside-1_2582_5554)"/>
<path d="M587.469 137.435L586.578 136.724C584.641 135.179 582.599 132.792 580.509 129.632C578.451 126.519 576.416 122.88 574.461 118.817C572.524 114.791 570.977 111.395 569.861 108.723C568.833 106.255 567.931 103.927 567.182 101.79C563.332 100.564 559.254 98.9629 555.047 97.024C551.336 95.3146 547.843 93.893 544.635 92.7886C545.133 97.4941 545.452 101.201 545.587 103.821C545.74 106.793 545.603 109.51 545.18 111.894C544.482 115.815 542.604 119.886 539.592 123.995L538.767 125.122L538.072 124.241C537.631 124.074 536.302 123.597 532.339 122.236C527.449 120.556 525.804 120.093 525.285 120.001L524.416 119.845L523.627 21.6456L523.645 21.5489C523.692 21.2879 524.021 20.0058 525.971 20.3522C526.72 20.4849 527.761 20.8313 529.158 21.4072C530.053 21.7783 530.539 21.9762 530.805 22.0842C531.423 21.9627 532.343 21.965 533.67 21.9672C536.277 21.974 537.001 22.046 537.343 22.1067L537.656 22.1629L537.888 22.3811C541.082 25.4042 543.866 28.47 546.167 31.4953C548.459 34.5071 551.415 38.9449 554.955 44.6851C558.462 50.3691 565.066 61.3209 574.587 77.2325C576.526 80.6176 578.042 83.4428 579.106 85.6471C580.051 87.604 580.75 89.111 581.189 90.1389C581.929 90.4921 583.206 91.0544 584.997 91.8191C587.109 92.7211 589.473 93.6276 592.026 94.5138L593.639 95.0739L592.424 96.2728C591.533 97.1522 590.8 97.8698 590.179 98.4726C589.567 99.0686 589.059 99.6264 588.674 100.128C588.36 100.54 588.168 100.954 588.092 101.388C588.024 101.761 588.049 102.056 588.164 102.285L588.218 102.413C588.692 103.79 589.878 106.539 591.738 110.585C593.634 114.703 595.004 118.127 595.809 120.761C596.65 123.509 596.851 126.179 596.405 128.696C596.178 129.974 595.685 130.937 594.941 131.555C594.343 132.052 593.162 132.826 591.335 133.921C589.309 135.138 588.467 135.998 588.119 136.504L587.473 137.442L587.469 137.435ZM542.17 89.7453L543.729 90.2469C547.429 91.4368 551.536 93.0697 555.936 95.0964C560.246 97.0825 564.413 98.7087 568.325 99.9256L568.838 100.085L569.013 100.594C569.783 102.823 570.727 105.283 571.82 107.906C572.92 110.545 574.452 113.905 576.373 117.897C578.287 121.874 580.273 125.428 582.28 128.462C583.962 131.004 585.586 132.995 587.122 134.398C587.853 133.667 588.884 132.907 590.238 132.095C592.366 130.82 593.229 130.208 593.578 129.918C593.927 129.628 594.172 129.09 594.309 128.321C594.696 126.139 594.516 123.804 593.774 121.379C592.995 118.835 591.659 115.502 589.804 111.469C587.912 107.357 586.74 104.64 586.225 103.162C585.93 102.535 585.854 101.813 585.996 101.014C586.13 100.25 586.463 99.5162 586.983 98.837C587.433 98.2521 588.009 97.6156 588.695 96.9475C589.005 96.6461 589.345 96.3155 589.718 95.9489C587.73 95.2291 585.865 94.4981 584.16 93.7715C581.978 92.8403 580.579 92.2173 579.884 91.8664L579.531 91.6887L579.38 91.3243C578.975 90.3436 578.24 88.7444 577.19 86.5715C576.148 84.4122 574.655 81.6298 572.752 78.3076C563.246 62.4208 556.647 51.478 553.145 45.803C549.642 40.1213 546.725 35.7419 544.476 32.7841C542.305 29.9297 539.682 27.0327 536.68 24.167C536.272 24.1333 535.425 24.0996 533.661 24.0951C532.669 24.0928 532.066 24.1108 531.702 24.1288L531.646 24.4505L530.6 24.2638C530.451 24.2368 530.413 24.23 528.344 23.373C527.215 22.9052 526.346 22.606 525.757 22.4778L526.526 118.118C527.48 118.379 529.297 118.946 533.029 120.23C535.926 121.226 537.487 121.762 538.355 122.083C540.895 118.469 542.487 114.919 543.09 111.527C543.486 109.301 543.612 106.748 543.468 103.936C543.32 101.059 542.942 96.8328 542.348 91.3805L542.17 89.7543V89.7453ZM562.857 84.194L542.404 77.5069L538.655 37.1927L562.857 84.194ZM544.39 75.9211L558.604 80.5682L541.786 47.9084L544.392 75.9211H544.39Z" stroke="black" stroke-width="29.5386" mask="url(#path-1-outside-1_2582_5554)"/>
<path d="M630.738 47.583C650.073 47.583 663.593 60.6941 671.297 86.9164C672.163 89.1612 672.597 92.3755 672.597 96.5592C672.597 113.242 663.287 122.833 644.665 125.332H642.14C623.263 125.332 609.743 111.89 601.58 85.0023V75.436C605.816 56.8658 613.848 47.5807 625.686 47.5807H630.736L630.738 47.583ZM625.688 79.2643C629.872 97.171 636.631 106.125 645.968 106.125C648.467 103.779 649.717 101.535 649.717 99.391V96.5592C649.717 86.0504 644.231 77.7348 633.264 71.6122H630.738C628.187 71.6122 626.502 74.1629 625.688 79.2643Z" stroke="black" stroke-width="29.5386" mask="url(#path-1-outside-1_2582_5554)"/>
<path d="M707.062 49.4179C724.611 49.4179 736.703 59.6477 743.337 80.105C744.05 83.0651 744.407 86.1759 744.407 89.4419C744.407 99.5952 740.759 107.477 733.464 113.089C723.311 122.579 709.41 127.322 691.758 127.322C688.44 127.322 686.783 126.225 686.783 124.032C686.783 121.838 683.134 107.07 675.84 79.5697C674.002 72.2752 672.346 63.8561 670.864 54.3168C671.222 54.3168 671.4 54.1391 671.4 53.7815L674.155 54.3168H680.201L699.945 49.9554C701.731 49.6001 704.102 49.4201 707.062 49.4201V49.4179ZM697.19 68.0128C697.19 72.7566 699.563 84.2887 704.307 102.603H708.745C713.641 102.603 718.207 98.0387 722.443 88.9043C722.443 88.6501 722.621 87.5525 722.978 85.6136C720.733 78.3708 717.265 73.4201 712.571 70.7682C708.54 68.9305 705.607 68.0128 703.769 68.0128H697.188H697.19Z" stroke="black" stroke-width="29.5386" mask="url(#path-1-outside-1_2582_5554)"/>
<path d="M779.38 49.4179C796.929 49.4179 809.021 59.6477 815.654 80.105C816.367 83.0651 816.725 86.1759 816.725 89.4419C816.725 99.5952 813.077 107.477 805.782 113.089C795.629 122.579 781.728 127.322 764.076 127.322C760.758 127.322 759.1 126.225 759.1 124.032C759.1 121.838 755.452 107.07 748.157 79.5697C746.32 72.2752 744.664 63.8561 743.182 54.3168C743.54 54.3168 743.717 54.1391 743.717 53.7815L746.473 54.3168H752.519L772.263 49.9554C774.049 49.6001 776.42 49.4201 779.38 49.4201V49.4179ZM769.508 68.0128C769.508 72.7566 771.881 84.2887 776.624 102.603H781.062C785.959 102.603 790.525 98.0387 794.761 88.9043C794.761 88.6501 794.938 87.5525 795.296 85.6136C793.051 78.3708 789.583 73.4201 784.888 70.7682C780.858 68.9305 777.925 68.0128 776.087 68.0128H769.505H769.508Z" stroke="black" stroke-width="29.5386" mask="url(#path-1-outside-1_2582_5554)"/>
<path d="M820.55 69.9271C827.284 71.1012 832.743 71.6883 836.927 71.6883V72.1471C836.927 72.7589 836.621 75.5413 836.009 80.4875C836.009 82.1205 838.229 85.8184 842.667 91.5833C844.453 95.614 845.346 101.941 845.346 110.563C846.52 114.186 848.585 119.209 851.545 125.638C848.738 125.026 846.518 124.72 844.887 124.72H839.99C836.317 125.332 833.663 125.638 832.032 125.638C828.818 115.028 827.212 108.395 827.212 105.74C827.466 100.587 827.594 97.3483 827.594 96.0212C827.594 91.1739 824.814 86.3019 819.254 81.4052C818.642 80.1816 818.336 79.2886 818.336 78.7263C818.847 73.7779 819.587 70.8448 820.556 69.9248L820.55 69.9271ZM825.831 46.892C829.862 46.892 832.819 50.871 834.709 58.829V61.9668C834.709 64.621 833.535 66.6611 831.189 68.0894H829.428C823.51 66.2517 820.55 61.5349 820.55 53.9323C820.55 49.238 822.311 46.892 825.831 46.892Z" stroke="black" stroke-width="29.5386" mask="url(#path-1-outside-1_2582_5554)"/>
<path d="M904.345 48.4245L905.11 49.7246V55.0824C905.11 59.4708 908.171 78.3199 914.294 111.634V115.613C914.294 117.093 906.718 119.772 891.565 123.648C891.565 118.24 883.301 104.466 866.771 82.3236H865.318C869.245 101.557 872.331 115.332 874.578 123.648C875.037 124.464 875.266 125.128 875.266 125.638C874.807 125.638 874.578 125.841 874.578 126.25L873.123 125.638H871.746C871.184 125.638 868.581 126.07 863.941 126.938H856.824C855.907 126.938 855.448 126.504 855.448 125.638C855.448 112.732 852.359 90.3109 846.187 58.3731C853.329 56.18 858.534 55.0824 861.8 55.0824L868.152 65.7193C880.905 76.995 890.368 89.4179 896.542 102.988V104.979H897.307V102.988C895.368 88.7049 892.053 74.062 887.359 59.0614L886.594 55.0824C887.869 53.1952 893.787 50.9752 904.347 48.4245H904.345Z" stroke="black" stroke-width="29.5386" mask="url(#path-1-outside-1_2582_5554)"/>
<path d="M931.282 48.6528C950.874 48.6528 963.243 69.2137 968.398 110.333C970.236 115.74 973.933 121.685 979.494 128.163V128.622H976.127C963.933 128.622 957.838 124.771 957.838 117.067H956.843C955.057 122.832 950.721 125.716 943.833 125.716H943.375C935.875 125.716 928.808 121.073 922.177 111.788C918.963 106.788 917.357 100.998 917.357 94.417V92.5051C917.357 84.7001 921.361 79.241 929.37 76.128C930.646 75.7726 931.946 75.5927 933.273 75.5927H938.093C939.879 75.5927 942.277 75.9256 945.286 76.5869V75.5927C945.286 68.4512 942.711 64.2945 937.558 63.1203H935.646C935.135 63.1203 934.499 63.7591 933.732 65.0322C933.732 67.3288 934.062 69.0877 934.726 70.3136L917.814 72.7631C917.098 72.7631 916.462 70.1876 915.899 65.0345V62.1261C915.899 55.3917 919.75 51.0551 927.456 49.1162C929.242 48.8103 930.518 48.6573 931.282 48.6573V48.6528ZM931.282 94.4148V95.8701C931.282 100.564 934.497 105.385 940.925 110.333C941.996 110.945 942.965 111.251 943.833 111.251H945.286C948.856 111.251 951.103 107.884 952.021 101.149C952.021 98.1396 950.415 93.65 947.201 87.6804C945.008 87.0169 943.093 86.6862 941.46 86.6862H939.47C934.011 87.4015 931.282 89.9769 931.282 94.4148Z" stroke="black" stroke-width="29.5386" mask="url(#path-1-outside-1_2582_5554)"/>
<path d="M969.854 46.892H973.757C996.868 46.892 1012.2 52.7087 1019.75 64.3398C1021.33 67.9117 1022.12 70.82 1022.12 73.0648V78.5756C1022.12 85.3617 1018.17 90.1302 1010.26 92.8856C1009.7 92.8856 1009.42 93.1421 1009.42 93.6504C1010.59 95.3329 1017.48 101.15 1030.08 111.098C1023.4 119.515 1019.7 123.726 1018.99 123.726C1017.46 123.37 1010.31 116.508 997.559 103.14V103.905C998.63 112.119 999.957 119.261 1001.54 125.332C999.547 125.332 992.406 123.215 980.111 118.98L980.953 113.469V111.096C980.953 98.9025 976.973 79.6193 969.015 53.2418L968.251 47.6568L969.859 46.892H969.854ZM988.067 61.969V62.7338C990.159 67.0705 992.276 73.9331 994.419 83.3194H997.557C1002.86 82.964 1005.51 81.3805 1005.51 78.5756C1005.51 70.107 999.698 64.5715 988.067 61.969Z" stroke="black" stroke-width="29.5386" mask="url(#path-1-outside-1_2582_5554)"/>
<path d="M1089.55 51.6384C1089.55 52.2008 1089.82 52.4797 1090.39 52.4797C1086 88.14 1082.15 109.542 1078.83 116.686C1072.1 135.103 1067.02 144.541 1063.6 145C1059.57 142.346 1054.52 138.443 1048.45 133.292V132.528C1053.35 127.273 1057.51 118.089 1060.93 104.978C1061.54 104.978 1061.85 104.699 1061.85 104.137C1039.81 92.5059 1028.79 81.6643 1028.79 71.6144C1026.39 67.9931 1025.19 65.2129 1025.19 63.274V62.5093H1026.11C1029.58 62.5093 1035.52 61.9492 1043.94 60.8268C1048.48 71.8979 1055.34 80.4947 1064.52 86.6172H1065.36C1068.58 66.0587 1070.98 55.7771 1072.56 55.7771C1081.84 54.1441 1087.51 52.7676 1089.55 51.6452V51.6384Z" stroke="black" stroke-width="29.5386" mask="url(#path-1-outside-1_2582_5554)"/>
<path d="M235.974 51.1758L233.211 73.5563L215.775 71.3722L213.847 79.0851L227.946 80.9497L225.184 103.193L208.035 101.094L200.977 124.361L179.525 121.595L186.188 98.2761L179.143 97.4146L172.217 120.765L150.748 118.122L157.561 94.7694L141.613 92.961L144.256 70.423L163.616 73.0345L165.692 65.2699L149.78 63.3175L152.543 40.937L171.371 43.247L178.979 17L200.277 19.6384L192.778 46.0137L199.899 46.7514L207.464 20.5989L229.334 23.2283L221.578 49.5518L235.976 51.1803L235.974 51.1758ZM194.179 68.7676L187.004 67.8858L184.953 75.4075L192.123 76.4264L194.179 68.7698V68.7676Z" stroke="black" stroke-width="29.5386" mask="url(#path-1-outside-1_2582_5554)"/>
<path d="M245.2 19.2662L267.426 25.0762V34.6694C267.426 56.7845 272.561 75.4289 282.829 90.6072C283.639 91.282 286.522 92.8812 291.475 95.4049C296.61 92.9734 299.177 89.7749 299.177 85.8117V67.5046C299.177 59.983 296.61 45.8417 291.475 25.0784L293.434 24.064C297.937 24.064 305.009 23.7491 314.647 23.117C317.844 36.4936 319.443 51.6044 319.443 68.4471V89.6602C319.443 111.503 311.089 122.426 294.379 122.426C277.669 122.426 264.54 114.387 255.804 98.3088C248.102 72.4126 244.251 46.7189 244.251 21.2254L245.198 19.2662H245.2Z" stroke="black" stroke-width="29.5386" mask="url(#path-1-outside-1_2582_5554)"/>
<path d="M323.497 24.3342C338.225 26.7229 345.587 28.9947 345.587 31.1563V37.9807C346.939 78.8301 351.015 99.256 357.814 99.256C375.514 99.256 384.365 102.432 384.365 108.782C384.365 110.404 385.827 114.952 388.756 122.428H368.827C348.198 122.428 337.885 118.802 337.885 111.551C337.885 107.183 333.09 83.1083 323.497 39.3325V24.3342Z" stroke="black" stroke-width="29.5386" mask="url(#path-1-outside-1_2582_5554)"/>
<path d="M369.518 29.2663H370.193C372.04 29.2663 381.79 31.5853 399.445 36.2256H400.797C408.094 35.7758 415.051 35.5508 421.673 35.5508C427.258 35.5508 430.049 39.0193 430.049 45.9538C430.049 47.1707 431.671 52.9581 434.914 63.3162C427.213 60.0727 418.859 57.7536 409.85 56.3568V57.7761C412.057 61.6944 414.151 72.5945 416.133 90.4742C419.691 100.022 426.176 110.45 435.589 121.753C435.139 121.753 434.914 121.978 434.914 122.428C423.025 119.636 413.971 118.239 407.756 118.239H403.568C394.335 102.971 389.719 85.5864 389.719 66.085C388.547 59.1505 385.981 55.682 382.018 55.682C378.099 55.2322 374.856 55.0073 372.289 55.0073C371.48 55.0073 368.936 55.4571 364.655 56.3591C362.809 48.7025 361.886 41.0684 361.886 33.4567V31.3626C361.886 29.9681 364.43 29.2685 369.521 29.2685L369.518 29.2663Z" stroke="black" stroke-width="29.5386" mask="url(#path-1-outside-1_2582_5554)"/>
<path d="M437.683 23.0499H443.02C473.917 23.0499 494.385 30.819 504.431 46.3571C506.547 51.1324 507.607 55.0034 507.607 57.977V65.4087C507.607 74.5071 502.314 80.8569 491.731 84.4602C491.009 84.4602 490.649 84.8201 490.649 85.5421C492.179 87.7937 501.367 95.5628 518.212 108.849C509.294 120.154 504.341 125.807 503.349 125.807C501.322 125.31 491.796 116.124 474.772 98.2439V99.3258C476.166 110.226 477.923 119.752 480.042 127.903C477.43 127.903 467.904 125.087 451.464 119.459L452.546 112.028V108.852C452.546 92.5937 447.254 66.81 436.671 31.4983L435.589 24.1341L437.683 23.0522V23.0499ZM462.072 43.1811V44.263C464.908 50.028 467.724 59.1939 470.516 71.7585H474.772C481.841 71.2636 485.377 69.147 485.377 65.4087C485.377 54.1037 477.608 46.6945 462.07 43.1834L462.072 43.1811Z" stroke="black" stroke-width="29.5386" mask="url(#path-1-outside-1_2582_5554)"/>
<mask id="path-2-outside-2_2582_5554" maskUnits="userSpaceOnUse" x="425" y="96" width="379" height="127" fill="black">
<rect fill="white" x="425" y="96" width="379" height="127"/>
<path d="M470.125 116.188C482.625 116.188 491.146 120 495.688 127.625C498.979 135.208 500.625 142.458 500.625 149.375C500.625 155.792 498.083 159 493 159C486.333 159 480.875 159.792 476.625 161.375V162C482.167 167.792 487.438 182.062 492.438 204.812C491.729 205.229 491.188 205.438 490.812 205.438C489.812 205.438 484.917 205.021 476.125 204.188C474.417 204.188 471.146 205 466.312 206.625C462.312 183.958 458.5 169.479 454.875 163.188C443.792 150.854 437.604 140.417 436.312 131.875C434.854 128.208 433.771 123.792 433.062 118.625V118H433.625C436.833 118 439.542 118.208 441.75 118.625L470.125 116.188ZM457.562 129.438V130.062C462.938 142.146 467.667 148.375 471.75 148.75C479.375 146.625 483.188 143 483.188 137.875C483.188 132.25 476.104 129.438 461.938 129.438L460.875 130.062C460.208 129.646 459.479 129.438 458.688 129.438H457.562ZM527.375 115.125C544.333 115.125 556.208 130.333 563 160.75C563.75 163.375 564.125 167.104 564.125 171.938C564.125 191.312 555.958 202.438 539.625 205.312H537.375C520.792 205.312 508.917 189.729 501.75 158.562V147.438C505.458 125.896 512.5 115.125 522.875 115.125H527.375ZM522.875 151.875C526.583 172.667 532.542 183.062 540.75 183.062C542.958 180.354 544.062 177.75 544.062 175.25V171.938C544.062 159.771 539.229 150.104 529.562 142.938H527.375C525.125 142.938 523.625 145.917 522.875 151.875ZM528.5 117.375C538.708 117.375 548.729 127.396 558.562 147.438C561.521 157.604 563 166.125 563 173C563 191.292 554.833 202.062 538.5 205.312C522.833 205.312 511.333 191.208 504 163C504 162.25 503.25 161.875 501.75 161.875V145.188C503.5 145.188 505.729 139.625 508.438 128.5C513.729 121.083 520.417 117.375 528.5 117.375ZM521.812 153C525.479 174.5 531.042 185.25 538.5 185.25H540.75C543.708 184.042 545.188 181.458 545.188 177.5V171.938C545.188 159.771 540.354 150.104 530.688 142.938H526.25C523.292 143.938 521.812 147.292 521.812 153ZM575.312 115.375C582.771 117.208 586.5 121.479 586.5 128.188C586.5 133.479 583.042 136.854 576.125 138.312C568.125 136.812 564.125 133.125 564.125 127.25V126.375C564.125 120.458 567.854 116.792 575.312 115.375ZM567.312 141.938C571.312 144.396 577.438 147.167 585.688 150.25C587.812 157.25 588.875 163.667 588.875 169.5C588.875 172.667 588.354 180.625 587.312 193.375C587.312 200.208 588.917 205.708 592.125 209.875C591.583 209.875 591.312 210.188 591.312 210.812L572.938 203.5C571.312 200.083 570.5 196.708 570.5 193.375C571.042 173.792 571.312 162.479 571.312 159.438C571.312 155.646 569.708 149.812 566.5 141.938H567.312ZM660.75 105.938L661.625 107.688V114.75C661.625 120.625 665.354 145.688 672.812 189.938V195.188C672.812 197.188 663.604 200.729 645.188 205.812C645.188 198.646 635.125 180.375 615 151H613.312C618.062 176.542 621.792 194.812 624.5 205.812C625.083 206.979 625.375 207.875 625.375 208.5C624.792 208.5 624.5 208.792 624.5 209.375L622.812 208.5H621.062C620.396 208.5 617.229 209.083 611.562 210.25H602.938C601.771 210.25 601.188 209.667 601.188 208.5C601.188 191.375 597.458 161.604 590 119.188C598.708 116.229 605.042 114.75 609 114.75L616.75 128.875C632.25 143.875 643.75 160.396 651.25 178.438V181.062H652.125V178.438C649.833 159.479 645.812 140.021 640.062 120.062L639.188 114.75C640.688 112.208 647.875 109.271 660.75 105.938ZM671 118.812H671.625C673.333 118.812 682.354 120.958 698.688 125.25H699.938C706.688 124.833 713.125 124.625 719.25 124.625C724.417 124.625 727 127.833 727 134.25C727 135.375 728.5 140.729 731.5 150.312C724.375 147.312 716.646 145.167 708.312 143.875V145.188C710.354 148.812 712.292 158.896 714.125 175.438C717.417 184.271 723.417 193.917 732.125 204.375C731.708 204.375 731.5 204.583 731.5 205C720.5 202.417 712.125 201.125 706.375 201.125H702.5C693.958 187 689.688 170.917 689.688 152.875C688.604 146.458 686.229 143.25 682.562 143.25C678.938 142.833 675.938 142.625 673.562 142.625C672.812 142.625 670.458 143.042 666.5 143.875C664.792 136.792 663.938 129.729 663.938 122.688V120.75C663.938 119.458 666.292 118.812 671 118.812ZM742.875 116.188C746.125 116.188 752.583 119.521 762.25 126.188C767.417 127.521 770 130.354 770 134.688L771.938 151.062H771.25C767.125 151.062 758.104 146.312 744.188 136.812H741.562C739.854 137.604 739 139.271 739 141.812C739 148.438 750.833 155.062 774.5 161.688C788.708 168.646 795.812 178.375 795.812 190.875V195.812C795.812 204.312 789.792 209.062 777.75 210.062C772.333 210.062 762 207.208 746.75 201.5H746.125C745.083 201.5 741.854 201.75 736.438 202.25L735.75 200.812V191.562C735.75 189.104 735.542 185.083 735.125 179.5C736.542 178.542 737.833 178.062 739 178.062H739.625C743.625 178.062 753.104 181.625 768.062 188.75H771.938C772.271 188.75 772.917 188.042 773.875 186.625C773.875 181.333 764.188 176.104 744.812 170.938C735.521 166.812 728.208 159.479 722.875 148.938C721.125 143.354 720.042 138.854 719.625 135.438C719.625 125.438 726.521 119.021 740.312 116.188H742.875Z"/>
</mask>
<path d="M470.125 116.188C482.625 116.188 491.146 120 495.688 127.625C498.979 135.208 500.625 142.458 500.625 149.375C500.625 155.792 498.083 159 493 159C486.333 159 480.875 159.792 476.625 161.375V162C482.167 167.792 487.438 182.062 492.438 204.812C491.729 205.229 491.188 205.438 490.812 205.438C489.812 205.438 484.917 205.021 476.125 204.188C474.417 204.188 471.146 205 466.312 206.625C462.312 183.958 458.5 169.479 454.875 163.188C443.792 150.854 437.604 140.417 436.312 131.875C434.854 128.208 433.771 123.792 433.062 118.625V118H433.625C436.833 118 439.542 118.208 441.75 118.625L470.125 116.188ZM457.562 129.438V130.062C462.938 142.146 467.667 148.375 471.75 148.75C479.375 146.625 483.188 143 483.188 137.875C483.188 132.25 476.104 129.438 461.938 129.438L460.875 130.062C460.208 129.646 459.479 129.438 458.688 129.438H457.562ZM527.375 115.125C544.333 115.125 556.208 130.333 563 160.75C563.75 163.375 564.125 167.104 564.125 171.938C564.125 191.312 555.958 202.438 539.625 205.312H537.375C520.792 205.312 508.917 189.729 501.75 158.562V147.438C505.458 125.896 512.5 115.125 522.875 115.125H527.375ZM522.875 151.875C526.583 172.667 532.542 183.062 540.75 183.062C542.958 180.354 544.062 177.75 544.062 175.25V171.938C544.062 159.771 539.229 150.104 529.562 142.938H527.375C525.125 142.938 523.625 145.917 522.875 151.875ZM528.5 117.375C538.708 117.375 548.729 127.396 558.562 147.438C561.521 157.604 563 166.125 563 173C563 191.292 554.833 202.062 538.5 205.312C522.833 205.312 511.333 191.208 504 163C504 162.25 503.25 161.875 501.75 161.875V145.188C503.5 145.188 505.729 139.625 508.438 128.5C513.729 121.083 520.417 117.375 528.5 117.375ZM521.812 153C525.479 174.5 531.042 185.25 538.5 185.25H540.75C543.708 184.042 545.188 181.458 545.188 177.5V171.938C545.188 159.771 540.354 150.104 530.688 142.938H526.25C523.292 143.938 521.812 147.292 521.812 153ZM575.312 115.375C582.771 117.208 586.5 121.479 586.5 128.188C586.5 133.479 583.042 136.854 576.125 138.312C568.125 136.812 564.125 133.125 564.125 127.25V126.375C564.125 120.458 567.854 116.792 575.312 115.375ZM567.312 141.938C571.312 144.396 577.438 147.167 585.688 150.25C587.812 157.25 588.875 163.667 588.875 169.5C588.875 172.667 588.354 180.625 587.312 193.375C587.312 200.208 588.917 205.708 592.125 209.875C591.583 209.875 591.312 210.188 591.312 210.812L572.938 203.5C571.312 200.083 570.5 196.708 570.5 193.375C571.042 173.792 571.312 162.479 571.312 159.438C571.312 155.646 569.708 149.812 566.5 141.938H567.312ZM660.75 105.938L661.625 107.688V114.75C661.625 120.625 665.354 145.688 672.812 189.938V195.188C672.812 197.188 663.604 200.729 645.188 205.812C645.188 198.646 635.125 180.375 615 151H613.312C618.062 176.542 621.792 194.812 624.5 205.812C625.083 206.979 625.375 207.875 625.375 208.5C624.792 208.5 624.5 208.792 624.5 209.375L622.812 208.5H621.062C620.396 208.5 617.229 209.083 611.562 210.25H602.938C601.771 210.25 601.188 209.667 601.188 208.5C601.188 191.375 597.458 161.604 590 119.188C598.708 116.229 605.042 114.75 609 114.75L616.75 128.875C632.25 143.875 643.75 160.396 651.25 178.438V181.062H652.125V178.438C649.833 159.479 645.812 140.021 640.062 120.062L639.188 114.75C640.688 112.208 647.875 109.271 660.75 105.938ZM671 118.812H671.625C673.333 118.812 682.354 120.958 698.688 125.25H699.938C706.688 124.833 713.125 124.625 719.25 124.625C724.417 124.625 727 127.833 727 134.25C727 135.375 728.5 140.729 731.5 150.312C724.375 147.312 716.646 145.167 708.312 143.875V145.188C710.354 148.812 712.292 158.896 714.125 175.438C717.417 184.271 723.417 193.917 732.125 204.375C731.708 204.375 731.5 204.583 731.5 205C720.5 202.417 712.125 201.125 706.375 201.125H702.5C693.958 187 689.688 170.917 689.688 152.875C688.604 146.458 686.229 143.25 682.562 143.25C678.938 142.833 675.938 142.625 673.562 142.625C672.812 142.625 670.458 143.042 666.5 143.875C664.792 136.792 663.938 129.729 663.938 122.688V120.75C663.938 119.458 666.292 118.812 671 118.812ZM742.875 116.188C746.125 116.188 752.583 119.521 762.25 126.188C767.417 127.521 770 130.354 770 134.688L771.938 151.062H771.25C767.125 151.062 758.104 146.312 744.188 136.812H741.562C739.854 137.604 739 139.271 739 141.812C739 148.438 750.833 155.062 774.5 161.688C788.708 168.646 795.812 178.375 795.812 190.875V195.812C795.812 204.312 789.792 209.062 777.75 210.062C772.333 210.062 762 207.208 746.75 201.5H746.125C745.083 201.5 741.854 201.75 736.438 202.25L735.75 200.812V191.562C735.75 189.104 735.542 185.083 735.125 179.5C736.542 178.542 737.833 178.062 739 178.062H739.625C743.625 178.062 753.104 181.625 768.062 188.75H771.938C772.271 188.75 772.917 188.042 773.875 186.625C773.875 181.333 764.188 176.104 744.812 170.938C735.521 166.812 728.208 159.479 722.875 148.938C721.125 143.354 720.042 138.854 719.625 135.438C719.625 125.438 726.521 119.021 740.312 116.188H742.875Z" fill="white"/>
<path d="M470.125 116.188V108.188H469.782L469.44 108.217L470.125 116.188ZM495.688 127.625L503.026 124.44L502.822 123.971L502.561 123.531L495.688 127.625ZM476.625 161.375L473.832 153.878L468.625 155.818V161.375H476.625ZM476.625 162H468.625V165.211L470.845 167.531L476.625 162ZM492.438 204.812L496.494 211.708L501.497 208.765L500.251 203.095L492.438 204.812ZM476.125 204.188L476.88 196.223L476.503 196.188H476.125V204.188ZM466.312 206.625L458.434 208.015L460.05 217.171L468.862 214.208L466.312 206.625ZM454.875 163.188L461.807 159.194L461.387 158.465L460.825 157.84L454.875 163.188ZM436.312 131.875L444.223 130.679L444.085 129.771L443.746 128.918L436.312 131.875ZM433.062 118.625H425.062V119.171L425.137 119.712L433.062 118.625ZM433.062 118V110H425.062V118H433.062ZM441.75 118.625L440.267 126.486L441.343 126.689L442.435 126.596L441.75 118.625ZM457.562 129.438V121.438H449.562V129.438H457.562ZM457.562 130.062H449.562V131.762L450.253 133.314L457.562 130.062ZM471.75 148.75L471.018 156.716L472.482 156.851L473.898 156.456L471.75 148.75ZM461.938 129.438V121.438H459.759L457.881 122.542L461.938 129.438ZM460.875 130.062L456.635 136.846L460.749 139.418L464.931 136.958L460.875 130.062ZM470.125 124.188C481.082 124.188 486.267 127.442 488.814 131.719L502.561 123.531C496.025 112.558 484.168 108.188 470.125 108.188V124.188ZM488.349 130.81C491.288 137.581 492.625 143.746 492.625 149.375H508.625C508.625 141.17 506.67 132.835 503.026 124.44L488.349 130.81ZM492.625 149.375C492.625 150.477 492.513 151.167 492.414 151.543C492.318 151.906 492.268 151.853 492.448 151.626C492.658 151.361 492.958 151.14 493.233 151.025C493.46 150.929 493.442 151 493 151V167C497.335 167 501.838 165.539 504.989 161.561C507.859 157.939 508.625 153.424 508.625 149.375H492.625ZM493 151C485.787 151 479.291 151.845 473.832 153.878L479.418 168.872C482.459 167.739 486.88 167 493 167V151ZM468.625 161.375V162H484.625V161.375H468.625ZM470.845 167.531C472.449 169.207 474.694 172.953 477.23 179.819C479.69 186.48 482.166 195.346 484.624 206.53L500.251 203.095C497.709 191.529 495.049 181.884 492.239 174.275C489.504 166.869 486.343 160.584 482.405 156.469L470.845 167.531ZM488.381 197.917C488.263 197.986 488.36 197.918 488.628 197.814C488.771 197.759 489.018 197.673 489.352 197.597C489.68 197.523 490.182 197.438 490.812 197.438V213.438C493.524 213.438 495.699 212.175 496.494 211.708L488.381 197.917ZM490.812 197.438C490.891 197.438 490.677 197.434 489.896 197.379C489.214 197.331 488.276 197.257 487.069 197.154C484.659 196.949 481.267 196.639 476.88 196.223L475.37 212.152C483.853 212.956 489.319 213.438 490.812 213.438V197.438ZM476.125 196.188C474.261 196.188 472.243 196.59 470.462 197.033C468.54 197.51 466.292 198.192 463.763 199.042L468.862 214.208C471.166 213.433 472.97 212.896 474.319 212.561C475.809 212.191 476.28 212.188 476.125 212.188V196.188ZM474.191 205.235C472.17 193.786 470.173 184.263 468.189 176.729C466.251 169.368 464.178 163.31 461.807 159.194L447.943 167.181C449.197 169.357 450.842 173.684 452.717 180.803C454.546 187.748 456.455 196.797 458.434 208.015L474.191 205.235ZM460.825 157.84C449.978 145.77 445.149 136.804 444.223 130.679L428.402 133.071C430.06 144.03 437.605 155.939 448.925 168.535L460.825 157.84ZM443.746 128.918C442.589 126.01 441.635 122.256 440.988 117.538L425.137 119.712C425.907 125.327 427.119 130.407 428.879 134.832L443.746 128.918ZM441.062 118.625V118H425.062V118.625H441.062ZM433.062 126H433.625V110H433.062V126ZM433.625 126C436.528 126 438.706 126.192 440.267 126.486L443.233 110.764C440.378 110.225 437.139 110 433.625 110V126ZM442.435 126.596L470.81 124.158L469.44 108.217L441.065 110.654L442.435 126.596ZM449.562 129.438V130.062H465.562V129.438H449.562ZM450.253 133.314C453.044 139.589 455.863 144.807 458.769 148.634C461.382 152.076 465.406 156.201 471.018 156.716L472.482 140.784C474.011 140.924 473.628 141.746 471.512 138.959C469.689 136.557 467.456 132.619 464.872 126.811L450.253 133.314ZM473.898 156.456C478.387 155.205 482.627 153.291 485.841 150.235C489.288 146.958 491.188 142.694 491.188 137.875H475.188C475.188 138.139 475.144 138.229 475.139 138.242C475.131 138.259 475.073 138.395 474.816 138.64C474.217 139.209 472.738 140.17 469.602 141.044L473.898 156.456ZM491.188 137.875C491.188 134.631 490.109 131.569 487.987 129.04C485.985 126.656 483.382 125.126 480.827 124.112C475.854 122.137 469.315 121.438 461.938 121.438V137.438C468.726 137.438 472.813 138.144 474.923 138.982C475.91 139.374 475.963 139.602 475.732 139.327C475.38 138.908 475.188 138.307 475.188 137.875H491.188ZM457.881 122.542L456.819 123.167L464.931 136.958L465.994 136.333L457.881 122.542ZM465.115 123.279C463.167 122.061 460.967 121.438 458.688 121.438V137.438C458.373 137.438 458.011 137.395 457.63 137.286C457.249 137.177 456.913 137.02 456.635 136.846L465.115 123.279ZM458.688 121.438H457.562V137.438H458.688V121.438ZM563 160.75L555.192 162.493L555.243 162.722L555.308 162.948L563 160.75ZM539.625 205.312V213.312H540.324L541.012 213.191L539.625 205.312ZM501.75 158.562H493.75V159.47L493.953 160.355L501.75 158.562ZM501.75 147.438L493.866 146.08L493.75 146.754V147.438H501.75ZM522.875 151.875L514.938 150.876L514.786 152.082L514.999 153.28L522.875 151.875ZM540.75 183.062V191.062H544.549L546.95 188.118L540.75 183.062ZM529.562 142.938L534.327 136.511L532.205 134.938H529.562V142.938ZM558.562 147.438L566.244 145.202L566.05 144.536L565.745 143.914L558.562 147.438ZM538.5 205.312V213.312H539.288L540.061 213.159L538.5 205.312ZM504 163H496V164.023L496.257 165.013L504 163ZM501.75 161.875H493.75V169.875H501.75V161.875ZM501.75 145.188V137.188H493.75V145.188H501.75ZM508.438 128.5L501.925 123.854L501.029 125.109L500.665 126.608L508.438 128.5ZM521.812 153H513.812V153.677L513.926 154.345L521.812 153ZM540.75 185.25V193.25H542.321L543.775 192.656L540.75 185.25ZM530.688 142.938L535.452 136.511L533.33 134.938H530.688V142.938ZM526.25 142.938V134.938H524.934L523.688 135.359L526.25 142.938ZM527.375 123.125C533.03 123.125 538.036 125.489 542.694 131.455C547.587 137.721 551.914 147.812 555.192 162.493L570.808 159.007C567.294 143.271 562.288 130.55 555.306 121.608C548.089 112.366 538.679 107.125 527.375 107.125V123.125ZM555.308 162.948C555.754 164.511 556.125 167.37 556.125 171.938H572.125C572.125 166.838 571.746 162.239 570.692 158.552L555.308 162.948ZM556.125 171.938C556.125 180.591 554.292 186.344 551.551 190.078C548.926 193.655 544.81 196.277 538.238 197.434L541.012 213.191C550.773 211.473 558.908 207.095 564.449 199.547C569.874 192.156 572.125 182.659 572.125 171.938H556.125ZM539.625 197.312H537.375V213.312H539.625V197.312ZM537.375 197.312C532.049 197.312 527.128 194.988 522.394 188.776C517.448 182.285 513.017 171.861 509.547 156.77L493.953 160.355C497.65 176.431 502.74 189.382 509.668 198.474C516.81 207.845 526.117 213.312 537.375 213.312V197.312ZM509.75 158.562V147.438H493.75V158.562H509.75ZM509.634 148.795C511.414 138.452 513.864 131.626 516.508 127.581C518.957 123.836 521.053 123.125 522.875 123.125V107.125C514.322 107.125 507.71 111.8 503.117 118.825C498.72 125.551 495.794 134.881 493.866 146.08L509.634 148.795ZM522.875 123.125H527.375V107.125H522.875V123.125ZM514.999 153.28C516.911 164 519.526 172.86 523.184 179.244C526.867 185.67 532.575 191.062 540.75 191.062V175.062C540.717 175.062 539.341 175.257 537.066 171.288C534.766 167.275 532.547 160.542 530.751 150.47L514.999 153.28ZM546.95 188.118C549.866 184.542 552.062 180.204 552.062 175.25H536.062C536.062 175.296 536.051 176.166 534.55 178.007L546.95 188.118ZM552.062 175.25V171.938H536.062V175.25H552.062ZM552.062 171.938C552.062 157.27 546.055 145.206 534.327 136.511L524.798 149.364C532.403 155.002 536.062 162.271 536.062 171.938H552.062ZM529.562 134.938H527.375V150.938H529.562V134.938ZM527.375 134.938C521.883 134.938 518.792 138.844 517.417 141.574C516.052 144.286 515.351 147.595 514.938 150.876L530.812 152.874C530.971 151.615 531.153 150.644 531.336 149.918C531.524 149.171 531.675 148.834 531.708 148.77C531.753 148.679 531.527 149.186 530.804 149.76C529.956 150.434 528.741 150.938 527.375 150.938V134.938ZM528.5 125.375C530.77 125.375 533.912 126.444 538.015 130.547C542.151 134.684 546.655 141.33 551.38 150.961L565.745 143.914C560.637 133.503 555.213 125.118 549.329 119.234C543.411 113.316 536.439 109.375 528.5 109.375V125.375ZM550.881 149.673C553.729 159.46 555 167.173 555 173H571C571 165.077 569.313 155.749 566.244 145.202L550.881 149.673ZM555 173C555 181.01 553.212 186.387 550.5 189.963C547.857 193.45 543.651 196.131 536.939 197.466L540.061 213.159C549.683 211.244 557.727 206.915 563.25 199.63C568.705 192.436 571 183.281 571 173H555ZM538.5 197.312C533.474 197.312 528.831 195.205 524.325 189.679C519.61 183.896 515.274 174.572 511.743 160.987L496.257 165.013C500.059 179.636 505.14 191.469 511.925 199.79C518.919 208.368 527.859 213.312 538.5 213.312V197.312ZM512 163C512 161.413 511.58 159.667 510.516 158.07C509.485 156.524 508.152 155.569 507.015 155.001C504.969 153.977 502.909 153.875 501.75 153.875V169.875C502.091 169.875 501.156 169.96 499.86 169.312C499.098 168.931 498.046 168.211 497.203 166.945C496.326 165.63 496 164.212 496 163H512ZM509.75 161.875V145.188H493.75V161.875H509.75ZM501.75 153.188C506.419 153.188 508.986 149.74 509.659 148.799C510.706 147.335 511.514 145.603 512.16 143.992C513.491 140.671 514.832 136.056 516.21 130.392L500.665 126.608C499.335 132.069 498.207 135.798 497.308 138.04C496.84 139.209 496.593 139.564 496.646 139.49C496.676 139.448 496.99 139.001 497.654 138.507C498.347 137.993 499.758 137.188 501.75 137.188V153.188ZM514.95 133.146C518.961 127.525 523.36 125.375 528.5 125.375V109.375C517.474 109.375 508.498 114.642 501.925 123.854L514.95 133.146ZM513.926 154.345C515.806 165.367 518.28 174.391 521.629 180.864C524.867 187.121 530.206 193.25 538.5 193.25V177.25C539.336 177.25 538.164 178.004 535.84 173.511C533.626 169.234 531.486 162.133 529.699 151.655L513.926 154.345ZM538.5 193.25H540.75V177.25H538.5V193.25ZM543.775 192.656C546.776 191.43 549.327 189.339 551.021 186.381C552.645 183.545 553.188 180.429 553.188 177.5H537.188C537.188 178.529 536.991 178.685 537.136 178.431C537.213 178.296 537.337 178.139 537.494 178.004C537.647 177.873 537.749 177.834 537.725 177.844L543.775 192.656ZM553.188 177.5V171.938H537.188V177.5H553.188ZM553.188 171.938C553.188 157.27 547.18 145.206 535.452 136.511L525.923 149.364C533.528 155.002 537.188 162.271 537.188 171.938H553.188ZM530.688 134.938H526.25V150.938H530.688V134.938ZM523.688 135.359C515.293 138.197 513.812 146.951 513.812 153H529.812C529.812 151.905 529.884 151.068 529.985 150.449C530.087 149.824 530.204 149.518 530.242 149.431C530.274 149.358 530.199 149.557 529.912 149.839C529.602 150.143 529.208 150.382 528.812 150.516L523.688 135.359ZM575.312 115.375L577.222 107.606L575.531 107.191L573.82 107.516L575.312 115.375ZM576.125 138.312L574.651 146.175L576.217 146.469L577.775 146.14L576.125 138.312ZM567.312 141.938L571.501 135.122L569.574 133.938H567.312V141.938ZM585.688 150.25L593.343 147.926L592.194 144.141L588.488 142.756L585.688 150.25ZM587.312 193.375L579.339 192.724L579.312 193.049V193.375H587.312ZM592.125 209.875V217.875H608.382L598.464 204.994L592.125 209.875ZM591.312 210.812L588.354 218.246L599.312 222.606V210.812H591.312ZM572.938 203.5L565.713 206.936L567.062 209.772L569.979 210.933L572.938 203.5ZM570.5 193.375L562.503 193.154L562.5 193.264V193.375H570.5ZM566.5 141.938V133.938H554.602L559.091 144.956L566.5 141.938ZM573.403 123.144C576.09 123.804 577.218 124.689 577.677 125.215C578.043 125.634 578.5 126.395 578.5 128.188H594.5C594.5 123.272 593.092 118.543 589.729 114.691C586.459 110.947 581.993 108.779 577.222 107.606L573.403 123.144ZM578.5 128.188C578.5 128.63 578.43 128.81 578.421 128.832C578.418 128.839 578.412 128.871 578.319 128.962C578.069 129.206 577.096 129.932 574.475 130.485L577.775 146.14C582.071 145.235 586.286 143.544 589.494 140.413C592.92 137.069 594.5 132.763 594.5 128.188H578.5ZM577.599 130.45C574.392 129.848 573.024 128.98 572.547 128.54C572.35 128.358 572.289 128.24 572.255 128.159C572.215 128.064 572.125 127.8 572.125 127.25H556.125C556.125 132.222 557.918 136.815 561.703 140.304C565.226 143.552 569.858 145.277 574.651 146.175L577.599 130.45ZM572.125 127.25V126.375H556.125V127.25H572.125ZM572.125 126.375C572.125 125.741 572.223 125.405 572.28 125.261C572.328 125.136 572.391 125.029 572.531 124.892C572.864 124.564 573.964 123.774 576.805 123.234L573.82 107.516C569.203 108.392 564.709 110.144 561.313 113.483C557.712 117.023 556.125 121.579 556.125 126.375H572.125ZM563.124 148.753C567.792 151.622 574.495 154.607 582.887 157.744L588.488 142.756C580.38 139.726 574.833 137.169 571.501 135.122L563.124 148.753ZM578.032 152.574C579.984 159.003 580.875 164.624 580.875 169.5H596.875C596.875 162.709 595.641 155.497 593.343 147.926L578.032 152.574ZM580.875 169.5C580.875 172.266 580.391 179.85 579.339 192.724L595.286 194.026C596.317 181.4 596.875 173.067 596.875 169.5H580.875ZM579.312 193.375C579.312 201.443 581.216 208.82 585.786 214.756L598.464 204.994C596.617 202.596 595.312 198.974 595.312 193.375H579.312ZM592.125 201.875C590.299 201.875 587.563 202.455 585.47 204.87C583.567 207.066 583.312 209.525 583.312 210.812H599.312C599.312 211.475 599.194 213.465 597.561 215.349C595.739 217.451 593.409 217.875 592.125 217.875V201.875ZM594.271 203.379L575.896 196.067L569.979 210.933L588.354 218.246L594.271 203.379ZM580.162 200.064C578.978 197.575 578.5 195.368 578.5 193.375H562.5C562.5 198.048 563.647 202.591 565.713 206.936L580.162 200.064ZM578.497 193.596C579.037 174.086 579.312 162.621 579.312 159.438H563.312C563.312 162.337 563.047 173.497 562.503 193.154L578.497 193.596ZM579.312 159.438C579.312 153.953 577.142 146.855 573.909 138.919L559.091 144.956C562.275 152.77 563.312 157.339 563.312 159.438H579.312ZM566.5 149.938H567.312V133.938H566.5V149.938ZM660.75 105.938L667.905 102.36L665.011 96.5706L658.745 98.1928L660.75 105.938ZM661.625 107.688H669.625V105.799L668.78 104.11L661.625 107.688ZM672.812 189.938H680.812V189.268L680.701 188.608L672.812 189.938ZM645.188 205.812H637.188V216.32L647.316 213.524L645.188 205.812ZM615 151L621.6 146.479L619.217 143H615V151ZM613.312 151V143H603.688L605.447 152.463L613.312 151ZM624.5 205.812L616.732 207.725L616.945 208.592L617.345 209.39L624.5 205.812ZM625.375 208.5V216.5H633.375V208.5H625.375ZM624.5 209.375L620.817 216.477L632.5 222.535V209.375H624.5ZM622.812 208.5L626.495 201.398L624.763 200.5H622.812V208.5ZM611.562 210.25V218.25H612.377L613.176 218.086L611.562 210.25ZM590 119.188L587.427 111.613L580.933 113.819L582.121 120.573L590 119.188ZM609 114.75L616.014 110.902L613.736 106.75H609V114.75ZM616.75 128.875L609.736 132.723L610.318 133.783L611.187 134.624L616.75 128.875ZM651.25 178.438H659.25V176.841L658.637 175.367L651.25 178.438ZM651.25 181.062H643.25V189.062H651.25V181.062ZM652.125 181.062V189.062H660.125V181.062H652.125ZM652.125 178.438H660.125V177.956L660.067 177.477L652.125 178.438ZM640.062 120.062L632.169 121.363L632.245 121.826L632.375 122.277L640.062 120.062ZM639.188 114.75L632.298 110.684L630.822 113.185L631.294 116.05L639.188 114.75ZM653.595 109.515L654.47 111.265L668.78 104.11L667.905 102.36L653.595 109.515ZM653.625 107.688V114.75H669.625V107.688H653.625ZM653.625 114.75C653.625 118.421 654.682 126.849 656.509 139.131C658.385 151.737 661.191 169.124 664.924 191.267L680.701 188.608C676.975 166.501 674.188 149.232 672.335 136.776C670.433 123.995 669.625 116.954 669.625 114.75H653.625ZM664.812 189.938V195.188H680.812V189.938H664.812ZM664.812 195.188C664.812 192.362 666.365 190.723 666.624 190.454C667.026 190.038 667.259 189.943 666.961 190.122C666.411 190.453 665.197 191.045 663.034 191.877C658.805 193.504 652.202 195.577 643.059 198.101L647.316 213.524C656.59 210.964 663.799 208.725 668.778 206.811C671.219 205.872 673.459 204.885 675.211 203.831C676.064 203.318 677.16 202.578 678.137 201.565C678.972 200.7 680.812 198.513 680.812 195.188H664.812ZM653.188 205.812C653.188 202.469 652.094 198.836 650.74 195.413C649.311 191.801 647.252 187.603 644.648 182.875C639.435 173.409 631.722 161.253 621.6 146.479L608.4 155.521C618.403 170.122 625.784 181.789 630.633 190.594C633.061 195.002 634.775 198.55 635.862 201.298C636.403 202.667 636.753 203.746 636.96 204.567C637.063 204.972 637.122 205.28 637.155 205.502C637.188 205.728 637.188 205.824 637.188 205.812H653.188ZM615 143H613.312V159H615V143ZM605.447 152.463C610.199 178.013 613.964 196.482 616.732 207.725L632.268 203.9C629.62 193.143 625.926 175.07 621.178 149.537L605.447 152.463ZM617.345 209.39C617.521 209.743 617.563 209.878 617.549 209.836C617.54 209.808 617.502 209.687 617.464 209.487C617.426 209.293 617.375 208.952 617.375 208.5H633.375C633.375 205.885 632.317 203.558 631.655 202.235L617.345 209.39ZM625.375 200.5C623.85 200.5 621.237 200.887 619.062 203.062C616.887 205.237 616.5 207.85 616.5 209.375H632.5C632.5 210.316 632.259 212.492 630.376 214.376C628.492 216.259 626.316 216.5 625.375 216.5V200.5ZM628.183 202.273L626.495 201.398L619.13 215.602L620.817 216.477L628.183 202.273ZM622.812 200.5H621.062V216.5H622.812V200.5ZM621.062 200.5C620.194 200.5 619.282 200.641 618.89 200.7C618.293 200.791 617.566 200.917 616.738 201.07C615.073 201.377 612.802 201.827 609.949 202.414L613.176 218.086C615.99 217.506 618.135 217.082 619.637 216.805C620.392 216.666 620.936 216.573 621.297 216.518C621.864 216.432 621.597 216.5 621.062 216.5V200.5ZM611.562 202.25H602.938V218.25H611.562V202.25ZM602.938 202.25C603.587 202.25 605.544 202.418 607.282 204.156C609.02 205.893 609.188 207.85 609.188 208.5H593.188C593.188 210.316 593.647 213.148 595.968 215.469C598.289 217.79 601.121 218.25 602.938 218.25V202.25ZM609.188 208.5C609.188 190.595 605.333 160.195 597.879 117.802L582.121 120.573C589.583 163.014 593.188 192.155 593.188 208.5H609.188ZM592.573 126.762C601.259 123.812 606.486 122.75 609 122.75V106.75C603.598 106.75 596.158 108.647 587.427 111.613L592.573 126.762ZM601.986 118.598L609.736 132.723L623.764 125.027L616.014 110.902L601.986 118.598ZM611.187 134.624C625.984 148.944 636.823 164.575 643.863 181.508L658.637 175.367C650.677 156.217 638.516 138.806 622.313 123.126L611.187 134.624ZM643.25 178.438V181.062H659.25V178.438H643.25ZM651.25 189.062H652.125V173.062H651.25V189.062ZM660.125 181.062V178.438H644.125V181.062H660.125ZM660.067 177.477C657.72 158.06 653.608 138.181 647.75 117.848L632.375 122.277C638.017 141.86 641.947 160.899 644.183 179.398L660.067 177.477ZM647.956 118.762L647.081 113.45L631.294 116.05L632.169 121.363L647.956 118.762ZM646.077 118.816C645.491 119.81 644.95 119.976 645.647 119.536C646.193 119.191 647.169 118.684 648.73 118.046C651.839 116.775 656.458 115.312 662.755 113.682L658.745 98.1928C652.167 99.8958 646.755 101.568 642.677 103.235C640.643 104.066 638.737 104.978 637.111 106.003C635.636 106.933 633.634 108.419 632.298 110.684L646.077 118.816ZM698.688 125.25L696.654 132.987L697.654 133.25H698.688V125.25ZM699.938 125.25V133.25H700.184L700.43 133.235L699.938 125.25ZM731.5 150.312L728.396 157.686L744.285 164.376L739.135 147.923L731.5 150.312ZM708.312 143.875L709.538 135.969L700.312 134.539V143.875H708.312ZM708.312 145.188H700.312V147.285L701.342 149.113L708.312 145.188ZM714.125 175.438L706.174 176.319L706.283 177.303L706.629 178.231L714.125 175.438ZM732.125 204.375V212.375H749.197L738.273 199.256L732.125 204.375ZM731.5 205L729.671 212.788L739.5 215.096V205H731.5ZM702.5 201.125L695.654 205.265L697.989 209.125H702.5V201.125ZM689.688 152.875H697.688V152.204L697.576 151.543L689.688 152.875ZM682.562 143.25L681.649 151.198L682.104 151.25H682.562V143.25ZM666.5 143.875L658.723 145.751L660.545 153.304L668.148 151.703L666.5 143.875ZM671 126.812H671.625V110.812H671V126.812ZM671.625 126.812C671.115 126.812 671.197 126.757 672.708 127.059C673.913 127.3 675.604 127.678 677.821 128.205C682.24 129.256 688.508 130.847 696.654 132.987L700.721 117.513C692.534 115.362 686.125 113.734 681.523 112.639C679.229 112.093 677.324 111.666 675.846 111.37C674.676 111.136 672.989 110.812 671.625 110.812V126.812ZM698.688 133.25H699.938V117.25H698.688V133.25ZM700.43 133.235C707.033 132.827 713.305 132.625 719.25 132.625V116.625C712.945 116.625 706.342 116.839 699.445 117.265L700.43 133.235ZM719.25 132.625C719.728 132.625 719.779 132.7 719.581 132.618C719.333 132.516 719.043 132.311 718.831 132.049C718.649 131.822 718.695 131.764 718.789 132.113C718.887 132.478 719 133.156 719 134.25H735C735 130.178 734.215 125.642 731.294 122.014C728.106 118.055 723.581 116.625 719.25 116.625V132.625ZM719 134.25C719 135.594 719.333 137.025 719.487 137.691C719.714 138.672 720.032 139.878 720.422 141.268C721.204 144.06 722.357 147.884 723.865 152.702L739.135 147.923C737.643 143.157 736.546 139.512 735.828 136.951C735.468 135.663 735.223 134.721 735.075 134.082C734.854 133.129 735 133.468 735 134.25H719ZM734.604 142.939C726.825 139.664 718.459 137.352 709.538 135.969L707.087 151.781C714.833 152.981 721.925 154.961 728.396 157.686L734.604 142.939ZM700.312 143.875V145.188H716.312V143.875H700.312ZM701.342 149.113C701.342 149.113 701.349 149.126 701.363 149.153C701.377 149.181 701.396 149.22 701.42 149.272C701.468 149.378 701.531 149.526 701.607 149.722C701.759 150.119 701.94 150.653 702.141 151.347C702.547 152.746 702.985 154.605 703.441 156.978C704.353 161.725 705.268 168.147 706.174 176.319L722.076 174.556C721.149 166.187 720.179 159.296 719.153 153.959C718.191 148.954 717.015 144.338 715.283 141.262L701.342 149.113ZM706.629 178.231C710.342 188.195 716.925 198.623 725.977 209.494L738.273 199.256C729.908 189.211 724.492 180.346 721.621 172.644L706.629 178.231ZM732.125 196.375C730.684 196.375 728.133 196.741 725.999 198.874C723.866 201.008 723.5 203.559 723.5 205H739.5C739.5 206.025 739.238 208.263 737.313 210.188C735.388 212.113 733.15 212.375 732.125 212.375V196.375ZM733.329 197.212C722.188 194.595 713.08 193.125 706.375 193.125V209.125C711.17 209.125 718.812 210.238 729.671 212.788L733.329 197.212ZM706.375 193.125H702.5V209.125H706.375V193.125ZM709.346 196.985C701.629 184.224 697.688 169.598 697.688 152.875H681.688C681.688 172.236 686.288 189.776 695.654 205.265L709.346 196.985ZM697.576 151.543C696.942 147.787 695.789 143.957 693.524 140.896C690.983 137.464 687.182 135.25 682.562 135.25V151.25C682.268 151.25 681.801 151.174 681.318 150.917C680.858 150.673 680.662 150.413 680.664 150.416C680.684 150.443 680.866 150.706 681.104 151.369C681.34 152.025 681.587 152.951 681.799 154.207L697.576 151.543ZM683.476 135.302C679.69 134.867 676.358 134.625 673.562 134.625V150.625C675.517 150.625 678.185 150.8 681.649 151.198L683.476 135.302ZM673.562 134.625C672.357 134.625 670.868 134.878 669.84 135.06C668.54 135.29 666.866 135.622 664.852 136.047L668.148 151.703C670.092 151.294 671.574 151.002 672.629 150.815C673.158 150.721 673.527 150.664 673.764 150.632C674.092 150.588 673.938 150.625 673.562 150.625V134.625ZM674.277 141.999C672.712 135.509 671.938 129.076 671.938 122.688H655.938C655.938 130.383 656.872 138.074 658.723 145.751L674.277 141.999ZM671.938 122.688V120.75H655.938V122.688H671.938ZM671.938 120.75C671.938 121.857 671.672 122.975 671.143 123.991C670.633 124.972 669.986 125.648 669.463 126.079C668.952 126.5 668.504 126.732 668.257 126.845C668.003 126.961 667.839 127.006 667.82 127.012C667.801 127.017 668.035 126.956 668.639 126.9C669.216 126.848 669.993 126.812 671 126.812V110.812C668.463 110.812 665.826 110.968 663.587 111.582C662.49 111.883 660.827 112.465 659.295 113.725C657.524 115.183 655.938 117.595 655.938 120.75H671.938ZM762.25 126.188L757.708 132.773L758.877 133.579L760.251 133.934L762.25 126.188ZM770 134.688H762V135.159L762.055 135.628L770 134.688ZM771.938 151.062V159.062H780.94L779.882 150.122L771.938 151.062ZM744.188 136.812L748.698 130.205L746.658 128.812H744.188V136.812ZM741.562 136.812V128.812H739.799L738.199 129.554L741.562 136.812ZM774.5 161.688L778.019 154.503L777.361 154.181L776.657 153.984L774.5 161.688ZM777.75 210.062V218.062H778.082L778.412 218.035L777.75 210.062ZM746.75 201.5L749.555 194.008L748.198 193.5H746.75V201.5ZM736.438 202.25L729.22 205.702L731.624 210.728L737.173 210.216L736.438 202.25ZM735.75 200.812H727.75V202.627L728.533 204.264L735.75 200.812ZM735.125 179.5L730.643 172.874L726.802 175.472L727.147 180.095L735.125 179.5ZM768.062 188.75L764.622 195.973L766.255 196.75H768.062V188.75ZM773.875 186.625L780.501 191.107L781.875 189.077V186.625H773.875ZM744.812 170.938L741.566 178.249L742.142 178.505L742.751 178.667L744.812 170.938ZM722.875 148.938L715.241 151.33L715.439 151.96L715.737 152.549L722.875 148.938ZM719.625 135.438H711.625V135.924L711.684 136.406L719.625 135.438ZM740.312 116.188V108.188H739.499L738.703 108.351L740.312 116.188ZM742.875 124.188C742.403 124.188 743.32 124.162 746.487 125.796C749.289 127.243 753.007 129.531 757.708 132.773L766.792 119.602C761.827 116.177 757.482 113.466 753.825 111.579C750.535 109.88 746.597 108.188 742.875 108.188V124.188ZM760.251 133.934C761.897 134.358 762.242 134.803 762.151 134.703C762.093 134.639 762.026 134.532 761.99 134.432C761.959 134.346 762 134.403 762 134.688H778C778 130.806 776.786 127.007 773.974 123.922C771.3 120.989 767.77 119.35 764.249 118.441L760.251 133.934ZM762.055 135.628L763.993 152.003L779.882 150.122L777.945 133.747L762.055 135.628ZM771.938 143.062H771.25V159.062H771.938V143.062ZM771.25 143.062C771.571 143.062 771.247 143.114 769.957 142.648C768.777 142.222 767.181 141.508 765.118 140.421C760.994 138.25 755.544 134.879 748.698 130.205L739.677 143.42C746.748 148.246 752.766 152 757.663 154.579C760.111 155.867 762.413 156.935 764.52 157.696C766.516 158.417 768.866 159.062 771.25 159.062V143.062ZM744.188 128.812H741.562V144.812H744.188V128.812ZM738.199 129.554C732.657 132.122 731 137.442 731 141.812H747C747 141.379 747.081 141.679 746.76 142.305C746.591 142.636 746.335 143.002 745.98 143.343C745.625 143.684 745.252 143.92 744.926 144.071L738.199 129.554ZM731 141.812C731 146.022 732.916 149.494 735.252 152.11C737.546 154.679 740.599 156.845 743.967 158.73C750.713 162.507 760.307 166.022 772.343 169.391L776.657 153.984C765.026 150.728 756.87 147.618 751.783 144.77C749.235 143.343 747.85 142.196 747.186 141.452C746.563 140.756 747 140.916 747 141.812H731ZM770.981 168.872C783.319 174.914 787.812 182.292 787.812 190.875H803.812C803.812 174.458 794.098 162.377 778.019 154.503L770.981 168.872ZM787.812 190.875V195.812H803.812V190.875H787.812ZM787.812 195.812C787.812 197.916 787.203 198.79 786.342 199.469C785.087 200.459 782.371 201.651 777.088 202.09L778.412 218.035C785.17 217.474 791.486 215.791 796.252 212.031C801.411 207.96 803.812 202.209 803.812 195.812H787.812ZM777.75 202.062C776.162 202.062 773.078 201.595 768.067 200.211C763.213 198.87 757.059 196.817 749.555 194.008L743.945 208.992C751.691 211.892 758.329 214.12 763.808 215.633C769.13 217.103 773.922 218.062 777.75 218.062V202.062ZM746.75 193.5H746.125V209.5H746.75V193.5ZM746.125 193.5C744.617 193.5 740.918 193.802 735.702 194.284L737.173 210.216C739.864 209.968 741.982 209.784 743.539 209.664C744.319 209.603 744.936 209.56 745.401 209.533C745.633 209.52 745.813 209.511 745.946 209.506C746.088 209.5 746.139 209.5 746.125 209.5V193.5ZM743.655 198.798L742.967 197.361L728.533 204.264L729.22 205.702L743.655 198.798ZM743.75 200.812V191.562H727.75V200.812H743.75ZM743.75 191.562C743.75 188.781 743.52 184.501 743.103 178.905L727.147 180.095C727.563 185.665 727.75 189.428 727.75 191.562H743.75ZM739.607 186.126C739.908 185.923 740.016 185.894 739.939 185.922C739.852 185.955 739.521 186.062 739 186.062V170.062C735.651 170.062 732.798 171.416 730.643 172.874L739.607 186.126ZM739 186.062H739.625V170.062H739V186.062ZM739.625 186.062C739.608 186.062 740.175 186.086 741.608 186.465C742.945 186.818 744.701 187.389 746.92 188.223C751.357 189.891 757.237 192.455 764.622 195.973L771.503 181.527C763.93 177.92 757.591 175.141 752.549 173.246C747.879 171.491 743.254 170.062 739.625 170.062V186.062ZM768.062 196.75H771.938V180.75H768.062V196.75ZM771.938 196.75C774.598 196.75 776.417 195.474 776.935 195.099C777.681 194.559 778.241 193.985 778.584 193.609C779.292 192.831 779.945 191.929 780.501 191.107L767.249 182.143C766.846 182.738 766.697 182.898 766.76 182.829C766.78 182.807 767.056 182.498 767.557 182.135C767.818 181.946 768.277 181.643 768.915 181.368C769.538 181.1 770.587 180.75 771.938 180.75V196.75ZM781.875 186.625C781.875 182.678 780.029 179.514 777.944 177.249C775.9 175.029 773.237 173.221 770.409 171.694C764.738 168.633 756.759 165.844 746.874 163.208L742.751 178.667C752.241 181.198 758.793 183.606 762.809 185.774C764.825 186.862 765.796 187.677 766.173 188.087C766.51 188.452 765.875 187.927 765.875 186.625H781.875ZM748.059 163.626C740.718 160.367 734.656 154.502 730.013 145.326L715.737 152.549C721.761 164.456 730.324 173.258 741.566 178.249L748.059 163.626ZM730.509 146.545C728.819 141.152 727.897 137.183 727.566 134.469L711.684 136.406C712.186 140.525 713.431 145.556 715.241 151.33L730.509 146.545ZM727.625 135.438C727.625 132.505 728.534 130.575 730.247 128.982C732.215 127.15 735.802 125.281 741.922 124.024L738.703 108.351C731.032 109.927 724.275 112.683 719.347 117.268C714.164 122.092 711.625 128.37 711.625 135.438H727.625ZM740.312 124.188H742.875V108.188H740.312V124.188Z" fill="black" mask="url(#path-2-outside-2_2582_5554)"/>
<defs>
<linearGradient id="paint0_linear_2582_5554" x1="1090.97" y1="16.8767" x2="731.489" y2="543.045" gradientUnits="userSpaceOnUse">
<stop offset="0.158848" stop-color="#ECDEC4"/>
<stop offset="0.433685" stop-color="#62F4F9"/>
<stop offset="0.768787" stop-color="#F49FDA"/>
</linearGradient>
<linearGradient id="paint1_linear_2582_5554" x1="1090.97" y1="16.8767" x2="731.489" y2="543.045" gradientUnits="userSpaceOnUse">
<stop offset="0.158848" stop-color="#ECDEC4"/>
<stop offset="0.433685" stop-color="#62F4F9"/>
<stop offset="0.768787" stop-color="#F49FDA"/>
</linearGradient>
<linearGradient id="paint2_linear_2582_5554" x1="1090.97" y1="16.8767" x2="731.489" y2="543.045" gradientUnits="userSpaceOnUse">
<stop offset="0.158848" stop-color="#ECDEC4"/>
<stop offset="0.433685" stop-color="#62F4F9"/>
<stop offset="0.768787" stop-color="#F49FDA"/>
</linearGradient>
<linearGradient id="paint3_linear_2582_5554" x1="1090.97" y1="16.8767" x2="731.489" y2="543.045" gradientUnits="userSpaceOnUse">
<stop offset="0.158848" stop-color="#ECDEC4"/>
<stop offset="0.433685" stop-color="#62F4F9"/>
<stop offset="0.768787" stop-color="#F49FDA"/>
</linearGradient>
<linearGradient id="paint4_linear_2582_5554" x1="1090.97" y1="16.8767" x2="731.489" y2="543.045" gradientUnits="userSpaceOnUse">
<stop offset="0.158848" stop-color="#ECDEC4"/>
<stop offset="0.433685" stop-color="#62F4F9"/>
<stop offset="0.768787" stop-color="#F49FDA"/>
</linearGradient>
<linearGradient id="paint5_linear_2582_5554" x1="1090.97" y1="16.8767" x2="731.489" y2="543.045" gradientUnits="userSpaceOnUse">
<stop offset="0.158848" stop-color="#ECDEC4"/>
<stop offset="0.433685" stop-color="#62F4F9"/>
<stop offset="0.768787" stop-color="#F49FDA"/>
</linearGradient>
<linearGradient id="paint6_linear_2582_5554" x1="1090.97" y1="16.8767" x2="731.489" y2="543.045" gradientUnits="userSpaceOnUse">
<stop offset="0.158848" stop-color="#ECDEC4"/>
<stop offset="0.433685" stop-color="#62F4F9"/>
<stop offset="0.768787" stop-color="#F49FDA"/>
</linearGradient>
<linearGradient id="paint7_linear_2582_5554" x1="1090.97" y1="16.8767" x2="731.489" y2="543.045" gradientUnits="userSpaceOnUse">
<stop offset="0.158848" stop-color="#ECDEC4"/>
<stop offset="0.433685" stop-color="#62F4F9"/>
<stop offset="0.768787" stop-color="#F49FDA"/>
</linearGradient>
<linearGradient id="paint8_linear_2582_5554" x1="1090.97" y1="16.8767" x2="731.489" y2="543.045" gradientUnits="userSpaceOnUse">
<stop offset="0.158848" stop-color="#ECDEC4"/>
<stop offset="0.433685" stop-color="#62F4F9"/>
<stop offset="0.768787" stop-color="#F49FDA"/>
</linearGradient>
<linearGradient id="paint9_linear_2582_5554" x1="1090.97" y1="16.8767" x2="731.489" y2="543.045" gradientUnits="userSpaceOnUse">
<stop offset="0.158848" stop-color="#ECDEC4"/>
<stop offset="0.433685" stop-color="#62F4F9"/>
<stop offset="0.768787" stop-color="#F49FDA"/>
</linearGradient>
<linearGradient id="paint10_linear_2582_5554" x1="1090.97" y1="16.8767" x2="731.489" y2="543.045" gradientUnits="userSpaceOnUse">
<stop offset="0.158848" stop-color="#ECDEC4"/>
<stop offset="0.433685" stop-color="#62F4F9"/>
<stop offset="0.768787" stop-color="#F49FDA"/>
</linearGradient>
<linearGradient id="paint11_linear_2582_5554" x1="1090.97" y1="16.8767" x2="731.489" y2="543.045" gradientUnits="userSpaceOnUse">
<stop offset="0.158848" stop-color="#ECDEC4"/>
<stop offset="0.433685" stop-color="#62F4F9"/>
<stop offset="0.768787" stop-color="#F49FDA"/>
</linearGradient>
<linearGradient id="paint12_linear_2582_5554" x1="1090.97" y1="16.8767" x2="731.489" y2="543.045" gradientUnits="userSpaceOnUse">
<stop offset="0.158848" stop-color="#ECDEC4"/>
<stop offset="0.433685" stop-color="#62F4F9"/>
<stop offset="0.768787" stop-color="#F49FDA"/>
</linearGradient>
<linearGradient id="paint13_linear_2582_5554" x1="1090.97" y1="16.8767" x2="731.489" y2="543.045" gradientUnits="userSpaceOnUse">
<stop offset="0.158848" stop-color="#ECDEC4"/>
<stop offset="0.433685" stop-color="#62F4F9"/>
<stop offset="0.768787" stop-color="#F49FDA"/>
</linearGradient>
<linearGradient id="paint14_linear_2582_5554" x1="1090.97" y1="16.8767" x2="731.489" y2="543.045" gradientUnits="userSpaceOnUse">
<stop offset="0.158848" stop-color="#ECDEC4"/>
<stop offset="0.433685" stop-color="#62F4F9"/>
<stop offset="0.768787" stop-color="#F49FDA"/>
</linearGradient>
</defs>
</svg>
