<svg width="304" height="48" viewBox="0 0 304 48" fill="none" xmlns="http://www.w3.org/2000/svg">
<mask id="path-1-outside-1_2541_2439" maskUnits="userSpaceOnUse" x="0" y="0" width="304" height="48" fill="black">
<rect fill="white" width="304" height="48"/>
<path d="M126.517 5.88319C127.11 5.88459 127.473 5.89725 127.608 5.92115C128.597 6.85742 129.447 7.79369 130.159 8.72925C130.871 9.66482 131.781 11.0299 132.886 12.8244C133.993 14.6189 136.038 18.0076 139.019 22.9912C139.619 24.0385 140.086 24.9066 140.417 25.5948C140.75 26.2836 140.98 26.7841 141.11 27.0976C141.322 27.2044 141.761 27.3998 142.427 27.6845C143.093 27.9685 143.832 28.2525 144.645 28.535C144.383 28.793 144.15 29.0214 143.945 29.2204C143.741 29.4193 143.573 29.6041 143.443 29.7742C143.313 29.9451 143.23 30.1243 143.197 30.312C143.164 30.4996 143.181 30.662 143.249 30.7984C143.402 31.2405 143.773 32.1023 144.362 33.3823C144.951 34.663 145.37 35.7089 145.619 36.5207C145.868 37.3326 145.926 38.1079 145.795 38.8452C145.738 39.1672 145.624 39.3991 145.452 39.5418C145.281 39.6845 144.919 39.9214 144.367 40.2518C143.815 40.5828 143.446 40.8837 143.259 41.155C142.679 40.6918 142.07 39.979 141.432 39.0146C140.795 38.0503 140.172 36.9369 139.565 35.6744C138.957 34.4113 138.481 33.3654 138.135 32.536C137.789 31.7065 137.494 30.9383 137.25 30.2311C136.009 29.8452 134.705 29.337 133.338 28.7065C131.971 28.0767 130.712 27.5763 129.561 27.2058C129.749 28.9272 129.865 30.241 129.912 31.1484C129.96 32.0559 129.919 32.872 129.79 33.5959C129.581 34.7761 129.018 35.9907 128.103 37.2391C128.091 37.2236 127.46 37.0001 126.211 36.5713C124.963 36.1419 124.211 35.905 123.957 35.86L123.713 5.47902C123.732 5.37218 123.846 5.33633 124.055 5.37358C124.265 5.41084 124.573 5.51416 124.982 5.68356C125.391 5.85296 125.604 5.93942 125.618 5.94153C125.625 5.90146 125.926 5.88178 126.518 5.88319H126.517ZM129.557 22.6608L134.974 24.4322L128.564 11.9851L129.557 22.6615V22.6608Z"/>
<path d="M156.851 13.5572C162.894 13.5572 167.119 17.6544 169.526 25.8489C169.797 26.5504 169.932 27.5548 169.932 28.8622C169.932 34.0757 167.023 37.0729 161.204 37.8538H160.414C154.516 37.8538 150.29 33.6532 147.74 25.2507V22.2613C149.063 16.4581 151.573 13.5565 155.273 13.5565H156.851L156.851 13.5572ZM155.273 23.4576C156.581 29.0534 158.693 31.8517 161.611 31.8517C162.392 31.1186 162.783 30.4171 162.783 29.7472V28.8622C162.783 25.5783 161.068 22.9796 157.641 21.0663H156.851C156.054 21.0663 155.528 21.8634 155.273 23.4576Z"/>
<path d="M180.703 14.1306C186.187 14.1306 189.966 17.3274 192.039 23.7203C192.261 24.6453 192.373 25.6175 192.373 26.6381C192.373 29.811 191.233 32.274 188.953 34.0277C185.781 36.9933 181.437 38.4757 175.92 38.4757C174.883 38.4757 174.365 38.1327 174.365 37.4474C174.365 36.762 173.225 32.1468 170.946 23.553C170.371 21.2735 169.854 18.6425 169.391 15.6615C169.503 15.6615 169.558 15.606 169.558 15.4942L170.419 15.6615H172.309L178.479 14.2986C179.037 14.1875 179.778 14.1313 180.703 14.1313V14.1306ZM177.618 19.9415C177.618 21.4239 178.359 25.0277 179.842 30.7508H181.229C182.759 30.7508 184.186 29.3246 185.509 26.4701C185.509 26.3907 185.565 26.0476 185.677 25.4417C184.975 23.1784 183.891 21.6313 182.424 20.8026C181.165 20.2283 180.248 19.9415 179.674 19.9415H177.617H177.618Z"/>
<path d="M203.302 14.1306C208.786 14.1306 212.565 17.3274 214.638 23.7203C214.861 24.6453 214.972 25.6175 214.972 26.6381C214.972 29.811 213.832 32.274 211.553 34.0277C208.38 36.9933 204.036 38.4757 198.519 38.4757C197.483 38.4757 196.965 38.1327 196.965 37.4474C196.965 36.762 195.825 32.1468 193.545 23.553C192.971 21.2735 192.453 18.6425 191.99 15.6615C192.102 15.6615 192.158 15.606 192.158 15.4942L193.019 15.6615H194.908L201.078 14.2986C201.636 14.1875 202.377 14.1313 203.302 14.1313V14.1306ZM200.217 19.9415C200.217 21.4239 200.959 25.0277 202.441 30.7508H203.828C205.358 30.7508 206.785 29.3246 208.109 26.4701C208.109 26.3907 208.164 26.0476 208.276 25.4417C207.574 23.1784 206.49 21.6313 205.023 20.8026C203.764 20.2283 202.847 19.9415 202.273 19.9415H200.216H200.217Z"/>
<path d="M216.168 20.5397C218.272 20.9066 219.978 21.0901 221.285 21.0901V21.2335C221.285 21.4247 221.19 22.2942 220.999 23.8398C220.999 24.3502 221.692 25.5057 223.079 27.3073C223.637 28.5669 223.916 30.5442 223.916 33.2384C224.283 34.3708 224.929 35.9404 225.854 37.9493C224.976 37.7581 224.283 37.6625 223.773 37.6625H222.243C221.095 37.8537 220.266 37.9493 219.756 37.9493C218.751 34.6337 218.25 32.5608 218.25 31.7314C218.329 30.121 218.369 29.1088 218.369 28.6941C218.369 27.1794 217.5 25.6569 215.763 24.1266C215.572 23.7443 215.476 23.4652 215.476 23.2895C215.635 21.7431 215.867 20.8265 216.17 20.539L216.168 20.5397ZM217.818 13.3413C219.078 13.3413 220.002 14.5847 220.592 17.0716V18.0521C220.592 18.8816 220.225 19.5191 219.492 19.9654H218.942C217.093 19.3912 216.168 17.9172 216.168 15.5413C216.168 14.0744 216.718 13.3413 217.818 13.3413Z"/>
<path d="M242.354 13.8201L242.593 14.2264V15.9007C242.593 17.2721 243.549 23.1625 245.463 33.5732V34.8166C245.463 35.2791 243.095 36.1163 238.36 37.3274C238.36 35.6376 235.777 31.333 230.612 24.4136H230.158C231.385 30.4242 232.349 34.7288 233.051 37.3274C233.195 37.5826 233.267 37.7899 233.267 37.9495C233.123 37.9495 233.051 38.0127 233.051 38.1407L232.597 37.9495H232.167C231.991 37.9495 231.178 38.0844 229.727 38.3558H227.503C227.217 38.3558 227.073 38.2201 227.073 37.9495C227.073 33.9162 226.108 26.9096 224.179 16.9291C226.411 16.2438 228.038 15.9007 229.058 15.9007L231.043 19.2248C235.029 22.7484 237.986 26.6306 239.915 30.8712V31.4933H240.154V30.8712C239.548 26.4078 238.512 21.8319 237.045 17.1442L236.806 15.9007C237.205 15.311 239.054 14.6172 242.354 13.8201H242.354Z"/>
<path d="M250.772 13.8915C256.894 13.8915 260.759 20.3168 262.37 33.1666C262.944 34.8564 264.1 36.7141 265.838 38.7385V38.8819H264.785C260.975 38.8819 259.07 37.6785 259.07 35.2711H258.759C258.201 37.0726 256.846 37.9738 254.694 37.9738H254.55C252.207 37.9738 249.998 36.523 247.926 33.6214C246.922 32.0588 246.42 30.2495 246.42 28.1928V27.5954C246.42 25.1563 247.671 23.4503 250.174 22.4775C250.573 22.3664 250.979 22.3102 251.394 22.3102H252.9C253.458 22.3102 254.207 22.4142 255.148 22.6209V22.3102C255.148 20.0785 254.343 18.7795 252.733 18.4126H252.135C251.976 18.4126 251.777 18.6122 251.537 19.0101C251.537 19.7277 251.64 20.2774 251.848 20.6605L246.563 21.426C246.339 21.426 246.14 20.6211 245.964 19.0108V18.1019C245.964 15.9974 247.168 14.6422 249.576 14.0363C250.134 13.9407 250.533 13.8929 250.772 13.8929V13.8915ZM250.772 28.1921V28.6469C250.772 30.1139 251.776 31.6202 253.785 33.1666C254.12 33.3578 254.422 33.4534 254.694 33.4534H255.148C256.263 33.4534 256.966 32.4011 257.252 30.2966C257.252 29.3561 256.751 27.9531 255.746 26.0876C255.061 25.8803 254.463 25.7769 253.952 25.7769H253.33C251.624 26.0005 250.772 26.8053 250.772 28.1921Z"/>
<path d="M262.825 13.3413H264.045C271.267 13.3413 276.058 15.159 278.417 18.7937C278.911 19.9099 279.159 20.8188 279.159 21.5203V23.2424C279.159 25.363 277.923 26.8532 275.452 27.7143C275.277 27.7143 275.189 27.7944 275.189 27.9532C275.556 28.479 277.709 30.2967 281.646 33.4057C279.557 36.036 278.402 37.3518 278.179 37.3518C277.701 37.2407 275.469 35.0962 271.483 30.9188V31.1578C271.818 33.7248 272.232 35.9565 272.726 37.8537C272.104 37.8537 269.873 37.1922 266.031 35.8687L266.294 34.1465V33.405C266.294 29.5945 265.05 23.5685 262.563 15.3256L262.324 13.5802L262.827 13.3413H262.825ZM268.517 18.0528V18.2918C269.17 19.647 269.832 21.7916 270.502 24.7248H271.482C273.141 24.6137 273.969 24.1189 273.969 23.2424C273.969 20.5959 272.151 18.8661 268.517 18.0528Z"/>
<path d="M300.229 14.8245C300.229 15.0002 300.316 15.0874 300.492 15.0874C299.12 26.2313 297.917 32.9194 296.881 35.1518C294.776 40.9072 293.19 43.8566 292.122 44C290.863 43.1706 289.285 41.951 287.387 40.3414V40.1024C288.918 38.4604 290.217 35.5904 291.286 31.4932C291.477 31.4932 291.573 31.406 291.573 31.2303C284.685 27.5956 281.241 24.2076 281.241 21.067C280.492 19.9353 280.117 19.0665 280.117 18.4606V18.2217H280.404C281.489 18.2217 283.346 18.0466 285.976 17.6959C287.394 21.1556 289.539 23.8421 292.409 25.7554H292.672C293.676 19.3308 294.426 16.1179 294.92 16.1179C297.821 15.6075 299.591 15.1774 300.229 14.8266V14.8245Z"/>
<path d="M33.4876 14.6799L32.6244 21.6738L27.1755 20.9913L26.5731 23.4016L30.9789 23.9843L30.1157 30.9353L24.7568 30.2795L22.5511 37.5504L15.8475 36.6858L17.9295 29.3988L15.728 29.1296L13.5637 36.4264L6.8545 35.6005L8.9836 28.3029L4 27.7378L4.82591 20.6947L10.8758 21.5108L11.5246 19.0843L6.55225 18.4742L7.41542 11.4803L13.2994 12.2022L15.6767 4L22.3325 4.82451L19.989 13.0668L22.2144 13.2973L24.5783 5.12465L31.4126 5.94634L28.989 14.1724L33.4883 14.6813L33.4876 14.6799ZM20.4269 20.1774L18.1846 19.9018L17.5436 22.2523L19.7844 22.5708L20.4269 20.1781V20.1774Z"/>
<path d="M36.371 4.7082L43.3164 6.5238V9.52169C43.3164 16.4327 44.9211 22.259 48.1299 27.0022C48.3829 27.2131 49.284 27.7129 50.8318 28.5015C52.4366 27.7417 53.2386 26.7422 53.2386 25.5036V19.7827C53.2386 17.4322 52.4366 13.013 50.8318 6.52451L51.4441 6.2075C52.8513 6.2075 55.0612 6.10909 58.0731 5.91157C59.072 10.0918 59.5717 14.8139 59.5717 20.0772V26.7063C59.5717 33.5322 56.9612 36.9455 51.7393 36.9455C46.5174 36.9455 42.4146 34.4334 39.6845 29.409C37.2777 21.3164 36.0744 13.2872 36.0744 5.32043L36.3703 4.7082H36.371Z"/>
<path d="M60.8386 6.29193C65.4412 7.03842 67.7418 7.74835 67.7418 8.42384V10.5565C68.1643 23.3219 69.4379 29.705 71.5628 29.705C77.094 29.705 79.8599 30.6975 79.8599 32.6818C79.8599 33.1886 80.3168 34.6099 81.232 36.9463H75.0042C68.5579 36.9463 65.3351 35.8133 65.3351 33.5471C65.3351 32.182 63.8365 24.6588 60.8386 10.9789V6.29193Z"/>
<path d="M75.2203 7.83322H75.4312C76.0083 7.83322 79.0554 8.55791 84.5724 10.008H84.9949C87.2751 9.86743 89.4492 9.79714 91.5186 9.79714C93.2639 9.79714 94.1362 10.881 94.1362 13.0481C94.1362 13.4283 94.643 15.2369 95.6566 18.4738C93.2498 17.4602 90.6392 16.7355 87.8241 16.299V16.7425C88.5136 17.967 89.1681 21.3733 89.7873 26.9607C90.8993 29.9445 92.9258 33.2032 95.8674 36.7353C95.7269 36.7353 95.6566 36.8056 95.6566 36.9461C91.941 36.0738 89.1118 35.6373 87.1697 35.6373H85.8609C82.9755 30.866 81.5331 25.4333 81.5331 19.3391C81.1669 17.172 80.3649 16.0881 79.1264 16.0881C77.9019 15.9476 76.8883 15.8773 76.0863 15.8773C75.8332 15.8773 75.0383 16.0178 73.7006 16.2997C73.1236 13.907 72.8354 11.5214 72.8354 9.14273V8.48833C72.8354 8.05253 73.6303 7.83392 75.221 7.83392L75.2203 7.83322Z"/>
<path d="M96.5217 5.8906H98.1897C107.845 5.8906 114.241 8.31843 117.38 13.1741C118.042 14.6664 118.373 15.8761 118.373 16.8053V19.1277C118.373 21.971 116.719 23.9553 113.412 25.0813C113.186 25.0813 113.074 25.1938 113.074 25.4194C113.552 26.123 116.423 28.5509 121.687 32.7029C118.9 36.2357 117.352 38.0021 117.042 38.0021C116.409 37.8468 113.432 34.9761 108.112 29.3887V29.7268C108.548 33.1331 109.097 36.1099 109.759 38.6572C108.943 38.6572 105.966 37.7772 100.828 36.0185L101.167 33.6961V32.7036C101.167 27.623 99.5126 19.5656 96.2054 8.53071L95.8673 6.2294L96.5217 5.8913V5.8906ZM104.143 12.1816V12.5197C105.03 14.3212 105.91 17.1856 106.782 21.112H108.112C110.321 20.9574 111.426 20.2959 111.426 19.1277C111.426 15.5949 108.998 13.2795 104.143 12.1823L104.143 12.1816Z"/>
</mask>
<path d="M126.517 5.88319C127.11 5.88459 127.473 5.89725 127.608 5.92115C128.597 6.85742 129.447 7.79369 130.159 8.72925C130.871 9.66482 131.781 11.0299 132.886 12.8244C133.993 14.6189 136.038 18.0076 139.019 22.9912C139.619 24.0385 140.086 24.9066 140.417 25.5948C140.75 26.2836 140.98 26.7841 141.11 27.0976C141.322 27.2044 141.761 27.3998 142.427 27.6845C143.093 27.9685 143.832 28.2525 144.645 28.535C144.383 28.793 144.15 29.0214 143.945 29.2204C143.741 29.4193 143.573 29.6041 143.443 29.7742C143.313 29.9451 143.23 30.1243 143.197 30.312C143.164 30.4996 143.181 30.662 143.249 30.7984C143.402 31.2405 143.773 32.1023 144.362 33.3823C144.951 34.663 145.37 35.7089 145.619 36.5207C145.868 37.3326 145.926 38.1079 145.795 38.8452C145.738 39.1672 145.624 39.3991 145.452 39.5418C145.281 39.6845 144.919 39.9214 144.367 40.2518C143.815 40.5828 143.446 40.8837 143.259 41.155C142.679 40.6918 142.07 39.979 141.432 39.0146C140.795 38.0503 140.172 36.9369 139.565 35.6744C138.957 34.4113 138.481 33.3654 138.135 32.536C137.789 31.7065 137.494 30.9383 137.25 30.2311C136.009 29.8452 134.705 29.337 133.338 28.7065C131.971 28.0767 130.712 27.5763 129.561 27.2058C129.749 28.9272 129.865 30.241 129.912 31.1484C129.96 32.0559 129.919 32.872 129.79 33.5959C129.581 34.7761 129.018 35.9907 128.103 37.2391C128.091 37.2236 127.46 37.0001 126.211 36.5713C124.963 36.1419 124.211 35.905 123.957 35.86L123.713 5.47902C123.732 5.37218 123.846 5.33633 124.055 5.37358C124.265 5.41084 124.573 5.51416 124.982 5.68356C125.391 5.85296 125.604 5.93942 125.618 5.94153C125.625 5.90146 125.926 5.88178 126.518 5.88319H126.517ZM129.557 22.6608L134.974 24.4322L128.564 11.9851L129.557 22.6615V22.6608Z" fill="url(#paint0_linear_2541_2439)"/>
<path d="M156.851 13.5572C162.894 13.5572 167.119 17.6544 169.526 25.8489C169.797 26.5504 169.932 27.5548 169.932 28.8622C169.932 34.0757 167.023 37.0729 161.204 37.8538H160.414C154.516 37.8538 150.29 33.6532 147.74 25.2507V22.2613C149.063 16.4581 151.573 13.5565 155.273 13.5565H156.851L156.851 13.5572ZM155.273 23.4576C156.581 29.0534 158.693 31.8517 161.611 31.8517C162.392 31.1186 162.783 30.4171 162.783 29.7472V28.8622C162.783 25.5783 161.068 22.9796 157.641 21.0663H156.851C156.054 21.0663 155.528 21.8634 155.273 23.4576Z" fill="url(#paint1_linear_2541_2439)"/>
<path d="M180.703 14.1306C186.187 14.1306 189.966 17.3274 192.039 23.7203C192.261 24.6453 192.373 25.6175 192.373 26.6381C192.373 29.811 191.233 32.274 188.953 34.0277C185.781 36.9933 181.437 38.4757 175.92 38.4757C174.883 38.4757 174.365 38.1327 174.365 37.4474C174.365 36.762 173.225 32.1468 170.946 23.553C170.371 21.2735 169.854 18.6425 169.391 15.6615C169.503 15.6615 169.558 15.606 169.558 15.4942L170.419 15.6615H172.309L178.479 14.2986C179.037 14.1875 179.778 14.1313 180.703 14.1313V14.1306ZM177.618 19.9415C177.618 21.4239 178.359 25.0277 179.842 30.7508H181.229C182.759 30.7508 184.186 29.3246 185.509 26.4701C185.509 26.3907 185.565 26.0476 185.677 25.4417C184.975 23.1784 183.891 21.6313 182.424 20.8026C181.165 20.2283 180.248 19.9415 179.674 19.9415H177.617H177.618Z" fill="url(#paint2_linear_2541_2439)"/>
<path d="M203.302 14.1306C208.786 14.1306 212.565 17.3274 214.638 23.7203C214.861 24.6453 214.972 25.6175 214.972 26.6381C214.972 29.811 213.832 32.274 211.553 34.0277C208.38 36.9933 204.036 38.4757 198.519 38.4757C197.483 38.4757 196.965 38.1327 196.965 37.4474C196.965 36.762 195.825 32.1468 193.545 23.553C192.971 21.2735 192.453 18.6425 191.99 15.6615C192.102 15.6615 192.158 15.606 192.158 15.4942L193.019 15.6615H194.908L201.078 14.2986C201.636 14.1875 202.377 14.1313 203.302 14.1313V14.1306ZM200.217 19.9415C200.217 21.4239 200.959 25.0277 202.441 30.7508H203.828C205.358 30.7508 206.785 29.3246 208.109 26.4701C208.109 26.3907 208.164 26.0476 208.276 25.4417C207.574 23.1784 206.49 21.6313 205.023 20.8026C203.764 20.2283 202.847 19.9415 202.273 19.9415H200.216H200.217Z" fill="url(#paint3_linear_2541_2439)"/>
<path d="M216.168 20.5397C218.272 20.9066 219.978 21.0901 221.285 21.0901V21.2335C221.285 21.4247 221.19 22.2942 220.999 23.8398C220.999 24.3502 221.692 25.5057 223.079 27.3073C223.637 28.5669 223.916 30.5442 223.916 33.2384C224.283 34.3708 224.929 35.9404 225.854 37.9493C224.976 37.7581 224.283 37.6625 223.773 37.6625H222.243C221.095 37.8537 220.266 37.9493 219.756 37.9493C218.751 34.6337 218.25 32.5608 218.25 31.7314C218.329 30.121 218.369 29.1088 218.369 28.6941C218.369 27.1794 217.5 25.6569 215.763 24.1266C215.572 23.7443 215.476 23.4652 215.476 23.2895C215.635 21.7431 215.867 20.8265 216.17 20.539L216.168 20.5397ZM217.818 13.3413C219.078 13.3413 220.002 14.5847 220.592 17.0716V18.0521C220.592 18.8816 220.225 19.5191 219.492 19.9654H218.942C217.093 19.3912 216.168 17.9172 216.168 15.5413C216.168 14.0744 216.718 13.3413 217.818 13.3413Z" fill="url(#paint4_linear_2541_2439)"/>
<path d="M242.354 13.8201L242.593 14.2264V15.9007C242.593 17.2721 243.549 23.1625 245.463 33.5732V34.8166C245.463 35.2791 243.095 36.1163 238.36 37.3274C238.36 35.6376 235.777 31.333 230.612 24.4136H230.158C231.385 30.4242 232.349 34.7288 233.051 37.3274C233.195 37.5826 233.267 37.7899 233.267 37.9495C233.123 37.9495 233.051 38.0127 233.051 38.1407L232.597 37.9495H232.167C231.991 37.9495 231.178 38.0844 229.727 38.3558H227.503C227.217 38.3558 227.073 38.2201 227.073 37.9495C227.073 33.9162 226.108 26.9096 224.179 16.9291C226.411 16.2438 228.038 15.9007 229.058 15.9007L231.043 19.2248C235.029 22.7484 237.986 26.6306 239.915 30.8712V31.4933H240.154V30.8712C239.548 26.4078 238.512 21.8319 237.045 17.1442L236.806 15.9007C237.205 15.311 239.054 14.6172 242.354 13.8201H242.354Z" fill="url(#paint5_linear_2541_2439)"/>
<path d="M250.772 13.8915C256.894 13.8915 260.759 20.3168 262.37 33.1666C262.944 34.8564 264.1 36.7141 265.838 38.7385V38.8819H264.785C260.975 38.8819 259.07 37.6785 259.07 35.2711H258.759C258.201 37.0726 256.846 37.9738 254.694 37.9738H254.55C252.207 37.9738 249.998 36.523 247.926 33.6214C246.922 32.0588 246.42 30.2495 246.42 28.1928V27.5954C246.42 25.1563 247.671 23.4503 250.174 22.4775C250.573 22.3664 250.979 22.3102 251.394 22.3102H252.9C253.458 22.3102 254.207 22.4142 255.148 22.6209V22.3102C255.148 20.0785 254.343 18.7795 252.733 18.4126H252.135C251.976 18.4126 251.777 18.6122 251.537 19.0101C251.537 19.7277 251.64 20.2774 251.848 20.6605L246.563 21.426C246.339 21.426 246.14 20.6211 245.964 19.0108V18.1019C245.964 15.9974 247.168 14.6422 249.576 14.0363C250.134 13.9407 250.533 13.8929 250.772 13.8929V13.8915ZM250.772 28.1921V28.6469C250.772 30.1139 251.776 31.6202 253.785 33.1666C254.12 33.3578 254.422 33.4534 254.694 33.4534H255.148C256.263 33.4534 256.966 32.4011 257.252 30.2966C257.252 29.3561 256.751 27.9531 255.746 26.0876C255.061 25.8803 254.463 25.7769 253.952 25.7769H253.33C251.624 26.0005 250.772 26.8053 250.772 28.1921Z" fill="url(#paint6_linear_2541_2439)"/>
<path d="M262.825 13.3413H264.045C271.267 13.3413 276.058 15.159 278.417 18.7937C278.911 19.9099 279.159 20.8188 279.159 21.5203V23.2424C279.159 25.363 277.923 26.8532 275.452 27.7143C275.277 27.7143 275.189 27.7944 275.189 27.9532C275.556 28.479 277.709 30.2967 281.646 33.4057C279.557 36.036 278.402 37.3518 278.179 37.3518C277.701 37.2407 275.469 35.0962 271.483 30.9188V31.1578C271.818 33.7248 272.232 35.9565 272.726 37.8537C272.104 37.8537 269.873 37.1922 266.031 35.8687L266.294 34.1465V33.405C266.294 29.5945 265.05 23.5685 262.563 15.3256L262.324 13.5802L262.827 13.3413H262.825ZM268.517 18.0528V18.2918C269.17 19.647 269.832 21.7916 270.502 24.7248H271.482C273.141 24.6137 273.969 24.1189 273.969 23.2424C273.969 20.5959 272.151 18.8661 268.517 18.0528Z" fill="url(#paint7_linear_2541_2439)"/>
<path d="M300.229 14.8245C300.229 15.0002 300.316 15.0874 300.492 15.0874C299.12 26.2313 297.917 32.9194 296.881 35.1518C294.776 40.9072 293.19 43.8566 292.122 44C290.863 43.1706 289.285 41.951 287.387 40.3414V40.1024C288.918 38.4604 290.217 35.5904 291.286 31.4932C291.477 31.4932 291.573 31.406 291.573 31.2303C284.685 27.5956 281.241 24.2076 281.241 21.067C280.492 19.9353 280.117 19.0665 280.117 18.4606V18.2217H280.404C281.489 18.2217 283.346 18.0466 285.976 17.6959C287.394 21.1556 289.539 23.8421 292.409 25.7554H292.672C293.676 19.3308 294.426 16.1179 294.92 16.1179C297.821 15.6075 299.591 15.1774 300.229 14.8266V14.8245Z" fill="url(#paint8_linear_2541_2439)"/>
<path d="M33.4876 14.6799L32.6244 21.6738L27.1755 20.9913L26.5731 23.4016L30.9789 23.9843L30.1157 30.9353L24.7568 30.2795L22.5511 37.5504L15.8475 36.6858L17.9295 29.3988L15.728 29.1296L13.5637 36.4264L6.8545 35.6005L8.9836 28.3029L4 27.7378L4.82591 20.6947L10.8758 21.5108L11.5246 19.0843L6.55225 18.4742L7.41542 11.4803L13.2994 12.2022L15.6767 4L22.3325 4.82451L19.989 13.0668L22.2144 13.2973L24.5783 5.12465L31.4126 5.94634L28.989 14.1724L33.4883 14.6813L33.4876 14.6799ZM20.4269 20.1774L18.1846 19.9018L17.5436 22.2523L19.7844 22.5708L20.4269 20.1781V20.1774Z" fill="url(#paint9_linear_2541_2439)"/>
<path d="M36.371 4.7082L43.3164 6.5238V9.52169C43.3164 16.4327 44.9211 22.259 48.1299 27.0022C48.3829 27.2131 49.284 27.7129 50.8318 28.5015C52.4366 27.7417 53.2386 26.7422 53.2386 25.5036V19.7827C53.2386 17.4322 52.4366 13.013 50.8318 6.52451L51.4441 6.2075C52.8513 6.2075 55.0612 6.10909 58.0731 5.91157C59.072 10.0918 59.5717 14.8139 59.5717 20.0772V26.7063C59.5717 33.5322 56.9612 36.9455 51.7393 36.9455C46.5174 36.9455 42.4146 34.4334 39.6845 29.409C37.2777 21.3164 36.0744 13.2872 36.0744 5.32043L36.3703 4.7082H36.371Z" fill="url(#paint10_linear_2541_2439)"/>
<path d="M60.8386 6.29193C65.4412 7.03842 67.7418 7.74835 67.7418 8.42384V10.5565C68.1643 23.3219 69.4379 29.705 71.5628 29.705C77.094 29.705 79.8599 30.6975 79.8599 32.6818C79.8599 33.1886 80.3168 34.6099 81.232 36.9463H75.0042C68.5579 36.9463 65.3351 35.8133 65.3351 33.5471C65.3351 32.182 63.8365 24.6588 60.8386 10.9789V6.29193Z" fill="url(#paint11_linear_2541_2439)"/>
<path d="M75.2203 7.83322H75.4312C76.0083 7.83322 79.0554 8.55791 84.5724 10.008H84.9949C87.2751 9.86743 89.4492 9.79714 91.5186 9.79714C93.2639 9.79714 94.1362 10.881 94.1362 13.0481C94.1362 13.4283 94.643 15.2369 95.6566 18.4738C93.2498 17.4602 90.6392 16.7355 87.8241 16.299V16.7425C88.5136 17.967 89.1681 21.3733 89.7873 26.9607C90.8993 29.9445 92.9258 33.2032 95.8674 36.7353C95.7269 36.7353 95.6566 36.8056 95.6566 36.9461C91.941 36.0738 89.1118 35.6373 87.1697 35.6373H85.8609C82.9755 30.866 81.5331 25.4333 81.5331 19.3391C81.1669 17.172 80.3649 16.0881 79.1264 16.0881C77.9019 15.9476 76.8883 15.8773 76.0863 15.8773C75.8332 15.8773 75.0383 16.0178 73.7006 16.2997C73.1236 13.907 72.8354 11.5214 72.8354 9.14273V8.48833C72.8354 8.05253 73.6303 7.83392 75.221 7.83392L75.2203 7.83322Z" fill="url(#paint12_linear_2541_2439)"/>
<path d="M96.5217 5.8906H98.1897C107.845 5.8906 114.241 8.31843 117.38 13.1741C118.042 14.6664 118.373 15.8761 118.373 16.8053V19.1277C118.373 21.971 116.719 23.9553 113.412 25.0813C113.186 25.0813 113.074 25.1938 113.074 25.4194C113.552 26.123 116.423 28.5509 121.687 32.7029C118.9 36.2357 117.352 38.0021 117.042 38.0021C116.409 37.8468 113.432 34.9761 108.112 29.3887V29.7268C108.548 33.1331 109.097 36.1099 109.759 38.6572C108.943 38.6572 105.966 37.7772 100.828 36.0185L101.167 33.6961V32.7036C101.167 27.623 99.5126 19.5656 96.2054 8.53071L95.8673 6.2294L96.5217 5.8913V5.8906ZM104.143 12.1816V12.5197C105.03 14.3212 105.91 17.1856 106.782 21.112H108.112C110.321 20.9574 111.426 20.2959 111.426 19.1277C111.426 15.5949 108.998 13.2795 104.143 12.1823L104.143 12.1816Z" fill="url(#paint13_linear_2541_2439)"/>
<path d="M126.517 5.88319C127.11 5.88459 127.473 5.89725 127.608 5.92115C128.597 6.85742 129.447 7.79369 130.159 8.72925C130.871 9.66482 131.781 11.0299 132.886 12.8244C133.993 14.6189 136.038 18.0076 139.019 22.9912C139.619 24.0385 140.086 24.9066 140.417 25.5948C140.75 26.2836 140.98 26.7841 141.11 27.0976C141.322 27.2044 141.761 27.3998 142.427 27.6845C143.093 27.9685 143.832 28.2525 144.645 28.535C144.383 28.793 144.15 29.0214 143.945 29.2204C143.741 29.4193 143.573 29.6041 143.443 29.7742C143.313 29.9451 143.23 30.1243 143.197 30.312C143.164 30.4996 143.181 30.662 143.249 30.7984C143.402 31.2405 143.773 32.1023 144.362 33.3823C144.951 34.663 145.37 35.7089 145.619 36.5207C145.868 37.3326 145.926 38.1079 145.795 38.8452C145.738 39.1672 145.624 39.3991 145.452 39.5418C145.281 39.6845 144.919 39.9214 144.367 40.2518C143.815 40.5828 143.446 40.8837 143.259 41.155C142.679 40.6918 142.07 39.979 141.432 39.0146C140.795 38.0503 140.172 36.9369 139.565 35.6744C138.957 34.4113 138.481 33.3654 138.135 32.536C137.789 31.7065 137.494 30.9383 137.25 30.2311C136.009 29.8452 134.705 29.337 133.338 28.7065C131.971 28.0767 130.712 27.5763 129.561 27.2058C129.749 28.9272 129.865 30.241 129.912 31.1484C129.96 32.0559 129.919 32.872 129.79 33.5959C129.581 34.7761 129.018 35.9907 128.103 37.2391C128.091 37.2236 127.46 37.0001 126.211 36.5713C124.963 36.1419 124.211 35.905 123.957 35.86L123.713 5.47902C123.732 5.37218 123.846 5.33633 124.055 5.37358C124.265 5.41084 124.573 5.51416 124.982 5.68356C125.391 5.85296 125.604 5.93942 125.618 5.94153C125.625 5.90146 125.926 5.88178 126.518 5.88319H126.517ZM129.557 22.6608L134.974 24.4322L128.564 11.9851L129.557 22.6615V22.6608Z" stroke="#FBFAFF" stroke-width="6.66667" stroke-linejoin="round" mask="url(#path-1-outside-1_2541_2439)"/>
<path d="M156.851 13.5572C162.894 13.5572 167.119 17.6544 169.526 25.8489C169.797 26.5504 169.932 27.5548 169.932 28.8622C169.932 34.0757 167.023 37.0729 161.204 37.8538H160.414C154.516 37.8538 150.29 33.6532 147.74 25.2507V22.2613C149.063 16.4581 151.573 13.5565 155.273 13.5565H156.851L156.851 13.5572ZM155.273 23.4576C156.581 29.0534 158.693 31.8517 161.611 31.8517C162.392 31.1186 162.783 30.4171 162.783 29.7472V28.8622C162.783 25.5783 161.068 22.9796 157.641 21.0663H156.851C156.054 21.0663 155.528 21.8634 155.273 23.4576Z" stroke="#FBFAFF" stroke-width="6.66667" stroke-linejoin="round" mask="url(#path-1-outside-1_2541_2439)"/>
<path d="M180.703 14.1306C186.187 14.1306 189.966 17.3274 192.039 23.7203C192.261 24.6453 192.373 25.6175 192.373 26.6381C192.373 29.811 191.233 32.274 188.953 34.0277C185.781 36.9933 181.437 38.4757 175.92 38.4757C174.883 38.4757 174.365 38.1327 174.365 37.4474C174.365 36.762 173.225 32.1468 170.946 23.553C170.371 21.2735 169.854 18.6425 169.391 15.6615C169.503 15.6615 169.558 15.606 169.558 15.4942L170.419 15.6615H172.309L178.479 14.2986C179.037 14.1875 179.778 14.1313 180.703 14.1313V14.1306ZM177.618 19.9415C177.618 21.4239 178.359 25.0277 179.842 30.7508H181.229C182.759 30.7508 184.186 29.3246 185.509 26.4701C185.509 26.3907 185.565 26.0476 185.677 25.4417C184.975 23.1784 183.891 21.6313 182.424 20.8026C181.165 20.2283 180.248 19.9415 179.674 19.9415H177.617H177.618Z" stroke="#FBFAFF" stroke-width="6.66667" stroke-linejoin="round" mask="url(#path-1-outside-1_2541_2439)"/>
<path d="M203.302 14.1306C208.786 14.1306 212.565 17.3274 214.638 23.7203C214.861 24.6453 214.972 25.6175 214.972 26.6381C214.972 29.811 213.832 32.274 211.553 34.0277C208.38 36.9933 204.036 38.4757 198.519 38.4757C197.483 38.4757 196.965 38.1327 196.965 37.4474C196.965 36.762 195.825 32.1468 193.545 23.553C192.971 21.2735 192.453 18.6425 191.99 15.6615C192.102 15.6615 192.158 15.606 192.158 15.4942L193.019 15.6615H194.908L201.078 14.2986C201.636 14.1875 202.377 14.1313 203.302 14.1313V14.1306ZM200.217 19.9415C200.217 21.4239 200.959 25.0277 202.441 30.7508H203.828C205.358 30.7508 206.785 29.3246 208.109 26.4701C208.109 26.3907 208.164 26.0476 208.276 25.4417C207.574 23.1784 206.49 21.6313 205.023 20.8026C203.764 20.2283 202.847 19.9415 202.273 19.9415H200.216H200.217Z" stroke="#FBFAFF" stroke-width="6.66667" stroke-linejoin="round" mask="url(#path-1-outside-1_2541_2439)"/>
<path d="M216.168 20.5397C218.272 20.9066 219.978 21.0901 221.285 21.0901V21.2335C221.285 21.4247 221.19 22.2942 220.999 23.8398C220.999 24.3502 221.692 25.5057 223.079 27.3073C223.637 28.5669 223.916 30.5442 223.916 33.2384C224.283 34.3708 224.929 35.9404 225.854 37.9493C224.976 37.7581 224.283 37.6625 223.773 37.6625H222.243C221.095 37.8537 220.266 37.9493 219.756 37.9493C218.751 34.6337 218.25 32.5608 218.25 31.7314C218.329 30.121 218.369 29.1088 218.369 28.6941C218.369 27.1794 217.5 25.6569 215.763 24.1266C215.572 23.7443 215.476 23.4652 215.476 23.2895C215.635 21.7431 215.867 20.8265 216.17 20.539L216.168 20.5397ZM217.818 13.3413C219.078 13.3413 220.002 14.5847 220.592 17.0716V18.0521C220.592 18.8816 220.225 19.5191 219.492 19.9654H218.942C217.093 19.3912 216.168 17.9172 216.168 15.5413C216.168 14.0744 216.718 13.3413 217.818 13.3413Z" stroke="#FBFAFF" stroke-width="6.66667" stroke-linejoin="round" mask="url(#path-1-outside-1_2541_2439)"/>
<path d="M242.354 13.8201L242.593 14.2264V15.9007C242.593 17.2721 243.549 23.1625 245.463 33.5732V34.8166C245.463 35.2791 243.095 36.1163 238.36 37.3274C238.36 35.6376 235.777 31.333 230.612 24.4136H230.158C231.385 30.4242 232.349 34.7288 233.051 37.3274C233.195 37.5826 233.267 37.7899 233.267 37.9495C233.123 37.9495 233.051 38.0127 233.051 38.1407L232.597 37.9495H232.167C231.991 37.9495 231.178 38.0844 229.727 38.3558H227.503C227.217 38.3558 227.073 38.2201 227.073 37.9495C227.073 33.9162 226.108 26.9096 224.179 16.9291C226.411 16.2438 228.038 15.9007 229.058 15.9007L231.043 19.2248C235.029 22.7484 237.986 26.6306 239.915 30.8712V31.4933H240.154V30.8712C239.548 26.4078 238.512 21.8319 237.045 17.1442L236.806 15.9007C237.205 15.311 239.054 14.6172 242.354 13.8201H242.354Z" stroke="#FBFAFF" stroke-width="6.66667" stroke-linejoin="round" mask="url(#path-1-outside-1_2541_2439)"/>
<path d="M250.772 13.8915C256.894 13.8915 260.759 20.3168 262.37 33.1666C262.944 34.8564 264.1 36.7141 265.838 38.7385V38.8819H264.785C260.975 38.8819 259.07 37.6785 259.07 35.2711H258.759C258.201 37.0726 256.846 37.9738 254.694 37.9738H254.55C252.207 37.9738 249.998 36.523 247.926 33.6214C246.922 32.0588 246.42 30.2495 246.42 28.1928V27.5954C246.42 25.1563 247.671 23.4503 250.174 22.4775C250.573 22.3664 250.979 22.3102 251.394 22.3102H252.9C253.458 22.3102 254.207 22.4142 255.148 22.6209V22.3102C255.148 20.0785 254.343 18.7795 252.733 18.4126H252.135C251.976 18.4126 251.777 18.6122 251.537 19.0101C251.537 19.7277 251.64 20.2774 251.848 20.6605L246.563 21.426C246.339 21.426 246.14 20.6211 245.964 19.0108V18.1019C245.964 15.9974 247.168 14.6422 249.576 14.0363C250.134 13.9407 250.533 13.8929 250.772 13.8929V13.8915ZM250.772 28.1921V28.6469C250.772 30.1139 251.776 31.6202 253.785 33.1666C254.12 33.3578 254.422 33.4534 254.694 33.4534H255.148C256.263 33.4534 256.966 32.4011 257.252 30.2966C257.252 29.3561 256.751 27.9531 255.746 26.0876C255.061 25.8803 254.463 25.7769 253.952 25.7769H253.33C251.624 26.0005 250.772 26.8053 250.772 28.1921Z" stroke="#FBFAFF" stroke-width="6.66667" stroke-linejoin="round" mask="url(#path-1-outside-1_2541_2439)"/>
<path d="M262.825 13.3413H264.045C271.267 13.3413 276.058 15.159 278.417 18.7937C278.911 19.9099 279.159 20.8188 279.159 21.5203V23.2424C279.159 25.363 277.923 26.8532 275.452 27.7143C275.277 27.7143 275.189 27.7944 275.189 27.9532C275.556 28.479 277.709 30.2967 281.646 33.4057C279.557 36.036 278.402 37.3518 278.179 37.3518C277.701 37.2407 275.469 35.0962 271.483 30.9188V31.1578C271.818 33.7248 272.232 35.9565 272.726 37.8537C272.104 37.8537 269.873 37.1922 266.031 35.8687L266.294 34.1465V33.405C266.294 29.5945 265.05 23.5685 262.563 15.3256L262.324 13.5802L262.827 13.3413H262.825ZM268.517 18.0528V18.2918C269.17 19.647 269.832 21.7916 270.502 24.7248H271.482C273.141 24.6137 273.969 24.1189 273.969 23.2424C273.969 20.5959 272.151 18.8661 268.517 18.0528Z" stroke="#FBFAFF" stroke-width="6.66667" stroke-linejoin="round" mask="url(#path-1-outside-1_2541_2439)"/>
<path d="M300.229 14.8245C300.229 15.0002 300.316 15.0874 300.492 15.0874C299.12 26.2313 297.917 32.9194 296.881 35.1518C294.776 40.9072 293.19 43.8566 292.122 44C290.863 43.1706 289.285 41.951 287.387 40.3414V40.1024C288.918 38.4604 290.217 35.5904 291.286 31.4932C291.477 31.4932 291.573 31.406 291.573 31.2303C284.685 27.5956 281.241 24.2076 281.241 21.067C280.492 19.9353 280.117 19.0665 280.117 18.4606V18.2217H280.404C281.489 18.2217 283.346 18.0466 285.976 17.6959C287.394 21.1556 289.539 23.8421 292.409 25.7554H292.672C293.676 19.3308 294.426 16.1179 294.92 16.1179C297.821 15.6075 299.591 15.1774 300.229 14.8266V14.8245Z" stroke="#FBFAFF" stroke-width="6.66667" stroke-linejoin="round" mask="url(#path-1-outside-1_2541_2439)"/>
<path d="M33.4876 14.6799L32.6244 21.6738L27.1755 20.9913L26.5731 23.4016L30.9789 23.9843L30.1157 30.9353L24.7568 30.2795L22.5511 37.5504L15.8475 36.6858L17.9295 29.3988L15.728 29.1296L13.5637 36.4264L6.8545 35.6005L8.9836 28.3029L4 27.7378L4.82591 20.6947L10.8758 21.5108L11.5246 19.0843L6.55225 18.4742L7.41542 11.4803L13.2994 12.2022L15.6767 4L22.3325 4.82451L19.989 13.0668L22.2144 13.2973L24.5783 5.12465L31.4126 5.94634L28.989 14.1724L33.4883 14.6813L33.4876 14.6799ZM20.4269 20.1774L18.1846 19.9018L17.5436 22.2523L19.7844 22.5708L20.4269 20.1781V20.1774Z" stroke="#FBFAFF" stroke-width="6.66667" stroke-linejoin="round" mask="url(#path-1-outside-1_2541_2439)"/>
<path d="M36.371 4.7082L43.3164 6.5238V9.52169C43.3164 16.4327 44.9211 22.259 48.1299 27.0022C48.3829 27.2131 49.284 27.7129 50.8318 28.5015C52.4366 27.7417 53.2386 26.7422 53.2386 25.5036V19.7827C53.2386 17.4322 52.4366 13.013 50.8318 6.52451L51.4441 6.2075C52.8513 6.2075 55.0612 6.10909 58.0731 5.91157C59.072 10.0918 59.5717 14.8139 59.5717 20.0772V26.7063C59.5717 33.5322 56.9612 36.9455 51.7393 36.9455C46.5174 36.9455 42.4146 34.4334 39.6845 29.409C37.2777 21.3164 36.0744 13.2872 36.0744 5.32043L36.3703 4.7082H36.371Z" stroke="#FBFAFF" stroke-width="6.66667" stroke-linejoin="round" mask="url(#path-1-outside-1_2541_2439)"/>
<path d="M60.8386 6.29193C65.4412 7.03842 67.7418 7.74835 67.7418 8.42384V10.5565C68.1643 23.3219 69.4379 29.705 71.5628 29.705C77.094 29.705 79.8599 30.6975 79.8599 32.6818C79.8599 33.1886 80.3168 34.6099 81.232 36.9463H75.0042C68.5579 36.9463 65.3351 35.8133 65.3351 33.5471C65.3351 32.182 63.8365 24.6588 60.8386 10.9789V6.29193Z" stroke="#FBFAFF" stroke-width="6.66667" stroke-linejoin="round" mask="url(#path-1-outside-1_2541_2439)"/>
<path d="M75.2203 7.83322H75.4312C76.0083 7.83322 79.0554 8.55791 84.5724 10.008H84.9949C87.2751 9.86743 89.4492 9.79714 91.5186 9.79714C93.2639 9.79714 94.1362 10.881 94.1362 13.0481C94.1362 13.4283 94.643 15.2369 95.6566 18.4738C93.2498 17.4602 90.6392 16.7355 87.8241 16.299V16.7425C88.5136 17.967 89.1681 21.3733 89.7873 26.9607C90.8993 29.9445 92.9258 33.2032 95.8674 36.7353C95.7269 36.7353 95.6566 36.8056 95.6566 36.9461C91.941 36.0738 89.1118 35.6373 87.1697 35.6373H85.8609C82.9755 30.866 81.5331 25.4333 81.5331 19.3391C81.1669 17.172 80.3649 16.0881 79.1264 16.0881C77.9019 15.9476 76.8883 15.8773 76.0863 15.8773C75.8332 15.8773 75.0383 16.0178 73.7006 16.2997C73.1236 13.907 72.8354 11.5214 72.8354 9.14273V8.48833C72.8354 8.05253 73.6303 7.83392 75.221 7.83392L75.2203 7.83322Z" stroke="#FBFAFF" stroke-width="6.66667" stroke-linejoin="round" mask="url(#path-1-outside-1_2541_2439)"/>
<path d="M96.5217 5.8906H98.1897C107.845 5.8906 114.241 8.31843 117.38 13.1741C118.042 14.6664 118.373 15.8761 118.373 16.8053V19.1277C118.373 21.971 116.719 23.9553 113.412 25.0813C113.186 25.0813 113.074 25.1938 113.074 25.4194C113.552 26.123 116.423 28.5509 121.687 32.7029C118.9 36.2357 117.352 38.0021 117.042 38.0021C116.409 37.8468 113.432 34.9761 108.112 29.3887V29.7268C108.548 33.1331 109.097 36.1099 109.759 38.6572C108.943 38.6572 105.966 37.7772 100.828 36.0185L101.167 33.6961V32.7036C101.167 27.623 99.5126 19.5656 96.2054 8.53071L95.8673 6.2294L96.5217 5.8913V5.8906ZM104.143 12.1816V12.5197C105.03 14.3212 105.91 17.1856 106.782 21.112H108.112C110.321 20.9574 111.426 20.2959 111.426 19.1277C111.426 15.5949 108.998 13.2795 104.143 12.1823L104.143 12.1816Z" stroke="#FBFAFF" stroke-width="6.66667" stroke-linejoin="round" mask="url(#path-1-outside-1_2541_2439)"/>
<defs>
<linearGradient id="paint0_linear_2541_2439" x1="3.91212" y1="3.99996" x2="300.579" y2="44" gradientUnits="userSpaceOnUse">
<stop offset="0.0001" stop-color="#D59200"/>
<stop offset="1" stop-color="#680D2D"/>
</linearGradient>
<linearGradient id="paint1_linear_2541_2439" x1="3.91212" y1="3.99996" x2="300.579" y2="44" gradientUnits="userSpaceOnUse">
<stop offset="0.0001" stop-color="#D59200"/>
<stop offset="1" stop-color="#680D2D"/>
</linearGradient>
<linearGradient id="paint2_linear_2541_2439" x1="3.91212" y1="3.99996" x2="300.579" y2="44" gradientUnits="userSpaceOnUse">
<stop offset="0.0001" stop-color="#D59200"/>
<stop offset="1" stop-color="#680D2D"/>
</linearGradient>
<linearGradient id="paint3_linear_2541_2439" x1="3.91212" y1="3.99996" x2="300.579" y2="44" gradientUnits="userSpaceOnUse">
<stop offset="0.0001" stop-color="#D59200"/>
<stop offset="1" stop-color="#680D2D"/>
</linearGradient>
<linearGradient id="paint4_linear_2541_2439" x1="3.91212" y1="3.99996" x2="300.579" y2="44" gradientUnits="userSpaceOnUse">
<stop offset="0.0001" stop-color="#D59200"/>
<stop offset="1" stop-color="#680D2D"/>
</linearGradient>
<linearGradient id="paint5_linear_2541_2439" x1="3.91212" y1="3.99996" x2="300.579" y2="44" gradientUnits="userSpaceOnUse">
<stop offset="0.0001" stop-color="#D59200"/>
<stop offset="1" stop-color="#680D2D"/>
</linearGradient>
<linearGradient id="paint6_linear_2541_2439" x1="3.91212" y1="3.99996" x2="300.579" y2="44" gradientUnits="userSpaceOnUse">
<stop offset="0.0001" stop-color="#D59200"/>
<stop offset="1" stop-color="#680D2D"/>
</linearGradient>
<linearGradient id="paint7_linear_2541_2439" x1="3.91212" y1="3.99996" x2="300.579" y2="44" gradientUnits="userSpaceOnUse">
<stop offset="0.0001" stop-color="#D59200"/>
<stop offset="1" stop-color="#680D2D"/>
</linearGradient>
<linearGradient id="paint8_linear_2541_2439" x1="3.91212" y1="3.99996" x2="300.579" y2="44" gradientUnits="userSpaceOnUse">
<stop offset="0.0001" stop-color="#D59200"/>
<stop offset="1" stop-color="#680D2D"/>
</linearGradient>
<linearGradient id="paint9_linear_2541_2439" x1="3.91212" y1="3.99996" x2="300.579" y2="44" gradientUnits="userSpaceOnUse">
<stop offset="0.0001" stop-color="#D59200"/>
<stop offset="1" stop-color="#680D2D"/>
</linearGradient>
<linearGradient id="paint10_linear_2541_2439" x1="3.91212" y1="3.99996" x2="300.579" y2="44" gradientUnits="userSpaceOnUse">
<stop offset="0.0001" stop-color="#D59200"/>
<stop offset="1" stop-color="#680D2D"/>
</linearGradient>
<linearGradient id="paint11_linear_2541_2439" x1="3.91212" y1="3.99996" x2="300.579" y2="44" gradientUnits="userSpaceOnUse">
<stop offset="0.0001" stop-color="#D59200"/>
<stop offset="1" stop-color="#680D2D"/>
</linearGradient>
<linearGradient id="paint12_linear_2541_2439" x1="3.91212" y1="3.99996" x2="300.579" y2="44" gradientUnits="userSpaceOnUse">
<stop offset="0.0001" stop-color="#D59200"/>
<stop offset="1" stop-color="#680D2D"/>
</linearGradient>
<linearGradient id="paint13_linear_2541_2439" x1="3.91212" y1="3.99996" x2="300.579" y2="44" gradientUnits="userSpaceOnUse">
<stop offset="0.0001" stop-color="#D59200"/>
<stop offset="1" stop-color="#680D2D"/>
</linearGradient>
</defs>
</svg>
