<svg width="1205" height="136" viewBox="0 0 1205 136" fill="none" xmlns="http://www.w3.org/2000/svg">
<path d="M1146.16 87.0092C1145.7 86.5664 1145.47 86.6634 1145.47 87.3003C1145.41 100.463 1145.4 113.801 1145.44 127.315C1145.44 129.454 1144.48 130.691 1142.57 131.028C1130.88 133.078 1119.78 133.004 1109.25 130.806C1107.75 130.494 1107 129.571 1107.01 128.036C1107.06 91.9144 1107.09 55.607 1107.08 19.114C1107.08 17.4659 1107.9 16.4266 1109.53 15.9962C1117.34 13.9455 1125.39 13.7349 1133.07 14.3197C1135.97 14.5379 1139.23 15.1116 1142.84 16.0407C1145.04 16.6005 1145.56 18.4661 1145.55 20.5153C1145.45 35.664 1145.43 50.6936 1145.48 65.6042C1145.48 65.6734 1145.5 65.7411 1145.54 65.8011C1145.57 65.8611 1145.62 65.9114 1145.68 65.9473C1145.74 65.9831 1145.81 66.0034 1145.88 66.0061C1145.94 66.0088 1146.01 65.9939 1146.08 65.9628C1146.38 65.8099 1146.65 65.5221 1146.87 65.0992C1149.33 60.5835 1151.66 56.0521 1154.23 51.5506C1156.03 48.3997 1157.42 45.0375 1159.16 41.8838C1162.42 35.9306 1165.48 30.2305 1168.31 24.7834C1168.98 23.489 1169.67 22.0784 1170.37 20.5515C1171.45 18.2093 1173.13 16.6348 1175.42 15.828C1180.21 14.1411 1185.54 13.8697 1190.48 14.3336C1193.14 14.5855 1196.09 15.5198 1199.35 17.1365C1199.52 17.2201 1199.55 17.3429 1199.45 17.5048C1198.06 19.7258 1195.96 21.7902 1194.28 23.7997C1193.07 25.2507 1191.73 26.7379 1190.28 28.261C1188.02 30.6296 1185.8 33.1027 1183.62 35.6802C1181.44 38.2544 1179.18 40.784 1176.84 43.2691C1174.17 46.0962 1171.65 48.9489 1169.28 51.8272C1168.74 52.4745 1168.18 53.0853 1167.58 53.6595C1167.23 53.9884 1166.9 54.3311 1166.58 54.6875C1163.87 57.6839 1161.19 60.6339 1158.53 63.5373C1156.46 65.8003 1157.28 67.1649 1158.85 69.2471C1161.77 73.1266 1164.71 76.9675 1167.67 80.77C1169.19 82.7338 1170.54 84.8443 1172.03 86.8143C1174.84 90.5113 1177.63 94.1364 1180.41 97.6896C1181.25 98.7741 1181.94 100.009 1182.76 101.076C1186.75 106.261 1190.26 110.949 1193.29 115.141C1196.99 120.257 1201.08 125.315 1204.52 130.319C1204.53 130.33 1204.53 130.342 1204.53 130.356C1204.53 130.369 1204.53 130.383 1204.53 130.395C1204.52 130.407 1204.51 130.418 1204.5 130.426C1204.49 130.434 1204.48 130.439 1204.47 130.441C1200.57 131.133 1196.77 131.723 1193.07 132.21C1190 132.613 1186.67 132.449 1183.48 132.295C1176.45 131.958 1170.06 131.504 1164.32 130.931C1162.29 130.729 1160.89 129.562 1160.11 127.431C1158.35 122.611 1156.98 117.63 1155.44 112.987C1153 105.63 1150.29 97.6646 1147.3 89.0918C1146.94 88.087 1146.56 87.3928 1146.16 87.0092Z" fill="url(#paint0_linear_1170_1030)"/>
<path d="M1036.77 15.3071C1043.5 13.827 1050.54 13.7338 1057.19 14.2217C1060.15 14.4376 1063.49 15.037 1067.19 16.0199C1070.39 16.8675 1069.97 19.038 1069.96 21.5455C1069.92 52.0904 1069.88 81.6553 1069.86 110.24C1069.85 112.128 1070.82 113.071 1072.76 113.07C1081.05 113.067 1089.37 113.059 1097.75 113.044C1100.26 113.037 1100.93 114.799 1100.92 117.069C1100.91 119.819 1100.83 122.855 1100.69 126.177C1100.6 128.37 1099.49 130.032 1097.33 130.299C1084.48 131.915 1071.88 132.631 1059.53 132.448C1055.75 132.394 1052.28 132.221 1049.12 131.929C1043.54 131.411 1038.38 130.886 1033.65 130.355C1032.06 130.177 1031.26 129.263 1031.26 127.611C1031.3 89.5452 1031.33 53.4631 1031.35 19.3648C1031.35 16.0859 1034.36 15.8448 1036.77 15.3071Z" fill="url(#paint1_linear_1170_1030)"/>
<path d="M978.295 15.7007C982.675 14.6491 986.691 14.0699 991.195 13.9748C998.684 13.8104 1004.91 13.8896 1011.79 15.6472C1014.53 16.3479 1014.74 18.0551 1014.73 20.5152C1014.6 56.84 1014.57 92.479 1014.65 127.432C1014.65 130.589 1012.44 131.219 1009.93 131.489C999.18 132.637 988.548 132.461 978.041 130.962C976.129 130.686 975.411 129.15 975.416 127.392C975.578 91.6065 975.616 56.0254 975.527 20.6492C975.526 18.3775 975.574 16.3588 978.295 15.7007Z" fill="url(#paint2_linear_1170_1030)"/>
<path d="M920.02 70.1699C919.817 70.6544 919.621 71.1912 919.433 71.7802C915.787 83.0744 912.219 94.3237 908.729 105.528C908.554 106.086 908.536 106.706 908.366 107.27C906.433 113.631 904.475 119.955 902.493 126.241C901.188 130.37 897.949 131.254 894.14 131.747C887.277 132.63 880.791 132.309 874.683 130.781C872.744 130.299 871.584 129.165 871.203 127.379C871.08 126.791 870.934 126.221 870.765 125.668C866.874 112.979 862.956 100.342 859.01 87.7584C858.745 86.9071 858.741 85.9353 858.497 85.1486C856.837 79.8237 855.188 74.627 853.55 69.5585C853.349 68.9331 853.157 68.9359 852.973 69.5667C852.678 70.5874 852.479 71.6138 852.378 72.6457C850.763 89.2576 849.037 107.673 847.199 127.891C847.036 129.72 845.812 130.807 844.082 131.273C838.993 132.649 834.167 132.529 829.605 130.916C827.933 130.325 827.239 129.089 827.521 127.21C829.259 115.617 831.041 103.801 832.867 91.7625C833.643 86.6355 834.125 81.3216 834.809 76.5939C837.692 56.7976 840.267 37.897 842.533 19.8921C842.828 17.5385 844.034 16.059 846.151 15.4535C849.213 14.5755 852.146 14.0713 854.948 13.941C861.121 13.649 866.987 13.6721 872.692 15.838C875.088 16.7469 876.112 18.9803 876.865 21.3638C878.985 28.0977 881.087 34.8635 883.171 41.6613C883.664 43.2663 883.957 44.9485 884.471 46.6282C888.251 58.8994 892.032 71.1689 895.812 83.4367C896.02 84.1006 896.061 84.8613 896.495 85.4052C896.537 85.457 896.592 85.4966 896.655 85.5197C896.718 85.5428 896.785 85.5486 896.851 85.5365C896.917 85.5245 896.978 85.495 897.028 85.4511C897.078 85.4072 897.116 85.3506 897.137 85.2872C900.969 73.6401 904.617 62.3274 908.081 51.3492C908.533 49.9117 908.743 48.479 909.191 47.0668C912.127 37.8058 915.031 28.5767 917.904 19.3796C918.468 17.5778 919.574 16.3665 921.223 15.7455C923.783 14.784 927.022 14.2491 929.765 14.0615C933.414 13.8172 936.975 13.8374 940.447 14.1219C942.959 14.3279 945.574 14.9325 948.293 15.9358C950.801 16.8589 950.694 19.6924 950.983 21.8829C953.484 40.7085 955.822 58.8042 958 76.1699C958.124 77.1727 958.247 78.1803 958.367 79.1927C960.197 94.5952 962.24 109.814 964.497 124.85C964.721 126.338 964.918 127.935 965.09 129.639C965.102 129.76 965.051 129.836 964.938 129.866C958.112 131.662 951.018 132.486 943.658 132.336C938.525 132.229 933.749 131.6 929.33 130.451C927.337 129.935 926.182 128.532 925.866 126.244C925.503 123.604 925.211 121.018 924.992 118.485C923.67 103.206 922.306 87.6884 920.898 71.9324C920.845 71.3362 920.664 70.7442 920.355 70.1565C920.338 70.1253 920.313 70.0995 920.282 70.082C920.251 70.0644 920.216 70.0558 920.18 70.0572C920.145 70.0586 920.112 70.0699 920.083 70.0899C920.055 70.1098 920.033 70.1376 920.02 70.1699Z" fill="url(#paint3_linear_1170_1030)"/>
<path d="M686.86 124.565C690.233 115.237 693.563 105.704 696.852 95.9676C697.231 94.8548 697.461 93.7023 697.851 92.5857C701.498 82.0318 705.282 71.021 709.203 59.5532C709.537 58.5785 709.897 57.5266 710.281 56.3974C714.173 44.9257 718.018 33.5836 721.818 22.3709C722 21.8324 722.173 21.2448 722.337 20.608C723.302 16.7746 726.063 16.0395 729.425 15.1142C733.857 13.8946 738.513 13.4899 743.39 13.9C746.407 14.1536 749.358 14.9623 752.242 16.3261C754.04 17.1736 755.163 18.7516 755.83 20.6822C757.182 24.6022 758.683 28.4077 759.898 32.4335C760.507 34.4474 761.219 36.5432 762.036 38.7208C765.29 47.3784 768.439 56.1972 771.484 65.1774C775.392 76.6924 779.564 88.1488 783.648 99.4962C784.209 101.048 784.507 102.649 785.066 104.185C787.936 112.091 790.611 119.59 793.089 126.682C793.466 127.751 793.844 129.024 794.223 130.502C794.264 130.658 794.204 130.743 794.041 130.756C787.814 131.303 781.714 131.985 775.436 132.202C771.696 132.328 768.383 132.256 765.499 131.985C762.032 131.66 758.337 131.213 754.411 130.644C752.837 130.415 751.832 129.495 751.394 127.883C750.451 124.394 749.422 120.723 748.306 116.869C747.077 112.631 746.414 108.383 744.935 104.056C744.291 102.18 742.643 101.891 740.877 102.271C732.774 104.026 724.393 103.937 716.381 102.215C714.45 101.803 712.984 102.211 712.312 104.201C711.469 106.717 710.745 109.216 710.143 111.698C709.476 114.436 708.784 116.934 708.065 119.192C707.18 121.984 706.342 124.8 705.552 127.642C704.925 129.888 703.614 131.092 701.62 131.254C698.081 131.547 694.002 131.695 689.383 131.698C687.136 131.703 684.811 131.122 682.582 131.385C676.483 132.114 669.571 132.34 661.846 132.065C657.521 131.91 653.218 131.415 648.937 130.577C647.498 130.295 646.456 129.005 646.097 127.679C642.917 115.989 639.504 103.636 635.857 90.6214C635.293 88.6014 635.119 86.5953 634.397 84.6165C634.266 84.2502 634.014 84.1014 633.642 84.1701C633.503 84.1946 633.378 84.2669 633.287 84.3745C633.196 84.4821 633.146 84.6182 633.145 84.759C633.098 99.9926 633.098 114.233 633.145 127.482C633.151 129.175 632.364 130.205 630.786 130.571C627.788 131.265 624.742 131.705 621.648 131.891C613.605 132.374 605.589 132.322 597.923 130.629C596.28 130.267 595.46 129.184 595.462 127.378C595.546 90.1263 595.624 52.4809 595.695 14.4426C595.694 13.9764 595.924 13.7318 596.386 13.7089C597.1 13.6703 597.835 13.6464 598.589 13.6371C614.436 13.5021 630.032 13.3505 645.565 13.6122C649.433 13.6734 652.556 13.9389 654.935 14.4087C661.367 15.6796 666.765 18.0941 671.129 21.6521C672.237 22.5548 673.589 23.883 675.187 25.6367C683.015 34.2321 684.13 46.9304 681.643 57.9381C680.697 62.1337 678.804 65.9507 675.964 69.3893C673.507 72.3596 670.888 74.6667 668.107 76.3108C666.376 77.3323 665.882 78.6495 666.624 80.2626C669.342 86.203 671.916 91.9655 674.344 97.55C675.608 100.463 677.01 103.568 678.55 106.863C680.365 110.741 682.163 114.684 683.944 118.692C684.834 120.692 685.549 122.69 686.631 124.587C686.643 124.607 686.661 124.624 686.683 124.635C686.704 124.646 686.729 124.65 686.753 124.648C686.776 124.646 686.799 124.637 686.818 124.622C686.837 124.607 686.852 124.587 686.86 124.565ZM644.202 60.3534C646.284 52.4355 645.755 44.6502 642.616 36.9975C641.277 33.7352 638.711 32.1845 634.918 32.3452C633.416 32.406 632.664 33.2072 632.662 34.7486C632.656 45.8692 632.643 57.1551 632.623 68.6062C632.626 68.7984 632.721 68.9083 632.909 68.9359C636.787 69.4747 640.706 68.775 642.539 64.9811C643.193 63.626 643.747 62.0835 644.202 60.3534ZM722.591 73.0506C722.14 74.478 721.993 75.9855 721.499 77.4279C720.738 79.6497 720.008 81.9218 719.309 84.2441C719.25 84.4353 719.317 84.5569 719.509 84.609C725.819 86.3781 732.099 86.3636 738.35 84.5654C738.395 84.5521 738.437 84.53 738.474 84.5004C738.51 84.4708 738.541 84.4342 738.563 84.3929C738.585 84.3517 738.598 84.3065 738.602 84.2601C738.606 84.2137 738.601 84.1671 738.586 84.1229C737.335 80.1765 736.194 76.3519 735.161 72.6494C734.838 71.4824 734.703 70.2573 734.344 69.0908C732.756 63.8952 731.231 58.7298 729.77 53.5948C729.732 53.46 729.645 53.3442 729.526 53.2708C729.406 53.1974 729.264 53.1717 729.127 53.1988C728.884 53.2431 728.726 53.3838 728.651 53.6209C726.607 60.2006 724.587 66.6772 722.591 73.0506Z" fill="url(#paint4_linear_1170_1030)"/>
<path d="M562.328 35.4914C562.309 65.8722 562.217 96.3413 562.315 126.732C562.324 128.981 561.074 130.352 558.565 130.845C556.392 131.272 554.159 131.564 551.864 131.722C546.965 132.06 541.82 132.081 536.427 131.786C535.288 131.722 532.873 131.424 529.183 130.893C524.777 130.26 524.948 127.45 524.966 123.506C525.107 94.0829 525.164 64.877 525.136 35.8881C525.136 35.8542 525.129 35.8208 525.116 35.7896C525.103 35.7584 525.084 35.7302 525.06 35.7066C525.037 35.683 525.008 35.6645 524.978 35.652C524.947 35.6396 524.914 35.6336 524.881 35.6343L500.561 35.6017C500.366 35.6006 500.268 35.5042 500.269 35.3124L500.294 14.0135C500.294 13.8524 500.375 13.772 500.536 13.7721L587.086 13.8515C587.24 13.8508 587.318 13.9292 587.318 14.0868L587.303 35.0634C587.304 35.0925 587.298 35.1213 587.287 35.1484C587.276 35.1754 587.26 35.2 587.239 35.2207C587.218 35.2415 587.193 35.258 587.166 35.2693C587.139 35.2806 587.109 35.2864 587.079 35.2865L562.552 35.2683C562.522 35.2684 562.493 35.2742 562.465 35.2855C562.438 35.2968 562.413 35.3133 562.392 35.3341C562.372 35.3548 562.355 35.3794 562.344 35.4064C562.333 35.4335 562.328 35.4623 562.328 35.4914Z" fill="url(#paint5_linear_1170_1030)"/>
<path d="M479.064 109.438C479.03 111.901 480.588 112.933 482.941 112.901C486.005 112.857 489.073 112.737 492.116 112.768C499.07 112.831 504.009 112.847 506.932 112.814C510.55 112.775 510.423 115.01 510.441 117.947C510.46 120.577 510.383 123.351 510.211 126.268C510.147 127.326 509.894 128.134 509.453 128.694C508.782 129.544 507.99 130.038 507.078 130.178C500.469 131.18 492.233 131.762 484.805 131.893C469.828 132.145 456.931 132.006 442.97 130.224C441.436 130.031 440.667 129.108 440.663 127.456C440.628 96.3661 440.66 67.4963 440.761 40.8467C440.792 32.885 440.792 25.5872 440.759 18.9534C440.75 17.3453 441.595 16.2854 443.295 15.7738C446.883 14.6961 450.541 14.0177 454.266 13.7387C461.909 13.1607 469.394 13.8506 476.721 15.8086C478.814 16.365 479.306 17.8518 479.3 19.9426C479.261 42.5914 479.22 67.1621 479.178 93.6546C479.169 98.6077 479.131 103.869 479.064 109.438Z" fill="url(#paint6_linear_1170_1030)"/>
<path d="M402.628 110.955C405.613 110.444 407.535 109 407.52 105.755C407.432 89.5719 407.447 75.5334 407.565 63.6393C407.571 63.3008 407.603 62.9264 407.663 62.5161C407.71 62.2069 407.734 61.8571 407.736 61.4667C407.796 47.4134 407.805 34.5408 407.764 22.8489C407.752 19.2961 408.054 17.3049 410.79 15.0042C412.223 13.8005 413.942 13.2759 415.947 13.4304C418.341 13.6179 420.466 14.2708 422.32 15.3893C423.931 16.367 424.17 18.3095 424.168 20.0514C424.137 43.1946 424.111 66.6228 424.089 90.336C424.079 99.8218 421.498 108.962 415.675 116.453C414.936 117.403 414.116 118.267 413.215 119.046C411.955 120.133 410.923 121.409 409.523 122.385C401.038 128.306 391.407 130.992 381.305 131.663C378.482 131.849 375.334 131.909 371.861 131.844C361.326 131.643 350.324 128.71 341.806 122.359C334.976 117.272 330.59 110.191 328.647 101.115C327.33 94.9592 327.638 88.477 327.627 82.1543C327.592 60.2429 327.627 39.2142 327.732 19.0682C327.741 17.4521 328.397 16.4366 329.701 16.0214C339.911 12.7888 350.331 12.6237 360.96 15.5262C365.037 16.6353 364.571 19.1041 364.557 23.0544C364.489 46.1448 364.453 69.2874 364.45 92.4822C364.451 97.123 365.541 102.166 368.413 105.931C372.308 111.039 377.697 113.535 384.582 113.418C390.597 113.317 396.607 111.981 402.628 110.955Z" fill="url(#paint7_linear_1170_1030)"/>
<path d="M22.9459 124.646L11.0796 123.123L19.3319 94.8628C19.3398 94.8365 19.3417 94.8087 19.3374 94.7814C19.3332 94.7542 19.3229 94.7281 19.3072 94.705C19.2916 94.682 19.271 94.6625 19.2469 94.6479C19.2228 94.6333 19.1958 94.6241 19.1677 94.6207L0.174108 92.4502C0.148369 92.4476 0.123415 92.4399 0.100719 92.4275C0.0780223 92.415 0.0580431 92.3982 0.041962 92.3779C0.0258808 92.3577 0.0140247 92.3344 0.00708959 92.3094C0.00015448 92.2845 -0.00171819 92.2585 0.00158422 92.2328L3.22108 65.1459C3.23241 65.0309 3.29517 64.9824 3.40934 65.0005L26.5575 68.1564C26.7193 68.1772 26.8223 68.1082 26.8667 67.9494L29.2506 59.0253C29.2605 58.9886 29.2624 58.9501 29.2561 58.9126C29.2498 58.8751 29.2355 58.8394 29.2142 58.8079C29.1929 58.7764 29.1651 58.7499 29.1326 58.7301C29.1001 58.7103 29.0638 58.6977 29.026 58.6932L10.2087 56.3501C10.0402 56.3284 9.96673 56.2334 9.98837 56.0648L13.311 29.3355C13.3318 29.1737 13.4214 29.103 13.5798 29.1233L35.9952 31.8615C36.1806 31.8852 36.2987 31.8062 36.3494 31.6243L45.4891 0.214435C45.5373 0.0527339 45.644 -0.0175122 45.8091 0.00368534L71.1089 3.13258C71.3584 3.1646 71.449 3.29955 71.3807 3.53748L62.3964 35.0186C62.3447 35.2073 62.4137 35.3104 62.6034 35.3278L70.7308 36.1911C70.8997 36.2093 71.0083 36.1376 71.0565 35.9759L80.153 4.62223C80.2025 4.45041 80.3165 4.37599 80.4951 4.39892L106.617 7.56653C106.762 7.58514 106.814 7.66373 106.772 7.80227L97.4096 39.5072C97.4044 39.5237 97.403 39.5411 97.4054 39.5583C97.4077 39.5754 97.4138 39.5918 97.4233 39.6062C97.4327 39.6207 97.4452 39.6329 97.46 39.642C97.4747 39.651 97.4912 39.6567 97.5083 39.6587L114.613 41.6124C114.645 41.6159 114.677 41.6258 114.705 41.6415C114.734 41.6573 114.759 41.6785 114.779 41.7041C114.799 41.7297 114.814 41.759 114.823 41.7904C114.831 41.8218 114.834 41.8546 114.829 41.8869L111.544 68.6056C111.518 68.8112 111.402 68.9008 111.196 68.8744L90.507 66.2602C90.3486 66.2399 90.2491 66.3076 90.2085 66.4634L88.0007 75.2971C87.9452 75.5161 88.0301 75.6418 88.2555 75.6742L104.947 77.8832C104.977 77.8871 105.004 77.9029 105.023 77.9274C105.042 77.9518 105.051 77.983 105.048 78.0144L101.716 104.779C101.708 104.843 101.674 104.901 101.623 104.941C101.572 104.981 101.507 104.998 101.442 104.99L81.0784 102.443C80.8994 102.424 80.7834 102.5 80.7306 102.671L72.2799 130.474C72.2279 130.639 72.116 130.71 71.9441 130.688L46.3218 127.389C46.1701 127.37 46.1158 127.286 46.1588 127.137L54.1611 99.1839C54.1689 99.1581 54.171 99.131 54.1672 99.1044C54.1633 99.0778 54.1537 99.0523 54.1389 99.0298C54.1242 99.0073 54.1046 98.9883 54.0817 98.9742C54.0588 98.9601 54.0331 98.9512 54.0063 98.9482L45.9357 97.9226C45.7465 97.9018 45.6249 97.9821 45.5707 98.1636L37.2791 126.049C37.2254 126.227 37.1057 126.306 36.9199 126.285L22.9459 124.646ZM63.943 63.2106C63.9501 63.1838 63.9514 63.1558 63.9468 63.1285C63.9421 63.1011 63.9317 63.0751 63.9161 63.0521C63.9005 63.0292 63.8802 63.0098 63.8565 62.9954C63.8328 62.981 63.8063 62.9718 63.7788 62.9685L55.4223 61.968C55.3763 61.9615 55.3294 61.9718 55.2903 61.9969C55.2513 62.0221 55.2225 62.0605 55.2094 62.1051L52.8101 70.9091C52.8031 70.9355 52.8017 70.963 52.8061 70.99C52.8105 71.0169 52.8205 71.0426 52.8356 71.0654C52.8506 71.0882 52.8703 71.1076 52.8933 71.1223C52.9164 71.1369 52.9422 71.1465 52.9692 71.1505L61.3309 72.311C61.3777 72.3175 61.4252 72.3065 61.4646 72.2804C61.5039 72.2542 61.5323 72.2145 61.5444 72.1688L63.943 63.2106Z" fill="url(#paint8_linear_1170_1030)"/>
<path d="M126.448 40.3767C119.437 38.778 112.661 35.277 112.108 27.2505C111.434 17.5279 116.394 12.8813 125.447 10.6975C126.334 10.4825 127.219 10.5052 128.1 10.7657C136.25 13.1787 141.364 18.2599 141.489 27.095C141.598 34.7767 136.196 38.3798 129.482 40.2779C128.455 40.5709 127.443 40.6038 126.448 40.3767Z" fill="url(#paint9_linear_1170_1030)"/>
<path d="M243.172 81.3674C243.156 81.4955 243.153 81.6236 243.164 81.7518C244.172 91.3853 245.323 100.537 246.619 109.207C247.263 113.511 248.013 117.66 248.871 121.656C249.355 123.917 250.017 126.111 250.858 128.237C250.92 128.392 250.869 128.485 250.704 128.515C245.831 129.507 240.796 130.353 235.598 131.053C234.775 131.163 233.99 131.235 233.242 131.27C233.052 131.279 232.951 131.189 232.937 130.999C231.119 104.926 228.261 78.1842 225.176 53.0018C225.168 52.938 225.18 52.8735 225.211 52.8174C225.241 52.7614 225.288 52.7165 225.345 52.6893C229.822 50.4819 234.467 49.2878 239.28 49.1073C239.506 49.0983 239.73 49.1572 239.922 49.2762C240.115 49.3952 240.268 49.569 240.361 49.7753C241.229 51.6959 241.413 54.032 241.678 56.1731C241.697 56.3567 241.772 56.5308 241.891 56.6733C246.23 61.9206 250.435 67.4111 254.506 73.1448C256.439 75.8632 258.15 78.6113 259.641 81.3893C260.368 82.7435 260.867 84.1677 261.138 85.662C261.161 85.7987 261.238 85.8925 261.369 85.9436C261.542 86.0103 261.69 85.9745 261.814 85.8363C261.898 85.7409 261.949 85.6308 261.965 85.5061C263.683 72.0768 267.992 58.7281 273.345 45.9247C273.429 45.7264 273.578 45.6171 273.793 45.5967L281.727 44.9293C281.966 44.9086 282.113 45.0149 282.169 45.2481C287.398 67.8502 293.323 90.5055 299.944 113.214C299.956 113.259 299.951 113.307 299.929 113.348C299.908 113.389 299.872 113.42 299.828 113.436C295.001 115.084 290.577 117.187 286.556 119.744C286.504 119.778 286.445 119.8 286.384 119.807C286.322 119.815 286.26 119.809 286.202 119.79C286.143 119.771 286.089 119.738 286.045 119.696C286 119.653 285.966 119.6 285.944 119.543C285.406 118.1 284.989 116.537 284.691 114.854C284.056 111.281 283.53 107.791 283.11 104.383C282.896 102.636 282.525 100.894 281.998 99.1575C280.429 93.9985 279.091 88.7731 277.981 83.4812C277.464 80.9993 277.146 78.579 277.027 76.2203C277.025 76.1665 277.01 76.114 276.985 76.0664C276.96 76.0188 276.925 75.9772 276.882 75.9448C276.839 75.9123 276.79 75.8896 276.737 75.8784C276.684 75.8672 276.63 75.8677 276.577 75.8799C276.366 75.9248 276.238 76.0522 276.194 76.2624C273.865 87.5508 272.228 98.3404 271.284 108.631C271.261 108.865 271.131 108.987 270.893 108.997C267.599 109.16 264.367 110.313 261.422 111.719C261.206 111.821 261.042 111.764 260.93 111.547C257.454 104.725 253.63 97.389 249.457 89.5386C247.931 86.6702 245.957 83.9073 243.537 81.2497C243.33 81.021 243.208 81.0602 243.172 81.3674Z" fill="url(#paint10_linear_1170_1030)"/>
<path d="M191.634 75.7344C191.768 70.2063 190.539 64.4468 185.174 62.1599C184.015 61.6617 181.336 61.0301 180.28 62.1691C179.791 62.6973 179.235 63.3455 179.233 64.1212C179.219 65.9387 179.541 67.6245 180.198 69.1787C180.205 69.1958 180.208 69.2142 180.207 69.2327C180.206 69.2512 180.201 69.2692 180.192 69.2853C180.183 69.3015 180.17 69.3154 180.155 69.326C180.14 69.3366 180.123 69.3437 180.104 69.3466L162.249 71.9218C162.108 71.9433 161.965 71.9152 161.842 71.8424C161.719 71.7695 161.625 71.6563 161.576 71.5219C160.23 67.87 159.909 63.3678 160.111 59.5857C160.714 48.5212 172.416 44.7193 181.69 46.5006C198.547 49.7382 206.657 68.3604 210.737 83.017C213.205 91.8752 215.026 101.152 216.2 110.848C216.435 112.744 217.13 114.534 217.977 116.267C220.593 121.591 224.031 126.665 228.291 131.487C228.33 131.534 228.356 131.591 228.366 131.651C228.375 131.712 228.367 131.773 228.343 131.829C228.32 131.885 228.281 131.933 228.231 131.967C228.181 132.002 228.123 132.021 228.062 132.023C219.795 132.411 205.204 131.777 205.109 120.022C205.11 119.885 205.053 119.777 204.94 119.697C204.702 119.526 204.434 119.512 204.139 119.656C204.071 119.689 204.011 119.736 203.962 119.792C203.914 119.848 203.877 119.914 203.855 119.984C202.181 125.217 198.226 128.086 192.854 128.738C181.786 130.082 173.473 123.259 167.351 114.693C162.354 107.699 160.878 98.5779 161.835 90.2004C162.643 83.104 167.718 78.1588 174.304 75.6944C175.215 75.3522 176.238 75.1477 177.374 75.0811C182.591 74.7707 187.224 75.081 191.275 76.012C191.508 76.0659 191.627 75.9733 191.634 75.7344ZM191.563 113.37C196.474 113.147 198.008 107.799 198.679 103.609C198.979 101.757 198.662 99.9017 198.111 98.1454C197.119 94.9825 195.675 91.6828 193.78 88.2463C193.694 88.0913 193.565 87.9874 193.393 87.9346C189.005 86.597 185.112 86.5583 181.716 87.8184C177.028 89.555 176.161 93.3855 176.641 97.9337C177.234 103.565 181.77 108.346 186.327 111.922C187.947 113.189 189.562 113.463 191.563 113.37Z" fill="url(#paint11_linear_1170_1030)"/>
<path d="M121.058 64.2301C120.063 58.0534 117.66 51.5831 115.274 45.711C115.262 45.6822 115.256 45.6511 115.258 45.6198C115.26 45.5886 115.269 45.558 115.284 45.5304C115.3 45.5028 115.321 45.4789 115.347 45.4603C115.373 45.4418 115.403 45.4291 115.434 45.4232C115.76 45.3674 116.158 45.3927 116.449 45.5638C123.839 49.8527 132.139 53.2974 140.111 56.2479C140.294 56.3159 140.413 56.4442 140.468 56.6328C143.454 66.6419 144.996 76.1676 144.393 86.5126C143.9 94.9976 143.3 103.347 142.592 111.561C141.934 119.206 143.829 128.068 148.497 134.505C148.659 134.732 148.609 134.886 148.345 134.969C147.98 135.087 147.788 135.327 147.769 135.692C147.753 135.974 147.615 136.062 147.354 135.957L123.848 126.583C123.672 126.512 123.543 126.393 123.462 126.225C121.254 121.676 120.22 116.983 120.361 112.146C120.744 99.1794 121.101 86.199 121.433 73.205C121.531 69.3734 121.406 66.3817 121.058 64.2301Z" fill="url(#paint12_linear_1170_1030)"/>
<defs>
<linearGradient id="paint0_linear_1170_1030" x1="602.267" y1="0" x2="602.267" y2="136" gradientUnits="userSpaceOnUse">
<stop stop-color="#00C2FF"/>
<stop offset="1" stop-color="#7EA1DD"/>
</linearGradient>
<linearGradient id="paint1_linear_1170_1030" x1="602.267" y1="0" x2="602.267" y2="136" gradientUnits="userSpaceOnUse">
<stop stop-color="#00C2FF"/>
<stop offset="1" stop-color="#7EA1DD"/>
</linearGradient>
<linearGradient id="paint2_linear_1170_1030" x1="602.267" y1="0" x2="602.267" y2="136" gradientUnits="userSpaceOnUse">
<stop stop-color="#00C2FF"/>
<stop offset="1" stop-color="#7EA1DD"/>
</linearGradient>
<linearGradient id="paint3_linear_1170_1030" x1="602.267" y1="0" x2="602.267" y2="136" gradientUnits="userSpaceOnUse">
<stop stop-color="#00C2FF"/>
<stop offset="1" stop-color="#7EA1DD"/>
</linearGradient>
<linearGradient id="paint4_linear_1170_1030" x1="602.267" y1="0" x2="602.267" y2="136" gradientUnits="userSpaceOnUse">
<stop stop-color="#00C2FF"/>
<stop offset="1" stop-color="#7EA1DD"/>
</linearGradient>
<linearGradient id="paint5_linear_1170_1030" x1="602.267" y1="0" x2="602.267" y2="136" gradientUnits="userSpaceOnUse">
<stop stop-color="#00C2FF"/>
<stop offset="1" stop-color="#7EA1DD"/>
</linearGradient>
<linearGradient id="paint6_linear_1170_1030" x1="602.267" y1="0" x2="602.267" y2="136" gradientUnits="userSpaceOnUse">
<stop stop-color="#00C2FF"/>
<stop offset="1" stop-color="#7EA1DD"/>
</linearGradient>
<linearGradient id="paint7_linear_1170_1030" x1="602.267" y1="0" x2="602.267" y2="136" gradientUnits="userSpaceOnUse">
<stop stop-color="#00C2FF"/>
<stop offset="1" stop-color="#7EA1DD"/>
</linearGradient>
<linearGradient id="paint8_linear_1170_1030" x1="602.267" y1="0" x2="602.267" y2="136" gradientUnits="userSpaceOnUse">
<stop stop-color="#00C2FF"/>
<stop offset="1" stop-color="#7EA1DD"/>
</linearGradient>
<linearGradient id="paint9_linear_1170_1030" x1="602.267" y1="0" x2="602.267" y2="136" gradientUnits="userSpaceOnUse">
<stop stop-color="#00C2FF"/>
<stop offset="1" stop-color="#7EA1DD"/>
</linearGradient>
<linearGradient id="paint10_linear_1170_1030" x1="602.267" y1="0" x2="602.267" y2="136" gradientUnits="userSpaceOnUse">
<stop stop-color="#00C2FF"/>
<stop offset="1" stop-color="#7EA1DD"/>
</linearGradient>
<linearGradient id="paint11_linear_1170_1030" x1="602.267" y1="0" x2="602.267" y2="136" gradientUnits="userSpaceOnUse">
<stop stop-color="#00C2FF"/>
<stop offset="1" stop-color="#7EA1DD"/>
</linearGradient>
<linearGradient id="paint12_linear_1170_1030" x1="602.267" y1="0" x2="602.267" y2="136" gradientUnits="userSpaceOnUse">
<stop stop-color="#00C2FF"/>
<stop offset="1" stop-color="#7EA1DD"/>
</linearGradient>
</defs>
</svg>
