<svg width="312" height="107" viewBox="0 0 312 107" fill="none" xmlns="http://www.w3.org/2000/svg">
<g clip-path="url(#clip0_2811_315)">
<mask id="path-1-outside-1_2811_315" maskUnits="userSpaceOnUse" x="-16" y="-35" width="345" height="126" fill="black">
<rect fill="white" x="-16" y="-35" width="345" height="126"/>
<path d="M128.925 2.82478C129.549 2.82689 129.932 2.84587 130.073 2.88172C131.114 4.28612 132.009 5.69053 132.758 7.09388C133.507 8.49723 134.464 10.5448 135.628 13.2366C136.792 15.9283 138.944 21.0114 142.082 28.4868C142.713 30.0578 143.204 31.3599 143.553 32.3922C143.903 33.4254 144.145 34.1761 144.281 34.6464C144.505 34.8066 144.966 35.0997 145.668 35.5268C146.368 35.9527 147.146 36.3787 148.001 36.8025C147.726 37.1895 147.481 37.5321 147.265 37.8305C147.05 38.1289 146.874 38.4062 146.736 38.6614C146.6 38.9176 146.513 39.1864 146.478 39.468C146.443 39.7495 146.461 39.993 146.533 40.1976C146.693 40.8608 147.084 42.1534 147.704 44.0734C148.324 45.9944 148.765 47.5633 149.026 48.7811C149.288 49.9989 149.35 51.1618 149.212 52.2679C149.152 52.7508 149.032 53.0987 148.851 53.3127C148.671 53.5268 148.29 53.8821 147.709 54.3776C147.128 54.8742 146.74 55.3255 146.543 55.7325C145.933 55.0377 145.292 53.9685 144.621 52.522C143.95 51.0754 143.295 49.4053 142.656 47.5117C142.016 45.617 141.515 44.0481 141.151 42.8039C140.787 41.5598 140.477 40.4074 140.22 39.3467C138.914 38.7679 137.542 38.0056 136.104 37.0598C134.665 36.1151 133.34 35.3644 132.129 34.8087C132.326 37.3909 132.449 39.3615 132.498 40.7226C132.548 42.0838 132.505 43.3079 132.37 44.3939C132.149 46.1642 131.558 47.9861 130.595 49.8587C130.581 49.8355 129.918 49.5002 128.603 48.857C127.29 48.2128 126.499 47.8575 126.232 47.79L125.975 2.21853C125.994 2.05826 126.115 2.00449 126.335 2.06037C126.555 2.11625 126.88 2.27124 127.31 2.52534C127.741 2.77945 127.964 2.90913 127.98 2.91229C127.987 2.8522 128.303 2.82267 128.927 2.82478H128.925ZM132.125 27.9913L137.825 30.6482L131.08 11.9777L132.125 27.9923V27.9913Z"/>
<path d="M146.618 56.4539L146.325 56.1207C145.688 55.3963 145.016 54.2777 144.329 52.7963C143.652 51.337 142.983 49.6311 142.34 47.7269C141.703 45.8396 141.194 44.2476 140.827 42.995C140.489 41.8383 140.193 40.7471 139.947 39.7454C138.68 39.1708 137.339 38.4201 135.956 37.5113C134.736 36.7099 133.587 36.0436 132.532 35.5259C132.696 37.7316 132.801 39.4692 132.845 40.6975C132.895 42.0903 132.85 43.364 132.711 44.4816C132.482 46.3194 131.864 48.2277 130.874 50.1541L130.602 50.6823L130.374 50.269C130.229 50.191 129.792 49.9674 128.488 49.3296C126.88 48.5419 126.34 48.3247 126.169 48.2815L125.883 48.2088L125.624 2.17762L125.629 2.13228C125.645 2.00998 125.753 1.40899 126.394 1.57136C126.641 1.63357 126.983 1.79594 127.442 2.06586C127.737 2.23983 127.897 2.33261 127.984 2.38322C128.187 2.32628 128.49 2.32734 128.926 2.32839C129.783 2.33155 130.022 2.36529 130.134 2.39376L130.237 2.42012L130.313 2.52239C131.363 3.93945 132.279 5.37654 133.036 6.79465C133.79 8.20644 134.761 10.2867 135.926 12.9774C137.079 15.6418 139.251 20.7754 142.382 28.234C143.019 29.8208 143.518 31.145 143.868 32.1783C144.178 33.0956 144.408 33.802 144.552 34.2839C144.796 34.4494 145.216 34.713 145.805 35.0715C146.499 35.4943 147.277 35.9192 148.116 36.3346L148.647 36.5971L148.247 37.1591C147.954 37.5714 147.713 37.9077 147.509 38.1903C147.308 38.4697 147.141 38.7311 147.014 38.9663C146.911 39.1592 146.848 39.3532 146.823 39.5567C146.8 39.7317 146.808 39.8699 146.846 39.9774L146.864 40.0375C147.02 40.6828 147.41 41.9712 148.022 43.868C148.645 45.7985 149.096 47.4032 149.36 48.6379C149.637 49.9263 149.703 51.1778 149.556 52.3577C149.482 52.9565 149.32 53.4078 149.075 53.6978C148.878 53.9308 148.49 54.2935 147.889 54.8069C147.223 55.3773 146.946 55.7801 146.831 56.0173L146.619 56.457L146.618 56.4539ZM131.721 34.0994L132.234 34.3345C133.451 34.8922 134.801 35.6577 136.248 36.6077C137.665 37.5387 139.036 38.301 140.322 38.8714L140.491 38.9462L140.549 39.1845C140.802 40.2294 141.112 41.3829 141.472 42.6122C141.833 43.849 142.337 45.4242 142.969 47.2957C143.598 49.1598 144.251 50.8257 144.911 52.248C145.464 53.4394 145.999 54.3725 146.504 55.0305C146.744 54.6878 147.083 54.3314 147.528 53.9508C148.228 53.353 148.512 53.0662 148.627 52.9302C148.741 52.7942 148.822 52.5422 148.867 52.1816C148.994 51.1589 148.935 50.0644 148.691 48.9278C148.435 47.7354 147.996 46.1728 147.385 44.2823C146.763 42.355 146.378 41.0813 146.209 40.3886C146.112 40.0944 146.087 39.756 146.133 39.3817C146.178 39.0232 146.287 38.6795 146.458 38.3611C146.606 38.0869 146.795 37.7886 147.021 37.4754C147.123 37.3341 147.235 37.1791 147.357 37.0073C146.703 36.6699 146.09 36.3272 145.53 35.9867C144.812 35.5502 144.352 35.2581 144.123 35.0936L144.007 35.0103L143.958 34.8395C143.825 34.3798 143.583 33.6302 143.237 32.6117C142.895 31.5995 142.404 30.2952 141.778 28.7379C138.652 21.291 136.482 16.1616 135.33 13.5014C134.179 10.8381 133.219 8.78528 132.48 7.3988C131.766 6.06082 130.903 4.70281 129.916 3.35955C129.782 3.34374 129.503 3.32792 128.923 3.32581C128.597 3.32476 128.399 3.33319 128.279 3.34163L128.26 3.4924L127.917 3.40489C127.868 3.39224 127.855 3.38908 127.175 2.98737C126.803 2.76806 126.518 2.62783 126.324 2.56773L126.577 47.399C126.891 47.5213 127.488 47.787 128.715 48.3891C129.668 48.8561 130.181 49.1071 130.467 49.2579C131.302 47.5635 131.826 45.8997 132.024 44.3098C132.154 43.2659 132.196 42.0692 132.148 40.7513C132.099 39.4028 131.975 37.4216 131.78 34.8659L131.721 34.1036V34.0994ZM138.524 31.4972L131.798 28.3626L130.565 9.46534L138.524 31.4972ZM132.451 27.6193L137.125 29.7976L131.595 14.4883L132.452 27.6193H132.451Z"/>
<path d="M160.846 14.3358C167.205 14.3358 171.651 20.4816 174.184 32.7733C174.469 33.8256 174.612 35.3323 174.612 37.2934C174.612 45.1135 171.55 49.6093 165.427 50.7807H164.596C158.389 50.7807 153.942 44.4799 151.258 31.8761V27.3919C152.651 18.6871 155.292 14.3347 159.185 14.3347H160.846L160.846 14.3358ZM159.186 29.1864C160.562 37.5801 162.784 41.7775 165.855 41.7775C166.677 40.6778 167.088 39.6256 167.088 38.6208V37.2934C167.088 32.3674 165.284 28.4694 161.677 25.5995H160.846C160.008 25.5995 159.454 26.7951 159.186 29.1864Z"/>
<path d="M185.945 15.1959C191.716 15.1959 195.693 19.9911 197.874 29.5805C198.109 30.968 198.226 32.4262 198.226 33.9571C198.226 38.7165 197.026 42.411 194.628 45.0416C191.289 49.4899 186.718 51.7136 180.913 51.7136C179.822 51.7136 179.277 51.199 179.277 50.171C179.277 49.143 178.077 42.2201 175.678 29.3295C175.074 25.9103 174.529 21.9638 174.042 17.4923C174.159 17.4923 174.218 17.409 174.218 17.2413L175.124 17.4923H177.112L183.605 15.4479C184.192 15.2813 184.972 15.1969 185.945 15.1969V15.1959ZM182.699 23.9123C182.699 26.1359 183.479 31.5416 185.039 40.1262H186.499C188.109 40.1262 189.61 37.9869 191.003 33.7051C191.003 33.586 191.062 33.0715 191.179 32.1626C190.441 28.7676 189.301 26.4469 187.757 25.2038C186.431 24.3424 185.467 23.9123 184.863 23.9123H182.698H182.699Z"/>
<path d="M209.727 15.1959C215.498 15.1959 219.474 19.9911 221.655 29.5805C221.89 30.968 222.008 32.4262 222.008 33.9571C222.008 38.7165 220.808 42.411 218.409 45.0416C215.07 49.4899 210.499 51.7136 204.694 51.7136C203.603 51.7136 203.058 51.199 203.058 50.171C203.058 49.143 201.858 42.2201 199.459 29.3295C198.855 25.9103 198.311 21.9638 197.823 17.4923C197.941 17.4923 197.999 17.409 197.999 17.2413L198.905 17.4923H200.894L207.386 15.4479C207.974 15.2813 208.753 15.1969 209.727 15.1969V15.1959ZM206.48 23.9123C206.48 26.1359 207.261 31.5416 208.821 40.1262H210.28C211.89 40.1262 213.392 37.9869 214.785 33.7051C214.785 33.586 214.843 33.0715 214.961 32.1626C214.223 28.7676 213.082 26.4469 211.538 25.2038C210.213 24.3424 209.248 23.9123 208.644 23.9123H206.48H206.48Z"/>
<path d="M223.265 24.8096C225.48 25.3599 227.275 25.6351 228.651 25.6351V25.8502C228.651 26.137 228.55 27.4412 228.349 29.7598C228.349 30.5252 229.079 32.2586 230.538 34.9609C231.126 36.8503 231.419 39.8162 231.419 43.8576C231.805 45.5562 232.485 47.9105 233.458 50.9239C232.535 50.6371 231.805 50.4937 231.268 50.4937H229.658C228.45 50.7805 227.578 50.9239 227.041 50.9239C225.984 45.9505 225.456 42.8412 225.456 41.5971C225.54 39.1815 225.582 37.6632 225.582 37.0412C225.582 34.769 224.668 32.4853 222.839 30.19C222.638 29.6164 222.537 29.1978 222.537 28.9342C222.705 26.6146 222.949 25.2397 223.267 24.8085L223.265 24.8096ZM225.002 14.0119C226.328 14.0119 227.3 15.877 227.921 19.6074V21.0782C227.921 22.3223 227.535 23.2786 226.764 23.9481H226.185C224.239 23.0867 223.265 20.8757 223.265 17.312C223.265 15.1116 223.844 14.0119 225.002 14.0119Z"/>
<path d="M250.821 14.7302L251.073 15.3396V17.8511C251.073 19.9082 252.079 28.7437 254.093 44.3598V46.225C254.093 46.9187 251.601 48.1745 246.618 49.9911C246.618 47.4564 243.901 40.9996 238.465 30.6205H237.987C239.279 39.6363 240.293 46.0932 241.032 49.9911C241.183 50.3738 241.259 50.6849 241.259 50.9242C241.108 50.9242 241.032 51.0191 241.032 51.211L240.554 50.9242H240.101C239.916 50.9242 239.06 51.1267 237.534 51.5336H235.194C234.892 51.5336 234.741 51.3301 234.741 50.9242C234.741 44.8743 233.726 34.3645 231.696 19.3936C234.045 18.3656 235.756 17.8511 236.83 17.8511L238.919 22.8372C243.113 28.1227 246.225 33.9459 248.255 40.3068V41.2399H248.507V40.3068C247.869 33.6117 246.779 26.7478 245.235 19.7163L244.984 17.8511C245.403 16.9665 247.349 15.9259 250.822 14.7302H250.821Z"/>
<path d="M259.679 14.8373C266.122 14.8373 270.189 24.4752 271.885 43.7499C272.489 46.2846 273.705 49.0712 275.533 52.1078V52.3229H274.426C270.416 52.3229 268.412 50.5178 268.412 46.9066H268.085C267.498 49.609 266.071 50.9606 263.807 50.9606H263.656C261.19 50.9606 258.866 48.7844 256.685 44.4321C255.628 42.0882 255.1 39.3743 255.1 36.2892V35.393C255.1 31.7344 256.417 29.1755 259.051 27.7163C259.47 27.5497 259.897 27.4653 260.334 27.4653H261.919C262.506 27.4653 263.295 27.6214 264.284 27.9313V27.4653C264.284 24.1177 263.438 22.1693 261.743 21.6189H261.114C260.946 21.6189 260.737 21.9183 260.485 22.5151C260.485 23.5916 260.593 24.4161 260.812 24.9907L255.25 26.1389C255.015 26.1389 254.806 24.9317 254.621 22.5162V21.1529C254.621 17.9961 255.887 15.9633 258.421 15.0545C259.008 14.9111 259.428 14.8394 259.679 14.8394V14.8373ZM259.679 36.2882V36.9704C259.679 39.1708 260.736 41.4303 262.85 43.7499C263.202 44.0367 263.521 44.1801 263.807 44.1801H264.284C265.458 44.1801 266.197 42.6017 266.499 39.4449C266.499 38.0342 265.971 35.9297 264.914 33.1314C264.193 32.8204 263.563 32.6654 263.026 32.6654H262.372C260.576 33.0007 259.679 34.2079 259.679 36.2882Z"/>
<path d="M272.363 14.0119H273.647C281.247 14.0119 286.288 16.7384 288.771 22.1905C289.291 23.8649 289.551 25.2281 289.551 26.2804V28.8636C289.551 32.0446 288.251 34.2798 285.651 35.5714C285.466 35.5714 285.374 35.6916 285.374 35.9299C285.76 36.7185 288.025 39.4451 292.169 44.1085C289.971 48.0539 288.755 50.0277 288.52 50.0277C288.017 49.8611 285.668 46.6443 281.474 40.3782V40.7367C281.826 44.5872 282.263 47.9348 282.783 50.7805C282.128 50.7805 279.779 49.7884 275.736 47.803L276.013 45.2198V44.1075C276.013 38.3918 274.705 29.3528 272.088 16.9883L271.836 14.3704L272.365 14.0119H272.363ZM278.353 21.0792V21.4377C279.041 23.4705 279.737 26.6874 280.441 31.0872H281.473C283.218 30.9206 284.09 30.1784 284.09 28.8636C284.09 24.8939 282.177 22.2991 278.353 21.0792Z"/>
<path d="M311.723 16.2368C311.723 16.5004 311.815 16.6311 312 16.6311C310.557 33.3469 309.291 43.3791 308.2 46.7277C305.986 55.3608 304.316 59.7849 303.193 60C301.867 58.7559 300.207 56.9265 298.21 54.5121V54.1536C299.821 51.6906 301.188 47.3857 302.312 41.2398C302.514 41.2398 302.614 41.1091 302.614 40.8455C295.367 35.3934 291.743 30.3114 291.743 25.6005C290.954 23.903 290.56 22.5998 290.56 21.691V21.3325H290.862C292.003 21.3325 293.957 21.0699 296.725 20.5438C298.218 25.7334 300.474 29.7631 303.495 32.6331H303.771C304.828 22.9963 305.617 18.1768 306.137 18.1768C309.19 17.4113 311.052 16.7661 311.723 16.2399V16.2368Z"/>
<path d="M31.03 16.0199L30.1216 26.5108L24.3877 25.487L23.7538 29.1024L28.3901 29.9764L27.4818 40.403L21.8425 39.4193L19.5214 50.3255L12.4672 49.0287L14.6581 38.0982L12.3414 37.6943L10.064 48.6396L3.00381 47.4008L5.24427 36.4544L0 35.6067L0.869114 25.042L7.23547 26.2662L7.91818 22.6265L2.68575 21.7113L3.59406 11.2205L9.78586 12.3033L12.2874 0L19.2914 1.23676L16.8253 13.6002L19.1671 13.946L21.6546 1.68697L28.8464 2.91952L26.2961 15.2587L31.0307 16.022L31.03 16.0199ZM17.2861 24.266L14.9266 23.8527L14.252 27.3785L16.6101 27.8561L17.2861 24.2671V24.266Z"/>
<path d="M34.0642 1.0623L41.3729 3.78571V8.28254C41.3729 18.649 43.0615 27.3886 46.4381 34.5034C46.7044 34.8197 47.6527 35.5693 49.2814 36.7523C50.9701 35.6125 51.814 34.1133 51.814 32.2555V23.6741C51.814 20.1483 50.9701 13.5195 49.2814 3.78676L49.9257 3.31124C51.4065 3.31124 53.732 3.16363 56.9015 2.86736C57.9526 9.13763 58.4785 16.2208 58.4785 24.1158V34.0595C58.4785 44.2984 55.7314 49.4183 50.2363 49.4183C44.7413 49.4183 40.4239 45.65 37.551 38.1135C35.0184 25.9747 33.7521 13.9307 33.7521 1.98065L34.0635 1.0623H34.0642Z"/>
<path d="M59.8116 3.4379C64.655 4.55762 67.0759 5.62253 67.0759 6.63576V9.83469C67.5204 28.9829 68.8607 38.5575 71.0967 38.5575C76.9172 38.5575 79.8278 40.0463 79.8278 43.0227C79.8278 43.7829 80.3086 45.9148 81.2717 49.4195H74.7182C67.9346 49.4195 64.5433 47.7199 64.5433 44.3206C64.5433 42.2731 62.9663 30.9883 59.8116 10.4684V3.4379Z"/>
<path d="M74.9456 5.74983H75.1675C75.7747 5.74983 78.9812 6.83687 84.7869 9.01201H85.2314C87.6309 8.80114 89.9187 8.6957 92.0963 8.6957C93.9329 8.6957 94.8509 10.3215 94.8509 13.5721C94.8509 14.1425 95.3842 16.8554 96.4508 21.7107C93.9181 20.1903 91.171 19.1033 88.2086 18.4485V19.1138C88.9342 20.9505 89.6229 26.0599 90.2745 34.441C91.4447 38.9168 93.5771 43.8048 96.6727 49.1029C96.5247 49.1029 96.4508 49.2084 96.4508 49.4192C92.5409 48.1108 89.5637 47.456 87.52 47.456H86.1427C83.1064 40.299 81.5885 32.1499 81.5885 23.0086C81.2032 19.758 80.3592 18.1322 79.0559 18.1322C77.7674 17.9213 76.7008 17.8159 75.8568 17.8159C75.5906 17.8159 74.754 18.0268 73.3464 18.4496C72.7391 14.8605 72.4359 11.282 72.4359 7.7141V6.73249C72.4359 6.07879 73.2724 5.75088 74.9463 5.75088L74.9456 5.74983Z"/>
<path d="M97.3612 2.8359H99.1164C109.277 2.8359 116.008 6.47765 119.311 13.7612C120.007 15.9996 120.355 17.8141 120.355 19.208V22.6916C120.355 26.9565 118.615 29.9329 115.135 31.622C114.897 31.622 114.779 31.7907 114.779 32.1291C115.282 33.1845 118.304 36.8263 123.843 43.0544C120.91 48.3536 119.281 51.0032 118.955 51.0032C118.289 50.7702 115.156 46.4642 109.558 38.0831V38.5902C110.016 43.6997 110.594 48.1649 111.291 51.9859C110.432 51.9859 107.299 50.6658 101.893 48.0278L102.249 44.5442V43.0554C102.249 35.4345 100.508 23.3484 97.0283 6.79607L96.6726 3.3441L97.3612 2.83695V2.8359ZM105.381 12.2724V12.7795C106.314 15.4819 107.24 19.7784 108.158 25.668H109.558C111.882 25.4361 113.045 24.4439 113.045 22.6916C113.045 17.3924 110.49 13.9193 105.381 12.2735L105.381 12.2724Z"/>
</mask>
<path d="M128.925 2.82478C129.549 2.82689 129.932 2.84587 130.073 2.88172C131.114 4.28612 132.009 5.69053 132.758 7.09388C133.507 8.49723 134.464 10.5448 135.628 13.2366C136.792 15.9283 138.944 21.0114 142.082 28.4868C142.713 30.0578 143.204 31.3599 143.553 32.3922C143.903 33.4254 144.145 34.1761 144.281 34.6464C144.505 34.8066 144.966 35.0997 145.668 35.5268C146.368 35.9527 147.146 36.3787 148.001 36.8025C147.726 37.1895 147.481 37.5321 147.265 37.8305C147.05 38.1289 146.874 38.4062 146.736 38.6614C146.6 38.9176 146.513 39.1864 146.478 39.468C146.443 39.7495 146.461 39.993 146.533 40.1976C146.693 40.8608 147.084 42.1534 147.704 44.0734C148.324 45.9944 148.765 47.5633 149.026 48.7811C149.288 49.9989 149.35 51.1618 149.212 52.2679C149.152 52.7508 149.032 53.0987 148.851 53.3127C148.671 53.5268 148.29 53.8821 147.709 54.3776C147.128 54.8742 146.74 55.3255 146.543 55.7325C145.933 55.0377 145.292 53.9685 144.621 52.522C143.95 51.0754 143.295 49.4053 142.656 47.5117C142.016 45.617 141.515 44.0481 141.151 42.8039C140.787 41.5598 140.477 40.4074 140.22 39.3467C138.914 38.7679 137.542 38.0056 136.104 37.0598C134.665 36.1151 133.34 35.3644 132.129 34.8087C132.326 37.3909 132.449 39.3615 132.498 40.7226C132.548 42.0838 132.505 43.3079 132.37 44.3939C132.149 46.1642 131.558 47.9861 130.595 49.8587C130.581 49.8355 129.918 49.5002 128.603 48.857C127.29 48.2128 126.499 47.8575 126.232 47.79L125.975 2.21853C125.994 2.05826 126.115 2.00449 126.335 2.06037C126.555 2.11625 126.88 2.27124 127.31 2.52534C127.741 2.77945 127.964 2.90913 127.98 2.91229C127.987 2.8522 128.303 2.82267 128.927 2.82478H128.925ZM132.125 27.9913L137.825 30.6482L131.08 11.9777L132.125 27.9923V27.9913Z" fill="url(#paint0_linear_2811_315)"/>
<path d="M146.618 56.4539L146.325 56.1207C145.688 55.3963 145.016 54.2777 144.329 52.7963C143.652 51.337 142.983 49.6311 142.34 47.7269C141.703 45.8396 141.194 44.2476 140.827 42.995C140.489 41.8383 140.193 40.7471 139.947 39.7454C138.68 39.1708 137.339 38.4201 135.956 37.5113C134.736 36.7099 133.587 36.0436 132.532 35.5259C132.696 37.7316 132.801 39.4692 132.845 40.6975C132.895 42.0903 132.85 43.364 132.711 44.4816C132.482 46.3194 131.864 48.2277 130.874 50.1541L130.602 50.6823L130.374 50.269C130.229 50.191 129.792 49.9674 128.488 49.3296C126.88 48.5419 126.34 48.3247 126.169 48.2815L125.883 48.2088L125.624 2.17762L125.629 2.13228C125.645 2.00998 125.753 1.40899 126.394 1.57136C126.641 1.63357 126.983 1.79594 127.442 2.06586C127.737 2.23983 127.897 2.33261 127.984 2.38322C128.187 2.32628 128.49 2.32734 128.926 2.32839C129.783 2.33155 130.022 2.36529 130.134 2.39376L130.237 2.42012L130.313 2.52239C131.363 3.93945 132.279 5.37654 133.036 6.79465C133.79 8.20644 134.761 10.2867 135.926 12.9774C137.079 15.6418 139.251 20.7754 142.382 28.234C143.019 29.8208 143.518 31.145 143.868 32.1783C144.178 33.0956 144.408 33.802 144.552 34.2839C144.796 34.4494 145.216 34.713 145.805 35.0715C146.499 35.4943 147.277 35.9192 148.116 36.3346L148.647 36.5971L148.247 37.1591C147.954 37.5714 147.713 37.9077 147.509 38.1903C147.308 38.4697 147.141 38.7311 147.014 38.9663C146.911 39.1592 146.848 39.3532 146.823 39.5567C146.8 39.7317 146.808 39.8699 146.846 39.9774L146.864 40.0375C147.02 40.6828 147.41 41.9712 148.022 43.868C148.645 45.7985 149.096 47.4032 149.36 48.6379C149.637 49.9263 149.703 51.1778 149.556 52.3577C149.482 52.9565 149.32 53.4078 149.075 53.6978C148.878 53.9308 148.49 54.2935 147.889 54.8069C147.223 55.3773 146.946 55.7801 146.831 56.0173L146.619 56.457L146.618 56.4539ZM131.721 34.0994L132.234 34.3345C133.451 34.8922 134.801 35.6577 136.248 36.6077C137.665 37.5387 139.036 38.301 140.322 38.8714L140.491 38.9462L140.549 39.1845C140.802 40.2294 141.112 41.3829 141.472 42.6122C141.833 43.849 142.337 45.4242 142.969 47.2957C143.598 49.1598 144.251 50.8257 144.911 52.248C145.464 53.4394 145.999 54.3725 146.504 55.0305C146.744 54.6878 147.083 54.3314 147.528 53.9508C148.228 53.353 148.512 53.0662 148.627 52.9302C148.741 52.7942 148.822 52.5422 148.867 52.1816C148.994 51.1589 148.935 50.0644 148.691 48.9278C148.435 47.7354 147.996 46.1728 147.385 44.2823C146.763 42.355 146.378 41.0813 146.209 40.3886C146.112 40.0944 146.087 39.756 146.133 39.3817C146.178 39.0232 146.287 38.6795 146.458 38.3611C146.606 38.0869 146.795 37.7886 147.021 37.4754C147.123 37.3341 147.235 37.1791 147.357 37.0073C146.703 36.6699 146.09 36.3272 145.53 35.9867C144.812 35.5502 144.352 35.2581 144.123 35.0936L144.007 35.0103L143.958 34.8395C143.825 34.3798 143.583 33.6302 143.237 32.6117C142.895 31.5995 142.404 30.2952 141.778 28.7379C138.652 21.291 136.482 16.1616 135.33 13.5014C134.179 10.8381 133.219 8.78528 132.48 7.3988C131.766 6.06082 130.903 4.70281 129.916 3.35955C129.782 3.34374 129.503 3.32792 128.923 3.32581C128.597 3.32476 128.399 3.33319 128.279 3.34163L128.26 3.4924L127.917 3.40489C127.868 3.39224 127.855 3.38908 127.175 2.98737C126.803 2.76806 126.518 2.62783 126.324 2.56773L126.577 47.399C126.891 47.5213 127.488 47.787 128.715 48.3891C129.668 48.8561 130.181 49.1071 130.467 49.2579C131.302 47.5635 131.826 45.8997 132.024 44.3098C132.154 43.2659 132.196 42.0692 132.148 40.7513C132.099 39.4028 131.975 37.4216 131.78 34.8659L131.721 34.1036V34.0994ZM138.524 31.4972L131.798 28.3626L130.565 9.46534L138.524 31.4972ZM132.451 27.6193L137.125 29.7976L131.595 14.4883L132.452 27.6193H132.451Z" fill="url(#paint1_linear_2811_315)"/>
<path d="M160.846 14.3358C167.205 14.3358 171.651 20.4816 174.184 32.7733C174.469 33.8256 174.612 35.3323 174.612 37.2934C174.612 45.1135 171.55 49.6093 165.427 50.7807H164.596C158.389 50.7807 153.942 44.4799 151.258 31.8761V27.3919C152.651 18.6871 155.292 14.3347 159.185 14.3347H160.846L160.846 14.3358ZM159.186 29.1864C160.562 37.5801 162.784 41.7775 165.855 41.7775C166.677 40.6778 167.088 39.6256 167.088 38.6208V37.2934C167.088 32.3674 165.284 28.4694 161.677 25.5995H160.846C160.008 25.5995 159.454 26.7951 159.186 29.1864Z" fill="url(#paint2_linear_2811_315)"/>
<path d="M185.945 15.1959C191.716 15.1959 195.693 19.9911 197.874 29.5805C198.109 30.968 198.226 32.4262 198.226 33.9571C198.226 38.7165 197.026 42.411 194.628 45.0416C191.289 49.4899 186.718 51.7136 180.913 51.7136C179.822 51.7136 179.277 51.199 179.277 50.171C179.277 49.143 178.077 42.2201 175.678 29.3295C175.074 25.9103 174.529 21.9638 174.042 17.4923C174.159 17.4923 174.218 17.409 174.218 17.2413L175.124 17.4923H177.112L183.605 15.4479C184.192 15.2813 184.972 15.1969 185.945 15.1969V15.1959ZM182.699 23.9123C182.699 26.1359 183.479 31.5416 185.039 40.1262H186.499C188.109 40.1262 189.61 37.9869 191.003 33.7051C191.003 33.586 191.062 33.0715 191.179 32.1626C190.441 28.7676 189.301 26.4469 187.757 25.2038C186.431 24.3424 185.467 23.9123 184.863 23.9123H182.698H182.699Z" fill="url(#paint3_linear_2811_315)"/>
<path d="M209.727 15.1959C215.498 15.1959 219.474 19.9911 221.655 29.5805C221.89 30.968 222.008 32.4262 222.008 33.9571C222.008 38.7165 220.808 42.411 218.409 45.0416C215.07 49.4899 210.499 51.7136 204.694 51.7136C203.603 51.7136 203.058 51.199 203.058 50.171C203.058 49.143 201.858 42.2201 199.459 29.3295C198.855 25.9103 198.311 21.9638 197.823 17.4923C197.941 17.4923 197.999 17.409 197.999 17.2413L198.905 17.4923H200.894L207.386 15.4479C207.974 15.2813 208.753 15.1969 209.727 15.1969V15.1959ZM206.48 23.9123C206.48 26.1359 207.261 31.5416 208.821 40.1262H210.28C211.89 40.1262 213.392 37.9869 214.785 33.7051C214.785 33.586 214.843 33.0715 214.961 32.1626C214.223 28.7676 213.082 26.4469 211.538 25.2038C210.213 24.3424 209.248 23.9123 208.644 23.9123H206.48H206.48Z" fill="url(#paint4_linear_2811_315)"/>
<path d="M223.265 24.8096C225.48 25.3599 227.275 25.6351 228.651 25.6351V25.8502C228.651 26.137 228.55 27.4412 228.349 29.7598C228.349 30.5252 229.079 32.2586 230.538 34.9609C231.126 36.8503 231.419 39.8162 231.419 43.8576C231.805 45.5562 232.485 47.9105 233.458 50.9239C232.535 50.6371 231.805 50.4937 231.268 50.4937H229.658C228.45 50.7805 227.578 50.9239 227.041 50.9239C225.984 45.9505 225.456 42.8412 225.456 41.5971C225.54 39.1815 225.582 37.6632 225.582 37.0412C225.582 34.769 224.668 32.4853 222.839 30.19C222.638 29.6164 222.537 29.1978 222.537 28.9342C222.705 26.6146 222.949 25.2397 223.267 24.8085L223.265 24.8096ZM225.002 14.0119C226.328 14.0119 227.3 15.877 227.921 19.6074V21.0782C227.921 22.3223 227.535 23.2786 226.764 23.9481H226.185C224.239 23.0867 223.265 20.8757 223.265 17.312C223.265 15.1116 223.844 14.0119 225.002 14.0119Z" fill="url(#paint5_linear_2811_315)"/>
<path d="M250.821 14.7302L251.073 15.3396V17.8511C251.073 19.9082 252.079 28.7437 254.093 44.3598V46.225C254.093 46.9187 251.601 48.1745 246.618 49.9911C246.618 47.4564 243.901 40.9996 238.465 30.6205H237.987C239.279 39.6363 240.293 46.0932 241.032 49.9911C241.183 50.3738 241.259 50.6849 241.259 50.9242C241.108 50.9242 241.032 51.0191 241.032 51.211L240.554 50.9242H240.101C239.916 50.9242 239.06 51.1267 237.534 51.5336H235.194C234.892 51.5336 234.741 51.3301 234.741 50.9242C234.741 44.8743 233.726 34.3645 231.696 19.3936C234.045 18.3656 235.756 17.8511 236.83 17.8511L238.919 22.8372C243.113 28.1227 246.225 33.9459 248.255 40.3068V41.2399H248.507V40.3068C247.869 33.6117 246.779 26.7478 245.235 19.7163L244.984 17.8511C245.403 16.9665 247.349 15.9259 250.822 14.7302H250.821Z" fill="url(#paint6_linear_2811_315)"/>
<path d="M259.679 14.8373C266.122 14.8373 270.189 24.4752 271.885 43.7499C272.489 46.2846 273.705 49.0712 275.533 52.1078V52.3229H274.426C270.416 52.3229 268.412 50.5178 268.412 46.9066H268.085C267.498 49.609 266.071 50.9606 263.807 50.9606H263.656C261.19 50.9606 258.866 48.7844 256.685 44.4321C255.628 42.0882 255.1 39.3743 255.1 36.2892V35.393C255.1 31.7344 256.417 29.1755 259.051 27.7163C259.47 27.5497 259.897 27.4653 260.334 27.4653H261.919C262.506 27.4653 263.295 27.6214 264.284 27.9313V27.4653C264.284 24.1177 263.438 22.1693 261.743 21.6189H261.114C260.946 21.6189 260.737 21.9183 260.485 22.5151C260.485 23.5916 260.593 24.4161 260.812 24.9907L255.25 26.1389C255.015 26.1389 254.806 24.9317 254.621 22.5162V21.1529C254.621 17.9961 255.887 15.9633 258.421 15.0545C259.008 14.9111 259.428 14.8394 259.679 14.8394V14.8373ZM259.679 36.2882V36.9704C259.679 39.1708 260.736 41.4303 262.85 43.7499C263.202 44.0367 263.521 44.1801 263.807 44.1801H264.284C265.458 44.1801 266.197 42.6017 266.499 39.4449C266.499 38.0342 265.971 35.9297 264.914 33.1314C264.193 32.8204 263.563 32.6654 263.026 32.6654H262.372C260.576 33.0007 259.679 34.2079 259.679 36.2882Z" fill="url(#paint7_linear_2811_315)"/>
<path d="M272.363 14.0119H273.647C281.247 14.0119 286.288 16.7384 288.771 22.1905C289.291 23.8649 289.551 25.2281 289.551 26.2804V28.8636C289.551 32.0446 288.251 34.2798 285.651 35.5714C285.466 35.5714 285.374 35.6916 285.374 35.9299C285.76 36.7185 288.025 39.4451 292.169 44.1085C289.971 48.0539 288.755 50.0277 288.52 50.0277C288.017 49.8611 285.668 46.6443 281.474 40.3782V40.7367C281.826 44.5872 282.263 47.9348 282.783 50.7805C282.128 50.7805 279.779 49.7884 275.736 47.803L276.013 45.2198V44.1075C276.013 38.3918 274.705 29.3528 272.088 16.9883L271.836 14.3704L272.365 14.0119H272.363ZM278.353 21.0792V21.4377C279.041 23.4705 279.737 26.6874 280.441 31.0872H281.473C283.218 30.9206 284.09 30.1784 284.09 28.8636C284.09 24.8939 282.177 22.2991 278.353 21.0792Z" fill="url(#paint8_linear_2811_315)"/>
<path d="M311.723 16.2368C311.723 16.5004 311.815 16.6311 312 16.6311C310.557 33.3469 309.291 43.3791 308.2 46.7277C305.986 55.3608 304.316 59.7849 303.193 60C301.867 58.7559 300.207 56.9265 298.21 54.5121V54.1536C299.821 51.6906 301.188 47.3857 302.312 41.2398C302.514 41.2398 302.614 41.1091 302.614 40.8455C295.367 35.3934 291.743 30.3114 291.743 25.6005C290.954 23.903 290.56 22.5998 290.56 21.691V21.3325H290.862C292.003 21.3325 293.957 21.0699 296.725 20.5438C298.218 25.7334 300.474 29.7631 303.495 32.6331H303.771C304.828 22.9963 305.617 18.1768 306.137 18.1768C309.19 17.4113 311.052 16.7661 311.723 16.2399V16.2368Z" fill="url(#paint9_linear_2811_315)"/>
<path d="M31.03 16.0199L30.1216 26.5108L24.3877 25.487L23.7538 29.1024L28.3901 29.9764L27.4818 40.403L21.8425 39.4193L19.5214 50.3255L12.4672 49.0287L14.6581 38.0982L12.3414 37.6943L10.064 48.6396L3.00381 47.4008L5.24427 36.4544L0 35.6067L0.869114 25.042L7.23547 26.2662L7.91818 22.6265L2.68575 21.7113L3.59406 11.2205L9.78586 12.3033L12.2874 0L19.2914 1.23676L16.8253 13.6002L19.1671 13.946L21.6546 1.68697L28.8464 2.91952L26.2961 15.2587L31.0307 16.022L31.03 16.0199ZM17.2861 24.266L14.9266 23.8527L14.252 27.3785L16.6101 27.8561L17.2861 24.2671V24.266Z" fill="url(#paint10_linear_2811_315)"/>
<path d="M34.0642 1.0623L41.3729 3.78571V8.28254C41.3729 18.649 43.0615 27.3886 46.4381 34.5034C46.7044 34.8197 47.6527 35.5693 49.2814 36.7523C50.9701 35.6125 51.814 34.1133 51.814 32.2555V23.6741C51.814 20.1483 50.9701 13.5195 49.2814 3.78676L49.9257 3.31124C51.4065 3.31124 53.732 3.16363 56.9015 2.86736C57.9526 9.13763 58.4785 16.2208 58.4785 24.1158V34.0595C58.4785 44.2984 55.7314 49.4183 50.2363 49.4183C44.7413 49.4183 40.4239 45.65 37.551 38.1135C35.0184 25.9747 33.7521 13.9307 33.7521 1.98065L34.0635 1.0623H34.0642Z" fill="url(#paint11_linear_2811_315)"/>
<path d="M59.8116 3.4379C64.655 4.55762 67.0759 5.62253 67.0759 6.63576V9.83469C67.5204 28.9829 68.8607 38.5575 71.0967 38.5575C76.9172 38.5575 79.8278 40.0463 79.8278 43.0227C79.8278 43.7829 80.3086 45.9148 81.2717 49.4195H74.7182C67.9346 49.4195 64.5433 47.7199 64.5433 44.3206C64.5433 42.2731 62.9663 30.9883 59.8116 10.4684V3.4379Z" fill="url(#paint12_linear_2811_315)"/>
<path d="M74.9456 5.74983H75.1675C75.7747 5.74983 78.9812 6.83687 84.7869 9.01201H85.2314C87.6309 8.80114 89.9187 8.6957 92.0963 8.6957C93.9329 8.6957 94.8509 10.3215 94.8509 13.5721C94.8509 14.1425 95.3842 16.8554 96.4508 21.7107C93.9181 20.1903 91.171 19.1033 88.2086 18.4485V19.1138C88.9342 20.9505 89.6229 26.0599 90.2745 34.441C91.4447 38.9168 93.5771 43.8048 96.6727 49.1029C96.5247 49.1029 96.4508 49.2084 96.4508 49.4192C92.5409 48.1108 89.5637 47.456 87.52 47.456H86.1427C83.1064 40.299 81.5885 32.1499 81.5885 23.0086C81.2032 19.758 80.3592 18.1322 79.0559 18.1322C77.7674 17.9213 76.7008 17.8159 75.8568 17.8159C75.5906 17.8159 74.754 18.0268 73.3464 18.4496C72.7391 14.8605 72.4359 11.282 72.4359 7.7141V6.73249C72.4359 6.07879 73.2724 5.75088 74.9463 5.75088L74.9456 5.74983Z" fill="url(#paint13_linear_2811_315)"/>
<path d="M97.3612 2.8359H99.1164C109.277 2.8359 116.008 6.47765 119.311 13.7612C120.007 15.9996 120.355 17.8141 120.355 19.208V22.6916C120.355 26.9565 118.615 29.9329 115.135 31.622C114.897 31.622 114.779 31.7907 114.779 32.1291C115.282 33.1845 118.304 36.8263 123.843 43.0544C120.91 48.3536 119.281 51.0032 118.955 51.0032C118.289 50.7702 115.156 46.4642 109.558 38.0831V38.5902C110.016 43.6997 110.594 48.1649 111.291 51.9859C110.432 51.9859 107.299 50.6658 101.893 48.0278L102.249 44.5442V43.0554C102.249 35.4345 100.508 23.3484 97.0283 6.79607L96.6726 3.3441L97.3612 2.83695V2.8359ZM105.381 12.2724V12.7795C106.314 15.4819 107.24 19.7784 108.158 25.668H109.558C111.882 25.4361 113.045 24.4439 113.045 22.6916C113.045 17.3924 110.49 13.9193 105.381 12.2735L105.381 12.2724Z" fill="url(#paint14_linear_2811_315)"/>
<path d="M128.925 2.82478C129.549 2.82689 129.932 2.84587 130.073 2.88172C131.114 4.28612 132.009 5.69053 132.758 7.09388C133.507 8.49723 134.464 10.5448 135.628 13.2366C136.792 15.9283 138.944 21.0114 142.082 28.4868C142.713 30.0578 143.204 31.3599 143.553 32.3922C143.903 33.4254 144.145 34.1761 144.281 34.6464C144.505 34.8066 144.966 35.0997 145.668 35.5268C146.368 35.9527 147.146 36.3787 148.001 36.8025C147.726 37.1895 147.481 37.5321 147.265 37.8305C147.05 38.1289 146.874 38.4062 146.736 38.6614C146.6 38.9176 146.513 39.1864 146.478 39.468C146.443 39.7495 146.461 39.993 146.533 40.1976C146.693 40.8608 147.084 42.1534 147.704 44.0734C148.324 45.9944 148.765 47.5633 149.026 48.7811C149.288 49.9989 149.35 51.1618 149.212 52.2679C149.152 52.7508 149.032 53.0987 148.851 53.3127C148.671 53.5268 148.29 53.8821 147.709 54.3776C147.128 54.8742 146.74 55.3255 146.543 55.7325C145.933 55.0377 145.292 53.9685 144.621 52.522C143.95 51.0754 143.295 49.4053 142.656 47.5117C142.016 45.617 141.515 44.0481 141.151 42.8039C140.787 41.5598 140.477 40.4074 140.22 39.3467C138.914 38.7679 137.542 38.0056 136.104 37.0598C134.665 36.1151 133.34 35.3644 132.129 34.8087C132.326 37.3909 132.449 39.3615 132.498 40.7226C132.548 42.0838 132.505 43.3079 132.37 44.3939C132.149 46.1642 131.558 47.9861 130.595 49.8587C130.581 49.8355 129.918 49.5002 128.603 48.857C127.29 48.2128 126.499 47.8575 126.232 47.79L125.975 2.21853C125.994 2.05826 126.115 2.00449 126.335 2.06037C126.555 2.11625 126.88 2.27124 127.31 2.52534C127.741 2.77945 127.964 2.90913 127.98 2.91229C127.987 2.8522 128.303 2.82267 128.927 2.82478H128.925ZM132.125 27.9913L137.825 30.6482L131.08 11.9777L132.125 27.9923V27.9913Z" stroke="black" stroke-width="29.5386" mask="url(#path-1-outside-1_2811_315)"/>
<path d="M146.618 56.4539L146.325 56.1207C145.688 55.3963 145.016 54.2777 144.329 52.7963C143.652 51.337 142.983 49.6311 142.34 47.7269C141.703 45.8396 141.194 44.2476 140.827 42.995C140.489 41.8383 140.193 40.7471 139.947 39.7454C138.68 39.1708 137.339 38.4201 135.956 37.5113C134.736 36.7099 133.587 36.0436 132.532 35.5259C132.696 37.7316 132.801 39.4692 132.845 40.6975C132.895 42.0903 132.85 43.364 132.711 44.4816C132.482 46.3194 131.864 48.2277 130.874 50.1541L130.602 50.6823L130.374 50.269C130.229 50.191 129.792 49.9674 128.488 49.3296C126.88 48.5419 126.34 48.3247 126.169 48.2815L125.883 48.2088L125.624 2.17762L125.629 2.13228C125.645 2.00998 125.753 1.40899 126.394 1.57136C126.641 1.63357 126.983 1.79594 127.442 2.06586C127.737 2.23983 127.897 2.33261 127.984 2.38322C128.187 2.32628 128.49 2.32734 128.926 2.32839C129.783 2.33155 130.022 2.36529 130.134 2.39376L130.237 2.42012L130.313 2.52239C131.363 3.93945 132.279 5.37654 133.036 6.79465C133.79 8.20644 134.761 10.2867 135.926 12.9774C137.079 15.6418 139.251 20.7754 142.382 28.234C143.019 29.8208 143.518 31.145 143.868 32.1783C144.178 33.0956 144.408 33.802 144.552 34.2839C144.796 34.4494 145.216 34.713 145.805 35.0715C146.499 35.4943 147.277 35.9192 148.116 36.3346L148.647 36.5971L148.247 37.1591C147.954 37.5714 147.713 37.9077 147.509 38.1903C147.308 38.4697 147.141 38.7311 147.014 38.9663C146.911 39.1592 146.848 39.3532 146.823 39.5567C146.8 39.7317 146.808 39.8699 146.846 39.9774L146.864 40.0375C147.02 40.6828 147.41 41.9712 148.022 43.868C148.645 45.7985 149.096 47.4032 149.36 48.6379C149.637 49.9263 149.703 51.1778 149.556 52.3577C149.482 52.9565 149.32 53.4078 149.075 53.6978C148.878 53.9308 148.49 54.2935 147.889 54.8069C147.223 55.3773 146.946 55.7801 146.831 56.0173L146.619 56.457L146.618 56.4539ZM131.721 34.0994L132.234 34.3345C133.451 34.8922 134.801 35.6577 136.248 36.6077C137.665 37.5387 139.036 38.301 140.322 38.8714L140.491 38.9462L140.549 39.1845C140.802 40.2294 141.112 41.3829 141.472 42.6122C141.833 43.849 142.337 45.4242 142.969 47.2957C143.598 49.1598 144.251 50.8257 144.911 52.248C145.464 53.4394 145.999 54.3725 146.504 55.0305C146.744 54.6878 147.083 54.3314 147.528 53.9508C148.228 53.353 148.512 53.0662 148.627 52.9302C148.741 52.7942 148.822 52.5422 148.867 52.1816C148.994 51.1589 148.935 50.0644 148.691 48.9278C148.435 47.7354 147.996 46.1728 147.385 44.2823C146.763 42.355 146.378 41.0813 146.209 40.3886C146.112 40.0944 146.087 39.756 146.133 39.3817C146.178 39.0232 146.287 38.6795 146.458 38.3611C146.606 38.0869 146.795 37.7886 147.021 37.4754C147.123 37.3341 147.235 37.1791 147.357 37.0073C146.703 36.6699 146.09 36.3272 145.53 35.9867C144.812 35.5502 144.352 35.2581 144.123 35.0936L144.007 35.0103L143.958 34.8395C143.825 34.3798 143.583 33.6302 143.237 32.6117C142.895 31.5995 142.404 30.2952 141.778 28.7379C138.652 21.291 136.482 16.1616 135.33 13.5014C134.179 10.8381 133.219 8.78528 132.48 7.3988C131.766 6.06082 130.903 4.70281 129.916 3.35955C129.782 3.34374 129.503 3.32792 128.923 3.32581C128.597 3.32476 128.399 3.33319 128.279 3.34163L128.26 3.4924L127.917 3.40489C127.868 3.39224 127.855 3.38908 127.175 2.98737C126.803 2.76806 126.518 2.62783 126.324 2.56773L126.577 47.399C126.891 47.5213 127.488 47.787 128.715 48.3891C129.668 48.8561 130.181 49.1071 130.467 49.2579C131.302 47.5635 131.826 45.8997 132.024 44.3098C132.154 43.2659 132.196 42.0692 132.148 40.7513C132.099 39.4028 131.975 37.4216 131.78 34.8659L131.721 34.1036V34.0994ZM138.524 31.4972L131.798 28.3626L130.565 9.46534L138.524 31.4972ZM132.451 27.6193L137.125 29.7976L131.595 14.4883L132.452 27.6193H132.451Z" stroke="black" stroke-width="29.5386" mask="url(#path-1-outside-1_2811_315)"/>
<path d="M160.846 14.3358C167.205 14.3358 171.651 20.4816 174.184 32.7733C174.469 33.8256 174.612 35.3323 174.612 37.2934C174.612 45.1135 171.55 49.6093 165.427 50.7807H164.596C158.389 50.7807 153.942 44.4799 151.258 31.8761V27.3919C152.651 18.6871 155.292 14.3347 159.185 14.3347H160.846L160.846 14.3358ZM159.186 29.1864C160.562 37.5801 162.784 41.7775 165.855 41.7775C166.677 40.6778 167.088 39.6256 167.088 38.6208V37.2934C167.088 32.3674 165.284 28.4694 161.677 25.5995H160.846C160.008 25.5995 159.454 26.7951 159.186 29.1864Z" stroke="black" stroke-width="29.5386" mask="url(#path-1-outside-1_2811_315)"/>
<path d="M185.945 15.1959C191.716 15.1959 195.693 19.9911 197.874 29.5805C198.109 30.968 198.226 32.4262 198.226 33.9571C198.226 38.7165 197.026 42.411 194.628 45.0416C191.289 49.4899 186.718 51.7136 180.913 51.7136C179.822 51.7136 179.277 51.199 179.277 50.171C179.277 49.143 178.077 42.2201 175.678 29.3295C175.074 25.9103 174.529 21.9638 174.042 17.4923C174.159 17.4923 174.218 17.409 174.218 17.2413L175.124 17.4923H177.112L183.605 15.4479C184.192 15.2813 184.972 15.1969 185.945 15.1969V15.1959ZM182.699 23.9123C182.699 26.1359 183.479 31.5416 185.039 40.1262H186.499C188.109 40.1262 189.61 37.9869 191.003 33.7051C191.003 33.586 191.062 33.0715 191.179 32.1626C190.441 28.7676 189.301 26.4469 187.757 25.2038C186.431 24.3424 185.467 23.9123 184.863 23.9123H182.698H182.699Z" stroke="black" stroke-width="29.5386" mask="url(#path-1-outside-1_2811_315)"/>
<path d="M209.727 15.1959C215.498 15.1959 219.474 19.9911 221.655 29.5805C221.89 30.968 222.008 32.4262 222.008 33.9571C222.008 38.7165 220.808 42.411 218.409 45.0416C215.07 49.4899 210.499 51.7136 204.694 51.7136C203.603 51.7136 203.058 51.199 203.058 50.171C203.058 49.143 201.858 42.2201 199.459 29.3295C198.855 25.9103 198.311 21.9638 197.823 17.4923C197.941 17.4923 197.999 17.409 197.999 17.2413L198.905 17.4923H200.894L207.386 15.4479C207.974 15.2813 208.753 15.1969 209.727 15.1969V15.1959ZM206.48 23.9123C206.48 26.1359 207.261 31.5416 208.821 40.1262H210.28C211.89 40.1262 213.392 37.9869 214.785 33.7051C214.785 33.586 214.843 33.0715 214.961 32.1626C214.223 28.7676 213.082 26.4469 211.538 25.2038C210.213 24.3424 209.248 23.9123 208.644 23.9123H206.48H206.48Z" stroke="black" stroke-width="29.5386" mask="url(#path-1-outside-1_2811_315)"/>
<path d="M223.265 24.8096C225.48 25.3599 227.275 25.6351 228.651 25.6351V25.8502C228.651 26.137 228.55 27.4412 228.349 29.7598C228.349 30.5252 229.079 32.2586 230.538 34.9609C231.126 36.8503 231.419 39.8162 231.419 43.8576C231.805 45.5562 232.485 47.9105 233.458 50.9239C232.535 50.6371 231.805 50.4937 231.268 50.4937H229.658C228.45 50.7805 227.578 50.9239 227.041 50.9239C225.984 45.9505 225.456 42.8412 225.456 41.5971C225.54 39.1815 225.582 37.6632 225.582 37.0412C225.582 34.769 224.668 32.4853 222.839 30.19C222.638 29.6164 222.537 29.1978 222.537 28.9342C222.705 26.6146 222.949 25.2397 223.267 24.8085L223.265 24.8096ZM225.002 14.0119C226.328 14.0119 227.3 15.877 227.921 19.6074V21.0782C227.921 22.3223 227.535 23.2786 226.764 23.9481H226.185C224.239 23.0867 223.265 20.8757 223.265 17.312C223.265 15.1116 223.844 14.0119 225.002 14.0119Z" stroke="black" stroke-width="29.5386" mask="url(#path-1-outside-1_2811_315)"/>
<path d="M250.821 14.7302L251.073 15.3396V17.8511C251.073 19.9082 252.079 28.7437 254.093 44.3598V46.225C254.093 46.9187 251.601 48.1745 246.618 49.9911C246.618 47.4564 243.901 40.9996 238.465 30.6205H237.987C239.279 39.6363 240.293 46.0932 241.032 49.9911C241.183 50.3738 241.259 50.6849 241.259 50.9242C241.108 50.9242 241.032 51.0191 241.032 51.211L240.554 50.9242H240.101C239.916 50.9242 239.06 51.1267 237.534 51.5336H235.194C234.892 51.5336 234.741 51.3301 234.741 50.9242C234.741 44.8743 233.726 34.3645 231.696 19.3936C234.045 18.3656 235.756 17.8511 236.83 17.8511L238.919 22.8372C243.113 28.1227 246.225 33.9459 248.255 40.3068V41.2399H248.507V40.3068C247.869 33.6117 246.779 26.7478 245.235 19.7163L244.984 17.8511C245.403 16.9665 247.349 15.9259 250.822 14.7302H250.821Z" stroke="black" stroke-width="29.5386" mask="url(#path-1-outside-1_2811_315)"/>
<path d="M259.679 14.8373C266.122 14.8373 270.189 24.4752 271.885 43.7499C272.489 46.2846 273.705 49.0712 275.533 52.1078V52.3229H274.426C270.416 52.3229 268.412 50.5178 268.412 46.9066H268.085C267.498 49.609 266.071 50.9606 263.807 50.9606H263.656C261.19 50.9606 258.866 48.7844 256.685 44.4321C255.628 42.0882 255.1 39.3743 255.1 36.2892V35.393C255.1 31.7344 256.417 29.1755 259.051 27.7163C259.47 27.5497 259.897 27.4653 260.334 27.4653H261.919C262.506 27.4653 263.295 27.6214 264.284 27.9313V27.4653C264.284 24.1177 263.438 22.1693 261.743 21.6189H261.114C260.946 21.6189 260.737 21.9183 260.485 22.5151C260.485 23.5916 260.593 24.4161 260.812 24.9907L255.25 26.1389C255.015 26.1389 254.806 24.9317 254.621 22.5162V21.1529C254.621 17.9961 255.887 15.9633 258.421 15.0545C259.008 14.9111 259.428 14.8394 259.679 14.8394V14.8373ZM259.679 36.2882V36.9704C259.679 39.1708 260.736 41.4303 262.85 43.7499C263.202 44.0367 263.521 44.1801 263.807 44.1801H264.284C265.458 44.1801 266.197 42.6017 266.499 39.4449C266.499 38.0342 265.971 35.9297 264.914 33.1314C264.193 32.8204 263.563 32.6654 263.026 32.6654H262.372C260.576 33.0007 259.679 34.2079 259.679 36.2882Z" stroke="black" stroke-width="29.5386" mask="url(#path-1-outside-1_2811_315)"/>
<path d="M272.363 14.0119H273.647C281.247 14.0119 286.288 16.7384 288.771 22.1905C289.291 23.8649 289.551 25.2281 289.551 26.2804V28.8636C289.551 32.0446 288.251 34.2798 285.651 35.5714C285.466 35.5714 285.374 35.6916 285.374 35.9299C285.76 36.7185 288.025 39.4451 292.169 44.1085C289.971 48.0539 288.755 50.0277 288.52 50.0277C288.017 49.8611 285.668 46.6443 281.474 40.3782V40.7367C281.826 44.5872 282.263 47.9348 282.783 50.7805C282.128 50.7805 279.779 49.7884 275.736 47.803L276.013 45.2198V44.1075C276.013 38.3918 274.705 29.3528 272.088 16.9883L271.836 14.3704L272.365 14.0119H272.363ZM278.353 21.0792V21.4377C279.041 23.4705 279.737 26.6874 280.441 31.0872H281.473C283.218 30.9206 284.09 30.1784 284.09 28.8636C284.09 24.8939 282.177 22.2991 278.353 21.0792Z" stroke="black" stroke-width="29.5386" mask="url(#path-1-outside-1_2811_315)"/>
<path d="M311.723 16.2368C311.723 16.5004 311.815 16.6311 312 16.6311C310.557 33.3469 309.291 43.3791 308.2 46.7277C305.986 55.3608 304.316 59.7849 303.193 60C301.867 58.7559 300.207 56.9265 298.21 54.5121V54.1536C299.821 51.6906 301.188 47.3857 302.312 41.2398C302.514 41.2398 302.614 41.1091 302.614 40.8455C295.367 35.3934 291.743 30.3114 291.743 25.6005C290.954 23.903 290.56 22.5998 290.56 21.691V21.3325H290.862C292.003 21.3325 293.957 21.0699 296.725 20.5438C298.218 25.7334 300.474 29.7631 303.495 32.6331H303.771C304.828 22.9963 305.617 18.1768 306.137 18.1768C309.19 17.4113 311.052 16.7661 311.723 16.2399V16.2368Z" stroke="black" stroke-width="29.5386" mask="url(#path-1-outside-1_2811_315)"/>
<path d="M31.03 16.0199L30.1216 26.5108L24.3877 25.487L23.7538 29.1024L28.3901 29.9764L27.4818 40.403L21.8425 39.4193L19.5214 50.3255L12.4672 49.0287L14.6581 38.0982L12.3414 37.6943L10.064 48.6396L3.00381 47.4008L5.24427 36.4544L0 35.6067L0.869114 25.042L7.23547 26.2662L7.91818 22.6265L2.68575 21.7113L3.59406 11.2205L9.78586 12.3033L12.2874 0L19.2914 1.23676L16.8253 13.6002L19.1671 13.946L21.6546 1.68697L28.8464 2.91952L26.2961 15.2587L31.0307 16.022L31.03 16.0199ZM17.2861 24.266L14.9266 23.8527L14.252 27.3785L16.6101 27.8561L17.2861 24.2671V24.266Z" stroke="black" stroke-width="29.5386" mask="url(#path-1-outside-1_2811_315)"/>
<path d="M34.0642 1.0623L41.3729 3.78571V8.28254C41.3729 18.649 43.0615 27.3886 46.4381 34.5034C46.7044 34.8197 47.6527 35.5693 49.2814 36.7523C50.9701 35.6125 51.814 34.1133 51.814 32.2555V23.6741C51.814 20.1483 50.9701 13.5195 49.2814 3.78676L49.9257 3.31124C51.4065 3.31124 53.732 3.16363 56.9015 2.86736C57.9526 9.13763 58.4785 16.2208 58.4785 24.1158V34.0595C58.4785 44.2984 55.7314 49.4183 50.2363 49.4183C44.7413 49.4183 40.4239 45.65 37.551 38.1135C35.0184 25.9747 33.7521 13.9307 33.7521 1.98065L34.0635 1.0623H34.0642Z" stroke="black" stroke-width="29.5386" mask="url(#path-1-outside-1_2811_315)"/>
<path d="M59.8116 3.4379C64.655 4.55762 67.0759 5.62253 67.0759 6.63576V9.83469C67.5204 28.9829 68.8607 38.5575 71.0967 38.5575C76.9172 38.5575 79.8278 40.0463 79.8278 43.0227C79.8278 43.7829 80.3086 45.9148 81.2717 49.4195H74.7182C67.9346 49.4195 64.5433 47.7199 64.5433 44.3206C64.5433 42.2731 62.9663 30.9883 59.8116 10.4684V3.4379Z" stroke="black" stroke-width="29.5386" mask="url(#path-1-outside-1_2811_315)"/>
<path d="M74.9456 5.74983H75.1675C75.7747 5.74983 78.9812 6.83687 84.7869 9.01201H85.2314C87.6309 8.80114 89.9187 8.6957 92.0963 8.6957C93.9329 8.6957 94.8509 10.3215 94.8509 13.5721C94.8509 14.1425 95.3842 16.8554 96.4508 21.7107C93.9181 20.1903 91.171 19.1033 88.2086 18.4485V19.1138C88.9342 20.9505 89.6229 26.0599 90.2745 34.441C91.4447 38.9168 93.5771 43.8048 96.6727 49.1029C96.5247 49.1029 96.4508 49.2084 96.4508 49.4192C92.5409 48.1108 89.5637 47.456 87.52 47.456H86.1427C83.1064 40.299 81.5885 32.1499 81.5885 23.0086C81.2032 19.758 80.3592 18.1322 79.0559 18.1322C77.7674 17.9213 76.7008 17.8159 75.8568 17.8159C75.5906 17.8159 74.754 18.0268 73.3464 18.4496C72.7391 14.8605 72.4359 11.282 72.4359 7.7141V6.73249C72.4359 6.07879 73.2724 5.75088 74.9463 5.75088L74.9456 5.74983Z" stroke="black" stroke-width="29.5386" mask="url(#path-1-outside-1_2811_315)"/>
<path d="M97.3612 2.8359H99.1164C109.277 2.8359 116.008 6.47765 119.311 13.7612C120.007 15.9996 120.355 17.8141 120.355 19.208V22.6916C120.355 26.9565 118.615 29.9329 115.135 31.622C114.897 31.622 114.779 31.7907 114.779 32.1291C115.282 33.1845 118.304 36.8263 123.843 43.0544C120.91 48.3536 119.281 51.0032 118.955 51.0032C118.289 50.7702 115.156 46.4642 109.558 38.0831V38.5902C110.016 43.6997 110.594 48.1649 111.291 51.9859C110.432 51.9859 107.299 50.6658 101.893 48.0278L102.249 44.5442V43.0554C102.249 35.4345 100.508 23.3484 97.0283 6.79607L96.6726 3.3441L97.3612 2.83695V2.8359ZM105.381 12.2724V12.7795C106.314 15.4819 107.24 19.7784 108.158 25.668H109.558C111.882 25.4361 113.045 24.4439 113.045 22.6916C113.045 17.3924 110.49 13.9193 105.381 12.2735L105.381 12.2724Z" stroke="black" stroke-width="29.5386" mask="url(#path-1-outside-1_2811_315)"/>
<mask id="path-2-outside-2_2811_315" maskUnits="userSpaceOnUse" x="42" y="34" width="226" height="83" fill="black">
<rect fill="white" x="42" y="34" width="226" height="83"/>
<path d="M71.666 49.6553C78.8926 49.6553 83.8187 51.8594 86.4443 56.2676C88.3473 60.6517 89.2988 64.8431 89.2988 68.8418C89.2988 72.5514 87.8294 74.4062 84.8906 74.4062C81.0365 74.4062 77.8809 74.8639 75.4238 75.7793V76.1406C78.6276 79.4889 81.6748 87.7393 84.5654 100.892C84.1559 101.132 83.8428 101.253 83.626 101.253C83.0479 101.253 80.2174 101.012 75.1348 100.53C74.1471 100.53 72.2562 101 69.4619 101.939C67.1494 88.8353 64.9453 80.4645 62.8496 76.8271C56.4421 69.6969 52.8649 63.6628 52.1182 58.7246C51.2751 56.6048 50.6488 54.0514 50.2393 51.0645V50.7031H50.5645C52.4193 50.7031 53.985 50.8236 55.2617 51.0645L71.666 49.6553ZM64.4033 57.3154V57.6768C67.5107 64.6624 70.2448 68.2637 72.6055 68.4805C77.0137 67.252 79.2178 65.1562 79.2178 62.1934C79.2178 58.9414 75.1227 57.3154 66.9326 57.3154L66.3184 57.6768C65.9329 57.4359 65.5114 57.3154 65.0537 57.3154H64.4033ZM104.764 49.041C114.568 49.041 121.433 57.8333 125.359 75.418C125.793 76.9355 126.01 79.0915 126.01 81.8857C126.01 93.0869 121.288 99.5186 111.846 101.181H110.545C100.958 101.181 94.0924 92.1715 89.9492 74.1533V67.7217C92.0931 55.2679 96.1641 49.041 102.162 49.041H104.764ZM102.162 70.2871C104.306 82.3073 107.751 88.3174 112.496 88.3174C113.773 86.7516 114.411 85.2461 114.411 83.8008V81.8857C114.411 74.8519 111.617 69.2633 106.028 65.1201H104.764C103.463 65.1201 102.596 66.8424 102.162 70.2871ZM105.414 50.3418C111.316 50.3418 117.109 56.1351 122.794 67.7217C124.504 73.5993 125.359 78.5254 125.359 82.5C125.359 93.0749 120.638 99.3018 111.195 101.181C102.138 101.181 95.4896 93.0267 91.25 76.7188C91.25 76.2852 90.8164 76.0684 89.9492 76.0684V66.4209C90.9609 66.4209 92.2497 63.2051 93.8154 56.7734C96.8747 52.4857 100.741 50.3418 105.414 50.3418ZM101.548 70.9375C103.668 83.3672 106.883 89.582 111.195 89.582H112.496C114.206 88.8835 115.062 87.39 115.062 85.1016V81.8857C115.062 74.8519 112.267 69.2633 106.679 65.1201H104.113C102.403 65.6982 101.548 67.6374 101.548 70.9375ZM132.478 49.1855C136.789 50.2454 138.945 52.7145 138.945 56.5928C138.945 59.652 136.946 61.6032 132.947 62.4463C128.322 61.5791 126.01 59.4473 126.01 56.0508V55.5449C126.01 52.1243 128.166 50.0046 132.478 49.1855ZM127.853 64.542C130.165 65.9632 133.706 67.5651 138.476 69.3477C139.704 73.3945 140.318 77.1042 140.318 80.4766C140.318 82.3073 140.017 86.9082 139.415 94.2793C139.415 98.2298 140.342 101.41 142.197 103.818C141.884 103.818 141.728 103.999 141.728 104.36L131.104 100.133C130.165 98.1576 129.695 96.2064 129.695 94.2793C130.008 82.9577 130.165 76.4176 130.165 74.6592C130.165 72.4671 129.238 69.0947 127.383 64.542H127.853ZM181.871 43.7295L182.377 44.7412V48.8242C182.377 52.2207 184.533 66.71 188.845 92.292V95.3271C188.845 96.4834 183.521 98.5309 172.874 101.47C172.874 97.3265 167.057 86.7637 155.422 69.7812H154.446C157.192 84.5475 159.348 95.1104 160.914 101.47C161.251 102.144 161.42 102.662 161.42 103.023C161.083 103.023 160.914 103.192 160.914 103.529L159.938 103.023H158.927C158.541 103.023 156.711 103.361 153.435 104.035H148.448C147.774 104.035 147.437 103.698 147.437 103.023C147.437 93.123 145.281 75.9118 140.969 51.3896C146.003 49.6794 149.665 48.8242 151.953 48.8242L156.434 56.9902C165.395 65.6621 172.043 75.2132 176.379 85.6436V87.1611H176.885V85.6436C175.56 74.6833 173.235 63.4339 169.911 51.8955L169.405 48.8242C170.272 47.3548 174.428 45.6566 181.871 43.7295ZM187.797 51.1729H188.158C189.146 51.1729 194.361 52.4134 203.804 54.8945H204.526C208.429 54.6536 212.15 54.5332 215.691 54.5332C218.678 54.5332 220.172 56.388 220.172 60.0977C220.172 60.748 221.039 63.8434 222.773 69.3838C218.654 67.6494 214.186 66.4089 209.368 65.6621V66.4209C210.549 68.5166 211.669 74.346 212.729 83.9092C214.632 89.016 218.1 94.5924 223.135 100.639C222.894 100.639 222.773 100.759 222.773 101C216.414 99.5065 211.572 98.7598 208.248 98.7598H206.008C201.07 90.5938 198.601 81.2956 198.601 70.8652C197.974 67.1556 196.601 65.3008 194.481 65.3008C192.386 65.0599 190.651 64.9395 189.278 64.9395C188.845 64.9395 187.484 65.1803 185.195 65.6621C184.208 61.5671 183.714 57.484 183.714 53.4131V52.293C183.714 51.5462 185.075 51.1729 187.797 51.1729ZM229.35 49.6553C231.229 49.6553 234.962 51.5824 240.551 55.4365C243.538 56.2074 245.031 57.8454 245.031 60.3506L246.151 69.8174H245.754C243.369 69.8174 238.154 67.0713 230.108 61.5791H228.591C227.603 62.0368 227.109 63.0003 227.109 64.4697C227.109 68.2998 233.951 72.1299 247.633 75.96C255.847 79.9827 259.954 85.6074 259.954 92.834V95.6885C259.954 100.603 256.473 103.349 249.512 103.927C246.38 103.927 240.406 102.277 231.59 98.9766H231.229C230.626 98.9766 228.759 99.1211 225.628 99.4102L225.23 98.5791V93.2314C225.23 91.8102 225.11 89.4857 224.869 86.2578C225.688 85.7038 226.435 85.4268 227.109 85.4268H227.471C229.783 85.4268 235.263 87.4863 243.911 91.6055H246.151C246.344 91.6055 246.717 91.196 247.271 90.377C247.271 87.3177 241.671 84.2946 230.47 81.3076C225.098 78.9229 220.87 74.6833 217.787 68.5889C216.775 65.361 216.149 62.7594 215.908 60.7842C215.908 55.0029 219.895 51.2933 227.868 49.6553H229.35Z"/>
</mask>
<path d="M71.666 49.6553C78.8926 49.6553 83.8187 51.8594 86.4443 56.2676C88.3473 60.6517 89.2988 64.8431 89.2988 68.8418C89.2988 72.5514 87.8294 74.4062 84.8906 74.4062C81.0365 74.4062 77.8809 74.8639 75.4238 75.7793V76.1406C78.6276 79.4889 81.6748 87.7393 84.5654 100.892C84.1559 101.132 83.8428 101.253 83.626 101.253C83.0479 101.253 80.2174 101.012 75.1348 100.53C74.1471 100.53 72.2562 101 69.4619 101.939C67.1494 88.8353 64.9453 80.4645 62.8496 76.8271C56.4421 69.6969 52.8649 63.6628 52.1182 58.7246C51.2751 56.6048 50.6488 54.0514 50.2393 51.0645V50.7031H50.5645C52.4193 50.7031 53.985 50.8236 55.2617 51.0645L71.666 49.6553ZM64.4033 57.3154V57.6768C67.5107 64.6624 70.2448 68.2637 72.6055 68.4805C77.0137 67.252 79.2178 65.1562 79.2178 62.1934C79.2178 58.9414 75.1227 57.3154 66.9326 57.3154L66.3184 57.6768C65.9329 57.4359 65.5114 57.3154 65.0537 57.3154H64.4033ZM104.764 49.041C114.568 49.041 121.433 57.8333 125.359 75.418C125.793 76.9355 126.01 79.0915 126.01 81.8857C126.01 93.0869 121.288 99.5186 111.846 101.181H110.545C100.958 101.181 94.0924 92.1715 89.9492 74.1533V67.7217C92.0931 55.2679 96.1641 49.041 102.162 49.041H104.764ZM102.162 70.2871C104.306 82.3073 107.751 88.3174 112.496 88.3174C113.773 86.7516 114.411 85.2461 114.411 83.8008V81.8857C114.411 74.8519 111.617 69.2633 106.028 65.1201H104.764C103.463 65.1201 102.596 66.8424 102.162 70.2871ZM105.414 50.3418C111.316 50.3418 117.109 56.1351 122.794 67.7217C124.504 73.5993 125.359 78.5254 125.359 82.5C125.359 93.0749 120.638 99.3018 111.195 101.181C102.138 101.181 95.4896 93.0267 91.25 76.7188C91.25 76.2852 90.8164 76.0684 89.9492 76.0684V66.4209C90.9609 66.4209 92.2497 63.2051 93.8154 56.7734C96.8747 52.4857 100.741 50.3418 105.414 50.3418ZM101.548 70.9375C103.668 83.3672 106.883 89.582 111.195 89.582H112.496C114.206 88.8835 115.062 87.39 115.062 85.1016V81.8857C115.062 74.8519 112.267 69.2633 106.679 65.1201H104.113C102.403 65.6982 101.548 67.6374 101.548 70.9375ZM132.478 49.1855C136.789 50.2454 138.945 52.7145 138.945 56.5928C138.945 59.652 136.946 61.6032 132.947 62.4463C128.322 61.5791 126.01 59.4473 126.01 56.0508V55.5449C126.01 52.1243 128.166 50.0046 132.478 49.1855ZM127.853 64.542C130.165 65.9632 133.706 67.5651 138.476 69.3477C139.704 73.3945 140.318 77.1042 140.318 80.4766C140.318 82.3073 140.017 86.9082 139.415 94.2793C139.415 98.2298 140.342 101.41 142.197 103.818C141.884 103.818 141.728 103.999 141.728 104.36L131.104 100.133C130.165 98.1576 129.695 96.2064 129.695 94.2793C130.008 82.9577 130.165 76.4176 130.165 74.6592C130.165 72.4671 129.238 69.0947 127.383 64.542H127.853ZM181.871 43.7295L182.377 44.7412V48.8242C182.377 52.2207 184.533 66.71 188.845 92.292V95.3271C188.845 96.4834 183.521 98.5309 172.874 101.47C172.874 97.3265 167.057 86.7637 155.422 69.7812H154.446C157.192 84.5475 159.348 95.1104 160.914 101.47C161.251 102.144 161.42 102.662 161.42 103.023C161.083 103.023 160.914 103.192 160.914 103.529L159.938 103.023H158.927C158.541 103.023 156.711 103.361 153.435 104.035H148.448C147.774 104.035 147.437 103.698 147.437 103.023C147.437 93.123 145.281 75.9118 140.969 51.3896C146.003 49.6794 149.665 48.8242 151.953 48.8242L156.434 56.9902C165.395 65.6621 172.043 75.2132 176.379 85.6436V87.1611H176.885V85.6436C175.56 74.6833 173.235 63.4339 169.911 51.8955L169.405 48.8242C170.272 47.3548 174.428 45.6566 181.871 43.7295ZM187.797 51.1729H188.158C189.146 51.1729 194.361 52.4134 203.804 54.8945H204.526C208.429 54.6536 212.15 54.5332 215.691 54.5332C218.678 54.5332 220.172 56.388 220.172 60.0977C220.172 60.748 221.039 63.8434 222.773 69.3838C218.654 67.6494 214.186 66.4089 209.368 65.6621V66.4209C210.549 68.5166 211.669 74.346 212.729 83.9092C214.632 89.016 218.1 94.5924 223.135 100.639C222.894 100.639 222.773 100.759 222.773 101C216.414 99.5065 211.572 98.7598 208.248 98.7598H206.008C201.07 90.5938 198.601 81.2956 198.601 70.8652C197.974 67.1556 196.601 65.3008 194.481 65.3008C192.386 65.0599 190.651 64.9395 189.278 64.9395C188.845 64.9395 187.484 65.1803 185.195 65.6621C184.208 61.5671 183.714 57.484 183.714 53.4131V52.293C183.714 51.5462 185.075 51.1729 187.797 51.1729ZM229.35 49.6553C231.229 49.6553 234.962 51.5824 240.551 55.4365C243.538 56.2074 245.031 57.8454 245.031 60.3506L246.151 69.8174H245.754C243.369 69.8174 238.154 67.0713 230.108 61.5791H228.591C227.603 62.0368 227.109 63.0003 227.109 64.4697C227.109 68.2998 233.951 72.1299 247.633 75.96C255.847 79.9827 259.954 85.6074 259.954 92.834V95.6885C259.954 100.603 256.473 103.349 249.512 103.927C246.38 103.927 240.406 102.277 231.59 98.9766H231.229C230.626 98.9766 228.759 99.1211 225.628 99.4102L225.23 98.5791V93.2314C225.23 91.8102 225.11 89.4857 224.869 86.2578C225.688 85.7038 226.435 85.4268 227.109 85.4268H227.471C229.783 85.4268 235.263 87.4863 243.911 91.6055H246.151C246.344 91.6055 246.717 91.196 247.271 90.377C247.271 87.3177 241.671 84.2946 230.47 81.3076C225.098 78.9229 220.87 74.6833 217.787 68.5889C216.775 65.361 216.149 62.7594 215.908 60.7842C215.908 55.0029 219.895 51.2933 227.868 49.6553H229.35Z" fill="white"/>
<path d="M71.666 49.6553V41.6553H71.323L70.9813 41.6846L71.666 49.6553ZM86.4443 56.2676L93.7828 53.0822L93.5792 52.6131L93.3175 52.1737L86.4443 56.2676ZM75.4238 75.7793L72.631 68.2826L67.4238 70.2226V75.7793H75.4238ZM75.4238 76.1406H67.4238V79.3514L69.6436 81.6714L75.4238 76.1406ZM84.5654 100.892L88.6216 107.787L93.625 104.844L92.3789 99.1743L84.5654 100.892ZM75.1348 100.53L75.8897 92.566L75.5131 92.5303H75.1348V100.53ZM69.4619 101.939L61.5836 103.33L63.1993 112.485L72.0113 109.522L69.4619 101.939ZM62.8496 76.8271L69.7814 72.8333L69.3618 72.1051L68.8 71.4799L62.8496 76.8271ZM52.1182 58.7246L60.0282 57.5285L59.891 56.6209L59.5518 55.7681L52.1182 58.7246ZM50.2393 51.0645H42.2393V51.6103L42.3134 52.1511L50.2393 51.0645ZM50.2393 50.7031V42.7031H42.2393V50.7031H50.2393ZM55.2617 51.0645L53.7785 58.9257L54.855 59.1289L55.9464 59.0351L55.2617 51.0645ZM64.4033 57.3154V49.3154H56.4033V57.3154H64.4033ZM64.4033 57.6768H56.4033V59.3758L57.0939 60.9282L64.4033 57.6768ZM72.6055 68.4805L71.8739 76.4469L73.3374 76.5814L74.7531 76.1868L72.6055 68.4805ZM66.9326 57.3154V49.3154H64.7542L62.8765 50.42L66.9326 57.3154ZM66.3184 57.6768L62.0784 64.4607L66.1926 67.0322L70.3745 64.5722L66.3184 57.6768ZM71.666 57.6553C77.3499 57.6553 78.9396 59.3011 79.5712 60.3614L93.3175 52.1737C88.6978 44.4177 80.4353 41.6553 71.666 41.6553V57.6553ZM79.1059 59.453C80.6562 63.0245 81.2988 66.1312 81.2988 68.8418H97.2988C97.2988 63.555 96.0385 58.2789 93.7828 53.0822L79.1059 59.453ZM81.2988 68.8418C81.2988 69.8555 81.0621 69.138 81.9261 68.0474C82.4045 67.4435 83.0395 66.9695 83.7166 66.6846C84.3449 66.4202 84.7969 66.4062 84.8906 66.4062V82.4062C88.153 82.4062 91.8526 81.2836 94.4675 77.9828C96.8009 75.0374 97.2988 71.5378 97.2988 68.8418H81.2988ZM84.8906 66.4062C80.4897 66.4062 76.2965 66.9171 72.631 68.2826L78.2167 83.276C79.4653 82.8108 81.5832 82.4062 84.8906 82.4062V66.4062ZM67.4238 75.7793V76.1406H83.4238V75.7793H67.4238ZM69.6436 81.6714C70.079 82.1264 71.1838 83.7564 72.6076 87.6113C73.9562 91.2628 75.3487 96.2242 76.7519 102.609L92.3789 99.1743C90.8915 92.4067 89.3151 86.6667 87.6166 82.0679C85.9931 77.6725 83.9724 73.5031 81.2041 70.6099L69.6436 81.6714ZM80.5093 93.9961C80.5407 93.9776 80.7688 93.8431 81.1516 93.6958C81.4643 93.5756 82.3663 93.2529 83.626 93.2529V109.253C86.179 109.253 88.1258 108.079 88.6216 107.787L80.5093 93.9961ZM83.626 93.2529C83.8098 93.2529 83.804 93.2609 83.334 93.2277C82.9628 93.2014 82.4388 93.1599 81.748 93.1011C80.3708 92.9839 78.4221 92.806 75.8897 92.566L74.3799 108.495C79.154 108.947 82.5539 109.253 83.626 109.253V93.2529ZM75.1348 92.5303C73.6313 92.5303 72.1381 92.8475 71.0472 93.1185C69.8156 93.4245 68.4219 93.8491 66.9125 94.3565L72.0113 109.522C73.2962 109.09 74.2451 108.81 74.9045 108.647C75.231 108.565 75.4259 108.528 75.5131 108.514C75.6275 108.495 75.4703 108.53 75.1348 108.53V92.5303ZM77.3402 100.549C76.1636 93.8816 74.9904 88.2761 73.8108 83.7962C72.677 79.4902 71.3881 75.6221 69.7814 72.8333L55.9178 80.821C56.4068 81.6696 57.2679 83.8056 58.3382 87.8703C59.3627 91.7612 60.4478 96.8931 61.5836 103.33L77.3402 100.549ZM68.8 71.4799C62.6284 64.6123 60.4095 60.0497 60.0282 57.5285L44.2081 59.9208C45.3203 67.2758 50.2557 74.7816 56.8993 82.1744L68.8 71.4799ZM59.5518 55.7681C59.0101 54.4061 58.5131 52.5158 58.1651 49.9778L42.3134 52.1511C42.7845 55.587 43.54 58.8036 44.6845 61.6812L59.5518 55.7681ZM58.2393 51.0645V50.7031H42.2393V51.0645H58.2393ZM50.2393 58.7031H50.5645V42.7031H50.2393V58.7031ZM50.5645 58.7031C52.1136 58.7031 53.1489 58.807 53.7785 58.9257L56.745 43.2032C54.8211 42.8402 52.7249 42.7031 50.5645 42.7031V58.7031ZM55.9464 59.0351L72.3507 57.6259L70.9813 41.6846L54.577 43.0938L55.9464 59.0351ZM56.4033 57.3154V57.6768H72.4033V57.3154H56.4033ZM57.0939 60.9282C58.7515 64.6547 60.5046 67.9412 62.4127 70.4544C64.0284 72.5826 67.1224 76.0106 71.8739 76.4469L73.3371 60.514C74.6442 60.634 75.4088 61.1662 75.5625 61.2815C75.712 61.3935 75.5623 61.3145 75.1562 60.7795C74.3301 59.6915 73.1626 57.6845 71.7128 54.4253L57.0939 60.9282ZM74.7531 76.1868C77.6337 75.384 80.6673 74.0763 83.0772 71.7849C85.7201 69.272 87.2178 65.9312 87.2178 62.1934H71.2178C71.2178 61.9168 71.275 61.506 71.4704 61.0574C71.6639 60.6133 71.9079 60.3269 72.0522 60.1897C72.1788 60.0693 72.1754 60.113 71.905 60.2489C71.6345 60.3849 71.173 60.5748 70.4578 60.7741L74.7531 76.1868ZM87.2178 62.1934C87.2178 59.5424 86.3264 56.9993 84.5771 54.9155C82.9491 52.9763 80.9059 51.8171 79.0987 51.0996C75.6195 49.7181 71.3221 49.3154 66.9326 49.3154V65.3154C68.7335 65.3154 70.1601 65.4059 71.2577 65.5511C72.3827 65.7 72.973 65.8824 73.1942 65.9702C73.4346 66.0657 72.9271 65.9228 72.3228 65.203C71.5973 64.3388 71.2178 63.2183 71.2178 62.1934H87.2178ZM62.8765 50.42L62.2622 50.7813L70.3745 64.5722L70.9888 64.2109L62.8765 50.42ZM70.5584 50.8928C68.8921 49.8514 66.9996 49.3154 65.0537 49.3154V65.3154C64.0232 65.3154 62.9738 65.0204 62.0784 64.4607L70.5584 50.8928ZM65.0537 49.3154H64.4033V65.3154H65.0537V49.3154ZM125.359 75.418L117.552 77.1613L117.603 77.3902L117.667 77.6157L125.359 75.418ZM111.846 101.181V109.181H112.544L113.233 109.06L111.846 101.181ZM89.9492 74.1533H81.9492V75.0613L82.1527 75.9461L89.9492 74.1533ZM89.9492 67.7217L82.0652 66.3645L81.9492 67.0381V67.7217H89.9492ZM102.162 70.2871L94.2247 69.288L94.0729 70.4946L94.2864 71.6918L102.162 70.2871ZM112.496 88.3174V96.3174H116.295L118.696 93.3729L112.496 88.3174ZM106.028 65.1201L110.793 58.6936L108.67 57.1201H106.028V65.1201ZM122.794 67.7217L130.475 65.4865L130.282 64.8205L129.976 64.1978L122.794 67.7217ZM111.195 101.181V109.181H111.984L112.757 109.027L111.195 101.181ZM91.25 76.7188H83.25V77.7416L83.5074 78.7316L91.25 76.7188ZM89.9492 76.0684H81.9492V84.0684H89.9492V76.0684ZM89.9492 66.4209V58.4209H81.9492V66.4209H89.9492ZM93.8154 56.7734L87.3031 52.127L86.4073 53.3825L86.0425 54.8811L93.8154 56.7734ZM101.548 70.9375H93.5479V71.6148L93.6617 72.2824L101.548 70.9375ZM112.496 89.582V97.582H114.067L115.521 96.9881L112.496 89.582ZM106.679 65.1201L111.443 58.6936L109.321 57.1201H106.679V65.1201ZM104.113 65.1201V57.1201H102.798L101.551 57.5414L104.113 65.1201ZM104.764 57.041C106.841 57.041 108.807 57.8006 110.96 60.5587C113.348 63.6169 115.706 68.8961 117.552 77.1613L133.167 73.6746C131.086 64.3552 128.049 56.446 123.571 50.7118C118.859 44.6775 112.49 41.041 104.764 41.041V57.041ZM117.667 77.6157C117.797 78.0716 118.01 79.3574 118.01 81.8857H134.01C134.01 78.8256 133.789 75.7995 133.052 73.2202L117.667 77.6157ZM118.01 81.8857C118.01 86.4522 117.038 88.9888 116.02 90.3763C115.117 91.6062 113.586 92.7514 110.459 93.3018L113.233 109.06C119.548 107.948 125.099 105.046 128.918 99.8444C132.621 94.8002 134.01 88.5204 134.01 81.8857H118.01ZM111.846 93.1807H110.545V109.181H111.846V93.1807ZM110.545 93.1807C108.717 93.1807 106.797 92.4997 104.569 89.575C102.127 86.371 99.7041 80.8773 97.7458 72.3605L82.1527 75.9461C84.3375 85.4476 87.4188 93.4676 91.8425 99.2727C96.479 105.357 102.785 109.181 110.545 109.181V93.1807ZM97.9492 74.1533V67.7217H81.9492V74.1533H97.9492ZM97.8333 69.0789C98.8315 63.2801 100.147 59.8621 101.306 58.0888C101.842 57.2688 102.193 57.037 102.233 57.0126C102.249 57.0022 102.226 57.018 102.176 57.0322C102.126 57.0462 102.113 57.041 102.162 57.041V41.041C95.7978 41.041 91.0224 44.5795 87.9144 49.3335C85.0027 53.7872 83.2108 59.7094 82.0652 66.3645L97.8333 69.0789ZM102.162 57.041H104.764V41.041H102.162V57.041ZM94.2864 71.6918C95.4162 78.0262 97.0109 83.5974 99.4127 87.7879C101.839 92.0214 106.052 96.3174 112.496 96.3174V80.3174C114.194 80.3174 114.313 81.6083 113.294 79.8317C112.251 78.0121 111.052 74.5682 110.038 68.8824L94.2864 71.6918ZM118.696 93.3729C120.68 90.9397 122.411 87.7005 122.411 83.8008H106.411C106.411 83.3182 106.522 82.9967 106.567 82.891C106.603 82.8068 106.564 82.933 106.296 83.2619L118.696 93.3729ZM122.411 83.8008V81.8857H106.411V83.8008H122.411ZM122.411 81.8857C122.411 72.3514 118.443 64.3654 110.793 58.6936L101.264 71.5466C104.791 74.1612 106.411 77.3524 106.411 81.8857H122.411ZM106.028 57.1201H104.764V73.1201H106.028V57.1201ZM104.764 57.1201C99.7459 57.1201 97.0503 60.7129 95.9923 62.8142C94.9433 64.8976 94.4795 67.2643 94.2247 69.288L110.099 71.2862C110.278 69.8653 110.465 69.6484 110.283 70.0095C110.17 70.2334 109.766 70.9761 108.846 71.7069C107.799 72.5383 106.367 73.1201 104.764 73.1201V57.1201ZM105.414 58.3418C105.53 58.3418 106.539 58.3543 108.528 60.3436C110.551 62.3661 112.961 65.8421 115.612 71.2455L129.976 64.1978C126.942 58.0147 123.613 52.8007 119.842 49.0299C116.038 45.226 111.199 42.3418 105.414 42.3418V58.3418ZM115.113 69.9568C116.712 75.4549 117.359 79.5735 117.359 82.5H133.359C133.359 77.4773 132.296 71.7436 130.475 65.4865L115.113 69.9568ZM117.359 82.5C117.359 86.652 116.433 88.9633 115.444 90.2678C114.523 91.4823 112.901 92.6845 109.634 93.3345L112.757 109.027C118.933 107.798 124.393 104.947 128.193 99.9348C131.925 95.0125 133.359 88.9229 133.359 82.5H117.359ZM111.195 93.1807C109.474 93.1807 107.696 92.5603 105.616 90.0098C103.326 87.2014 100.977 82.3406 98.9926 74.7059L83.5074 78.7316C85.7621 87.4048 88.8572 94.775 93.2158 100.121C97.7846 105.724 103.859 109.181 111.195 109.181V93.1807ZM99.25 76.7188C99.25 75.2105 98.8499 73.5339 97.8251 71.9966C96.8336 70.5094 95.56 69.6043 94.5025 69.0755C92.614 68.1313 90.7914 68.0684 89.9492 68.0684V84.0684C89.8542 84.0684 89.586 84.064 89.2031 84.0002C88.8418 83.9399 88.1564 83.791 87.3471 83.3864C86.5065 82.9661 85.3954 82.1964 84.5123 80.8718C83.5959 79.4971 83.25 78.0102 83.25 76.7188H99.25ZM97.9492 76.0684V66.4209H81.9492V76.0684H97.9492ZM89.9492 74.4209C94.4335 74.4209 96.8035 71.1198 97.2665 70.4724C98.1042 69.3014 98.6896 68.0101 99.1005 66.985C99.9609 64.8378 100.781 61.9826 101.588 58.6657L86.0425 54.8811C85.2842 57.9959 84.6769 59.9645 84.2487 61.0331C84.0151 61.6159 83.9908 61.5305 84.2534 61.1634C84.3884 60.9747 84.8047 60.4181 85.5674 59.8509C86.3582 59.2627 87.8648 58.4209 89.9492 58.4209V74.4209ZM100.328 61.4199C102.106 58.9271 103.684 58.3418 105.414 58.3418V42.3418C97.7977 42.3418 91.643 46.0443 87.3031 52.127L100.328 61.4199ZM93.6617 72.2824C94.768 78.7692 96.2685 84.3923 98.4444 88.5974C100.509 92.5873 104.474 97.582 111.195 97.582V81.582C113.604 81.582 113.806 83.4694 112.655 81.2444C111.615 79.2346 110.448 75.5355 109.434 69.5926L93.6617 72.2824ZM111.195 97.582H112.496V81.582H111.195V97.582ZM115.521 96.9881C117.899 96.017 119.981 94.3257 121.363 91.9131C122.675 89.6213 123.062 87.1957 123.062 85.1016H107.062C107.062 85.2958 107.021 84.7612 107.478 83.9628C108.004 83.0438 108.804 82.4485 109.471 82.176L115.521 96.9881ZM123.062 85.1016V81.8857H107.062V85.1016H123.062ZM123.062 81.8857C123.062 72.3514 119.094 64.3654 111.443 58.6936L101.914 71.5466C105.441 74.1612 107.062 77.3524 107.062 81.8857H123.062ZM106.679 57.1201H104.113V73.1201H106.679V57.1201ZM101.551 57.5414C94.404 59.9574 93.5479 67.2964 93.5479 70.9375H109.548C109.548 69.8446 109.71 69.7809 109.509 70.2361C109.385 70.5166 109.115 71.0075 108.594 71.5191C108.05 72.0524 107.384 72.4594 106.675 72.6988L101.551 57.5414ZM132.478 49.1855L134.387 41.4168L132.696 41.0011L130.985 41.3261L132.478 49.1855ZM132.947 62.4463L131.473 70.3093L133.039 70.6029L134.598 70.2742L132.947 62.4463ZM127.853 64.542L132.041 57.7263L130.114 56.542H127.853V64.542ZM138.476 69.3477L146.131 67.0238L144.982 63.2387L141.276 61.8539L138.476 69.3477ZM139.415 94.2793L131.442 93.6279L131.415 93.953V94.2793H139.415ZM142.197 103.818V111.818H158.454L148.536 98.9376L142.197 103.818ZM141.728 104.36L138.769 111.793L149.728 116.154V104.36H141.728ZM131.104 100.133L123.88 103.569L125.229 106.405L128.146 107.566L131.104 100.133ZM129.695 94.2793L121.698 94.0581L121.695 94.1687V94.2793H129.695ZM127.383 64.542V56.542H115.485L119.974 67.5604L127.383 64.542ZM130.568 56.9543C131.108 57.087 131.382 57.2162 131.475 57.2674C131.556 57.3114 131.457 57.2713 131.302 57.0941C131.228 57.0091 131.157 56.9101 131.095 56.8021C131.033 56.6945 130.992 56.5972 130.966 56.5212C130.914 56.3673 130.945 56.3635 130.945 56.5928H146.945C146.945 53.0921 145.931 49.5212 143.354 46.5705C140.871 43.7267 137.585 42.2029 134.387 41.4168L130.568 56.9543ZM130.945 56.5928C130.945 56.4774 130.967 56.1494 131.14 55.7145C131.32 55.2646 131.587 54.89 131.858 54.6252C132.11 54.3794 132.273 54.3175 132.193 54.3545C132.107 54.3948 131.834 54.5052 131.297 54.6184L134.598 70.2742C137.434 69.6761 140.555 68.4949 143.033 66.076C145.73 63.4439 146.945 60.0516 146.945 56.5928H130.945ZM134.422 54.5833C133.714 54.4506 133.294 54.3054 133.087 54.2155C132.884 54.128 132.965 54.1291 133.167 54.3151C133.391 54.5224 133.647 54.8506 133.824 55.2738C133.995 55.6828 134.01 55.9809 134.01 56.0508H118.01C118.01 59.7839 119.381 63.3681 122.322 66.079C125.001 68.5489 128.368 69.7271 131.473 70.3093L134.422 54.5833ZM134.01 56.0508V55.5449H118.01V56.0508H134.01ZM134.01 55.5449C134.01 55.5345 134.01 55.7638 133.869 56.1245C133.721 56.505 133.489 56.8447 133.236 57.0941C133.001 57.3248 132.856 57.3732 132.957 57.3271C133.068 57.2767 133.378 57.1575 133.97 57.045L130.985 41.3261C127.941 41.9042 124.627 43.1196 122.018 45.6852C119.204 48.452 118.01 51.9973 118.01 55.5449H134.01ZM123.664 71.3577C126.645 73.1897 130.763 75.0058 135.675 76.8414L141.276 61.8539C136.649 60.1244 133.686 58.7368 132.041 57.7263L123.664 71.3577ZM130.821 71.6715C131.876 75.1473 132.318 78.0618 132.318 80.4766H148.318C148.318 76.1466 147.533 71.6417 146.131 67.0238L130.821 71.6715ZM132.318 80.4766C132.318 81.9065 132.054 86.1329 131.442 93.6279L147.388 94.9307C147.981 87.6835 148.318 82.7081 148.318 80.4766H132.318ZM131.415 94.2793C131.415 99.4641 132.642 104.522 135.859 108.699L148.536 98.9376C148.043 98.2974 147.415 96.9956 147.415 94.2793H131.415ZM142.197 95.8184C140.486 95.8184 137.835 96.3653 135.799 98.7144C133.953 100.845 133.728 103.205 133.728 104.36H149.728C149.728 105.154 149.58 107.244 147.89 109.193C146.011 111.362 143.596 111.818 142.197 111.818V95.8184ZM144.686 96.9273L134.063 92.6998L128.146 107.566L138.769 111.793L144.686 96.9273ZM138.329 96.6968C137.831 95.6496 137.695 94.8665 137.695 94.2793H121.695C121.695 97.5462 122.499 100.665 123.88 103.569L138.329 96.6968ZM137.692 94.5005C138.003 83.2524 138.165 76.5598 138.165 74.6592H122.165C122.165 76.2755 122.014 82.663 121.698 94.0581L137.692 94.5005ZM138.165 74.6592C138.165 70.7743 136.671 66.1371 134.792 61.5236L119.974 67.5604C120.826 69.6513 121.402 71.3201 121.756 72.6071C121.931 73.2448 122.039 73.7402 122.1 74.109C122.13 74.2906 122.147 74.4278 122.156 74.5244C122.165 74.6217 122.165 74.6644 122.165 74.6592H138.165ZM127.383 72.542H127.853V56.542H127.383V72.542ZM181.871 43.7295L189.027 40.1518L186.132 34.3626L179.866 35.9848L181.871 43.7295ZM182.377 44.7412H190.377V42.8527L189.532 41.1635L182.377 44.7412ZM188.845 92.292H196.845V91.6225L196.733 90.9623L188.845 92.292ZM172.874 101.47H164.874V111.977L175.003 109.181L172.874 101.47ZM155.422 69.7812L162.022 65.2598L159.638 61.7812H155.422V69.7812ZM154.446 69.7812V61.7812H144.821L146.581 71.2439L154.446 69.7812ZM160.914 101.47L153.146 103.382L153.359 104.249L153.759 105.047L160.914 101.47ZM161.42 103.023V111.023H169.42V103.023H161.42ZM160.914 103.529L157.232 110.631L168.914 116.689V103.529H160.914ZM159.938 103.023L163.621 95.9214L161.889 95.0234H159.938V103.023ZM153.435 104.035V112.035H154.25L155.048 111.871L153.435 104.035ZM140.969 51.3896L138.395 43.8148L131.902 46.0207L133.09 52.7751L140.969 51.3896ZM151.953 48.8242L158.967 44.976L156.689 40.8242H151.953V48.8242ZM156.434 56.9902L149.42 60.8384L150.001 61.8983L150.87 62.7391L156.434 56.9902ZM176.379 85.6436H184.379V84.047L183.766 82.5727L176.379 85.6436ZM176.379 87.1611H168.379V95.1611H176.379V87.1611ZM176.885 87.1611V95.1611H184.885V87.1611H176.885ZM176.885 85.6436H184.885V85.1618L184.827 84.6835L176.885 85.6436ZM169.911 51.8955L162.017 53.1956L162.094 53.659L162.224 54.1102L169.911 51.8955ZM169.405 48.8242L162.516 44.7582L161.04 47.2591L161.512 50.1243L169.405 48.8242ZM174.716 47.3072L175.222 48.3189L189.532 41.1635L189.027 40.1518L174.716 47.3072ZM174.377 44.7412V48.8242H190.377V44.7412H174.377ZM174.377 48.8242C174.377 51.2559 175.04 56.421 176.081 63.4159C177.17 70.7357 178.797 80.8121 180.956 93.6216L196.733 90.9623C194.581 78.1899 192.974 68.2306 191.907 61.0611C190.792 53.5668 190.377 49.789 190.377 48.8242H174.377ZM180.845 92.292V95.3271H196.845V92.292H180.845ZM180.845 95.3271C180.845 92.3966 182.458 90.6415 182.839 90.2471C183.129 89.9464 183.373 89.7542 183.497 89.6611C183.63 89.5623 183.713 89.512 183.721 89.507C183.728 89.5029 183.6 89.5784 183.274 89.7278C182.96 89.8711 182.535 90.0498 181.98 90.2632C179.693 91.143 176.004 92.3067 170.745 93.7581L175.003 109.181C180.391 107.694 184.688 106.365 187.724 105.197C189.194 104.631 190.705 103.978 191.972 103.216C192.582 102.849 193.496 102.245 194.352 101.358C195.065 100.619 196.845 98.5468 196.845 95.3271H180.845ZM180.874 101.47C180.874 98.8818 180.046 96.2972 179.222 94.2159C178.324 91.9458 177.061 89.3813 175.519 86.5808C172.428 80.9689 167.899 73.8383 162.022 65.2598L148.822 74.3027C154.58 82.7066 158.777 89.3487 161.503 94.2995C162.87 96.7805 163.788 98.6949 164.344 100.101C164.975 101.697 164.874 101.986 164.874 101.47H180.874ZM155.422 61.7812H154.446V77.7812H155.422V61.7812ZM146.581 71.2439C149.329 86.0192 151.52 96.7798 153.146 103.382L168.682 99.5571C167.176 93.4409 165.056 83.0758 162.311 68.3186L146.581 71.2439ZM153.759 105.047C153.812 105.154 153.762 105.072 153.686 104.841C153.646 104.718 153.585 104.509 153.531 104.23C153.479 103.956 153.42 103.542 153.42 103.023H169.42C169.42 100.672 168.485 98.7226 168.069 97.892L153.759 105.047ZM161.42 95.0234C160.018 95.0234 157.497 95.3793 155.384 97.493C153.27 99.6068 152.914 102.128 152.914 103.529H168.914C168.914 104.594 168.643 106.862 166.697 108.807C164.752 110.752 162.484 111.023 161.42 111.023V95.0234ZM164.597 96.4273L163.621 95.9214L156.256 110.125L157.232 110.631L164.597 96.4273ZM159.938 95.0234H158.927V111.023H159.938V95.0234ZM158.927 95.0234C158.129 95.0234 157.353 95.1488 157.163 95.1777C156.768 95.2378 156.309 95.3178 155.815 95.4087C154.818 95.5924 153.478 95.8583 151.821 96.1995L155.048 111.871C156.667 111.537 157.88 111.298 158.714 111.144C159.136 111.066 159.411 111.02 159.57 110.996C159.651 110.983 159.657 110.984 159.612 110.989C159.588 110.991 159.524 110.998 159.432 111.005C159.352 111.011 159.17 111.023 158.927 111.023V95.0234ZM153.435 96.0352H148.448V112.035H153.435V96.0352ZM148.448 96.0352C149.344 96.0352 151.485 96.2646 153.346 98.1254C155.207 99.9862 155.437 102.128 155.437 103.023H139.437C139.437 104.594 139.835 107.241 142.033 109.439C144.231 111.637 146.878 112.035 148.448 112.035V96.0352ZM155.437 103.023C155.437 92.3429 153.155 74.5022 148.848 50.0042L133.09 52.7751C137.406 77.3214 139.437 93.9032 139.437 103.023H155.437ZM143.542 58.9645C148.554 57.262 151.109 56.8242 151.953 56.8242V40.8242C148.221 40.8242 143.453 42.0967 138.395 43.8148L143.542 58.9645ZM144.939 52.6724L149.42 60.8384L163.447 53.142L158.967 44.976L144.939 52.6724ZM150.87 62.7391C159.129 70.7313 165.116 79.392 168.992 88.7144L183.766 82.5727C178.97 71.0344 171.66 60.5929 161.997 51.2414L150.87 62.7391ZM168.379 85.6436V87.1611H184.379V85.6436H168.379ZM176.379 95.1611H176.885V79.1611H176.379V95.1611ZM184.885 87.1611V85.6436H168.885V87.1611H184.885ZM184.827 84.6835C183.447 73.2638 181.031 61.5946 177.598 49.6808L162.224 54.1102C165.44 65.2733 167.673 76.1027 168.943 86.6036L184.827 84.6835ZM177.805 50.5954L177.299 47.5241L161.512 50.1243L162.017 53.1956L177.805 50.5954ZM176.295 52.8902C175.55 54.1522 174.701 54.5964 174.94 54.4459C175.028 54.3901 175.396 54.1817 176.199 53.8539C177.792 53.2029 180.295 52.4014 183.876 51.4741L179.866 35.9848C176.004 36.9847 172.708 37.9958 170.146 39.0431C168.87 39.5644 167.572 40.1765 166.405 40.9127C165.388 41.554 163.694 42.7615 162.516 44.7582L176.295 52.8902ZM203.804 54.8945L201.771 62.6319L202.77 62.8945H203.804V54.8945ZM204.526 54.8945V62.8945H204.773L205.019 62.8793L204.526 54.8945ZM222.773 69.3838L219.669 76.7569L235.559 83.4473L230.408 66.9938L222.773 69.3838ZM209.368 65.6621L210.594 57.7565L201.368 56.3266V65.6621H209.368ZM209.368 66.4209H201.368V68.5188L202.398 70.3468L209.368 66.4209ZM212.729 83.9092L204.777 84.7904L204.886 85.7747L205.232 86.7027L212.729 83.9092ZM223.135 100.639V108.639H240.206L229.283 95.5196L223.135 100.639ZM222.773 101L220.944 108.788L230.773 111.096V101H222.773ZM206.008 98.7598L199.162 102.899L201.497 106.76H206.008V98.7598ZM198.601 70.8652H206.601V70.1947L206.489 69.5334L198.601 70.8652ZM194.481 65.3008L193.568 73.2485L194.023 73.3008H194.481V65.3008ZM185.195 65.6621L177.418 67.5377L179.24 75.0912L186.843 73.4905L185.195 65.6621ZM187.797 59.1729H188.158V43.1729H187.797V59.1729ZM188.158 59.1729C187.468 59.1729 187.177 59.0609 188.123 59.2501C188.761 59.3778 189.694 59.5853 190.959 59.8861C193.476 60.4848 197.069 61.3966 201.771 62.6319L205.837 47.1572C201.095 45.9113 197.36 44.9624 194.662 44.3204C193.319 44.001 192.173 43.7433 191.261 43.5608C190.656 43.4399 189.342 43.1729 188.158 43.1729V59.1729ZM203.804 62.8945H204.526V46.8945H203.804V62.8945ZM205.019 62.8793C208.774 62.6475 212.331 62.5332 215.691 62.5332V46.5332C211.97 46.5332 208.083 46.6597 204.033 46.9097L205.019 62.8793ZM215.691 62.5332C215.624 62.5332 215.199 62.5239 214.592 62.2726C213.936 62.0011 213.304 61.5423 212.821 60.9416C211.938 59.8456 212.172 59.1067 212.172 60.0977H228.172C228.172 57.379 227.659 53.8579 225.283 50.907C222.64 47.6249 218.933 46.5332 215.691 46.5332V62.5332ZM212.172 60.0977C212.172 61.3235 212.466 62.5239 212.541 62.8483C212.689 63.4873 212.888 64.2405 213.119 65.0651C213.585 66.7286 214.263 68.9772 215.139 71.7738L230.408 66.9938C229.549 64.25 228.927 62.1807 228.526 60.7488C228.323 60.0258 228.197 59.537 228.128 59.2395C228.093 59.0886 228.089 59.0539 228.097 59.1013C228.101 59.1272 228.116 59.2149 228.131 59.3469C228.144 59.4592 228.172 59.7317 228.172 60.0977H212.172ZM225.878 62.0107C221.105 60.001 215.999 58.5944 210.594 57.7565L208.143 73.5677C212.373 74.2233 216.204 75.2979 219.669 76.7569L225.878 62.0107ZM201.368 65.6621V66.4209H217.368V65.6621H201.368ZM202.398 70.3468C202.276 70.1312 202.67 70.9228 203.237 73.8743C203.741 76.4939 204.258 80.1077 204.777 84.7904L220.68 83.0279C220.139 78.1475 219.567 74.065 218.95 70.8552C218.397 67.9773 217.64 64.8063 216.339 62.495L202.398 70.3468ZM205.232 86.7027C207.556 92.9403 211.609 99.2985 216.987 105.758L229.283 95.5196C224.592 89.8864 221.707 85.0916 220.225 81.1157L205.232 86.7027ZM223.135 92.6387C221.781 92.6387 219.297 92.9825 217.207 95.0721C215.117 97.1618 214.773 99.6464 214.773 101H230.773C230.773 102.113 230.49 104.417 228.521 106.386C226.551 108.355 224.247 108.639 223.135 108.639V92.6387ZM224.602 93.2119C218.102 91.6852 212.527 90.7598 208.248 90.7598V106.76C210.618 106.76 214.727 107.328 220.944 108.788L224.602 93.2119ZM208.248 90.7598H206.008V106.76H208.248V90.7598ZM212.853 94.6201C208.74 87.8176 206.601 79.9764 206.601 70.8652H190.601C190.601 82.6147 193.399 93.3699 199.162 102.899L212.853 94.6201ZM206.489 69.5334C206.083 67.1306 205.296 64.3159 203.531 61.9321C201.491 59.1763 198.327 57.3008 194.481 57.3008V73.3008C193.8 73.3008 192.981 73.1397 192.179 72.7141C191.4 72.3005 190.92 71.7872 190.671 71.4517C190.441 71.1404 190.406 70.9799 190.462 71.1359C190.515 71.2841 190.614 71.6176 190.712 72.197L206.489 69.5334ZM195.395 57.3531C193.138 57.0937 191.072 56.9395 189.278 56.9395V72.9395C190.23 72.9395 191.633 73.0261 193.568 73.2485L195.395 57.3531ZM189.278 56.9395C188.231 56.9395 187.07 57.1485 186.538 57.2426C185.735 57.3847 184.727 57.5854 183.547 57.8337L186.843 73.4905C187.952 73.2571 188.769 73.0964 189.327 72.9977C189.608 72.9479 189.771 72.9233 189.844 72.9135C189.879 72.9088 189.857 72.9124 189.793 72.9182C189.75 72.9221 189.557 72.9395 189.278 72.9395V56.9395ZM192.972 63.7865C192.128 60.2842 191.714 56.8306 191.714 53.4131H175.714C175.714 58.1375 176.288 62.8499 177.418 67.5377L192.972 63.7865ZM191.714 53.4131V52.293H175.714V53.4131H191.714ZM191.714 52.293C191.714 54.9387 190.359 56.9047 189.053 57.9799C187.986 58.8581 187.019 59.1219 186.851 59.1678C186.469 59.2726 186.619 59.1729 187.797 59.1729V43.1729C186.253 43.1729 184.361 43.2598 182.618 43.7379C181.77 43.9706 180.293 44.4677 178.885 45.6259C177.239 46.9812 175.714 49.2739 175.714 52.293H191.714ZM240.551 55.4365L236.009 62.0222L237.177 62.8281L238.552 63.1827L240.551 55.4365ZM245.031 60.3506H237.031V60.8222L237.087 61.2906L245.031 60.3506ZM246.151 69.8174V77.8174H255.154L254.096 68.8774L246.151 69.8174ZM230.108 61.5791L234.619 54.9718L232.579 53.5791H230.108V61.5791ZM228.591 61.5791V53.5791H226.827L225.227 54.3206L228.591 61.5791ZM247.633 75.96L251.151 68.7753L250.494 68.4534L249.789 68.2561L247.633 75.96ZM249.512 103.927V111.927H249.843L250.174 111.899L249.512 103.927ZM231.59 98.9766L234.394 91.4842L233.038 90.9766H231.59V98.9766ZM225.628 99.4102L218.411 102.862L220.815 107.888L226.363 107.376L225.628 99.4102ZM225.23 98.5791H217.23V100.394L218.013 102.031L225.23 98.5791ZM224.869 86.2578L220.387 79.6315L216.546 82.2295L216.891 86.8532L224.869 86.2578ZM243.911 91.6055L240.471 98.828L242.103 99.6055H243.911V91.6055ZM247.271 90.377L253.898 94.8594L255.271 92.8287V90.377H247.271ZM230.47 81.3076L227.224 88.6195L227.8 88.8751L228.408 89.0375L230.47 81.3076ZM217.787 68.5889L210.153 70.9816L210.351 71.6114L210.649 72.2004L217.787 68.5889ZM215.908 60.7842H207.908V61.2702L207.967 61.7526L215.908 60.7842ZM227.868 49.6553V41.6553H227.055L226.258 41.8189L227.868 49.6553ZM229.35 57.6553C228.576 57.6553 228.217 57.4829 228.509 57.583C228.726 57.6578 229.172 57.8391 229.89 58.2096C231.329 58.9525 233.347 60.1862 236.009 62.0222L245.093 48.8508C242.166 46.8327 239.522 45.1758 237.228 43.9916C235.3 42.9962 232.386 41.6553 229.35 41.6553V57.6553ZM238.552 63.1827C239.108 63.3262 238.636 63.331 237.999 62.6332C237.669 62.2704 237.398 61.8258 237.225 61.3471C237.058 60.884 237.031 60.5234 237.031 60.3506H253.031C253.031 57.3828 252.09 54.3397 249.823 51.8531C247.693 49.5173 244.981 48.3177 242.55 47.6903L238.552 63.1827ZM237.087 61.2906L238.207 70.7574L254.096 68.8774L252.976 59.4106L237.087 61.2906ZM246.151 61.8174H245.754V77.8174H246.151V61.8174ZM245.754 61.8174C246.51 61.8174 246.75 61.9941 246.153 61.7786C245.667 61.6028 244.893 61.2644 243.781 60.6792C241.56 59.5096 238.529 57.6412 234.619 54.9718L225.598 68.1864C229.733 71.0092 233.333 73.2599 236.327 74.8364C237.823 75.6242 239.302 76.3156 240.716 76.8264C242.02 77.2974 243.805 77.8174 245.754 77.8174V61.8174ZM230.108 53.5791H228.591V69.5791H230.108V53.5791ZM225.227 54.3206C220.406 56.5549 219.109 61.1718 219.109 64.4697H235.109C235.109 64.5726 235.1 65.3165 234.599 66.2937C234.027 67.4098 233.071 68.3203 231.955 68.8376L225.227 54.3206ZM219.109 64.4697C219.109 67.9801 220.713 70.754 222.425 72.6712C224.095 74.5412 226.212 76.0083 228.332 77.1953C232.582 79.5746 238.432 81.692 245.476 83.6638L249.789 68.2561C243.151 66.3979 238.74 64.6852 236.148 63.2344C235.533 62.8899 235.089 62.5975 234.781 62.3677C234.468 62.1344 234.355 62.0094 234.359 62.0134C234.361 62.0155 235.109 62.8744 235.109 64.4697H219.109ZM244.114 83.1446C250.457 86.2511 251.954 89.5247 251.954 92.834H267.954C267.954 81.6902 261.237 73.7143 251.151 68.7753L244.114 83.1446ZM251.954 92.834V95.6885H267.954V92.834H251.954ZM251.954 95.6885C251.954 95.9656 251.908 95.9002 252.018 95.658C252.14 95.3908 252.312 95.213 252.388 95.1529C252.428 95.1216 252.251 95.2735 251.654 95.4636C251.053 95.6548 250.146 95.8466 248.85 95.9542L250.174 111.899C254.392 111.549 258.803 110.472 262.299 107.714C266.188 104.646 267.954 100.292 267.954 95.6885H251.954ZM249.512 95.9268C249.066 95.9268 247.643 95.7599 244.813 94.978C242.138 94.2392 238.682 93.0891 234.394 91.4842L228.785 106.469C233.314 108.164 237.253 109.489 240.553 110.4C243.696 111.269 246.826 111.927 249.512 111.927V95.9268ZM231.59 90.9766H231.229V106.977H231.59V90.9766ZM231.229 90.9766C230.16 90.9766 227.824 91.1735 224.893 91.444L226.363 107.376C227.912 107.233 229.117 107.129 229.994 107.061C230.987 106.984 231.291 106.977 231.229 106.977V90.9766ZM232.845 95.9585L232.448 95.1275L218.013 102.031L218.411 102.862L232.845 95.9585ZM233.23 98.5791V93.2314H217.23V98.5791H233.23ZM233.23 93.2314C233.23 91.4868 233.089 88.9037 232.847 85.6625L216.891 86.8532C217.131 90.0676 217.23 92.1337 217.23 93.2314H233.23ZM229.352 92.8841C229.347 92.8872 229.303 92.9167 229.22 92.9606C229.138 93.0044 229.006 93.0683 228.826 93.1351C228.466 93.2684 227.877 93.4268 227.109 93.4268V77.4268C224.253 77.4268 221.944 78.5778 220.387 79.6315L229.352 92.8841ZM227.109 93.4268H227.471V77.4268H227.109V93.4268ZM227.471 93.4268C227.032 93.4268 227.033 93.3565 227.755 93.5474C228.381 93.7128 229.281 94.0017 230.501 94.46C232.938 95.3761 236.241 96.8131 240.471 98.828L247.351 84.383C242.934 82.2787 239.172 80.6263 236.13 79.4828C233.46 78.4794 230.255 77.4268 227.471 77.4268V93.4268ZM243.911 99.6055H246.151V83.6055H243.911V99.6055ZM246.151 99.6055C248.777 99.6055 250.552 98.3482 251.019 98.0105C251.713 97.5081 252.213 96.9896 252.488 96.6884C253.06 96.0603 253.544 95.3823 253.898 94.8594L240.645 85.8945C240.445 86.1907 240.465 86.1269 240.664 85.9083C240.752 85.8118 241.088 85.4469 241.641 85.0469C241.928 84.8393 242.411 84.5215 243.07 84.2379C243.714 83.9604 244.783 83.6055 246.151 83.6055V99.6055ZM255.271 90.377C255.271 86.9876 253.681 84.3806 252.106 82.6703C250.573 81.0053 248.677 79.7502 246.871 78.7753C243.244 76.8172 238.329 75.1239 232.531 73.5777L228.408 89.0375C233.812 90.4784 237.298 91.79 239.271 92.8551C240.265 93.3917 240.469 93.6527 240.336 93.5083C240.162 93.3186 239.271 92.2367 239.271 90.377H255.271ZM233.716 73.9958C230.295 72.4772 227.318 69.7066 224.926 64.9773L210.649 72.2004C214.423 79.66 219.901 85.3685 227.224 88.6195L233.716 73.9958ZM225.421 66.1962C224.469 63.1591 224.005 61.0886 223.849 59.8157L207.967 61.7526C208.294 64.4303 209.082 67.5629 210.153 70.9816L225.421 66.1962ZM223.908 60.7842C223.908 60.2719 223.993 60.0264 224.031 59.9348C224.065 59.8542 224.132 59.7232 224.348 59.5227C224.861 59.0449 226.266 58.1514 229.478 57.4916L226.258 41.8189C221.497 42.7972 216.922 44.5775 213.448 47.8093C209.72 51.2792 207.908 55.8256 207.908 60.7842H223.908ZM227.868 57.6553H229.35V41.6553H227.868V57.6553Z" fill="black" mask="url(#path-2-outside-2_2811_315)"/>
</g>
<defs>
<linearGradient id="paint0_linear_2811_315" x1="312.192" y1="-0.0578082" x2="131.372" y2="185.614" gradientUnits="userSpaceOnUse">
<stop offset="0.158848" stop-color="#ECDEC4"/>
<stop offset="0.433685" stop-color="#62F4F9"/>
<stop offset="0.768787" stop-color="#F49FDA"/>
</linearGradient>
<linearGradient id="paint1_linear_2811_315" x1="312.192" y1="-0.0578082" x2="131.372" y2="185.614" gradientUnits="userSpaceOnUse">
<stop offset="0.158848" stop-color="#ECDEC4"/>
<stop offset="0.433685" stop-color="#62F4F9"/>
<stop offset="0.768787" stop-color="#F49FDA"/>
</linearGradient>
<linearGradient id="paint2_linear_2811_315" x1="312.192" y1="-0.0578082" x2="131.372" y2="185.614" gradientUnits="userSpaceOnUse">
<stop offset="0.158848" stop-color="#ECDEC4"/>
<stop offset="0.433685" stop-color="#62F4F9"/>
<stop offset="0.768787" stop-color="#F49FDA"/>
</linearGradient>
<linearGradient id="paint3_linear_2811_315" x1="312.192" y1="-0.0578082" x2="131.372" y2="185.614" gradientUnits="userSpaceOnUse">
<stop offset="0.158848" stop-color="#ECDEC4"/>
<stop offset="0.433685" stop-color="#62F4F9"/>
<stop offset="0.768787" stop-color="#F49FDA"/>
</linearGradient>
<linearGradient id="paint4_linear_2811_315" x1="312.192" y1="-0.0578082" x2="131.372" y2="185.614" gradientUnits="userSpaceOnUse">
<stop offset="0.158848" stop-color="#ECDEC4"/>
<stop offset="0.433685" stop-color="#62F4F9"/>
<stop offset="0.768787" stop-color="#F49FDA"/>
</linearGradient>
<linearGradient id="paint5_linear_2811_315" x1="312.192" y1="-0.0578082" x2="131.372" y2="185.614" gradientUnits="userSpaceOnUse">
<stop offset="0.158848" stop-color="#ECDEC4"/>
<stop offset="0.433685" stop-color="#62F4F9"/>
<stop offset="0.768787" stop-color="#F49FDA"/>
</linearGradient>
<linearGradient id="paint6_linear_2811_315" x1="312.192" y1="-0.0578082" x2="131.372" y2="185.614" gradientUnits="userSpaceOnUse">
<stop offset="0.158848" stop-color="#ECDEC4"/>
<stop offset="0.433685" stop-color="#62F4F9"/>
<stop offset="0.768787" stop-color="#F49FDA"/>
</linearGradient>
<linearGradient id="paint7_linear_2811_315" x1="312.192" y1="-0.0578082" x2="131.372" y2="185.614" gradientUnits="userSpaceOnUse">
<stop offset="0.158848" stop-color="#ECDEC4"/>
<stop offset="0.433685" stop-color="#62F4F9"/>
<stop offset="0.768787" stop-color="#F49FDA"/>
</linearGradient>
<linearGradient id="paint8_linear_2811_315" x1="312.192" y1="-0.0578082" x2="131.372" y2="185.614" gradientUnits="userSpaceOnUse">
<stop offset="0.158848" stop-color="#ECDEC4"/>
<stop offset="0.433685" stop-color="#62F4F9"/>
<stop offset="0.768787" stop-color="#F49FDA"/>
</linearGradient>
<linearGradient id="paint9_linear_2811_315" x1="312.192" y1="-0.0578082" x2="131.372" y2="185.614" gradientUnits="userSpaceOnUse">
<stop offset="0.158848" stop-color="#ECDEC4"/>
<stop offset="0.433685" stop-color="#62F4F9"/>
<stop offset="0.768787" stop-color="#F49FDA"/>
</linearGradient>
<linearGradient id="paint10_linear_2811_315" x1="312.192" y1="-0.0578082" x2="131.372" y2="185.614" gradientUnits="userSpaceOnUse">
<stop offset="0.158848" stop-color="#ECDEC4"/>
<stop offset="0.433685" stop-color="#62F4F9"/>
<stop offset="0.768787" stop-color="#F49FDA"/>
</linearGradient>
<linearGradient id="paint11_linear_2811_315" x1="312.192" y1="-0.0578082" x2="131.372" y2="185.614" gradientUnits="userSpaceOnUse">
<stop offset="0.158848" stop-color="#ECDEC4"/>
<stop offset="0.433685" stop-color="#62F4F9"/>
<stop offset="0.768787" stop-color="#F49FDA"/>
</linearGradient>
<linearGradient id="paint12_linear_2811_315" x1="312.192" y1="-0.0578082" x2="131.372" y2="185.614" gradientUnits="userSpaceOnUse">
<stop offset="0.158848" stop-color="#ECDEC4"/>
<stop offset="0.433685" stop-color="#62F4F9"/>
<stop offset="0.768787" stop-color="#F49FDA"/>
</linearGradient>
<linearGradient id="paint13_linear_2811_315" x1="312.192" y1="-0.0578082" x2="131.372" y2="185.614" gradientUnits="userSpaceOnUse">
<stop offset="0.158848" stop-color="#ECDEC4"/>
<stop offset="0.433685" stop-color="#62F4F9"/>
<stop offset="0.768787" stop-color="#F49FDA"/>
</linearGradient>
<linearGradient id="paint14_linear_2811_315" x1="312.192" y1="-0.0578082" x2="131.372" y2="185.614" gradientUnits="userSpaceOnUse">
<stop offset="0.158848" stop-color="#ECDEC4"/>
<stop offset="0.433685" stop-color="#62F4F9"/>
<stop offset="0.768787" stop-color="#F49FDA"/>
</linearGradient>
<clipPath id="clip0_2811_315">
<rect width="312" height="107" fill="white"/>
</clipPath>
</defs>
</svg>
