<svg width="553" height="139" viewBox="0 0 553 139" fill="none" xmlns="http://www.w3.org/2000/svg">
<mask id="path-1-outside-1_2755_253" maskUnits="userSpaceOnUse" x="-0.125" y="0.886719" width="553" height="138" fill="black">
<rect fill="white" x="-0.125" y="0.886719" width="553" height="138"/>
<path d="M95.9688 11.1523L97.1016 13.0781V21.0078C97.1016 27.5026 101.633 55.4076 110.695 104.723V110.613C110.695 112.803 99.4805 116.768 77.0508 122.508C77.0508 114.503 64.8164 94.112 40.3477 61.3359H38.1953C44.0104 89.8073 48.5794 110.198 51.9023 122.508C52.582 123.716 52.9219 124.698 52.9219 125.453C52.2422 125.453 51.9023 125.755 51.9023 126.359L49.75 125.453H47.7109C46.8802 125.453 43.0286 126.095 36.1562 127.379H25.6211C24.2617 127.379 23.582 126.737 23.582 125.453C23.582 106.346 19.013 73.1549 9.875 25.8789C20.4479 22.6315 28.151 21.0078 32.9844 21.0078L42.3867 36.7539C61.2669 53.444 75.276 71.8333 84.4141 91.9219V94.8672H85.5469V91.9219C82.6771 70.776 77.7682 49.1016 70.8203 26.8984L69.6875 21.0078C71.5755 18.2135 80.3359 14.9284 95.9688 11.1523Z"/>
<path d="M143.887 9.90625C172.509 9.90625 192.522 29.3151 203.926 68.1328C205.21 71.4557 205.852 76.2135 205.852 82.4062C205.852 107.102 192.069 121.299 164.504 125H160.766C132.823 125 112.81 105.1 100.727 65.3008V51.1406C106.995 23.651 118.889 9.90625 136.41 9.90625H143.887ZM136.41 56.8047C142.603 83.3125 152.609 96.5664 166.43 96.5664C170.13 93.0924 171.98 89.7695 171.98 86.5977V82.4062C171.98 66.849 163.862 54.5391 147.625 45.4766H143.887C140.111 45.4766 137.618 49.2526 136.41 56.8047Z"/>
<path d="M194.977 8.88672H200.754C234.965 8.88672 257.659 17.4961 268.836 34.7148C271.177 40.0013 272.348 44.306 272.348 47.6289V55.7852C272.348 65.8294 266.495 72.8906 254.789 76.9688C253.958 76.9688 253.543 77.3464 253.543 78.1016C255.28 80.5938 265.475 89.2031 284.129 103.93C274.236 116.391 268.76 122.621 267.703 122.621C265.438 122.092 254.865 111.935 235.984 92.1484V93.2812C237.57 105.44 239.534 116.013 241.875 125C238.93 125 228.357 121.866 210.156 115.598L211.402 107.441V103.93C211.402 85.8802 205.512 57.3333 193.73 18.2891L192.598 10.0195L194.977 8.88672ZM221.938 31.2031V32.3359C225.034 38.7552 228.168 48.9128 231.34 62.8086H235.984C243.839 62.2799 247.766 59.9388 247.766 55.7852C247.766 43.2487 239.156 35.0547 221.938 31.2031Z"/>
<path d="M354.137 9.79297C362.066 43.5508 370.336 74.9674 378.945 104.043C372.526 106.158 366.258 109.141 360.141 112.992C358.932 112.992 357.271 104.723 355.156 88.1836C349.87 70.5117 347.227 58.6172 347.227 52.5H346.207C343.035 67.6797 340.732 82.8594 339.297 98.0391C335.521 98.0391 330.876 99.3607 325.363 102.004L311.43 75.2695C307.805 68.1706 304.18 62.8841 300.555 59.4102V60.4297C304.557 96.8307 308.182 118.316 311.43 124.887C301.688 126.85 293.418 128.172 286.621 128.852C284.658 100.38 281.033 64.319 275.746 20.668C282.77 17.3451 289.378 15.6836 295.57 15.6836C296.93 15.6836 297.911 19.0065 298.516 25.6523C316.414 47.6289 325.363 61.1849 325.363 66.3203H326.383C328.346 50.3854 333.633 31.8828 342.242 10.8125L354.137 9.79297Z"/>
<path d="M396.957 11.4922C425.957 11.4922 444.271 41.9271 451.898 102.797C454.617 110.802 460.092 119.6 468.324 129.191V129.871H463.34C445.29 129.871 436.266 124.169 436.266 112.766H434.793C432.15 121.299 425.73 125.566 415.535 125.566H414.855C403.754 125.566 393.294 118.694 383.477 104.949C378.719 97.5482 376.34 88.9766 376.34 79.2344V76.4023C376.34 64.8477 382.268 56.7669 394.125 52.1602C396.013 51.6315 397.939 51.3672 399.902 51.3672H407.039C409.682 51.3672 413.232 51.8581 417.688 52.8398V51.3672C417.688 40.7943 413.874 34.6393 406.246 32.9023H403.414C402.659 32.9023 401.715 33.8464 400.582 35.7344C400.582 39.1328 401.073 41.7383 402.055 43.5508L377.02 47.1758C375.962 47.1758 375.018 43.362 374.188 35.7344V31.4297C374.188 21.4609 379.889 15.0417 391.293 12.1719C393.936 11.7188 395.824 11.4922 396.957 11.4922ZM396.957 79.2344V81.3867C396.957 88.3346 401.715 95.4714 411.23 102.797C412.816 103.703 414.251 104.156 415.535 104.156H417.688C422.974 104.156 426.297 99.1719 427.656 89.2031C427.656 84.7474 425.277 78.1016 420.52 69.2656C417.272 68.2839 414.44 67.793 412.023 67.793H409.078C400.997 68.8503 396.957 72.6641 396.957 79.2344Z"/>
<path d="M458.016 10.8125C478.104 13.9089 488.148 16.401 488.148 18.2891V24.6328C489.583 62.2422 494.19 81.0469 501.969 81.0469C521.982 81.0469 531.988 83.9922 531.988 89.8828C531.988 91.0156 534.518 96.8685 539.578 107.441H509.445C486.034 107.441 474.328 104.081 474.328 97.3594C474.328 93.3568 468.891 71.1914 458.016 30.8633V10.8125Z"/>
</mask>
<path d="M95.9688 11.1523L97.1016 13.0781V21.0078C97.1016 27.5026 101.633 55.4076 110.695 104.723V110.613C110.695 112.803 99.4805 116.768 77.0508 122.508C77.0508 114.503 64.8164 94.112 40.3477 61.3359H38.1953C44.0104 89.8073 48.5794 110.198 51.9023 122.508C52.582 123.716 52.9219 124.698 52.9219 125.453C52.2422 125.453 51.9023 125.755 51.9023 126.359L49.75 125.453H47.7109C46.8802 125.453 43.0286 126.095 36.1562 127.379H25.6211C24.2617 127.379 23.582 126.737 23.582 125.453C23.582 106.346 19.013 73.1549 9.875 25.8789C20.4479 22.6315 28.151 21.0078 32.9844 21.0078L42.3867 36.7539C61.2669 53.444 75.276 71.8333 84.4141 91.9219V94.8672H85.5469V91.9219C82.6771 70.776 77.7682 49.1016 70.8203 26.8984L69.6875 21.0078C71.5755 18.2135 80.3359 14.9284 95.9688 11.1523Z" fill="url(#paint0_linear_2755_253)"/>
<path d="M143.887 9.90625C172.509 9.90625 192.522 29.3151 203.926 68.1328C205.21 71.4557 205.852 76.2135 205.852 82.4062C205.852 107.102 192.069 121.299 164.504 125H160.766C132.823 125 112.81 105.1 100.727 65.3008V51.1406C106.995 23.651 118.889 9.90625 136.41 9.90625H143.887ZM136.41 56.8047C142.603 83.3125 152.609 96.5664 166.43 96.5664C170.13 93.0924 171.98 89.7695 171.98 86.5977V82.4062C171.98 66.849 163.862 54.5391 147.625 45.4766H143.887C140.111 45.4766 137.618 49.2526 136.41 56.8047Z" fill="url(#paint1_linear_2755_253)"/>
<path d="M194.977 8.88672H200.754C234.965 8.88672 257.659 17.4961 268.836 34.7148C271.177 40.0013 272.348 44.306 272.348 47.6289V55.7852C272.348 65.8294 266.495 72.8906 254.789 76.9688C253.958 76.9688 253.543 77.3464 253.543 78.1016C255.28 80.5938 265.475 89.2031 284.129 103.93C274.236 116.391 268.76 122.621 267.703 122.621C265.438 122.092 254.865 111.935 235.984 92.1484V93.2812C237.57 105.44 239.534 116.013 241.875 125C238.93 125 228.357 121.866 210.156 115.598L211.402 107.441V103.93C211.402 85.8802 205.512 57.3333 193.73 18.2891L192.598 10.0195L194.977 8.88672ZM221.938 31.2031V32.3359C225.034 38.7552 228.168 48.9128 231.34 62.8086H235.984C243.839 62.2799 247.766 59.9388 247.766 55.7852C247.766 43.2487 239.156 35.0547 221.938 31.2031Z" fill="url(#paint2_linear_2755_253)"/>
<path d="M354.137 9.79297C362.066 43.5508 370.336 74.9674 378.945 104.043C372.526 106.158 366.258 109.141 360.141 112.992C358.932 112.992 357.271 104.723 355.156 88.1836C349.87 70.5117 347.227 58.6172 347.227 52.5H346.207C343.035 67.6797 340.732 82.8594 339.297 98.0391C335.521 98.0391 330.876 99.3607 325.363 102.004L311.43 75.2695C307.805 68.1706 304.18 62.8841 300.555 59.4102V60.4297C304.557 96.8307 308.182 118.316 311.43 124.887C301.688 126.85 293.418 128.172 286.621 128.852C284.658 100.38 281.033 64.319 275.746 20.668C282.77 17.3451 289.378 15.6836 295.57 15.6836C296.93 15.6836 297.911 19.0065 298.516 25.6523C316.414 47.6289 325.363 61.1849 325.363 66.3203H326.383C328.346 50.3854 333.633 31.8828 342.242 10.8125L354.137 9.79297Z" fill="url(#paint3_linear_2755_253)"/>
<path d="M396.957 11.4922C425.957 11.4922 444.271 41.9271 451.898 102.797C454.617 110.802 460.092 119.6 468.324 129.191V129.871H463.34C445.29 129.871 436.266 124.169 436.266 112.766H434.793C432.15 121.299 425.73 125.566 415.535 125.566H414.855C403.754 125.566 393.294 118.694 383.477 104.949C378.719 97.5482 376.34 88.9766 376.34 79.2344V76.4023C376.34 64.8477 382.268 56.7669 394.125 52.1602C396.013 51.6315 397.939 51.3672 399.902 51.3672H407.039C409.682 51.3672 413.232 51.8581 417.688 52.8398V51.3672C417.688 40.7943 413.874 34.6393 406.246 32.9023H403.414C402.659 32.9023 401.715 33.8464 400.582 35.7344C400.582 39.1328 401.073 41.7383 402.055 43.5508L377.02 47.1758C375.962 47.1758 375.018 43.362 374.188 35.7344V31.4297C374.188 21.4609 379.889 15.0417 391.293 12.1719C393.936 11.7188 395.824 11.4922 396.957 11.4922ZM396.957 79.2344V81.3867C396.957 88.3346 401.715 95.4714 411.23 102.797C412.816 103.703 414.251 104.156 415.535 104.156H417.688C422.974 104.156 426.297 99.1719 427.656 89.2031C427.656 84.7474 425.277 78.1016 420.52 69.2656C417.272 68.2839 414.44 67.793 412.023 67.793H409.078C400.997 68.8503 396.957 72.6641 396.957 79.2344Z" fill="url(#paint4_linear_2755_253)"/>
<path d="M458.016 10.8125C478.104 13.9089 488.148 16.401 488.148 18.2891V24.6328C489.583 62.2422 494.19 81.0469 501.969 81.0469C521.982 81.0469 531.988 83.9922 531.988 89.8828C531.988 91.0156 534.518 96.8685 539.578 107.441H509.445C486.034 107.441 474.328 104.081 474.328 97.3594C474.328 93.3568 468.891 71.1914 458.016 30.8633V10.8125Z" fill="url(#paint5_linear_2755_253)"/>
<path d="M95.9688 11.1523L97.1016 13.0781V21.0078C97.1016 27.5026 101.633 55.4076 110.695 104.723V110.613C110.695 112.803 99.4805 116.768 77.0508 122.508C77.0508 114.503 64.8164 94.112 40.3477 61.3359H38.1953C44.0104 89.8073 48.5794 110.198 51.9023 122.508C52.582 123.716 52.9219 124.698 52.9219 125.453C52.2422 125.453 51.9023 125.755 51.9023 126.359L49.75 125.453H47.7109C46.8802 125.453 43.0286 126.095 36.1562 127.379H25.6211C24.2617 127.379 23.582 126.737 23.582 125.453C23.582 106.346 19.013 73.1549 9.875 25.8789C20.4479 22.6315 28.151 21.0078 32.9844 21.0078L42.3867 36.7539C61.2669 53.444 75.276 71.8333 84.4141 91.9219V94.8672H85.5469V91.9219C82.6771 70.776 77.7682 49.1016 70.8203 26.8984L69.6875 21.0078C71.5755 18.2135 80.3359 14.9284 95.9688 11.1523Z" stroke="black" stroke-width="16" mask="url(#path-1-outside-1_2755_253)"/>
<path d="M143.887 9.90625C172.509 9.90625 192.522 29.3151 203.926 68.1328C205.21 71.4557 205.852 76.2135 205.852 82.4062C205.852 107.102 192.069 121.299 164.504 125H160.766C132.823 125 112.81 105.1 100.727 65.3008V51.1406C106.995 23.651 118.889 9.90625 136.41 9.90625H143.887ZM136.41 56.8047C142.603 83.3125 152.609 96.5664 166.43 96.5664C170.13 93.0924 171.98 89.7695 171.98 86.5977V82.4062C171.98 66.849 163.862 54.5391 147.625 45.4766H143.887C140.111 45.4766 137.618 49.2526 136.41 56.8047Z" stroke="black" stroke-width="16" mask="url(#path-1-outside-1_2755_253)"/>
<path d="M194.977 8.88672H200.754C234.965 8.88672 257.659 17.4961 268.836 34.7148C271.177 40.0013 272.348 44.306 272.348 47.6289V55.7852C272.348 65.8294 266.495 72.8906 254.789 76.9688C253.958 76.9688 253.543 77.3464 253.543 78.1016C255.28 80.5938 265.475 89.2031 284.129 103.93C274.236 116.391 268.76 122.621 267.703 122.621C265.438 122.092 254.865 111.935 235.984 92.1484V93.2812C237.57 105.44 239.534 116.013 241.875 125C238.93 125 228.357 121.866 210.156 115.598L211.402 107.441V103.93C211.402 85.8802 205.512 57.3333 193.73 18.2891L192.598 10.0195L194.977 8.88672ZM221.938 31.2031V32.3359C225.034 38.7552 228.168 48.9128 231.34 62.8086H235.984C243.839 62.2799 247.766 59.9388 247.766 55.7852C247.766 43.2487 239.156 35.0547 221.938 31.2031Z" stroke="black" stroke-width="16" mask="url(#path-1-outside-1_2755_253)"/>
<path d="M354.137 9.79297C362.066 43.5508 370.336 74.9674 378.945 104.043C372.526 106.158 366.258 109.141 360.141 112.992C358.932 112.992 357.271 104.723 355.156 88.1836C349.87 70.5117 347.227 58.6172 347.227 52.5H346.207C343.035 67.6797 340.732 82.8594 339.297 98.0391C335.521 98.0391 330.876 99.3607 325.363 102.004L311.43 75.2695C307.805 68.1706 304.18 62.8841 300.555 59.4102V60.4297C304.557 96.8307 308.182 118.316 311.43 124.887C301.688 126.85 293.418 128.172 286.621 128.852C284.658 100.38 281.033 64.319 275.746 20.668C282.77 17.3451 289.378 15.6836 295.57 15.6836C296.93 15.6836 297.911 19.0065 298.516 25.6523C316.414 47.6289 325.363 61.1849 325.363 66.3203H326.383C328.346 50.3854 333.633 31.8828 342.242 10.8125L354.137 9.79297Z" stroke="black" stroke-width="16" mask="url(#path-1-outside-1_2755_253)"/>
<path d="M396.957 11.4922C425.957 11.4922 444.271 41.9271 451.898 102.797C454.617 110.802 460.092 119.6 468.324 129.191V129.871H463.34C445.29 129.871 436.266 124.169 436.266 112.766H434.793C432.15 121.299 425.73 125.566 415.535 125.566H414.855C403.754 125.566 393.294 118.694 383.477 104.949C378.719 97.5482 376.34 88.9766 376.34 79.2344V76.4023C376.34 64.8477 382.268 56.7669 394.125 52.1602C396.013 51.6315 397.939 51.3672 399.902 51.3672H407.039C409.682 51.3672 413.232 51.8581 417.688 52.8398V51.3672C417.688 40.7943 413.874 34.6393 406.246 32.9023H403.414C402.659 32.9023 401.715 33.8464 400.582 35.7344C400.582 39.1328 401.073 41.7383 402.055 43.5508L377.02 47.1758C375.962 47.1758 375.018 43.362 374.188 35.7344V31.4297C374.188 21.4609 379.889 15.0417 391.293 12.1719C393.936 11.7188 395.824 11.4922 396.957 11.4922ZM396.957 79.2344V81.3867C396.957 88.3346 401.715 95.4714 411.23 102.797C412.816 103.703 414.251 104.156 415.535 104.156H417.688C422.974 104.156 426.297 99.1719 427.656 89.2031C427.656 84.7474 425.277 78.1016 420.52 69.2656C417.272 68.2839 414.44 67.793 412.023 67.793H409.078C400.997 68.8503 396.957 72.6641 396.957 79.2344Z" stroke="black" stroke-width="16" mask="url(#path-1-outside-1_2755_253)"/>
<path d="M458.016 10.8125C478.104 13.9089 488.148 16.401 488.148 18.2891V24.6328C489.583 62.2422 494.19 81.0469 501.969 81.0469C521.982 81.0469 531.988 83.9922 531.988 89.8828C531.988 91.0156 534.518 96.8685 539.578 107.441H509.445C486.034 107.441 474.328 104.081 474.328 97.3594C474.328 93.3568 468.891 71.1914 458.016 30.8633V10.8125Z" stroke="black" stroke-width="16" mask="url(#path-1-outside-1_2755_253)"/>
<defs>
<linearGradient id="paint0_linear_2755_253" x1="391.924" y1="56.7151" x2="160.885" y2="82.6235" gradientUnits="userSpaceOnUse">
<stop stop-color="#00FFFC"/>
<stop offset="0.616807" stop-color="#FE75FF"/>
<stop offset="1" stop-color="#FFB800"/>
</linearGradient>
<linearGradient id="paint1_linear_2755_253" x1="391.924" y1="56.7151" x2="160.885" y2="82.6235" gradientUnits="userSpaceOnUse">
<stop stop-color="#00FFFC"/>
<stop offset="0.616807" stop-color="#FE75FF"/>
<stop offset="1" stop-color="#FFB800"/>
</linearGradient>
<linearGradient id="paint2_linear_2755_253" x1="391.924" y1="56.7151" x2="160.885" y2="82.6235" gradientUnits="userSpaceOnUse">
<stop stop-color="#00FFFC"/>
<stop offset="0.616807" stop-color="#FE75FF"/>
<stop offset="1" stop-color="#FFB800"/>
</linearGradient>
<linearGradient id="paint3_linear_2755_253" x1="391.924" y1="56.7151" x2="160.885" y2="82.6235" gradientUnits="userSpaceOnUse">
<stop stop-color="#00FFFC"/>
<stop offset="0.616807" stop-color="#FE75FF"/>
<stop offset="1" stop-color="#FFB800"/>
</linearGradient>
<linearGradient id="paint4_linear_2755_253" x1="391.924" y1="56.7151" x2="160.885" y2="82.6235" gradientUnits="userSpaceOnUse">
<stop stop-color="#00FFFC"/>
<stop offset="0.616807" stop-color="#FE75FF"/>
<stop offset="1" stop-color="#FFB800"/>
</linearGradient>
<linearGradient id="paint5_linear_2755_253" x1="391.924" y1="56.7151" x2="160.885" y2="82.6235" gradientUnits="userSpaceOnUse">
<stop stop-color="#00FFFC"/>
<stop offset="0.616807" stop-color="#FE75FF"/>
<stop offset="1" stop-color="#FFB800"/>
</linearGradient>
</defs>
</svg>
