<svg width="888" height="104" viewBox="0 0 888 104" fill="none" xmlns="http://www.w3.org/2000/svg">
<path d="M435.041 4.89626C436.584 4.89992 437.529 4.93281 437.878 4.99495C440.449 7.42924 442.66 9.86352 444.512 12.296C446.363 14.7284 448.728 18.2775 451.603 22.9433C454.479 27.609 459.795 36.4196 467.548 49.3768C469.107 52.0999 470.32 54.3569 471.183 56.1461C472.047 57.9371 472.647 59.2383 472.983 60.0533C473.535 60.3311 474.675 60.8392 476.408 61.5793C478.138 62.3177 480.061 63.056 482.174 63.7907C481.494 64.4614 480.889 65.0553 480.355 65.5725C479.823 66.0897 479.389 66.5704 479.049 67.0126C478.711 67.4567 478.497 67.9228 478.411 68.4107C478.325 68.8987 478.369 69.3208 478.546 69.6754C478.943 70.8249 479.908 73.0655 481.439 76.3934C482.971 79.7232 484.06 82.4426 484.707 84.5534C485.354 86.6642 485.505 88.68 485.165 90.5971C485.017 91.4341 484.719 92.0372 484.274 92.4082C483.828 92.7792 482.886 93.3951 481.452 94.254C480.017 95.1148 479.058 95.897 478.572 96.6024C477.064 95.398 475.479 93.5449 473.822 91.0375C472.164 88.5301 470.545 85.6353 468.966 82.353C467.385 79.0689 466.148 76.3496 465.249 74.1931C464.35 72.0366 463.582 70.039 462.948 68.2005C459.722 67.1972 456.33 65.8759 452.778 64.2366C449.223 62.5991 445.95 61.2979 442.957 60.3348C443.444 64.8104 443.748 68.2261 443.87 70.5855C443.993 72.9448 443.887 75.0666 443.552 76.949C443.008 80.0174 441.546 83.1754 439.166 86.4212C439.133 86.3809 437.494 85.7998 434.246 84.685C431.001 83.5684 429.047 82.9525 428.387 82.8355L427.751 3.84542C427.801 3.56764 428.099 3.47443 428.641 3.57129C429.186 3.66815 429.988 3.9368 431.052 4.37724C432.116 4.81768 432.667 5.04246 432.706 5.04795C432.724 4.94378 433.504 4.89261 435.045 4.89626H435.041ZM442.947 48.5179L457.03 53.1233L440.365 20.7612L442.947 48.5197V48.5179Z" fill="url(#paint0_linear_699_1193)"/>
<path d="M478.755 97.8528L478.032 97.2753C476.458 96.0197 474.799 94.0807 473.101 91.513C471.429 88.9837 469.775 86.0267 468.187 82.7262C466.613 79.4549 465.356 76.6953 464.449 74.5242C463.614 72.5194 462.881 70.6278 462.273 68.8917C459.144 67.8957 455.831 66.5945 452.413 65.0191C449.398 63.6302 446.559 62.4752 443.953 61.5779C444.357 65.4011 444.617 68.4129 444.726 70.542C444.851 72.9561 444.739 75.1638 444.396 77.101C443.829 80.2864 442.303 83.5943 439.856 86.9332L439.185 87.8488L438.621 87.1324C438.262 86.9971 437.182 86.6097 433.962 85.504C429.989 84.1389 428.653 83.7624 428.231 83.6875L427.526 83.5614L426.884 3.77452L426.899 3.69593C426.937 3.48394 427.204 2.44224 428.788 2.72368C429.397 2.8315 430.243 3.11295 431.378 3.5808C432.105 3.88234 432.5 4.04317 432.716 4.13089C433.218 4.0322 433.966 4.03403 435.044 4.03585C437.162 4.04134 437.751 4.09982 438.028 4.14916L438.283 4.19485L438.471 4.37212C441.066 6.82834 443.328 9.31928 445.198 11.7773C447.06 14.2244 449.462 17.8301 452.338 22.494C455.187 27.1122 460.553 36.0105 468.289 48.9386C469.864 51.689 471.096 53.9844 471.961 55.7754C472.728 57.3654 473.296 58.5898 473.653 59.425C474.254 59.7119 475.292 60.1688 476.747 60.7902C478.463 61.523 480.384 62.2595 482.458 62.9796L483.768 63.4346L482.781 64.4087C482.058 65.1233 481.462 65.7063 480.957 66.1961C480.46 66.6804 480.047 67.1336 479.735 67.5411C479.479 67.8756 479.324 68.2118 479.262 68.5646C479.207 68.8679 479.227 69.1073 479.32 69.2937L479.364 69.3979C479.75 70.5164 480.713 72.7496 482.224 76.0374C483.765 79.3836 484.878 82.1651 485.532 84.3052C486.215 86.5384 486.378 88.7077 486.016 90.7527C485.832 91.7908 485.431 92.573 484.826 93.0755C484.34 93.4794 483.381 94.1081 481.897 94.9981C480.25 95.9868 479.567 96.685 479.283 97.0961L478.759 97.8582L478.755 97.8528ZM441.95 59.1052L443.217 59.5127C446.223 60.4795 449.56 61.8063 453.135 63.4529C456.637 65.0666 460.023 66.3879 463.201 67.3766L463.618 67.5064L463.76 67.9194C464.385 69.7305 465.153 71.7299 466.041 73.8608C466.935 76.0045 468.179 78.7348 469.74 81.9787C471.295 85.2098 472.909 88.0973 474.539 90.5627C475.906 92.6278 477.226 94.2452 478.474 95.3856C479.068 94.7916 479.905 94.1739 481.005 93.5142C482.734 92.4779 483.436 91.9809 483.719 91.7451C484.002 91.5093 484.201 91.0726 484.313 90.4475C484.627 88.6748 484.481 86.7778 483.878 84.8077C483.246 82.7408 482.16 80.0324 480.652 76.7556C479.115 73.4149 478.163 71.2072 477.745 70.0065C477.505 69.4966 477.443 68.91 477.558 68.2612C477.668 67.6398 477.938 67.044 478.361 66.4921C478.726 66.017 479.194 65.4998 479.751 64.957C480.004 64.7121 480.279 64.4434 480.583 64.1456C478.967 63.5607 477.452 62.9668 476.067 62.3765C474.294 61.6199 473.158 61.1137 472.593 60.8286L472.306 60.6842L472.183 60.3881C471.855 59.5913 471.257 58.2919 470.403 56.5265C469.557 54.7721 468.344 52.5114 466.798 49.8121C459.074 36.9042 453.712 28.0132 450.867 23.4023C448.021 18.7859 445.651 15.2277 443.824 12.8245C442.06 10.5054 439.929 8.15148 437.489 5.82319C437.159 5.79578 436.47 5.76836 435.037 5.76471C434.231 5.76288 433.741 5.7775 433.445 5.79212L433.399 6.05346L432.549 5.90178C432.429 5.87984 432.398 5.87436 430.716 5.17807C429.799 4.79794 429.094 4.55488 428.615 4.45071L429.24 82.1578C430.015 82.3698 431.491 82.8304 434.523 83.8739C436.877 84.6835 438.145 85.1184 438.851 85.3798C440.914 82.4429 442.208 79.5591 442.698 76.8031C443.02 74.9939 443.122 72.9196 443.005 70.6352C442.884 68.2977 442.577 64.8638 442.095 60.4338L441.95 59.1125V59.1052ZM458.758 54.5948L442.14 49.1615L439.094 16.4065L458.758 54.5948ZM443.754 47.8731L455.302 51.6488L441.638 25.1129L443.756 47.8731H443.754Z" fill="url(#paint1_linear_699_1193)"/>
<path d="M513.911 24.8485C529.621 24.8485 540.606 35.5013 546.865 56.8068C547.569 58.6306 547.922 61.2422 547.922 64.6414C547.922 78.1963 540.358 85.989 525.227 88.0194H523.175C507.838 88.0194 496.853 77.098 490.221 55.2515V47.479C493.662 32.3908 500.188 24.8467 509.806 24.8467H513.909L513.911 24.8485ZM509.808 50.5895C513.208 65.1385 518.699 72.414 526.285 72.414C528.316 70.5078 529.332 68.684 529.332 66.9423V64.6414C529.332 56.1031 524.875 49.3467 515.964 44.3722H513.911C511.839 44.3722 510.47 46.4446 509.808 50.5895Z" fill="url(#paint2_linear_699_1193)"/>
<path d="M575.924 26.3394C590.183 26.3394 600.008 34.651 605.397 51.2725C605.976 53.6776 606.267 56.2051 606.267 58.8587C606.267 67.1082 603.303 73.5119 597.376 78.0716C589.127 85.782 577.832 89.6363 563.49 89.6363C560.794 89.6363 559.447 88.7445 559.447 86.9626C559.447 85.1808 556.483 73.1811 550.556 50.8376C549.063 44.9108 547.718 38.0704 546.514 30.3197C546.804 30.3197 546.949 30.1754 546.949 29.8848L549.187 30.3197H554.1L570.142 26.7761C571.593 26.4874 573.519 26.3412 575.924 26.3412V26.3394ZM567.903 41.4477C567.903 45.3019 569.831 54.6718 573.686 69.5516H577.291C581.27 69.5516 584.98 65.8435 588.421 58.4219C588.421 58.2154 588.565 57.3235 588.856 55.7482C587.032 49.8635 584.214 45.8411 580.4 43.6864C577.125 42.1933 574.742 41.4477 573.249 41.4477H567.901H567.903Z" fill="url(#paint3_linear_699_1193)"/>
<path d="M634.682 26.3394C648.941 26.3394 658.766 34.651 664.155 51.2725C664.734 53.6776 665.025 56.2051 665.025 58.8587C665.025 67.1082 662.061 73.5119 656.134 78.0716C647.884 85.782 636.59 89.6363 622.247 89.6363C619.552 89.6363 618.205 88.7445 618.205 86.9626C618.205 85.1808 615.241 73.1811 609.314 50.8376C607.821 44.9108 606.476 38.0704 605.271 30.3197C605.562 30.3197 605.706 30.1754 605.706 29.8848L607.945 30.3197H612.858L628.9 26.7761C630.351 26.4874 632.277 26.3412 634.682 26.3412V26.3394ZM626.661 41.4477C626.661 45.3019 628.589 54.6718 632.443 69.5516H636.049C640.028 69.5516 643.738 65.8435 647.179 58.4219C647.179 58.2154 647.323 57.3235 647.614 55.7482C645.79 49.8635 642.972 45.8411 639.158 43.6864C635.883 42.1933 633.5 41.4477 632.007 41.4477H626.659H626.661Z" fill="url(#paint4_linear_699_1193)"/>
<path d="M668.132 43.003C673.604 43.957 678.039 44.4339 681.439 44.4339V44.8068C681.439 45.3039 681.19 47.5645 680.693 51.5833C680.693 52.9101 682.497 55.9146 686.103 60.5986C687.554 63.8735 688.279 69.0144 688.279 76.0194C689.233 78.9635 690.911 83.0444 693.316 88.2676C691.035 87.7705 689.231 87.5219 687.906 87.5219H683.928C680.943 88.019 678.787 88.2676 677.462 88.2676C674.85 79.647 673.546 74.2576 673.546 72.1011C673.752 67.9142 673.856 65.2826 673.856 64.2043C673.856 60.266 671.597 56.3075 667.08 52.3289C666.583 51.3347 666.334 50.6092 666.334 50.1523C666.749 46.1317 667.35 43.7486 668.138 43.0012L668.132 43.003ZM672.423 24.2871C675.698 24.2871 678.102 27.52 679.637 33.9859V36.5353C679.637 38.6918 678.683 40.3494 676.777 41.5099H675.346C670.537 40.0168 668.132 36.1844 668.132 30.0073C668.132 26.1932 669.563 24.2871 672.423 24.2871Z" fill="url(#paint5_linear_699_1193)"/>
<path d="M736.216 25.5322L736.837 26.5885V30.9418C736.837 34.5073 739.325 49.8221 744.299 76.8898V80.1228C744.299 81.3253 738.144 83.5019 725.832 86.6507C725.832 82.2573 719.117 71.0655 705.687 53.0751H704.506C707.697 68.7024 710.204 79.8943 712.03 86.6507C712.403 87.3141 712.589 87.8533 712.589 88.2681C712.217 88.2681 712.03 88.4326 712.03 88.7652L710.848 88.2681H709.729C709.272 88.2681 707.158 88.619 703.388 89.3244H697.605C696.86 89.3244 696.487 88.9717 696.487 88.2681C696.487 77.7817 693.978 59.5647 688.963 33.6154C694.765 31.8336 698.994 30.9418 701.648 30.9418L706.809 39.5842C717.171 48.7457 724.859 58.8392 729.876 69.8648V71.4821H730.497V69.8648C728.922 58.2599 726.228 46.3626 722.414 34.1747L721.793 30.9418C722.829 29.4084 727.637 27.6047 736.218 25.5322H736.216Z" fill="url(#paint6_linear_699_1193)"/>
<path d="M758.102 25.7178C774.02 25.7178 784.07 42.4234 788.258 75.8327C789.751 80.2261 792.756 85.0563 797.274 90.3196V90.6924H794.538C784.631 90.6924 779.678 87.5637 779.678 81.3043H778.87C777.419 85.9883 773.896 88.3312 768.3 88.3312H767.927C761.834 88.3312 756.092 84.5592 750.704 77.0151C748.093 72.9525 746.788 68.2484 746.788 62.901V61.3476C746.788 55.006 750.041 50.5705 756.549 48.0412C757.585 47.7525 758.641 47.6063 759.719 47.6063H763.636C765.087 47.6063 767.035 47.8767 769.48 48.414V47.6063C769.48 41.8038 767.388 38.4265 763.201 37.4725H761.648C761.233 37.4725 760.716 37.9916 760.092 39.0259C760.092 40.8919 760.361 42.321 760.9 43.317L747.159 45.3072C746.578 45.3072 746.06 43.2147 745.604 39.0278V36.6648C745.604 31.1931 748.732 27.6696 754.993 26.0942C756.444 25.8457 757.481 25.7214 758.102 25.7214V25.7178ZM758.102 62.8991V64.0816C758.102 67.8956 760.714 71.8121 765.937 75.8327C766.807 76.3298 767.594 76.5783 768.3 76.5783H769.48C772.381 76.5783 774.206 73.8425 774.952 68.3708C774.952 65.9256 773.647 62.2778 771.036 57.4275C769.254 56.8884 767.699 56.6197 766.372 56.6197H764.754C760.319 57.2009 758.102 59.2934 758.102 62.8991Z" fill="url(#paint7_linear_699_1193)"/>
<path d="M789.442 24.2871H792.612C811.391 24.2871 823.845 29.0131 829.98 38.4634C831.265 41.3655 831.908 43.7285 831.908 45.5524V50.0299C831.908 55.5436 828.695 59.418 822.272 61.6567C821.815 61.6567 821.588 61.865 821.588 62.2781C822.542 63.6451 828.138 68.3711 838.376 76.4543C832.945 83.293 829.94 86.7141 829.361 86.7141C828.118 86.4254 822.314 80.8496 811.952 69.9885V70.6098C812.822 77.284 813.9 83.0865 815.185 88.019C813.567 88.019 807.765 86.2993 797.775 82.858L798.459 78.3806V76.4525C798.459 66.5454 795.226 50.8779 788.76 29.4463L788.139 24.9085L789.445 24.2871H789.442ZM804.239 36.5371V37.1585C805.939 40.682 807.659 46.2578 809.4 53.8842H811.95C816.261 53.5954 818.416 52.3088 818.416 50.0299C818.416 43.1492 813.69 38.6516 804.239 36.5371Z" fill="url(#paint8_linear_699_1193)"/>
<path d="M886.69 28.1436C886.69 28.6004 886.917 28.8271 887.374 28.8271C883.808 57.8009 880.679 75.19 877.985 80.9943C872.514 95.9582 868.389 103.627 865.613 103.999C862.338 101.843 858.235 98.6721 853.303 94.487V93.8656C857.281 89.5965 860.66 82.1347 863.438 71.4819C863.935 71.4819 864.184 71.2553 864.184 70.7984C846.278 61.3482 837.323 52.5394 837.323 44.374C835.375 41.4316 834.4 39.1728 834.4 37.5974V36.9761H835.146C837.966 36.9761 842.794 36.521 849.633 35.6091C853.321 44.6042 858.897 51.5891 866.359 56.5637H867.042C869.654 39.8599 871.602 31.5062 872.887 31.5062C880.431 30.1794 885.032 29.061 886.69 28.149V28.1436Z" fill="url(#paint9_linear_699_1193)"/>
<path d="M77.2942 27.7677L75.05 45.9517L60.8829 44.1772L59.3167 50.4438L70.7717 51.9589L68.5275 70.0314L54.5943 68.3263L48.8595 87.2304L31.4302 84.9826L36.8434 66.0364L31.1195 65.3365L25.4925 84.3082L8.0486 82.1608L13.5842 63.1873L0.626953 61.7179L2.77432 43.406L18.504 45.5277L20.1908 39.2191L7.26276 37.6328L9.50698 19.4487L24.8053 21.3256L30.9861 0L48.2911 2.14371L42.1981 23.5735L47.9841 24.1729L54.1301 2.92407L71.8993 5.06046L65.5979 26.4482L77.296 27.7713L77.2942 27.7677ZM43.3366 42.0609L37.5068 41.3445L35.84 47.4558L41.6663 48.2837L43.3366 42.0627V42.0609Z" fill="url(#paint10_linear_699_1193)"/>
<path d="M85.2115 6.94775C91.7614 8.55782 95.0363 12.3098 95.0363 18.1999C95.0363 22.8474 91.999 25.8117 85.9242 27.0928C78.8991 25.7751 75.3848 22.5367 75.3848 17.3775V16.6081C75.3848 11.4124 78.6597 8.19231 85.2096 6.94775H85.2115ZM78.1864 30.2763C81.6989 32.4365 87.0792 34.869 94.3236 37.5774C96.1895 43.7252 97.1234 49.3614 97.1234 54.484C97.1234 57.2655 96.6647 64.254 95.7509 75.4514C95.7509 81.453 97.1599 86.2832 99.978 89.942C99.5029 89.942 99.2653 90.2161 99.2653 90.7662L83.1281 84.3442C81.7008 81.3434 80.988 78.3809 80.988 75.4514C81.4632 58.2524 81.7008 48.3179 81.7008 45.646C81.7008 42.3162 80.2917 37.1936 77.4736 30.2763H78.1864Z" fill="url(#paint11_linear_699_1193)"/>
<path d="M118.499 30.6597C132.551 30.6597 141.424 45.4079 145.121 74.9008C146.439 78.7807 149.091 83.0425 153.08 87.69V88.0189H150.664C141.918 88.0189 137.546 85.2557 137.546 79.731H136.833C135.552 83.8668 132.442 85.9337 127.502 85.9337H127.173C121.794 85.9337 116.725 82.6039 111.968 75.9444C109.663 72.3587 108.51 68.2047 108.51 63.4842V62.1117C108.51 56.5121 111.383 52.5975 117.127 50.3661C118.041 50.1102 118.975 49.9823 119.927 49.9823H123.384C124.666 49.9823 126.385 50.2217 128.544 50.695V49.9823C128.544 44.8597 126.696 41.8771 122.999 41.0346H121.626C121.261 41.0346 120.802 41.4933 120.254 42.4071C120.254 44.0537 120.491 45.3166 120.967 46.1938L108.835 47.9501C108.322 47.9501 107.865 46.1024 107.463 42.4071V40.3219C107.463 35.4917 110.226 32.3812 115.751 30.9905C117.032 30.7711 117.946 30.6615 118.496 30.6615L118.499 30.6597ZM118.499 63.4842V64.5277C118.499 67.894 120.804 71.3536 125.415 74.9026C126.182 75.3413 126.879 75.5606 127.5 75.5606H128.544C131.104 75.5606 132.716 73.1464 133.374 68.3144C133.374 66.156 132.221 62.9359 129.916 58.654C128.343 58.1788 126.97 57.9412 125.799 57.9412H124.371C120.455 58.4548 118.498 60.3024 118.498 63.486L118.499 63.4842Z" fill="url(#paint12_linear_699_1193)"/>
<path d="M188.894 29.8354C192.735 46.192 196.743 61.4154 200.915 75.5039C197.805 76.5292 194.768 77.9748 191.803 79.8407C191.217 79.8407 190.413 75.8347 189.387 67.8191C186.825 59.2571 185.546 53.493 185.546 50.5287H185.052C183.515 57.8846 182.399 65.2386 181.704 72.5945C179.875 72.5945 177.623 73.2359 174.953 74.5152L168.202 61.5616C166.446 58.1222 164.69 55.5599 162.934 53.8768V54.3702C164.873 72.0097 166.629 82.4194 168.202 85.6029C163.482 86.5533 159.474 87.1947 156.181 87.5237C155.229 73.7276 153.473 56.2562 150.912 35.1043C154.315 33.4942 157.517 32.6901 160.518 32.6901C161.176 32.6901 161.651 34.3001 161.945 37.5203C170.617 48.1694 174.953 54.7376 174.953 57.2267H175.447C176.397 49.5053 178.959 40.5394 183.132 30.3307L188.896 29.8373L188.894 29.8354Z" fill="url(#paint13_linear_699_1193)"/>
<path d="M200.664 1.84131L218.722 6.56185V14.3563C218.722 32.3247 222.894 47.4732 231.237 59.8055C231.895 60.3537 234.238 61.6531 238.262 63.7036C242.434 61.728 244.519 59.1293 244.519 55.9091V41.0348C244.519 34.9235 242.434 23.4337 238.262 6.56368L239.854 5.73946C243.512 5.73946 249.258 5.4836 257.089 4.97006C259.686 15.8385 260.986 28.1159 260.986 41.8005V59.0361C260.986 76.7833 254.198 85.6579 240.621 85.6579C227.044 85.6579 216.377 79.1262 209.279 66.063C203.021 45.0225 199.893 24.1465 199.893 3.4331L200.662 1.84131H200.664Z" fill="url(#paint14_linear_699_1193)"/>
<path d="M264.279 5.95898C276.246 7.89984 282.228 9.74565 282.228 11.5019V17.0467C283.326 50.2367 286.637 66.8326 292.162 66.8326C306.543 66.8326 313.734 69.4131 313.734 74.5723C313.734 75.8899 314.922 79.5852 317.302 85.66H301.11C284.349 85.66 275.97 82.714 275.97 76.822C275.97 73.2729 272.074 53.7127 264.279 18.145V5.95898Z" fill="url(#paint15_linear_699_1193)"/>
<path d="M301.672 9.96631H302.22C303.72 9.96631 311.643 11.8505 325.987 15.6207H327.085C333.014 15.2552 338.667 15.0725 344.047 15.0725C348.585 15.0725 350.853 17.8905 350.853 23.5248C350.853 24.5135 352.17 29.2158 354.806 37.6316C348.548 34.9963 341.761 33.1121 334.441 31.9772V33.1304C336.234 36.314 337.935 45.1703 339.546 59.6974C342.437 67.4553 347.706 75.9278 355.354 85.1112C354.988 85.1112 354.806 85.294 354.806 85.6595C345.145 83.3915 337.789 82.2566 332.74 82.2566H329.337C321.835 69.8512 318.085 55.7262 318.085 39.8814C317.133 34.247 315.047 31.429 311.827 31.429C308.644 31.0635 306.008 30.8807 303.923 30.8807C303.265 30.8807 301.198 31.2462 297.72 31.9791C296.22 25.7581 295.471 19.5554 295.471 13.371V11.6696C295.471 10.5365 297.538 9.96814 301.673 9.96814L301.672 9.96631Z" fill="url(#paint16_linear_699_1193)"/>
<path d="M357.055 4.91553H361.392C386.495 4.91553 403.125 11.2279 411.287 23.8525C413.007 27.7324 413.868 30.8776 413.868 33.2936V39.3318C413.868 46.7242 409.568 51.8834 400.969 54.8111C400.382 54.8111 400.09 55.1035 400.09 55.6902C401.333 57.5195 408.798 63.8319 422.485 74.6272C415.238 83.8124 411.214 88.405 410.408 88.405C408.762 88.0011 401.022 80.5374 387.189 66.0103V66.8893C388.322 75.7456 389.75 83.4853 391.471 90.1083C389.349 90.1083 381.61 87.8202 368.252 83.2477L369.131 77.2095V74.629C369.131 61.4195 364.831 40.4704 356.233 11.7798L355.354 5.7964L357.055 4.91736V4.91553ZM376.871 21.272V22.1511C379.176 26.8351 381.464 34.2823 383.732 44.491H387.189C392.933 44.0889 395.806 42.3692 395.806 39.3318C395.806 30.1466 389.494 24.1267 376.869 21.2739L376.871 21.272Z" fill="url(#paint17_linear_699_1193)"/>
<defs>
<linearGradient id="paint0_linear_699_1193" x1="887.964" y1="-8.67746e-07" x2="210.792" y2="-328.292" gradientUnits="userSpaceOnUse">
<stop stop-color="#F9F5E0"/>
<stop offset="0.449733" stop-color="#F5895C"/>
<stop offset="1" stop-color="#B34ECC"/>
</linearGradient>
<linearGradient id="paint1_linear_699_1193" x1="887.964" y1="-8.67746e-07" x2="210.792" y2="-328.292" gradientUnits="userSpaceOnUse">
<stop stop-color="#F9F5E0"/>
<stop offset="0.449733" stop-color="#F5895C"/>
<stop offset="1" stop-color="#B34ECC"/>
</linearGradient>
<linearGradient id="paint2_linear_699_1193" x1="887.964" y1="-8.67746e-07" x2="210.792" y2="-328.292" gradientUnits="userSpaceOnUse">
<stop stop-color="#F9F5E0"/>
<stop offset="0.449733" stop-color="#F5895C"/>
<stop offset="1" stop-color="#B34ECC"/>
</linearGradient>
<linearGradient id="paint3_linear_699_1193" x1="887.964" y1="-8.67746e-07" x2="210.792" y2="-328.292" gradientUnits="userSpaceOnUse">
<stop stop-color="#F9F5E0"/>
<stop offset="0.449733" stop-color="#F5895C"/>
<stop offset="1" stop-color="#B34ECC"/>
</linearGradient>
<linearGradient id="paint4_linear_699_1193" x1="887.964" y1="-8.67746e-07" x2="210.792" y2="-328.292" gradientUnits="userSpaceOnUse">
<stop stop-color="#F9F5E0"/>
<stop offset="0.449733" stop-color="#F5895C"/>
<stop offset="1" stop-color="#B34ECC"/>
</linearGradient>
<linearGradient id="paint5_linear_699_1193" x1="887.964" y1="-8.67746e-07" x2="210.792" y2="-328.292" gradientUnits="userSpaceOnUse">
<stop stop-color="#F9F5E0"/>
<stop offset="0.449733" stop-color="#F5895C"/>
<stop offset="1" stop-color="#B34ECC"/>
</linearGradient>
<linearGradient id="paint6_linear_699_1193" x1="887.964" y1="-8.67746e-07" x2="210.792" y2="-328.292" gradientUnits="userSpaceOnUse">
<stop stop-color="#F9F5E0"/>
<stop offset="0.449733" stop-color="#F5895C"/>
<stop offset="1" stop-color="#B34ECC"/>
</linearGradient>
<linearGradient id="paint7_linear_699_1193" x1="887.964" y1="-8.67746e-07" x2="210.792" y2="-328.292" gradientUnits="userSpaceOnUse">
<stop stop-color="#F9F5E0"/>
<stop offset="0.449733" stop-color="#F5895C"/>
<stop offset="1" stop-color="#B34ECC"/>
</linearGradient>
<linearGradient id="paint8_linear_699_1193" x1="887.964" y1="-8.67746e-07" x2="210.792" y2="-328.292" gradientUnits="userSpaceOnUse">
<stop stop-color="#F9F5E0"/>
<stop offset="0.449733" stop-color="#F5895C"/>
<stop offset="1" stop-color="#B34ECC"/>
</linearGradient>
<linearGradient id="paint9_linear_699_1193" x1="887.964" y1="-8.67746e-07" x2="210.792" y2="-328.292" gradientUnits="userSpaceOnUse">
<stop stop-color="#F9F5E0"/>
<stop offset="0.449733" stop-color="#F5895C"/>
<stop offset="1" stop-color="#B34ECC"/>
</linearGradient>
<linearGradient id="paint10_linear_699_1193" x1="887.964" y1="-8.67746e-07" x2="210.792" y2="-328.292" gradientUnits="userSpaceOnUse">
<stop stop-color="#F9F5E0"/>
<stop offset="0.449733" stop-color="#F5895C"/>
<stop offset="1" stop-color="#B34ECC"/>
</linearGradient>
<linearGradient id="paint11_linear_699_1193" x1="887.964" y1="-8.67746e-07" x2="210.792" y2="-328.292" gradientUnits="userSpaceOnUse">
<stop stop-color="#F9F5E0"/>
<stop offset="0.449733" stop-color="#F5895C"/>
<stop offset="1" stop-color="#B34ECC"/>
</linearGradient>
<linearGradient id="paint12_linear_699_1193" x1="887.964" y1="-8.67746e-07" x2="210.792" y2="-328.292" gradientUnits="userSpaceOnUse">
<stop stop-color="#F9F5E0"/>
<stop offset="0.449733" stop-color="#F5895C"/>
<stop offset="1" stop-color="#B34ECC"/>
</linearGradient>
<linearGradient id="paint13_linear_699_1193" x1="887.964" y1="-8.67746e-07" x2="210.792" y2="-328.292" gradientUnits="userSpaceOnUse">
<stop stop-color="#F9F5E0"/>
<stop offset="0.449733" stop-color="#F5895C"/>
<stop offset="1" stop-color="#B34ECC"/>
</linearGradient>
<linearGradient id="paint14_linear_699_1193" x1="887.964" y1="-8.67746e-07" x2="210.792" y2="-328.292" gradientUnits="userSpaceOnUse">
<stop stop-color="#F9F5E0"/>
<stop offset="0.449733" stop-color="#F5895C"/>
<stop offset="1" stop-color="#B34ECC"/>
</linearGradient>
<linearGradient id="paint15_linear_699_1193" x1="887.964" y1="-8.67746e-07" x2="210.792" y2="-328.292" gradientUnits="userSpaceOnUse">
<stop stop-color="#F9F5E0"/>
<stop offset="0.449733" stop-color="#F5895C"/>
<stop offset="1" stop-color="#B34ECC"/>
</linearGradient>
<linearGradient id="paint16_linear_699_1193" x1="887.964" y1="-8.67746e-07" x2="210.792" y2="-328.292" gradientUnits="userSpaceOnUse">
<stop stop-color="#F9F5E0"/>
<stop offset="0.449733" stop-color="#F5895C"/>
<stop offset="1" stop-color="#B34ECC"/>
</linearGradient>
<linearGradient id="paint17_linear_699_1193" x1="887.964" y1="-8.67746e-07" x2="210.792" y2="-328.292" gradientUnits="userSpaceOnUse">
<stop stop-color="#F9F5E0"/>
<stop offset="0.449733" stop-color="#F5895C"/>
<stop offset="1" stop-color="#B34ECC"/>
</linearGradient>
</defs>
</svg>
